<?xml version="1.0" encoding="utf-8"?>
<!-- Generator: Adobe Illustrator 26.4.1, SVG Export Plug-In . SVG Version: 6.00 Build 0)  -->
<svg version="1.1" id="Слой_1" xmlns="http://www.w3.org/2000/svg" xmlns:xlink="http://www.w3.org/1999/xlink" x="0px" y="0px"
	 viewBox="0 0 1200 1200" style="enable-background:new 0 0 1200 1200;" xml:space="preserve">
<style type="text/css">
	.st0{fill:#3D3D3D;}
</style>
<g>
	<path class="st0" d="M1064.61,1076.6c-27.46-3.12-66.68-6.96-113.75-10.36c-23.53-1.69-49.03-3.3-76-4.75
		c-6.39-0.33-12.87-0.65-19.42-0.97l28.41-44.75H326.85l28.48,44.85c-33.95,1.65-65.87,3.59-94.8,5.69
		c-47.07,3.4-86.29,7.21-113.75,10.32c-13.73,1.49-24.51,3.02-31.87,3.91c-7.36,1.02-11.28,1.56-11.28,1.56s3.92,0.54,11.28,1.56
		c7.35,0.89,18.14,2.42,31.87,3.91c27.46,3.11,66.68,6.92,113.75,10.32c28.93,2.1,60.85,4.04,94.8,5.69l-28.48,44.85h557.01
		l-28.41-44.75c6.55-0.32,13.03-0.64,19.42-0.97c26.97-1.44,52.46-3.06,76-4.75c47.07-3.41,86.29-7.24,113.75-10.36
		c13.73-1.5,24.52-3.03,31.87-3.93c7.35-1.03,11.28-1.57,11.28-1.57s-3.92-0.55-11.28-1.57
		C1089.13,1079.63,1078.34,1078.09,1064.61,1076.6z M419.09,1129.58v-95.71h30.87v9.41h-18.88v30.24h17.71v9.51h-17.71v46.55H419.09
		z M517.45,1129.58h-30.99v-95.71h12.06v86.41h18.93V1129.58z M552.73,1129.58v-95.71h12.05v95.71H552.73z M638.98,1129.58
		l-1.63-7.4c-2.29,5.55-6.67,8.32-13.14,8.32c-6.46,0-11.25-2.35-14.36-7.04c-3.11-4.7-4.66-12.16-4.66-22.38v-40.13
		c0-14.07,3.57-22.8,10.72-26.21c2.8-1.3,5.86-1.98,9.21-2.01c6.25,0,10.78,1.24,13.57,3.72c2.8,2.49,4.6,5.76,5.42,9.84
		c0.82,4.08,1.22,9.04,1.22,14.87v7.4h-11.65v-12.45c0-4.89-0.53-8.39-1.6-10.5c-1.07-2.1-3.16-3.16-6.29-3.16
		c-3.12,0-5.33,1.33-6.61,3.97c-1.28,2.65-1.92,7.32-1.92,14.03v40.24c0,7.65,0.56,12.97,1.69,15.96c1.13,2.99,3.35,4.49,6.67,4.49
		s5.59-1.54,6.82-4.62c1.22-3.08,1.83-8.43,1.83-16.04v-12.45h-8.33v-8.7h19.4v50.25H638.98z M713.58,1129.58v-46.39h-16.43v46.39
		h-12.05v-95.71h12.05V1074h16.43v-40.13h12.06v95.71H713.58z M770.82,1129.58v-86.36h-11.3v-9.35h33.84v9.35h-10.54v86.36H770.82z"
		/>
	<polygon class="st0" points="84.13,349.6 131.63,374.23 136.24,365.34 88.74,340.71 92.16,334.12 84.94,330.38 73.36,352.72 
		80.57,356.46 	"/>
	<path class="st0" d="M162.89,320.61l-32.36-21.85c-1.67-1.12-2.75-2.35-3.25-3.69c-0.51-1.34-0.33-2.64,0.52-3.9
		c1.48-2.2,3.63-2.34,6.43-0.45l33.55,22.66l5.54-8.21l-34.28-23.15c-3.17-2.14-6.07-3.08-8.67-2.83c-2.61,0.26-4.83,1.74-6.65,4.43
		c-1.23,1.82-1.75,3.73-1.57,5.73c0.19,2,0.92,3.74,2.19,5.24l-12.98-8.76l-5.56,8.23l51.52,34.79L162.89,320.61z"/>
	<path class="st0" d="M168.51,250.85l14.74,12.88c3.53,3.08,6.76,5.14,9.68,6.16c4.59,1.59,8.97,0,13.14-4.76
		c2.9-3.31,4.32-6.46,4.27-9.42c-0.01-1.41-0.54-3.09-1.58-5.06c-1.04-1.97-3.35-4.52-6.94-7.65l-2.11-1.84l-6.46,7.4l3.48,3.04
		c1.41,1.23,2.48,2.23,3.22,3.01c0.74,0.78,1.28,1.77,1.61,2.95c0.18,0.68-0.18,1.53-1.07,2.55c-0.89,1.02-1.93,1.46-3.12,1.31
		c-1.19-0.14-3.16-1.41-5.91-3.81l-7.78-6.79l11.77-13.48l-8.47-7.4c-3.92-3.42-7.59-5.32-11.01-5.7
		c-3.42-0.38-6.81,1.35-10.17,5.19C159.53,236.65,160.42,243.79,168.51,250.85z M171.27,234.34l0.02-0.03
		c0.99-1.13,2.11-1.46,3.37-1.01c1.26,0.45,2.97,1.63,5.14,3.52l5.07,4.42l-5.29,6.05l-4.88-4.26c-0.84-0.74-1.51-1.35-2.01-1.85
		C170.03,238.57,169.56,236.29,171.27,234.34z"/>
	<path class="st0" d="M288.18,200.73l-7.95-10.5c1.28,0.41,2.64,0.52,4.09,0.33c1.44-0.19,2.77-0.74,3.97-1.65s2.18-1.92,2.92-3
		c1.29-1.86,1.71-4.14,1.27-6.84c-0.44-2.69-2.52-6.5-6.25-11.41l-11.57-15.27c-2.41-3.18-4.74-5.58-6.99-7.2
		c-2.25-1.62-4.62-2.15-7.11-1.58c-1.33,0.31-2.67,0.97-3.99,1.97c-1.32,1-2.32,2.34-2.98,3.99c-0.66,1.66-0.76,3.36-0.32,5.1
		l-2.86-3.77l-7.92,6l37.75,49.82L288.18,200.73z M277.47,185.1c-1.3-0.72-2.84-2.25-4.6-4.57l-13.41-17.7
		c-1.86-2.45-2.85-4.37-2.96-5.73c-0.11-1.37,0.44-2.5,1.63-3.41c0.68-0.51,1.35-0.79,2.01-0.82c1.48-0.07,3.5,1.57,6.03,4.92
		l13.16,17.36c1.86,2.46,3,4.42,3.41,5.87c0.42,1.46-0.03,2.69-1.35,3.68C280.08,185.69,278.77,185.83,277.47,185.1z"/>
	<path class="st0" d="M310.31,129.29l8.51-4.92l-1.18-2.03c-1.27-2.2-1.95-3.9-2.03-5.1c-0.08-1.19,0.55-2.18,1.9-2.96
		c1.35-0.78,2.48-0.84,3.36-0.18c0.89,0.66,2.04,2.22,3.47,4.69l2.3,3.97c-0.36,0.42-0.99,1.15-1.88,2.18
		c-0.9,1.03-1.59,1.83-2.09,2.42c-2.75,3.24-4.47,5.93-5.17,8.09c-1.09,3.3-0.52,6.89,1.72,10.77l1.68,2.91
		c2.36,3.97,4.83,6.64,7.43,7.98c2.6,1.35,5.49,1.09,8.67-0.74c1.73-1,2.93-2.34,3.6-4.01c0.67-1.67,0.82-3.32,0.44-4.97l2.61,4.52
		l8.67-5.01l-18.75-32.44c-2.62-4.53-5.51-7.39-8.67-8.58c-3.16-1.19-6.93-0.52-11.31,2.01c-4.38,2.54-6.79,5.43-7.2,8.69
		c-0.41,3.26,0.63,7.04,3.11,11.35L310.31,129.29z M338.19,142.74c0.32,0.95,0.33,1.96,0.04,3.03c-0.29,1.07-0.97,1.92-2.04,2.54
		c-1.07,0.62-2.11,0.61-3.12-0.04c-1.01-0.64-2.13-2.02-3.35-4.15l-2.82-4.89c-1.23-2.12-1.66-3.97-1.29-5.52
		c0.37-1.56,1.59-3.7,3.66-6.4L338.19,142.74z"/>
	<path class="st0" d="M366.22,90.1l4.19-1.83l14.67,33.64c1.23,2.83,2.65,4.57,4.25,5.24c1.6,0.67,4.01,0.3,7.21-1.1l6.19-2.7
		l-2.83-6.49c-2.2,0.96-3.69,1.42-4.46,1.37c-0.77-0.05-1.4-0.63-1.9-1.77l-14.03-32.17l5.02-2.19l-2.69-6.16l-5.02,2.19l-4.09-9.38
		l-9.11,3.97l4.09,9.38l-4.2,1.83L366.22,90.1z"/>
	<path class="st0" d="M446.11,107.28l-11.42-37.34c-0.59-1.92-0.66-3.55-0.21-4.91c0.45-1.36,1.4-2.26,2.86-2.71
		c2.54-0.78,4.3,0.46,5.29,3.69l11.84,38.71l9.47-2.9l-12.1-39.55c-1.12-3.66-2.78-6.21-4.97-7.65c-2.19-1.44-4.84-1.69-7.95-0.73
		c-2.1,0.64-3.71,1.8-4.82,3.47c-1.11,1.67-1.64,3.48-1.59,5.44l-4.58-14.97l-9.51,2.91l18.19,59.44L446.11,107.28z"/>
	<path class="st0" d="M536.82,42.17l4.55-0.46l3.69,36.51c0.31,3.07,1.13,5.16,2.45,6.28c1.32,1.13,3.72,1.51,7.21,1.16l6.72-0.68
		l-0.71-7.04c-2.39,0.24-3.94,0.22-4.66-0.06c-0.72-0.28-1.14-1.03-1.27-2.27l-3.53-34.91l5.45-0.55l-0.67-6.69l-5.45,0.55
		l-1.03-10.17l-9.89,1l1.03,10.17l-4.55,0.46L536.82,42.17z"/>
	<path class="st0" d="M611.09,83.57c2.68,0.05,4.94-0.3,6.81-1.04c4.86-1.93,7.36-7.27,7.5-16.03l0.32-19.64
		c0.18-11.23-4.42-16.92-13.79-17.07c-9.38-0.15-14.16,5.38-14.34,16.61l-0.32,19.65c-0.09,5.6,0.86,9.9,2.87,12.9
		C602.13,81.94,605.79,83.48,611.09,83.57z M607.62,44.91c0.04-2.59,0.36-4.52,0.96-5.78c0.59-1.26,1.67-1.88,3.22-1.86
		c1.55,0.03,2.6,0.69,3.16,1.98c0.56,1.29,0.81,3.22,0.77,5.79l-0.38,23.49c-0.04,2.52-0.35,4.41-0.93,5.68
		c-0.58,1.26-1.65,1.88-3.2,1.86c-0.83-0.01-1.51-0.2-2.06-0.56c-1.34-0.88-1.97-3.25-1.91-7.1L607.62,44.91z"/>
	<path class="st0" d="M716.3,94.79l6.61,1.37l1.43-6.93c-2.35-0.48-3.83-0.96-4.43-1.45c-0.6-0.48-0.78-1.32-0.53-2.54l7.07-34.37
		l5.36,1.11l1.36-6.59l-5.36-1.1l2.06-10.02l-9.74-2l-2.06,10.01l-4.48-0.92l-1.36,6.59l4.48,0.92l-7.4,35.95
		c-0.62,3.02-0.47,5.26,0.45,6.72C710.69,93,712.87,94.08,716.3,94.79z"/>
	<path class="st0" d="M779.83,70.94c0.63-1.91,1.51-3.29,2.66-4.14c1.15-0.85,2.45-1.04,3.9-0.56c2.52,0.83,3.25,2.85,2.19,6.07
		l-12.63,38.46l9.41,3.09l12.91-39.29c1.2-3.64,1.31-6.68,0.35-9.12c-0.96-2.44-2.99-4.17-6.07-5.18c-2.09-0.69-4.07-0.67-5.94,0.05
		c-1.87,0.73-3.35,1.9-4.44,3.54l4.89-14.87l-9.44-3.1l-19.4,59.06l9.44,3.1L779.83,70.94z"/>
	<path class="st0" d="M832.7,134.43c3.98,1.88,7.39,2.4,10.23,1.55c1.35-0.39,2.83-1.36,4.44-2.89c1.61-1.54,3.44-4.46,5.48-8.76
		l1.2-2.53l-8.88-4.21l-1.98,4.18c-0.8,1.69-1.48,3-2.03,3.92c-0.55,0.93-1.35,1.71-2.4,2.35c-0.61,0.35-1.53,0.25-2.75-0.33
		c-1.22-0.58-1.92-1.46-2.11-2.64c-0.18-1.19,0.5-3.43,2.06-6.72l4.43-9.34l16.17,7.67l4.81-10.16c2.23-4.71,3.06-8.76,2.5-12.15
		c-0.57-3.4-3.15-6.19-7.76-8.37c-8.65-4.1-15.28-1.3-19.88,8.4l-8.39,17.69c-2.01,4.24-3.11,7.9-3.3,10.99
		C824.27,127.94,826.98,131.72,832.7,134.43z M845.46,98.23c0.48-1.01,0.89-1.83,1.24-2.44c1.77-3.27,3.83-4.35,6.18-3.23l0.03,0.02
		c1.36,0.64,1.99,1.63,1.89,2.97c-0.1,1.34-0.76,3.3-1.99,5.9l-2.88,6.08l-7.25-3.44L845.46,98.23z"/>
	<path class="st0" d="M924.04,189.67c3.66,2.75,7.03,3.87,10.12,3.39c3.09-0.49,5.98-2.52,8.67-6.11
		c3.43-4.57,4.39-10.41,2.86-17.51l-1.55-6.81c-0.69-3.5-0.2-6.35,1.46-8.57c1.05-1.4,2.05-2.21,2.99-2.4
		c0.95-0.19,1.95,0.11,3.02,0.91c1.07,0.81,1.49,1.84,1.25,3.11c-0.23,1.27-1.06,2.86-2.49,4.76l-2.08,2.77l7.11,5.34l1.72-2.3
		c3.28-4.37,4.81-8.11,4.59-11.21c-0.22-3.1-2.09-5.97-5.61-8.61c-7.08-5.31-13.2-4.53-18.36,2.34c-3.2,4.25-4.12,9.35-2.79,15.28
		c0.06,0.34,0.32,1.46,0.77,3.38c0.45,1.92,0.69,2.94,0.72,3.08c0.97,4.46,0.4,8.09-1.7,10.9c-1.19,1.59-2.27,2.53-3.25,2.83
		c-0.98,0.3-2.01,0.04-3.08-0.76c-2.04-1.53-1.66-4.16,1.14-7.9l2.55-3.39l-7.47-5.6l-2.04,2.71c-3.24,4.32-4.72,8.1-4.44,11.36
		C918.41,183.93,920.37,186.93,924.04,189.67z"/>
	<path class="st0" d="M975.19,232.86l4.83-5.17c-1.75-1.64-2.76-2.82-3.03-3.55c-0.26-0.73,0.03-1.54,0.87-2.44l23.96-25.64l4,3.74
		l4.59-4.91l-4-3.74l6.98-7.47l-7.26-6.79l-6.98,7.48l-3.34-3.13l-4.59,4.91l3.34,3.13l-25.06,26.81c-2.11,2.25-3.15,4.24-3.12,5.98
		c0.02,1.73,1.32,3.79,3.87,6.19L975.19,232.86z"/>
	<path class="st0" d="M1010.65,249.12c-3.48,3.04-5.64,5.96-6.49,8.76c-0.85,2.8-0.07,5.6,2.32,8.39c1.3,1.52,2.83,2.46,4.59,2.81
		c1.76,0.35,3.42,0.19,4.97-0.47l-3.97,3.39l6.51,7.61l28.48-24.35c3.98-3.4,6.26-6.76,6.86-10.09c0.6-3.32-0.75-6.91-4.04-10.76
		c-3.29-3.85-6.58-5.68-9.86-5.49c-3.28,0.19-6.81,1.9-10.59,5.13l-1.2,1.03l6.39,7.47l1.78-1.53c1.94-1.65,3.48-2.63,4.64-2.93
		c1.16-0.3,2.25,0.14,3.26,1.33c1.02,1.19,1.28,2.28,0.79,3.27c-0.49,1-1.81,2.42-3.98,4.27l-3.49,2.98
		c-0.48-0.28-1.31-0.76-2.48-1.45c-1.18-0.69-2.09-1.23-2.76-1.61c-3.69-2.12-6.65-3.32-8.89-3.6c-3.45-0.48-6.87,0.74-10.28,3.66
		L1010.65,249.12z M1013.71,260.91c0.45-1.11,1.61-2.46,3.47-4.05l4.28-3.66c1.86-1.6,3.59-2.35,5.2-2.27
		c1.6,0.08,3.92,0.89,6.97,2.43l-13.55,11.59c-0.88,0.48-1.87,0.68-2.97,0.59c-1.11-0.09-2.06-0.61-2.87-1.55
		C1013.44,263.05,1013.26,262.02,1013.71,260.91z"/>
	<path class="st0" d="M1047.33,318.87l34.54-23.32c1.3-0.16,2.75,0.39,4.35,1.63c1.6,1.25,2.96,2.7,4.08,4.35l1.65-1.07
		c3.25-2.2,4.85-3.34,4.79-3.42c-1.37-2.03-2.99-3.4-4.84-4.13c-1.86-0.72-3.82-0.78-5.88-0.17l4.84-3.27l-5.61-8.3l-43.53,29.4
		L1047.33,318.87z"/>
	<path class="st0" d="M1095.81,352.84c-0.41,1.92-0.64,2.95-0.67,3.08c-1.04,4.44-3.11,7.48-6.21,9.11
		c-1.76,0.92-3.14,1.31-4.15,1.17c-1.02-0.15-1.83-0.82-2.46-2.02c-1.19-2.25,0.28-4.47,4.42-6.65l3.75-1.97l-4.35-8.27l-3.01,1.58
		c-4.78,2.51-7.74,5.3-8.88,8.36c-1.15,3.06-0.66,6.62,1.47,10.67c2.13,4.05,4.69,6.52,7.69,7.4c2.99,0.88,6.48,0.28,10.45-1.8
		c5.06-2.66,8.43-7.53,10.1-14.59l1.52-6.82c0.88-3.46,2.54-5.82,5-7.12c1.55-0.81,2.8-1.1,3.73-0.88c0.94,0.23,1.72,0.94,2.34,2.12
		c0.63,1.18,0.56,2.3-0.2,3.35c-0.76,1.04-2.19,2.12-4.29,3.23l-3.07,1.61l4.13,7.87l2.55-1.34c4.83-2.54,7.81-5.26,8.95-8.15
		c1.13-2.9,0.67-6.29-1.38-10.19c-4.12-7.84-9.98-9.75-17.58-5.76c-4.71,2.48-7.74,6.68-9.08,12.61
		C1096.47,349.78,1096.22,350.91,1095.81,352.84z"/>
	<path class="st0" d="M1165,684.35c0-15.79-12.85-28.64-28.64-28.64H741.57v-50.2c21.45-12.36,20.87-32.53,20.6-41.74
		c-0.03-1-0.06-1.96-0.06-2.86c0-50.4-41.17-79.31-112.95-79.31c-3.07,0-5.94,0.06-8.54,0.15l-12.46-299.57
		c-0.32-7.62-6.58-13.63-14.21-13.63h-8.26h-8.26c-7.62,0-13.89,6.01-14.21,13.63l-12.47,299.57c-2.6-0.09-5.47-0.15-8.54-0.15
		c-18.62,0-45.57,2.14-68.27,12.32c-29.23,13.11-44.68,36.28-44.68,67c0,0.9-0.03,1.86-0.06,2.86c-0.27,9.21-0.86,29.38,20.6,41.74
		v50.2H75.02c-15.79,0-28.64,12.85-28.64,28.64c0,15.6,12.19,28.17,27.76,28.62c59.32,1.73,286.34,33.19,362.55,50.23
		c90.16,20.17,115.62,22.86,169,22.86c53.38,0,78.84-2.69,169-22.86c76.21-17.05,303.23-48.5,362.55-50.23
		C1152.81,712.52,1165,699.95,1165,684.35z M1132.69,699.08c-2.69,0.23-6.65,0.45-11.67,0.94c-5.02,0.52-11.12,1.01-18.09,1.84
		c-6.98,0.81-14.85,1.71-23.43,2.71c-17.18,1.93-37.16,4.7-58.59,7.42c-21.43,2.77-44.27,5.89-67.09,9.16
		c-22.84,3.09-45.66,6.35-67.03,9.56c-21.37,3.19-41.33,6.11-58.4,8.86c-8.53,1.38-16.35,2.65-23.28,3.78
		c-6.92,1.19-12.95,2.23-17.92,3.08c-9.92,1.84-15.59,2.89-15.59,2.89s5.61-1.32,15.44-3.62c9.87-2.1,23.98-5.14,41-8.26
		c8.52-1.52,17.74-3.17,27.5-4.91c9.77-1.64,20.06-3.51,30.76-5.12c21.36-3.37,44.17-6.81,67.01-10.08
		c22.86-3.12,45.74-6.05,67.2-8.67c21.47-2.59,41.56-4.64,58.78-6.26c8.6-0.89,16.52-1.44,23.53-1.97
		c7.01-0.57,13.14-0.83,18.17-1.16c5.04-0.33,9.01-0.29,11.71-0.4c2.7-0.07,4.14-0.11,4.14-0.11S1135.39,698.87,1132.69,699.08z
		 M406.28,743.36c-6.93-1.13-14.75-2.4-23.29-3.78c-17.07-2.75-37.03-5.65-58.4-8.86c-21.37-3.21-44.19-6.46-67.03-9.56
		c-22.82-3.29-45.66-6.39-67.09-9.17c-21.43-2.73-41.42-5.49-58.6-7.43c-8.59-0.99-16.46-1.9-23.43-2.71
		c-6.98-0.83-13.07-1.32-18.09-1.84c-5.02-0.5-8.98-0.71-11.67-0.94c-2.69-0.2-4.13-0.31-4.13-0.31s1.44,0.04,4.14,0.11
		c2.7,0.11,6.67,0.07,11.7,0.41c5.03,0.34,11.17,0.59,18.18,1.16c7.01,0.54,14.93,1.09,23.53,1.98c17.23,1.62,37.31,3.68,58.78,6.26
		c21.47,2.61,44.35,5.55,67.2,8.67c22.84,3.26,45.65,6.7,67.01,10.07c21.37,3.33,41.23,6.97,58.26,10.03
		c17.02,3.12,31.12,6.17,40.99,8.27c9.83,2.31,15.44,3.63,15.44,3.63s-5.67-1.05-15.59-2.89
		C419.24,745.59,413.21,744.55,406.28,743.36z M484.04,669.94v-62.63c0.05-0.58,0.12-1.47,0.22-2.67c0.07-1.09,0.16-2.42,0.25-3.94
		c0.03-1.53,0.35-3.22,0.59-5.07c0.32-1.84,0.43-3.88,0.87-5.97c0.42-2.1,0.87-4.31,1.33-6.6c0.63-2.25,1.28-4.57,1.95-6.93
		c0.86-2.29,1.57-4.69,2.49-7.01c1.02-2.27,1.86-4.64,3.02-6.81c1.07-2.22,2.16-4.38,3.39-6.39c1.11-2.08,2.47-3.9,3.59-5.75
		c1.24-1.76,2.37-3.49,3.49-5.01c1.11-1.54,2.14-2.97,3.09-4.2c0.95-1.25,1.78-2.35,2.47-3.24c1.45-1.78,2.28-2.79,2.28-2.79
		s-1.26,0.46-3.27,1.65c-2.03,1.16-4.78,3.08-7.7,5.81c-2.94,2.71-6.02,6.26-8.84,10.39c-1.48,2.03-2.84,4.23-4.17,6.51
		c-1.44,2.22-2.46,4.71-3.72,7.08c-1.12,2.43-2.11,4.93-3.1,7.38c-0.8,2.52-1.58,5-2.34,7.39c-0.58,2.45-1.14,4.81-1.67,7.05
		c-0.46,1.82-0.66,3.57-0.88,5.24c-16.35-9.13-13.89-23.33-13.89-32.5c0-57.27,63.84-65.09,98.73-65.09
		c6.39,0,11.77,0.26,15.65,0.53c0.09,0.71,0.19,1.49,0.05,2.25c-0.07,0.8-0.08,1.68-0.4,2.49c-0.12,0.43-0.24,0.87-0.37,1.31
		l-0.64,1.25c-0.36,0.91-1.07,1.62-1.65,2.46c-0.7,0.73-1.41,1.51-2.23,2.15c-0.82,0.65-1.65,1.29-2.55,1.79
		c-1.74,1.09-3.55,1.86-5.12,2.47c-3.17,1.17-5.45,1.55-5.45,1.55s2.29,0.11,5.75-0.38c3.42-0.52,8.13-1.69,12.23-4.74
		c0.94-0.85,2.02-1.6,2.77-2.66l1.22-1.51c0.31-0.57,0.62-1.12,0.92-1.67c0.68-1.09,1-2.26,1.34-3.38c0.37-0.99,0.49-1.93,0.59-2.82
		l0.02,0l0.01-0.27c0-0.03,0.01-0.06,0.01-0.09c0.08-0.98,0.31-1.95,0.22-2.72c-0.02-0.51-0.04-0.9-0.06-1.32l12.89-309.77h8.26
		v321.67c0,0,9.91-2.81,21.33-7.51c0,0,9.02-1.11,22.14-1.11c15.01,0,35.37,1.46,53.71,7.67c-3.25,2.55-3.85,9.82-2.68,17.93
		c-2.05-1.15-4.18-2.22-6.42-3.22c-5.77-2.49-12.09-4.35-18.43-5.78c-12.7-2.85-25.52-3.79-35.1-4.11
		c-9.58-0.3-15.94,0.06-15.94,0.06s6.37,0.36,15.78,1.74c9.39,1.39,21.9,3.78,33.68,7.89c5.88,2.04,11.58,4.47,16.49,7.29
		c2.43,1.44,4.71,2.9,6.67,4.45c0.17,0.13,0.32,0.27,0.49,0.41c-12.36-7.75-27.01-12.66-41.71-15.06
		c-16.23-2.75-32.57-2.91-47.61-2.58c-7.6,0.17-14.79,0.45-21.82,1.12c-6.93,0.73-13.45,1.58-19.42,2.74
		c-5.98,1.07-11.35,2.65-16.08,4.05c-4.7,1.52-8.73,3.06-11.91,4.62c-3.19,1.54-5.62,2.88-7.18,3.97c-1.57,1.06-2.32,1.72-2.32,1.72
		s3.45-2.12,10.06-4.29c3.3-1.1,7.39-2.14,12.09-3.24c4.74-0.96,10.1-1.89,16.01-2.54c5.89-0.77,12.32-1.21,19.11-1.51
		c3.39-0.06,6.88-0.13,10.44-0.2c3.59,0.03,7.36-0.02,11,0.08c14.95,0.26,30.78,1.08,46.06,4.3c15.24,3.18,29.84,8.86,41.18,17.3
		c11.41,8.38,19.13,19.33,23.72,29.59c1.28,2.5,2.08,5.12,3.05,7.5c0.83,2.45,1.48,4.82,2.17,7.02c0.52,2.26,1.01,4.37,1.46,6.33
		c0.15,0.77,0.27,1.49,0.39,2.21c-0.17-0.56-0.32-1.12-0.5-1.67c-1.13-3.1-1.99-6.2-3.28-9.07c-1.16-2.91-2.36-5.68-3.69-8.22
		c-1.19-2.6-2.7-4.89-3.94-7.04c-1.41-2.07-2.68-3.96-4.01-5.5c-1.25-1.58-2.52-2.83-3.57-3.81c-2.12-1.97-3.62-2.71-3.62-2.71
		s1.36,0.95,3.13,3.16c0.88,1.1,1.92,2.48,2.89,4.18c1.05,1.65,2,3.66,3.05,5.82c0.89,2.25,1.98,4.6,2.75,7.27
		c0.91,2.6,1.66,5.41,2.35,8.33c0.82,2.88,1.2,6,1.84,9.07c0.54,3.1,0.85,6.32,1.29,9.47c0.34,3.19,0.51,6.4,0.77,9.54
		c0.27,3.13,0.23,6.27,0.35,9.26c0.3,5.98-0.08,11.65-0.07,16.43c-0.03,2.4-0.23,4.62-0.32,6.57c-0.06,1.14-0.12,2.17-0.18,3.13
		l-22.8,24.18l13.77-4.2l-29.94,29.54l22.42-9.7L679,707.27c-14.19-30.84-33.84-45.05-73.31-45.05c-39.47,0-59.12,14.21-73.31,45.05
		l-33.98-26.23c0.13,3.63,0.36,7.77,0.81,12.18c0.47,4.78,1.16,9.86,2.17,14.88c0.42,2.54,1.13,4.99,1.7,7.45
		c0.6,2.45,1.44,4.78,2.12,7.1c0.82,2.26,1.71,4.4,2.51,6.47c0.99,1.98,1.93,3.84,2.79,5.57c0.98,1.66,2,3.11,2.85,4.45
		c0.8,1.38,1.8,2.33,2.51,3.22c1.49,1.73,2.35,2.73,2.35,2.73s-0.98-0.87-2.7-2.38c-0.84-0.78-2-1.62-2.99-2.89
		c-1.04-1.22-2.29-2.57-3.53-4.13c-1.13-1.64-2.36-3.42-3.66-5.31c-1.11-1.99-2.35-4.07-3.51-6.29c-1.03-2.26-2.24-4.58-3.21-7.01
		c-0.93-2.45-2.03-4.91-2.83-7.45c-1.78-5.05-3.21-10.2-4.39-15.07c-1.19-4.87-2.08-9.47-2.76-13.43c-0.56-3.43-0.98-6.33-1.26-8.59
		L484.04,669.94c0,0,0.22,1.98,0.6,5.45c0.42,3.45,1.09,8.33,2.07,14.08c0.53,2.87,1.14,5.96,1.84,9.19
		c0.7,3.23,1.63,6.58,2.57,10.02c0.95,3.44,2.21,6.9,3.49,10.37c1.35,3.45,2.79,6.91,4.52,10.22c1.63,3.36,3.56,6.54,5.56,9.59
		c0.97,1.55,2.13,2.94,3.13,4.44c1.09,1.42,2.23,2.77,3.34,4.12c1.2,1.27,2.37,2.52,3.52,3.75c1.22,1.17,2.41,2.32,3.57,3.44
		c2.47,2.08,4.83,4.05,7.17,5.72c2.34,1.65,4.57,3.1,6.58,4.36c2.08,1.11,3.82,2.32,5.37,3.08c3.07,1.57,4.84,2.59,4.84,2.59
		s-1.98-0.2-5.49-0.77c-1.75-0.27-3.82-0.86-6.22-1.51c-2.36-0.73-5.05-1.63-7.84-2.93c-1.39-0.67-2.85-1.38-4.35-2.11
		c-1.43-0.87-2.92-1.77-4.44-2.7c-1.46-1.04-2.95-2.12-4.48-3.21c-1.49-1.15-2.87-2.5-4.36-3.79c-2.77-2.77-5.61-5.71-8.01-9.08
		c-2.45-3.32-4.65-6.9-6.52-10.63c-1.88-3.73-3.46-7.58-4.72-11.45c-1.3-3.86-2.18-7.77-2.93-11.53c-0.8-4.13-1.25-8.11-1.48-11.89
		l-253.57-19.8l184.61,29.8L95.77,669.94H484.04z M823.42,691.57c2.08-1.71,3.3-3.57,3.3-5.59c0-8.9-2.73-13.52-7.8-16.05h296.52
		l-309.4,37.92l179.11-28.91L823.42,691.57z M726.13,669.94c0,0,1.21,7.86,0.63,19.77c-0.38,5.93-1.05,12.88-2.76,20.15
		c-1.71,7.25-4.17,14.89-7.78,22.03c-1.79,3.57-3.9,6.98-6.16,10.19c-2.26,3.22-4.8,6.16-7.37,8.88c-1.37,1.28-2.66,2.6-4.02,3.78
		c-1.41,1.12-2.78,2.22-4.13,3.29c-1.41,0.97-2.79,1.91-4.12,2.82c-1.39,0.81-2.73,1.6-4.02,2.35c-2.6,1.45-5.11,2.57-7.34,3.49
		c-2.28,0.82-4.21,1.66-5.88,2.13c-3.32,0.97-5.22,1.53-5.22,1.53s1.86-0.67,5.11-1.83c3.22-1.24,7.72-3.28,12.79-6.26
		c1.24-0.78,2.54-1.6,3.88-2.45c1.27-0.94,2.59-1.91,3.95-2.91c1.28-1.09,2.59-2.21,3.93-3.36c1.26-1.23,2.55-2.48,3.87-3.76
		c2.48-2.69,4.93-5.58,7.1-8.75c2.18-3.16,4.2-6.52,5.92-10.02c3.61-6.93,6.11-14.42,7.88-21.55c1.76-7.14,2.77-13.96,3.31-19.84
		C726.78,677.86,726.13,669.94,726.13,669.94z M124.54,681.72c8.27,0.58,17.23,1.22,26.68,2.08c9.46,0.81,19.44,1.66,29.74,2.73
		c10.3,1.09,20.96,2.06,31.75,3.37c10.8,1.29,21.76,2.6,32.73,3.91c10.95,1.48,21.89,2.97,32.67,4.43
		c10.78,1.42,21.34,3.16,31.58,4.72c10.24,1.53,20.11,3.23,29.47,4.86c9.36,1.58,18.2,3.18,26.34,4.76
		c16.3,3.05,29.83,5.92,39.28,8.04c9.45,2.11,14.83,3.43,14.83,3.43s-5.53-0.35-15.18-1.15c-9.64-0.84-23.41-2.04-39.88-3.74
		c-8.23-0.86-17.16-1.79-26.59-2.78c-9.42-1.05-19.36-2.16-29.64-3.31c-10.26-1.26-20.9-2.33-31.67-3.74
		c-10.78-1.33-21.72-2.68-32.67-4.03c-10.94-1.44-21.87-2.89-32.64-4.3c-10.77-1.35-21.34-2.96-31.59-4.35
		c-10.25-1.35-20.14-2.91-29.52-4.28c-9.38-1.44-18.25-2.8-26.43-4.05c-32.73-5.12-54.48-9.35-54.48-9.35
		S91.47,679.32,124.54,681.72z M602.46,689.2c-2,0.11-3.9,0.31-5.72,0.58c-1.84,0.19-3.7,0.52-5.56,0.89
		c-3.73,0.6-7.29,1.63-10.71,2.72c-3.36,1.22-6.61,2.48-9.54,4.09c-3.01,1.49-5.67,3.36-8.2,5.19c-1.23,0.95-2.35,2.01-3.49,2.97
		c-1.09,1.05-2.13,2.06-3.14,3.03c-0.92,1.06-1.9,2.02-2.82,2.97c-0.87,0.98-1.68,1.94-2.5,2.8c-1.6,1.82-2.99,3.41-4.14,4.71
		c-2.24,2.71-3.78,4.21-3.78,4.21s0.2-2.09,1.05-5.64c0.53-1.72,1.07-3.9,2.09-6.23c0.91-2.39,2.27-4.95,3.92-7.69
		c0.91-1.31,1.86-2.69,2.9-4.09c1.16-1.3,2.31-2.7,3.63-4.04c2.66-2.63,5.68-5.32,9.28-7.37c3.51-2.21,7.49-3.8,11.56-5.1
		c4.11-1.12,8.33-1.95,12.53-2.36c2.09-0.21,4.2-0.37,6.32-0.39c2.15-0.09,4.2-0.11,6.13-0.02l2.94,0.08
		c1.18,0.04,2.05,0.14,3.08,0.2c1.98,0.14,3.94,0.36,5.86,0.6c7.68,0.98,14.81,2.85,20.49,5.41c5.73,2.48,9.89,5.63,12.59,7.91
		c1.35,1.18,2.32,2.17,2.96,2.87c0.65,0.69,0.99,1.05,0.99,1.05s-1.69-1.16-4.71-2.81c-3.03-1.68-7.58-3.6-13.21-4.96
		c-5.63-1.38-12.35-2.08-19.59-2.08c-1.81,0-3.65,0.03-5.52,0.13c-0.9,0.05-1.96,0.08-2.73,0.15L602.46,689.2z"/>
	<path class="st0" d="M532.64,599.6c0.68-0.16,1.39-0.3,2.08-0.46c-0.23-2.2-0.43-4.42-0.53-6.65c-0.18-2.63-0.26-5.26-0.25-7.84
		c-0.04-2.59-0.05-5.15,0.08-7.6c0.11-2.46,0.13-4.87,0.32-7.12c0.18-2.26,0.35-4.39,0.51-6.36c0.03-0.47,0.08-0.89,0.12-1.34
		c-1.87,0.35-3.71,0.69-5.52,1.01C510.72,566.01,517.98,602.86,532.64,599.6z"/>
	<path class="st0" d="M548.66,586.42c0.57-2.5,1.24-4.98,1.98-7.39c0.69-2.43,1.41-4.82,2.22-7.08c0.8-2.26,1.49-4.5,2.3-6.55
		c0.8-2.05,1.57-4,2.27-5.79c0.19-0.51,0.39-0.97,0.58-1.45c-1.47,0.21-2.89,0.42-4.28,0.64c-0.72,2-1.87,4.74-2.94,8.09
		c-0.58,1.75-1.2,3.65-1.86,5.66c-0.67,2.02-1.2,4.16-1.85,6.39c-0.67,2.22-1.22,4.54-1.75,6.9c-0.59,2.36-1.1,4.78-1.51,7.21
		c-0.29,1.46-0.48,2.92-0.7,4.38c1.14-0.21,2.28-0.43,3.44-0.63C547.12,593.38,547.77,589.89,548.66,586.42z"/>
	<path class="st0" d="M678.07,572.81c0.29,2.2,0.4,4.56,0.63,6.97c0.24,2.41,0.34,4.92,0.42,7.46c0.13,2.54,0.17,5.12,0.1,7.71
		c0,1.57-0.09,3.12-0.16,4.68c14.45,2.68,21.48-33.65,2.87-36.4c-1.73-0.3-3.48-0.62-5.26-0.96c0.22,1.32,0.44,2.74,0.63,4.32
		C677.53,568.52,677.8,570.6,678.07,572.81z"/>
	<path class="st0" d="M554.98,580.52c-0.95,2.27-1.83,4.61-2.61,6.99c-1.06,2.91-1.92,5.85-2.71,8.77
		c19.93-3.32,41.98-5.29,56.04-5.43c16.99,0.16,45.61,3,68.09,7.67c-0.12-1.07-0.19-2.14-0.35-3.22c-0.29-2.47-0.68-4.92-1.16-7.33
		c-0.42-2.41-0.86-4.77-1.42-7.04c-0.54-2.27-0.97-4.47-1.54-6.53c-0.57-2.06-1.1-4.01-1.59-5.8c-0.94-3.54-2-6.43-2.62-8.5
		c-13.9-2.53-31.47-5.01-59.4-4.81c-16.26-0.12-28.97,0.68-39.53,1.86c-0.85,1.5-1.82,3.22-2.81,5.21c-0.85,1.67-1.76,3.48-2.73,5.4
		c-0.98,1.92-1.84,4-2.83,6.13C556.78,575.99,555.88,578.23,554.98,580.52z"/>
	<path class="st0" d="M689.6,671.92c-0.64-1.38-1.36-2.91-2.13-4.58c-0.89-1.61-1.84-3.35-2.87-5.22c-1.04-1.86-2.35-3.72-3.64-5.75
		c-1.35-1.99-2.98-3.94-4.6-6.04c-3.54-3.94-7.53-8.23-12.64-11.7c-5.02-3.53-10.73-6.87-17.09-9.05c-6.3-2.3-13.03-4.11-19.95-4.98
		c-6.95-1.07-13.86-1.32-21.07-1.49c-6.76,0.16-13.96,0.41-20.89,1.48c-6.92,0.86-13.66,2.67-19.96,4.98
		c-6.36,2.19-12.07,5.52-17.09,9.05c-5.12,3.48-9.11,7.77-12.64,11.71c-1.62,2.1-3.25,4.05-4.6,6.04c-1.28,2.04-2.59,3.89-3.63,5.75
		c-1.02,1.86-1.98,3.6-2.87,5.22c-0.77,1.66-1.48,3.19-2.13,4.57c-1.34,2.72-2.03,5.02-2.67,6.51c-0.58,1.51-0.9,2.31-0.9,2.31
		s0.44-0.74,1.27-2.13c0.86-1.37,1.98-3.46,3.64-5.96c0.82-1.26,1.72-2.65,2.7-4.16c1.05-1.46,2.19-3.03,3.4-4.72
		c2.5-3.31,5.53-6.83,9.03-10.43c3.69-3.39,7.73-7.02,12.6-9.93c4.84-2.94,10.21-5.58,16.13-7.42c5.87-1.94,12.19-3.2,18.71-4
		c6.49-0.92,13.08-1.07,20.07-1.16c6.54,0.08,13.42,0.23,19.88,1.15c6.52,0.79,12.84,2.06,18.71,4c5.92,1.84,11.29,4.47,16.13,7.42
		c4.88,2.92,8.91,6.54,12.6,9.93c3.5,3.6,6.54,7.12,9.03,10.43c1.21,1.68,2.35,3.26,3.4,4.72c0.98,1.51,1.88,2.9,2.69,4.15
		c1.66,2.49,2.79,4.61,3.65,5.97c0.83,1.39,1.27,2.13,1.27,2.13s-0.31-0.81-0.9-2.31C691.62,676.92,690.95,674.65,689.6,671.92z"/>
	<path class="st0" d="M212.22,815c20.81,4.14,33.43,13.99,47.78,25.09c2.65-15.23,5.29-30.46,7.94-45.69
		c-11.35-10.27-32.91-19.68-53.79-23.96c-34.95-7.06-72,4.24-80.63,39.32c-4.84,20.12-1.72,42.17,28.13,58.25
		c8.37,4.46,16.77,8.86,25.23,13.22c9.63,4.86,15.48,9.65,14.49,14.68c-1.38,7.04-11.05,7.76-24.21,5.02
		c-21.46-4.47-41.28-17.88-56.43-34.17c-3.6,15.03-7.2,30.06-10.81,45.1c14.45,14.55,36.9,27.8,60.28,32.64
		c45.45,9.45,85.5-7.97,90.71-40.31c2.71-16.21-4.84-35.77-30.16-50.1c-6.28-3.52-12.53-7.07-18.75-10.65
		c-14.52-8.35-26.02-13.95-24.26-22.22C189.42,813.43,200.17,812.59,212.22,815z"/>
	<path class="st0" d="M375.24,921.98c7.91,4.76,19.15,9.06,33.89,10.47c37.77,3.66,74.86-17.53,77.03-57.19
		c2.18-40.41-33.86-66.93-70.31-70.6c-25.98-2.55-51.92-5.62-77.81-9.2c-7.83,56.68-15.67,113.36-23.5,170.04
		c18.32,2.53,36.67,4.83,55.04,6.89C371.47,955.59,373.35,938.79,375.24,921.98z M383.72,846.37c7.21,0.81,14.42,1.58,21.64,2.31
		c16.36,1.65,28.07,8.56,26.88,22.61c-1.04,12.25-14.48,22.17-31.24,20.47c-8.22-0.83-15.71-3.19-21.7-5.92
		C380.77,872.68,382.24,859.52,383.72,846.37z"/>
	<path class="st0" d="M575.73,962.53c20.7,0.34,41.4,0.38,62.09,0.11c3.32,7.65,6.67,15.29,10.06,22.92
		c21.51-0.37,43.02-1.06,64.51-2.07c-33.29-56.57-64.15-113.91-92.55-171.85c-8.53,0.04-17.06,0.02-25.59-0.05
		c-28.61,57.84-59.68,115.06-93.18,171.51c21.49,1.09,43,1.86,64.51,2.31C569,977.79,572.38,970.16,575.73,962.53z M606.91,889.03
		c4.69,11.79,9.47,23.57,14.32,35.33c-9.68,0.05-19.37,0.03-29.05-0.06C597.17,912.56,602.08,900.81,606.91,889.03z"/>
	<path class="st0" d="M853.78,976.05c20.67-2.33,38.33-9.8,50.12-21.51c-2.1-15.31-4.21-30.63-6.32-45.94
		c-13.67,12.98-24.56,20.1-46.81,22.67c-26.12,2.99-51.02-14.11-53.21-39.64c-2.19-25.53,18.26-46.61,43.07-49.46
		c21.32-2.45,33.03,1.68,49.28,10.59c-2.11-15.31-4.21-30.63-6.32-45.94c-13.62-8.21-30.98-11.12-49.92-8.99
		c-48.91,5.64-93.73,41.21-90.57,97.99C746.24,952.63,799.68,982.26,853.78,976.05z"/>
	<path class="st0" d="M1020.38,904.98c-1.8-9.13-3.59-18.27-5.39-27.4c25.05-4.93,50.04-10.32,74.94-16.17
		c-2.73-11.64-5.47-23.28-8.2-34.92c-24.48,5.75-49.04,11.05-73.66,15.89c-1.75-8.88-3.49-17.77-5.24-26.65
		c27.5-5.41,54.91-11.39,82.22-17.95c-3.09-12.87-6.18-25.74-9.27-38.61c-43.41,10.42-87.08,19.36-130.95,26.83
		c9.6,56.41,19.19,112.82,28.79,169.23c47.64-8.1,95.08-17.82,142.23-29.14c-3.19-13.29-6.38-26.57-9.57-39.86
		C1077.74,893.08,1049.11,899.33,1020.38,904.98z"/>
	<path class="st0" d="M120.52,475.07c-1.84,7.35-3.89,14.39-5.37,21.3c-1.41,6.92-2.77,13.6-4.08,20.01
		c-1.13,6.44-1.95,12.67-2.87,18.59c-0.43,2.96-0.86,5.85-1.27,8.68c-0.28,2.84-0.56,5.61-0.82,8.31
		c-0.53,5.39-1.04,10.49-1.51,15.28c-0.33,4.81-0.43,9.35-0.63,13.54c-0.18,4.2-0.34,8.08-0.49,11.64c-0.13,3.55,0.01,6.78,0,9.67
		c0.1,11.56,0.15,17.72,0.15,17.72l0-0.01c0,0,0,0.01,0,0.01l358.85,0v-10.25c-1.73-1.18-3.27-2.43-4.72-3.7
		c-10-0.03-19.94-0.06-29.74-0.1c-28.35-0.01-55.76-0.36-81.75-0.6c-25.99-0.25-50.56-0.49-73.24-0.71
		c-45.36-0.39-83.17-1.22-109.63-1.57c-26.46-0.53-41.58-0.83-41.58-0.83s15.12-0.3,41.58-0.83c26.46-0.35,64.27-1.18,109.63-1.57
		c22.68-0.22,47.26-0.46,73.24-0.71c25.99-0.24,53.4-0.58,81.75-0.6c7.53-0.02,15.14-0.05,22.8-0.07
		c-8.71-12.06-9.13-25.48-8.98-32.83L203.2,491.99l239.97,54.06c2.09-12.71,6.9-23.98,14.39-33.6L304.27,341.74l166.42,157.63
		c5.9-4.64,12.64-8.71,20.28-12.14c9.47-4.25,19.58-7.14,29.55-9.1l-75.72-231.62l95.41,228.81c8.6-0.8,16.67-1.07,23.53-1.05
		l12.17-292.4c0.48-11.59,9.94-20.67,21.54-20.67h16.51c11.6,0,21.06,9.08,21.54,20.67l12.17,292.4c0.49,0,0.99,0,1.5,0
		c8.64,0,16.84,0.42,24.63,1.22l95.49-228.98L693.43,478.5c20.11,4.24,36.54,11.61,48.91,21.85L909.8,341.74l-154.62,172.2
		c6.83,9.38,11.29,20.31,13.19,32.68l242.49-54.63l-241.31,74.29c0.1,7.49-0.59,20.37-8.99,32c7.66,0.02,15.26,0.05,22.79,0.07
		c56.7,0.14,109.63,0.95,154.99,1.3c45.36,0.38,83.17,1.23,109.63,1.57c26.46,0.53,41.58,0.83,41.58,0.83s-15.12,0.3-41.58,0.83
		c-26.46,0.34-64.26,1.19-109.63,1.57c-45.36,0.35-98.29,1.16-154.99,1.3c-9.8,0.03-19.74,0.06-29.74,0.1
		c-1.45,1.27-2.99,2.51-4.72,3.7v10.25h358.85l0,0c0,0,0.05-6.17,0.15-17.73c-0.01-2.89,0.13-6.13,0-9.69
		c-0.15-3.56-0.31-7.44-0.49-11.63c-0.2-4.19-0.3-8.72-0.63-13.53c-0.47-4.8-0.98-9.9-1.51-15.29c-0.27-2.7-0.54-5.47-0.82-8.31
		c-0.41-2.82-0.83-5.72-1.27-8.68c-0.92-5.92-1.74-12.15-2.87-18.59c-1.31-6.41-2.67-13.09-4.08-20.01
		c-1.48-6.91-3.53-13.95-5.36-21.31c-7.97-29.21-19.68-61.6-36.77-94.94c-16.91-33.41-39.56-67.51-67.73-100.07
		c-14.24-16.13-29.58-32.16-46.66-47.03c-8.3-7.72-17.39-14.69-26.41-21.92c-4.57-3.54-9.36-6.83-14.06-10.29l-7.11-5.14l-7.37-4.83
		c-39.22-26.05-83.51-47.62-130.96-61.99c-23.68-7.36-48.19-12.49-72.94-16.47l-18.67-2.42c-6.2-0.9-12.62-1.11-18.93-1.7
		c-6.35-0.52-12.72-1.05-18.8-1.09l-18.76-0.51c-25.18,0.38-50.35,2-75.16,5.73c-24.75,3.97-49.26,9.11-72.94,16.47
		c-47.44,14.41-91.74,35.95-130.96,62l-7.37,4.83l-7.11,5.14c-4.71,3.45-9.49,6.75-14.06,10.28c-9.03,7.23-18.1,14.22-26.4,21.93
		c-17.08,14.87-32.42,30.9-46.66,47.02c-28.17,32.56-50.81,66.67-67.73,100.07C140.2,413.48,128.5,445.86,120.52,475.07z
		 M207.88,326.26c2.92-4.04,6.24-7.84,9.37-11.81c6.2-8.01,13.15-15.6,20.07-23.39c14.19-15.24,29.4-30.34,46.26-44.24
		c8.2-7.21,17.14-13.71,25.9-20.58c4.46-3.34,9.12-6.43,13.7-9.69l6.92-4.84l7.17-4.53c38.07-24.61,81.05-44.13,126.49-57.84
		c22.72-6.94,46.22-11.71,69.94-15.41c23.78-3.44,47.89-4.86,72-5.11c11.67,0.42,24.73,0.22,36.28,1.39
		c5.95,0.53,11.85,0.67,17.83,1.5l17.89,2.22c23.71,3.69,47.22,8.47,69.93,15.41c45.42,13.75,88.41,33.23,126.48,57.85l7.17,4.53
		l6.92,4.84c4.58,3.25,9.24,6.35,13.7,9.68c8.77,6.86,17.68,13.38,25.89,20.58c16.86,13.9,32.07,28.99,46.26,44.24
		c6.92,7.78,13.87,15.37,20.07,23.38c3.13,3.98,6.45,7.77,9.37,11.81c2.73,3.72,5.44,7.4,8.14,11.05
		c-91.3-119.73-239.1-197.55-405.93-197.55c-167.49,0-315.8,78.44-407.01,198.97c0.13-0.18,0.25-0.36,0.39-0.54
		C201.98,334.26,204.92,330.28,207.88,326.26z"/>
</g>
</svg>
