<?xml version="1.0" encoding="utf-8"?>
<!-- Generator: Adobe Illustrator 26.4.1, SVG Export Plug-In . SVG Version: 6.00 Build 0)  -->
<svg version="1.1" id="Слой_1" xmlns="http://www.w3.org/2000/svg" xmlns:xlink="http://www.w3.org/1999/xlink" x="0px" y="0px"
	 viewBox="0 0 1200 1200" style="enable-background:new 0 0 1200 1200;" xml:space="preserve">
<style type="text/css">
	.st0{fill:#020202;}
	.st1{fill-rule:evenodd;clip-rule:evenodd;fill:url(#SVGID_1_);}
	.st2{fill-rule:evenodd;clip-rule:evenodd;fill:url(#SVGID_00000060743220548649753120000015226069034179350938_);}
	.st3{fill-rule:evenodd;clip-rule:evenodd;fill:url(#SVGID_00000039839782772421222860000009366320958233863078_);}
	.st4{fill-rule:evenodd;clip-rule:evenodd;fill:url(#SVGID_00000149374603497570323500000009384815011257975981_);}
	.st5{opacity:0.4;fill-rule:evenodd;clip-rule:evenodd;fill:#7D72B3;}
	.st6{fill-rule:evenodd;clip-rule:evenodd;fill:url(#SVGID_00000132068641821364944480000006979929573429568167_);}
	.st7{opacity:0.7;}
	.st8{fill-rule:evenodd;clip-rule:evenodd;fill:url(#SVGID_00000161604718954504028900000017250590654854855575_);}
	.st9{fill-rule:evenodd;clip-rule:evenodd;fill:#FF9F84;}
	.st10{fill-rule:evenodd;clip-rule:evenodd;fill:#FFEF84;}
	.st11{fill-rule:evenodd;clip-rule:evenodd;fill:url(#SVGID_00000069394753946060044770000014750676717984785805_);}
	.st12{fill-rule:evenodd;clip-rule:evenodd;fill:url(#SVGID_00000089567153182863836830000005060090618711616159_);}
	.st13{fill:url(#SVGID_00000149354006823597380460000015355411949048110776_);}
	.st14{fill-rule:evenodd;clip-rule:evenodd;fill:#FFFF0E;}
	.st15{fill-rule:evenodd;clip-rule:evenodd;fill:url(#SVGID_00000163072315584444247990000010920081170161095612_);}
	.st16{fill-rule:evenodd;clip-rule:evenodd;fill:url(#SVGID_00000129905251984953230300000001988269852476456625_);}
	.st17{fill-rule:evenodd;clip-rule:evenodd;fill:url(#SVGID_00000121987169505890216250000013425771558405287812_);}
	.st18{fill-rule:evenodd;clip-rule:evenodd;fill:url(#SVGID_00000076570329888040782370000017437791166386983815_);}
</style>
<g>
	<rect x="0.5" y="0.5" class="st0" width="1202" height="1202"/>
	<path d="M1202,1v1201H1V1H1202 M1203,0H0v1203h1203V0L1203,0z"/>
</g>
<g>
	<radialGradient id="SVGID_1_" cx="611.5352" cy="624.9296" r="502.2398" gradientUnits="userSpaceOnUse">
		<stop  offset="0" style="stop-color:#FF4000"/>
		<stop  offset="1" style="stop-color:#000000"/>
	</radialGradient>
	<circle class="st1" cx="611.54" cy="624.93" r="502.24"/>
	
		<radialGradient id="SVGID_00000057870173720288050520000006390871095421529520_" cx="611.5356" cy="624.9296" r="394.4565" gradientUnits="userSpaceOnUse">
		<stop  offset="0" style="stop-color:#FF7300"/>
		<stop  offset="1" style="stop-color:#000000"/>
	</radialGradient>
	
		<circle style="fill-rule:evenodd;clip-rule:evenodd;fill:url(#SVGID_00000057870173720288050520000006390871095421529520_);" cx="611.54" cy="624.93" r="394.46"/>
	
		<radialGradient id="SVGID_00000107565094151513205630000012003795727182277548_" cx="611.5356" cy="624.9296" r="376.4205" gradientUnits="userSpaceOnUse">
		<stop  offset="0" style="stop-color:#FF7900"/>
		<stop  offset="0.1826" style="stop-color:#FC7800"/>
		<stop  offset="0.3154" style="stop-color:#F37300"/>
		<stop  offset="0.4324" style="stop-color:#E36C00"/>
		<stop  offset="0.5403" style="stop-color:#CC6100"/>
		<stop  offset="0.6419" style="stop-color:#AF5300"/>
		<stop  offset="0.739" style="stop-color:#8C4200"/>
		<stop  offset="0.8324" style="stop-color:#622E00"/>
		<stop  offset="0.9204" style="stop-color:#321800"/>
		<stop  offset="1" style="stop-color:#000000"/>
	</radialGradient>
	
		<circle style="fill-rule:evenodd;clip-rule:evenodd;fill:url(#SVGID_00000107565094151513205630000012003795727182277548_);" cx="611.54" cy="624.93" r="376.42"/>
	
		<radialGradient id="SVGID_00000046328741234833957340000010598028495944388018_" cx="400.4861" cy="459.372" r="548.0306" gradientUnits="userSpaceOnUse">
		<stop  offset="5.586590e-03" style="stop-color:#DE6863"/>
		<stop  offset="0.2018" style="stop-color:#DB6563"/>
		<stop  offset="0.3542" style="stop-color:#D15D62"/>
		<stop  offset="0.4919" style="stop-color:#C14F60"/>
		<stop  offset="0.6209" style="stop-color:#A93B5E"/>
		<stop  offset="0.7437" style="stop-color:#8B225B"/>
		<stop  offset="0.8606" style="stop-color:#670357"/>
		<stop  offset="0.8715" style="stop-color:#630057"/>
	</radialGradient>
	<path style="fill-rule:evenodd;clip-rule:evenodd;fill:url(#SVGID_00000046328741234833957340000010598028495944388018_);" d="
		M952.95,618.96c0,32.77-4.61,64.52-13.32,94.48c-17.28,60.28-50.77,113.64-95.49,155.26c-31.97,29.81-69.71,53.51-111.26,69.28
		c-37.66,14.33-78.42,22.11-121.13,22.11c-6.05,0-12.17-0.14-18.15-0.5h-0.07c-8.93-0.43-17.79-1.3-26.5-2.38
		c-65.89-8.64-125.73-36.01-174.27-76.77c-18.22-15.19-34.78-32.33-49.4-51.06c-11.09-14.04-21.1-28.95-29.89-44.72
		c-2.09-3.74-4.1-7.56-6.12-11.38c0-0.14-0.07-0.22-0.14-0.36c-2.09-4.1-4.03-8.21-5.9-12.39c-0.07,0-0.07,0-0.07,0
		c-5.91-13.03-11.09-26.5-15.27-40.33c-3.17-9.94-5.83-20.16-7.99-30.53c-0.07-0.07-0.07-0.22-0.07-0.29
		c-1.51-7.27-2.81-14.62-3.82-22.04c-2.3-15.84-3.46-31.97-3.46-48.39c0-9.43,0.36-18.87,1.22-28.08
		c0.43-5.91,1.08-11.74,1.87-17.57c4.39-33.56,13.76-65.53,27.29-95.27c6.63-14.62,14.26-28.66,22.83-42.13
		c14.26-22.47,31.11-43.06,50.12-61.57c61.43-59.77,145.32-96.57,237.79-96.57c3.6,0,7.2,0.07,10.73,0.14
		c3.82,0.14,7.63,0.29,11.45,0.58c19.59,1.3,38.74,4.18,57.25,8.64c10.8,2.59,21.39,5.62,31.76,9.22
		c7.06,2.38,13.97,5.04,20.81,7.92c5.11,2.16,10.08,4.39,15.05,6.77c0.86,0.43,1.73,0.79,2.59,1.22
		c33.13,16.2,63.16,37.52,89.22,63.08c3.74,3.6,7.35,7.34,10.95,11.16c2.38,2.59,4.75,5.26,7.06,7.92
		c3.96,4.46,7.78,9.15,11.52,13.83c13.61,17.28,25.56,35.86,35.57,55.59c11.74,22.9,20.96,47.31,27.22,72.88
		C949.49,563.08,952.95,590.59,952.95,618.96z"/>
	<path class="st5" d="M270.6,618.93c0,0,80.45,142.76,158.22,164.9c77.77,22.14,166.6,8.07,196.95,19.38
		c30.35,11.31,46.87,57.69,46.87,57.69l11.31,6.48c0,0,25.96-40.29,41.84-16.49c0,0-6.33-33.73,12.77-74.8
		c19.1-41.07,31.85-85.19,55.49-99.29c23.64-14.1,66.91-20.65,101.22-7.05c34.31,13.6,52.07,10.99,52.07,10.99l2.56-16.16
		l2.57-14.25c0,0-32.83,5.22-59.24-11.68c0,0,3.62,6.32,24.08-31.89c20.46-38.21,18.1-72.68,18.1-72.68l-2.94-31.75
		c0,0-10.99,110.11-57.43,142.06c0,0-103.53-21.43-147.31,100.77c0,0-7.49,81.73-50.87,79.45c-43.38-2.28-28.38-55.72-91.14-56.26
		c-62.76-0.54-100.85,25.26-162.99-10.18C360.6,722.74,270.6,618.93,270.6,618.93z"/>
	<path class="st5" d="M593.6,959.58c0,0,43.03-64.27,90.36-63.91c47.32,0.36,69.16,17.53,106.45-4.25
		c37.3-21.78,52.8-35.38,69.99-47.02c17.19-11.64,20.1-15.32,20.1-15.32l7.76-10.25c0,0-26.15-12.69-49.2,5.94
		c-23.05,18.63-64.73,60.85-97.79,60.65c-33.06-0.21-31.45-19.24-68.61-4.32s-115.4,67.66-115.4,67.66S571.42,959.12,593.6,959.58z"
		/>
	<path class="st5" d="M289.35,730.69l4.09,11.26c0,0,66.52,36.72,108.53,87.83c42.01,51.11,49.48,85.74,49.48,85.74
		s7.47-30.46-28.73-87.75C386.53,770.5,308.61,739.09,289.35,730.69z"/>
	
		<linearGradient id="SVGID_00000111876565254269902140000009128228547472703421_" gradientUnits="userSpaceOnUse" x1="270.6062" y1="525.3488" x2="761.3739" y2="525.3488">
		<stop  offset="0.0112" style="stop-color:#FF7D85"/>
		<stop  offset="0.2983" style="stop-color:#FC7B84"/>
		<stop  offset="0.5089" style="stop-color:#F3757F"/>
		<stop  offset="0.695" style="stop-color:#E36B77"/>
		<stop  offset="0.8659" style="stop-color:#CC5C6C"/>
		<stop  offset="1" style="stop-color:#B54D61"/>
	</linearGradient>
	<path style="fill-rule:evenodd;clip-rule:evenodd;fill:url(#SVGID_00000111876565254269902140000009128228547472703421_);" d="
		M761.37,312.28c-1.12,0.12-2.25,0.24-3.37,0.47c-3.85,0.71-6.86,0.36-10.65-0.71c-2.72-0.77-4.68-1.89-7.57-2.37
		c-4.14-0.65-7.99-2.43-12.13-2.96c-4.38-0.59-8.17-2.31-12.31-3.79c-3.25-1.18-4.97-0.77-8.11,0c-3.14,0.83-5.33-0.47-8.11-1.66
		c-3.14-1.36-6.27-1.6-9.59-2.25c-8.64-1.78-17.22-4.56-25.8-6.75c-5.33-1.36-10.24-1.36-15.68-1.42
		c-4.26-0.06-8.11,1.18-12.37,1.18c-2.84,0-5.27-0.47-8.11-0.89c-2.9-0.53-5.86,0.06-8.76-0.36c-4.32-0.65-6.63-1.3-11.01,0.06
		c-3.26,1.07-5.8,0.95-9.05,1.12c-3.61,0.18-7.69,1.12-11.24,1.95c-6.39,1.48-13.37,2.66-19.94,2.54c-4.02,0-9.94-1.12-13.79,0.24
		c-2.49,0.89-3.73,3.55-5.44,5.33c-3.31,3.43-7.4,6.51-10.18,10.36c-2.78,3.85-5.92,7.81-5.68,12.66c0.24,4.2,2.19,9.11,4.02,12.96
		c1.89,4.08,2.55,7.81-1.66,10.53c-5.27,3.49-11.36,6.69-17.4,8.4c-4.02,1.18-7.63,1.89-11.01-1.01c-1.24-1.07-2.01-3.14-3.55-3.96
		c-1.6-0.83-3.25,0-4.97,0.53c-4.26,1.24-8.4,2.66-12.72,3.37c-2.66,0.41-4.97,1.83-7.58,2.31c-3.14,0.59-5.39-1.72-8.64-0.95
		c-4.56,1.07-9.11,2.96-13.85,3.2c-3.37,0.18-7.63-1.3-10.48-3.02c-1.66-0.95-2.07-1.89-3.96-1.36c-1.54,0.35-3.85,2.25-4.68,3.43
		c-1.12,1.6-1.54,3.67-2.66,5.33c-1.18,1.83-2.31,3.61-3.37,5.56c-1.95,3.79-4.26,7.34-6.75,10.71c-1.78,2.37-3.02,5.56-4.97,7.75
		c-1.01,1.18-3.2,2.01-4.5,2.9c-3.55,2.49-7.28,4.73-10.71,7.4c-6.63,5.21-12.9,10.95-19.65,15.98c-5.15,3.85-12.37,6.1-18.23,8.52
		c-3.67,1.48-7.46,2.54-11.13,4.08c-1.18,0.47-3.37,1.01-4.38,1.89c-1.3,1.12-2.01,3.2-3.2,4.73c-3.2,3.91-6.57,7.81-9,12.31
		c-1.48,2.6-2.37,5.27-3.31,8.11c-1.3,3.85-3.37,7.4-4.68,11.24c-2.66,8.05-3.2,16.45-6.15,24.44c-1.72,4.68-4.2,8.94-6.33,13.2
		c-3.67,7.22-4.2,15.8-5.27,23.79c-0.59,4.68-0.36,10.06,0.47,14.62c0.89,4.91,0.65,10,0.59,15.03c-0.06,5.33-3.43,10.53-6.81,14.56
		c-3.08,3.73-7.75,5.15-11.18,8.46c-2.9,2.84-6.39,6.1-7.63,10.12c-0.53,1.78-0.06,3.79-0.36,5.68c-0.77,4.2-1.83,8.17-2.43,12.43
		c-0.65,5.27-0.77,10.24-0.77,15.56c0,2.66-0.18,5.39-0.06,8.05c0.12,2.54,1.07,4.91,1.24,7.46c0.12,1.78-0.24,3.55,0,5.33
		c0.35,2.01,1.12,4.08,1.6,6.04c1.18,4.73,2.07,9.35,2.96,14.08c0.83,4.38,2.54,8.7,3.91,12.96c1.89,5.8,3.14,11.78,4.26,17.81
		c0.89,4.5,0.83,9.17,1.48,13.73c0.53,3.67,1.36,7.4,1.54,11.07c0.18,5.56-1.18,11.13-1.24,16.75c-0.06,9.47,3.73,18.94,5.92,28.05
		c0.65,2.54,1.3,5.15,2.01,7.69c-23.43-46.28-36.63-98.59-36.63-153.98c0-67.35,19.53-130.13,53.2-183.04
		c14.32-22.49,31.13-43.08,50.12-61.55c61.49-59.77,145.34-96.58,237.84-96.58c7.46,0,14.79,0.24,22.13,0.71
		C679.41,281.39,722.49,293.22,761.37,312.28z"/>
	<path class="st5" d="M354.05,427.73c0,0,76.8,68.66,178.12,70.63c101.32,1.97,138.97-4.84,172.68-42.37
		c33.71-37.53,70.01-101.09,70.01-101.09s-43.28,20.85-73.22,61.61C671.7,457.27,530.27,526.7,354.05,427.73z"/>
	<g class="st7">
		<path class="st5" d="M360.15,429.69c-10.05,11.9-18.81,24.02-25.56,38.12c-6,12.52-8.2,26.47-10.37,40.02
			c-1.29,8.05-2.42,16.12-3.63,24.18c-1.08,7.15-3.14,14.69-1.91,21.92c1.67,9.8,2.18,20.61,6.87,29.55
			c5.02,9.57,10.24,17.96,16.91,26.41c6.53,8.28,14.42,11.99,24.97,12.73c5.72,0.4,11.41-0.48,17.14,0.28
			c7.95,1.04,15.91,2.5,23.82,3.77c15.95,2.56,33.87,2.68,45.33-10.4c9.3-10.61,13.69-23.84,19.62-36.47
			c6.31-13.45,14.24-24.61,26.04-33.75c8.68-6.72,16.29-14.28,24.63-21.38c3.78-3.22,6.07-6.7,10.37-9.11
			c4.21-2.36,6.48-4.99,10.17-8.38c3.32-3.05,7.34-5.11,10.3-8.59c4.7-5.53,8.46-12.99,10.99-19.73c2.65-7.06,3.95-14.57,4.99-22.02
			c1.03-7.28-1.17-14.6-3.43-21.53c-4.32-13.21-15.59-21.5-26.2-29.7c-13.13-10.14-28.61-14.64-44.78-17.82
			c-14.7-2.89-32.4-3.48-47.17-0.86c-15.63,2.77-31.69,5.01-46.24,11.78c-10.64,4.95-17.07,11.82-25.66,19.1
			c-4.38,3.71-9.67,6.26-13.63,10.44C358.26,434.04,353.15,440.32,360.15,429.69z"/>
		<path class="st5" d="M514.79,366.02c2.12-3.7,4.53-9,7.47-12.5c1.58-1.88,3.64-3.33,5.52-4.91c5.71-4.78,11.95-8.83,19.18-10.92
			c3.98-1.15,8.36-1.24,12.36-0.22c4.07,1.04,11.42,3.81,14.54,6.78c5.81,5.53,1.98,14.96,0.23,21.4
			c-1.76,6.5-3.79,12.64-9.59,16.76c-3.79,2.68-8.31,4.83-12.83,5.86c-2.52,0.57-5.06,0.4-7.61,0.71c-2.06,0.25-4.03,0.76-6.12,0.76
			c-4.72,0-11.89-3.37-13.86-7.99c-1.03-2.42-1.62-4.92-2.71-7.34c-0.83-1.84-1.48-3.78-2.25-5.64
			C517.66,365.28,516.4,361.89,514.79,366.02z"/>
		<path class="st5" d="M571.18,402.41c-1.4,3.77-2.17,7.63-2.29,11.6c1.75,1.03,2.36,3.19,4.08,4.2c1.65,0.97,3.64,0.57,5.52,0.57
			c3.41-0.01,6.72,0.04,7.29-4.17c0.5-3.68-2.75-6.36-5.51-8.36c-1.99-1.44-5.93-4.8-8.19-2.02L571.18,402.41z"/>
		<path class="st5" d="M618.49,457.89c-4.43,3.15-9.2,5.99-13.44,9.36c-5.37,4.27-9.58,9.69-13.75,15.09
			c-5.18,6.71-11.27,13.73-9.98,22.76c1.27,8.91,4.29,16.3,11.12,22.28c7.9,6.92,20.11,6.88,29.32,11.36
			c7.85,3.83,12.88,11.74,16.82,19.27c5.98,11.43,18.53,13.46,29.98,15.62c7.45,1.4,14.83,2.48,22.35,3.39
			c10.11,1.23,20.11,3.17,30.24,4.14c18.57,1.79,37.29,6.07,56.01,4.57c19.84-1.59,37.82-8.66,54.14-20.03
			c13.91-9.68,26.34-26.49,30.01-43.14c3.86-17.5-1.9-36.98-10.36-52.27c-11-19.86-24-38.47-38.14-56.22
			c-7.83-9.83-16.9-18.59-24.88-28.31c-6.92-8.42-14.18-15.96-22.45-23.07c-18.53-15.93-41.52-29.08-66.42-30.39
			c-9.48-0.5-19.06,0.9-27.97,4.34c-7.81,3.02-13.46,7.51-19.26,13.48c-14.72,15.16-22.43,34.46-28.8,54.27
			c-2.92,9.08-5.65,19.35-4.58,29c0.33,2.95,1.9,5.28,1.86,8.08c-0.03,2.62-0.01,5.24,0,7.85c0.01,1.53,0.15,2.72-0.4,4.01
			C619,455.44,616.89,457.65,618.49,457.89z"/>
		<path class="st5" d="M540.26,525.21c-9.62,5.61-19.48,9.98-26.55,18.98c-1.26,1.6-3.11,3.39-2.46,5.55
			c0.73,2.38,3.4,3.73,5.48,4.6c7.14,2.99,15.87,4.54,23.52,3.02c6.88-1.37,15.94-6.02,19.65-12.25
			c4.71-7.89-0.61-20.57-10.56-19.94c-1.5,0.1-2.64,0.81-4.08,0.99c-1.18,0.14-2.45-0.09-3.65-0.04c-1.37,0.06-1.67,0.33-2.8,0.8
			C537.62,527.41,536.04,528.77,540.26,525.21z"/>
		<path class="st5" d="M342.86,657.1c-3.9,3.54-7.8,6.27-10.05,10.96c-2.11,4.41-3.58,8.63-4.6,13.4
			c-0.88,4.13-2.04,8.54-0.98,12.75c0.95,3.78,2.72,7.55,4.01,11.25c1.69,4.82,3.24,9.34,4.28,14.33c1.29,6.2,3.58,11.47,6.35,17.16
			c2.71,5.58,5.77,10.95,9.1,16.19c3.44,5.42,7.43,9.68,11.87,14.31c15.55,16.2,34.56,33.36,57.75,36.28
			c11.71,1.47,23.93-1.54,32.49-9.94c9.36-9.18,15.32-22.4,17.32-35.29c1.7-10.98,0.57-22.34-5.36-31.88
			c-4.73-7.61-9.9-15.79-16.02-22.38c-4.13-4.44-8.89-8.26-13.38-12.32c-4.47-4.04-8.76-8.3-13.63-11.87
			c-8.56-6.26-16.83-12.85-25.45-19.06c-7.8-5.61-16.22-11.72-25.74-14.01c-6.57-1.58-13.78-2.89-20.26-0.36
			c-2.78,1.09-4.92,2.05-6.33,4.57c-0.7,1.25-2.35,3.4-2.44,4.84C341.53,656.08,341.29,656.14,342.86,657.1z"/>
		<path class="st5" d="M403.81,641.64c0.31,2.74,0.63,5.48,0.94,8.23c0.19,0.9,0.39,1.79,0.58,2.68c0.55,0.57,2.6,0.81,3.32,0.9
			c2.78,0.32,5.79-1.17,7.97-2.87c3.33-2.59,4.83-8.63,1.75-11.71c-2.46-2.46-5.66-3.34-9.11-2.64c-1.79,0.36-9.37,4.37-6.37,7.23
			L403.81,641.64z"/>
		<path class="st5" d="M860.45,567.05c1.19-6.12,1.32-10.03,5.07-14.58c3.26-3.96,6.85-7.67,9.98-11.73
			c5.75-7.46,9.31-16.26,11.46-25.4c1.89-8.07-0.08-15.91,3.53-23.71c0.86-1.85,1.87-5.36,3.82-6.26c1.79-0.82,5.43-0.13,7.06,0.84
			c1.64,0.98,3.34,3.12,4.73,4.35c2.5,2.21,4.65,4.67,6.91,7.12c11.37,12.37,17.65,30.84,17.56,47.51
			c-0.05,9.79-1.11,18.84-4.36,28.02c-1.32,3.74-2.68,7.08-4.71,10.5c-2.47,4.18-5.54,6.69-9.58,9.28
			c-11.78,7.53-28.89,4.72-38.73-4.58c-3.64-3.45-5.33-8.19-7.71-12.25c-1.87-3.18-3.63-6.07-4.29-9.86
			C860.94,566.24,860.69,566.19,860.45,567.05z"/>
		<path class="st5" d="M860.45,438.79c1.95,6.65,2.93,13.91,9.75,17.35c1.18,0.59,3.7,1.55,5.02,1.62c1.73,0.09,2.96-0.9,4.32-1.89
			c7.16-5.26,3.04-17.32-1.79-22.78c-2.85-3.21-6.12-4.26-10.07-5.43c-1.8-0.53-1.36-0.68-2.89-0.03c-1.18,0.51-1.94,1.06-2.55,2.02
			c-0.62,0.98-0.87,2.54-0.92,3.68c-0.06,1.28-0.48,1.97-0.68,2.93c-0.5,2.32-0.26,4.16,0.71,6.17L860.45,438.79z"/>
		<path class="st5" d="M806.78,716.23c-1.76,4.53-3.14,9.26-5.14,13.67c-2.13,4.7-4.25,9.46-6.24,14.22
			c-5.26,12.56-8.19,25.6-11.59,38.72c-3.58,13.82-5.86,27.87-7.27,42.07c-0.73,7.31-1.86,14.33-1.66,21.71
			c0.14,5.24,0.12,11.63,1.97,16.62c1.16,3.11,4.06,7.84,7.3,9.23c4.23,1.82,9.58-1.71,13.14-3.47
			c13.92-6.89,25.74-17.36,36.79-28.14c10.88-10.61,21.94-20.67,30.95-33c4.1-5.61,8.67-11.15,12.1-17.21
			c2.87-5.07,4.84-10.58,7.45-15.78c2.45-4.86,4.23-10,6.54-14.93c2.8-5.99,5.4-12.14,7.35-18.47c3.73-12.11,7.04-24.46,2.79-36.95
			c-3.61-10.6-12.43-18.76-23.41-21.12c-5.95-1.28-12.63-3.05-18.75-2.57c-6.01,0.47-12.47,2.11-18.03,4.41
			c-4.85,2-9.76,4.35-14.21,7.14c-2.5,1.57-4.19,3.74-6.17,5.87c-3.32,3.57-6.6,7.44-9.14,11.61c-1.31,2.14-2.46,3.38-4.09,5.21
			C805.22,717.57,804.25,721.36,806.78,716.23z"/>
		<path class="st5" d="M753.11,873.6c-7.22,2.72-13.23,5.35-19.38,9.92c-7.37,5.48-14.25,11.1-19.53,18.66
			c-1.93,2.77-5.78,7.52-2.89,10.79c2.51,2.84,6.58,2.59,9.98,2.52c4.97-0.11,9.94-1,14.56-2.93c4.3-1.8,8.17-4.16,12.6-5.68
			c4.25-1.46,10.04-4.28,12.9-7.94c1.63-2.08,2.58-4.95,4.09-7.18c1.23-1.81,1.62-3.2,1.34-5.47c-0.32-2.54-1.89-6.16-3.86-7.96
			c-1.77-1.62-5.16-3.24-7.53-2.94c-1.25,0.16-2.85,0.59-4.01,1.08C748.5,877.71,746.16,881.28,753.11,873.6z"/>
		<path class="st5" d="M744.02,831.76c-1.47-5.43-3.14-9.71-2.67-15.16c0.43-4.93,0.36-9.1,2.95-13.56
			c1.09-1.87,4.25-7.81,6.37-8.57c0.73-0.26,2.93-0.15,3.61-0.06c3.68,0.48,5.89,5.01,6.65,8.32c1.17,5.1,0.36,11.1,0.4,16.32
			c0.04,4.08-0.53,7.83-2.07,11.64c-1.25,3.08-3.7,3.04-6.82,2.91c-3.07-0.12-4.33-0.98-6.6-2.77c-0.83-0.65-2.05-0.89-2.8-1.55
			C742.03,828.39,742.41,827.17,744.02,831.76z"/>
		<path class="st5" d="M737.65,616.17c-0.63,3.78-0.9,7.58-0.79,11.39c1.38,0.01,2.82,2.54,4.61,2.99c2.53,0.64,5.14-0.93,7.09-2.49
			c4.3-3.43,5.48-9.95,4.52-15.08c-0.94-5.03-6.74-5.54-10.9-5.02c-1.39,0.18-3.48,0.83-4.58,1.8c-2.53,2.24-2.75,4.95-2.68,8.23
			L737.65,616.17z"/>
		<path class="st5" d="M412,850.86c2.32-4.03,4.34-8.37,7.31-11.93c3.34-3.99,7.13-8.25,10.96-11.73
			c4.78-4.36,10.32-8.38,15.44-12.34c4.75-3.68,9.61-7.26,14.71-10.45c8.88-5.57,18.05-9.24,27.92-12.65
			c8.03-2.77,16.52-3.69,24.88-1.98c8.59,1.76,16.93,6.6,23.25,12.58c6.07,5.74,12.43,12.71,16.16,20.25
			c7.63,15.43,4.68,32.15-0.54,47.81c-2.33,6.98-7.19,15.36-13.05,19.9c-3.33,2.58-7.34,4.26-11.4,5.17
			c-4.63,1.04-9.88,2.62-14.57,3.22c-20.55,2.6-41.64,1.11-61.16-6.08c-7.73-2.85-15.32-6.34-22.72-9.94
			c-5.88-2.86-10.8-6.51-14.71-11.76c-2.91-3.91-5.38-8.56-5.23-13.52c0.07-2.23,0.82-4.23,1.1-6.4
			C411.3,850.97,412.11,850.37,412,850.86z"/>
		<path class="st5" d="M566.64,859.95c-1.44,3.76-2.35,7.62-2.73,11.6c1.39,0.8,1.31,3.09,2.35,4.35c1.18,1.44,2.44,2.17,4.2,2.26
			c1.82,0.1,4.01,0.19,5.81-0.09c2.82-0.43,3.43-1.47,4.9-3.55c1.64-2.33,2.07-3.35,1.87-6.43c-0.14-2.12-0.73-4.37-2.04-6.12
			c-0.82-1.1-2.28-2.84-3.42-3.66c-2.69-1.94-4.71-0.84-7.29,0.73L566.64,859.95z"/>
		<path class="st5" d="M903.2,682.57c-3.14-2.45-5.74-5.36-7.78-8.72c0.29-1.37,0.24-2.73-0.15-4.1c-0.51-3.5-1.17-6.35-0.45-9.9
			c1.69-8.31,8.9-14.46,17.29-15.41c5.52-0.63,13.55,3.84,16.46,8.32c3.09,4.75,4.35,11.14,4.6,16.69
			c0.21,4.59-0.83,10.08-3.6,13.91c-1.93,2.66-5.83,2.77-8.89,2.87c-3.54,0.12-7.08-0.46-10.43-1.59
			C907.72,683.79,904.9,681.94,903.2,682.57z"/>
	</g>
	
		<radialGradient id="SVGID_00000043427252134348963730000001137013341269358754_" cx="362.4579" cy="386.7265" r="449.0544" gradientUnits="userSpaceOnUse">
		<stop  offset="0" style="stop-color:#FFFF4A"/>
		<stop  offset="1" style="stop-color:#000000"/>
	</radialGradient>
	<path style="fill-rule:evenodd;clip-rule:evenodd;fill:url(#SVGID_00000043427252134348963730000001137013341269358754_);" d="
		M409.46,885.4c-35.27-29.53-64.5-66.1-85.51-107.53c-13.2-26.04-23.14-53.97-29.29-83.26c-0.06-0.06-0.06-0.18-0.06-0.3
		c-4.73-22.72-7.28-46.28-7.28-70.42c0-67.35,19.53-130.13,53.2-183.04c14.32-22.49,31.13-43.08,50.12-61.55
		c61.49-59.77,145.34-96.58,237.84-96.58c7.46,0,14.79,0.24,22.13,0.71c23.14,1.48,45.62,5.31,67.25,11.18
		c-26.66-8.74-54.8-14.26-83.95-16.13c-7.34-0.47-14.68-0.71-22.13-0.71c-92.5,0-176.35,36.81-237.84,96.58
		c-19,18.46-35.8,39.06-50.12,61.55c-33.67,52.91-53.2,115.69-53.2,183.04c0,24.14,2.54,47.7,7.28,70.42c0,0.12,0,0.24,0.06,0.3
		c6.15,29.29,16.1,57.23,29.29,83.26c21.01,41.42,50.24,78,85.51,107.53c37.38,31.36,81.51,54.78,129.91,67.85
		C480.8,934.64,442.49,913.11,409.46,885.4z"/>
	<path class="st5" d="M310.19,582.24c0,0,191.03,77.94,294.69,71.7c103.66-6.24,147.79-65.62,189.17-119.84
		c41.38-54.22,56.91-119.5,56.91-119.5S772.45,566.1,675,606.22l-56.04,11.34c0,0,29.2-21.78,49.59-43.92
		c20.39-22.13,98.94-54.33,106.3-80.19c7.36-25.86,6.47-68.36,19.2-95.55c12.73-27.18,25.41-49.63,25.41-49.63l-33.72-5.82
		l-15.81,37.23c0,0-4.44,61.82-16.54,95.34c-12.1,33.52-130.36,125.27-156.98,140.63C569.79,630.99,334.22,598.56,310.19,582.24z"/>
	<g>
		<path class="st5" d="M650.98,908.96c0.71-0.27,13.05-5.85,16.6-5.6c1.5,0.11,3.07,1.33,4.2,1.96c3.29,1.84,5.41,4.58,5.04,8.41
			c-0.53,5.48-6.52,12.64-13.09,15.03c-8.14,2.96-16.72-0.78-19.6-6.15c-2.93-5.45,4.51-15.45,12.68-15.63L650.98,908.96z"/>
		<path class="st9" d="M491.14,569.47c-4.5,7.69-15.79,21.78-12.37,32.79c1.46,4.71,4.81,9.61,6.92,14.07
			c5.77,12.21,17.39,24.47,31.85,15.63c16.21-9.91,9.17-27.97,2.31-41.15c-2.55-4.9-6.29-10.94-11.38-13.7
			c-2.77-1.5-7.29-3.07-10.37-3.68C492.69,572.36,496.52,568.89,491.14,569.47L491.14,569.47z"/>
		<path class="st10" d="M600.29,318.41c-0.64,3.97-0.75,7.95-0.34,11.91c1.27-0.25,2.21,0.91,3.53,0.89
			c1.48-0.02,3.64-1.03,4.82-1.84c2.53-1.73,3.83-5.3,3.82-8.23c-0.02-3.04-0.29-5.64-3.17-7.32c-3.44-2.01-6.88-0.57-8.65,2.77
			V318.41z"/>
		<path class="st9" d="M528.43,689.54c0.65-2.52,1.64-9.38,3.7-12.39c1.71-2.49,4.85-3.89,7.59-4.8c5.98-1.98,12.14-1.73,16.91,2.57
			c8.36,7.54,8.06,18.8,0.08,26.52c-3.63,3.51-8.6,7.06-13.8,7.27c-2.56,0.1-5.93,0.4-8.13-0.9c-2.68-1.59-4.81-4.41-5.7-7.32
			c-1.49-4.85-0.57-8.53,2.09-12.78L528.43,689.54z"/>
		<path class="st9" d="M465.67,685.9c-0.01,3.8-2.21,12.72,3.26,14.49c2.64,0.85,5.44-2.67,5.87-4.91c0.43-2.25,0.18-5.75-0.7-7.76
			c-1.34-3.07-4.03-5.2-6.61-1.82H465.67z"/>
		<path class="st9" d="M320.12,619.5c0.46,6.01,0.43,14.8,4.08,20.33c1.52,2.3,3.03,4.67,5.92,5.18c2.55,0.45,4.01-1.08,5.46-2.95
			c2.56-3.34,2.92-5.62,2.76-9.81c-0.13-3.71-1.29-7.86-2.96-11.19c-1.22-2.44-3.31-4.22-5.25-6.12c-1.74-1.71-2.99-2.08-5.48-1.82
			c-3.3,0.35-3.08,4.31-3.62,7.29L320.12,619.5z"/>
		<path class="st9" d="M825.88,591.3c0.09-0.57,0.77-10.66,2.63-12.93c0.79-0.96,2.61-1.59,3.69-2.12c3.16-1.56,6.6-2.03,9.86-0.47
			c4.66,2.22,8.32,8.64,7.43,13.82c-1.1,6.41-8.4,10.83-14.55,10.91c-6.24,0.08-11.77-8.26-8.17-13.75L825.88,591.3z"/>
		<path class="st9" d="M475.12,672.32c0.04-0.28,0.38-5.33,1.32-6.47c0.39-0.48,1.3-0.79,1.85-1.06c1.58-0.78,3.3-1.01,4.93-0.24
			c2.33,1.11,4.16,4.32,3.72,6.91c-0.55,3.21-4.2,5.42-7.27,5.46c-3.12,0.04-5.88-4.13-4.08-6.88L475.12,672.32z"/>
		<path class="st9" d="M630.52,734.64c0.04-0.28,0.38-5.33,1.32-6.47c0.39-0.48,1.3-0.79,1.85-1.06c1.58-0.78,3.3-1.01,4.93-0.24
			c2.33,1.11,4.16,4.32,3.72,6.91c-0.55,3.21-4.2,5.42-7.27,5.46c-3.12,0.04-5.88-4.13-4.08-6.88L630.52,734.64z"/>
		<path class="st9" d="M735.38,459.58c0.04-0.28,0.38-5.33,1.32-6.47c0.39-0.48,1.3-0.79,1.85-1.06c1.58-0.78,3.3-1.01,4.93-0.24
			c2.33,1.11,4.16,4.32,3.72,6.91c-0.55,3.21-4.2,5.42-7.27,5.46c-3.12,0.04-5.88-4.13-4.08-6.88L735.38,459.58z"/>
		<path class="st9" d="M521.54,858.77c0.04-0.28,0.38-5.33,1.32-6.47c0.39-0.48,1.3-0.79,1.85-1.06c1.58-0.78,3.3-1.01,4.93-0.24
			c2.33,1.11,4.16,4.32,3.72,6.91c-0.55,3.21-4.2,5.42-7.27,5.46c-3.12,0.04-5.88-4.13-4.08-6.88L521.54,858.77z"/>
		<path class="st9" d="M803.14,676.81c-5.18,3.24-8.37,4.68-11.46,9.44c-2.3,3.54-4.81,6.81-6.61,10.66
			c-1.43,3.05-3.18,7.64-2.91,11.07c0.7,8.96,11.83,1.09,15.04-1.64c4.3-3.66,8.39-8.64,8.71-14.44c0.13-2.29,0.19-4.83-0.7-6.95
			c-0.39-0.93-0.87-2.01-1.34-2.9C802.82,680.06,801.91,680.02,803.14,676.81z"/>
		<path class="st9" d="M912.3,715.92c0.4-3.96-1.6,10.32-0.79,10.94c1.27,0.02,2.73,0.2,3.97,0.02c1.77-0.26,2.25-1.16,3.64-2.23
			c2.84-2.19,4.9-3.47,5.01-7.36c0.09-3.22-0.49-5.17-3.65-6.13c-1.39-0.42-2.05-0.98-3.57-0.55c-3.08,0.89-5.21,3.47-6.44,6.22
			L912.3,715.92z"/>
		<path class="st10" d="M622.38,320.28c0.27-2.68-1.08,6.99-0.54,7.41c0.86,0.02,1.85,0.14,2.69,0.01c1.2-0.18,1.52-0.78,2.46-1.51
			c1.92-1.48,3.32-2.35,3.39-4.99c0.06-2.18-0.33-3.5-2.47-4.16c-0.94-0.29-1.39-0.67-2.42-0.37c-2.08,0.6-3.53,2.35-4.36,4.22
			L622.38,320.28z"/>
		<path class="st10" d="M807.21,598.62c0.27-2.68-1.08,6.99-0.54,7.41c0.86,0.02,1.85,0.14,2.69,0.01c1.2-0.18,1.52-0.78,2.46-1.51
			c1.92-1.48,3.32-2.35,3.39-4.99c0.06-2.18-0.33-3.5-2.47-4.15c-0.94-0.29-1.39-0.67-2.42-0.37c-2.08,0.6-3.53,2.35-4.36,4.22
			L807.21,598.62z"/>
		<path class="st10" d="M612.31,864.2c2.69-0.01-7.07-0.35-7.43,0.23c0.07,0.86,0.05,1.85,0.27,2.68c0.3,1.18,0.94,1.43,1.76,2.3
			c1.67,1.76,2.68,3.06,5.31,2.86c2.18-0.16,3.45-0.69,3.88-2.89c0.19-0.96,0.52-1.45,0.12-2.44c-0.81-2.01-2.71-3.27-4.64-3.9
			L612.31,864.2z"/>
		<path class="st10" d="M457.2,571.52c0.27-2.68-1.08,6.99-0.54,7.41c0.86,0.02,1.85,0.14,2.69,0.01c1.2-0.18,1.52-0.78,2.46-1.51
			c1.92-1.48,3.32-2.35,3.39-4.99c0.06-2.18-0.33-3.5-2.47-4.16c-0.94-0.29-1.39-0.67-2.42-0.37c-2.08,0.6-3.53,2.35-4.36,4.22
			L457.2,571.52z"/>
		<path class="st9" d="M607.1,835.26c0.4-3.96-1.6,10.32-0.79,10.94c1.27,0.02,2.73,0.2,3.97,0.02c1.77-0.26,2.25-1.16,3.64-2.23
			c2.84-2.19,4.9-3.47,5.01-7.36c0.09-3.22-0.49-5.17-3.65-6.13c-1.39-0.42-2.05-0.98-3.57-0.55c-3.08,0.89-5.21,3.47-6.44,6.22
			L607.1,835.26z"/>
	</g>
	
		<linearGradient id="SVGID_00000080171802255023619340000009966676860596155286_" gradientUnits="userSpaceOnUse" x1="269.0457" y1="472.0621" x2="871.7819" y2="472.0621">
		<stop  offset="5.586590e-03" style="stop-color:#FFB80B"/>
		<stop  offset="0.388" style="stop-color:#FFB60C"/>
		<stop  offset="0.5789" style="stop-color:#FEAE10"/>
		<stop  offset="0.7274" style="stop-color:#FCA117"/>
		<stop  offset="0.8539" style="stop-color:#FA8E21"/>
		<stop  offset="0.9655" style="stop-color:#F7762E"/>
		<stop  offset="1" style="stop-color:#F66D33"/>
	</linearGradient>
	<path style="fill-rule:evenodd;clip-rule:evenodd;fill:url(#SVGID_00000080171802255023619340000009966676860596155286_);" d="
		M416.55,610.6c110.52,17.48,103.7,46.65,231.96,11.71c128.26-34.94,220.11-227.88,220.11-227.88s6.41-14.28,0.98-22.69
		c-2.16-3.35-18.99,3.6-18.99,3.6c2.9,61.93-83.75,189.81-181.64,226.64c-10.45,3.93-21,5.3-30.82,7.51
		c-4.61-2.32-15.95-12.77,37.64-49.1c63.05-42.74,91.42-58.69,85.58-103.12c-5.84-44.43,50.25-114.83,50.25-114.83l0,0
		c0,0,4.06-18.73-6.55-30.4c-13.65-15.01-43.7,0.23-43.7,0.23s-7.81,87.11-118.33,134.17c-110.52,47.07-171.92,23.7-214.22,10.82
		c-42.3-12.88-54.89-82.92-54.89-82.92s-35.81-7.44-48.8,15.39c-9.55,16.78,4.3,37.64,4.3,37.64s66.65,24.15,126.68,47.19
		c60.04,23.03,174.65,2.4,215.58-17.3c40.93-19.7,40.93-51.15,73.68-79.77c13.54-11.83,27.16-19.83,38.54-25.19
		c0,0-35.81,55.24-31.72,94.14c4.09,38.89-20.47,37.52-80.5,105.74c-42.13,47.88-78.9,63.04-97.13,67.85
		c-46.24,4.19-88.22-1.01-145.74-16.61c-92.78-25.16-148.5-65.5-148.5-65.5s-8.07-3.84-11.14,5.04c-1.3,3.76,6.98,14.32,6.98,14.32
		S306.02,593.12,416.55,610.6z"/>
	
		<radialGradient id="SVGID_00000103265866426008959030000001877831002896965538_" cx="321.9595" cy="778.5834" r="173.2821" gradientUnits="userSpaceOnUse">
		<stop  offset="5.586590e-03" style="stop-color:#FFB80B"/>
		<stop  offset="0.388" style="stop-color:#FFB60C"/>
		<stop  offset="0.5789" style="stop-color:#FEAE10"/>
		<stop  offset="0.7274" style="stop-color:#FCA117"/>
		<stop  offset="0.8539" style="stop-color:#FA8E21"/>
		<stop  offset="0.9655" style="stop-color:#F7762E"/>
		<stop  offset="1" style="stop-color:#F66D33"/>
	</radialGradient>
	<path style="fill-rule:evenodd;clip-rule:evenodd;fill:url(#SVGID_00000103265866426008959030000001877831002896965538_);" d="
		M494.23,937.58c0,0-27.2-16.96-47.67-69.5c-20.47-52.55-17.74-49.11-55.94-82.21c-38.2-33.1-104.66-65.65-104.66-65.65
		s-4.49,1.54-4.5,2.88c-0.01,6.82,7.89,7.61,7.89,7.61s62.01,26.59,100.74,69.36c38.73,42.77,80.58,118.66,50.79,114.14
		c0,0,6.7,19.02,22.4,23.39C479,941.96,494.23,937.58,494.23,937.58z"/>
	
		<linearGradient id="SVGID_00000002360093342843960000000014692169854009724855_" gradientUnits="userSpaceOnUse" x1="257.4293" y1="720.7869" x2="964.1364" y2="720.7869">
		<stop  offset="5.586590e-03" style="stop-color:#FFB80B"/>
		<stop  offset="0.388" style="stop-color:#FFB60C"/>
		<stop  offset="0.5789" style="stop-color:#FEAE10"/>
		<stop  offset="0.7274" style="stop-color:#FCA117"/>
		<stop  offset="0.8539" style="stop-color:#FA8E21"/>
		<stop  offset="0.9655" style="stop-color:#F7762E"/>
		<stop  offset="1" style="stop-color:#F66D33"/>
	</linearGradient>
	<path style="fill:url(#SVGID_00000002360093342843960000000014692169854009724855_);" d="M765.84,683.39
		c12.67-13.54,28.01-31.76,90.09-32.12c62.08-0.43,93.98,13.32,93.98,13.32s12.77-3.59,14.13-20.2
		c1.35-16.43-11.18-24.81-11.18-24.81c-0.65,5.19-6.91,39.32-59.63,19.08c0-0.5,18.65-17.43,22.68-51.85
		c4.1-34.93,16.56-84.47,16.56-84.47s7.34-12.24,2.57-22.13c-1.57-3.25-13.66-4.73-13.66-4.73
		c10.44,69.64-15.91,153.53-44.58,163.18c-34.78,0.43-77.2,6.48-96.43,19.15c-23.62,15.63-47.31,86.27-62.51,135.96
		c-3.82,12.32-11.59,25.71-21.53,39.1c-38.02,9.15-26-36.44-42.42-50.48c-16.35-13.97-47.74-6.48-68.2-14.04
		c-20.45-7.56-25.92-23.76-47.74-26.36c-21.82-2.59-56.24,38.02-95.49,21.24c-39.25-16.78-170.67-172.4-170.67-172.4
		s-11.85-2.85-14.24,5.34c-1.83,6.29,13.02,22.75,13.02,22.75s91.38,137.9,178.66,155.84c87.35,17.93,166.49,1.15,193.79,24.84
		c27.15,23.62,29.24,61.36,29.24,61.64c-28.37,30.1-61.72,56.03-77.49,63.95c-27.29,13.76-72.16,23.12-72.16,23.12
		c6.12,7.06,18.44,12.72,31.71,16.27c19.14,5.12,31.37-4.53,31.37-4.53s-11.09-9.65,3.38-21.75
		c36.87-30.68,63.01-44.07,101.25-53.15c23.19-5.47,30.1,5.04,33.41,1.66v0.07c35.65,11.31,63.88-15.41,94.55-39.97
		c30.61-24.48,69.92-28.08,69.92-28.08s20.35-3.43,25.63-12.41c4.81-8.19-6.55-17.11-6.55-17.11s-17.36,7.13-50.05,23.69
		c-32.77,16.56-67.84,64.74-107.8,63.23c-22.04-0.79-17.43-23.12-19.52-26.28c0-1.58,0.07-3.17,0-4.75v-0.07
		c-0.65-16.2-4.03-30.89-4.03-42.63c0-3.02,0.22-5.83,0.79-8.43C730.41,776.71,753.16,696.92,765.84,683.39z M696.27,833.03
		c-6.99,9.43-15.05,18.8-23.62,27.87L696.27,833.03z M726.88,857.15c0.5,3.74,1.22,7.42,0.65,11.16c-0.22,1.94-0.58,3.53-2.45,4.18
		c-1.08,0.36-2.3,0.5-3.38,0.79c-1.73,0.43-3.38,1.08-5.11,1.3c-2.66,0.36-5.62,0.07-8.28,0.07c-2.88,0-5.98,0.29-8.86-0.07
		c-1.37-0.22-2.74-0.5-4.1-0.72c-1.37-0.22-3.24-0.29-4.46-1.01c-2.95-1.66-4.68-4.75-6.91-5.47c0.22-2.59,0.07-4.9,1.15-7.2
		c0.29-0.86,0.58-1.73,0.79-2.59c0.5-1.51,1.08-2.88,1.73-4.32c1.58-3.67,3.17-7.2,5.47-10.44c1.08-1.66,2.16-3.31,3.17-5.04
		c1.22-1.87,2.88-3.31,4.46-4.9c2.3-2.3,4.54-4.39,7.42-5.98c2.23-1.23,5.83-2.95,8.35-2.02c2.59,0.86,3.67,4.25,4.68,6.55
		c0.72,1.66,0.94,3.46,1.44,5.26c0.58,2.23,1.58,4.25,2.09,6.55c0.58,2.52,0.58,5.11,1.08,7.63
		C726.23,852.98,726.52,855.07,726.88,857.15z"/>
	<path class="st14" d="M338.38,382.31c0,0,15.4,31.65,54.97,60.17c0,0-13.13-45.91-22.6-64.98
		C370.75,377.5,357.77,365.26,338.38,382.31z"/>
	<path class="st14" d="M545.87,478.85c0,0,26.92-10.84,35.27-6.78C581.14,472.06,555.36,479.19,545.87,478.85z"/>
	<path class="st14" d="M635.88,453.94c4.84-1.56,9.77-2.99,14.51-4.84c4.2-1.65,8.19-3.56,12.12-5.75
		c4.98-2.78,9.85-5.83,14.34-9.32c1.16-0.9,2.51-1.48,3.71-2.31c1.4-0.96,2.78-2.09,4.14-3.11c1.21-0.91,2.18-2.17,3.34-3.16
		c1.16-0.99,2.35-1.96,3.55-2.89c2.05-1.58,4.18-3.32,6.06-5.11c0.91-0.86,1.77-1.78,2.74-2.58c0.66-0.55,1.21-0.72,1.97-1.04
		c0.29,0.62-0.46,2.09-0.71,2.69c-0.55,1.32-1.44,2.29-2.14,3.5c-1.61,2.75-4.24,4.51-6.21,6.98c-1.31,1.65-3.09,2.92-4.84,4.11
		c-2.44,1.66-5.25,3.08-7.87,4.44c-2.67,1.39-5.51,2.22-8.12,3.74c-2.48,1.44-4.95,2.56-7.52,3.74c-1.7,0.78-3.27,1.96-4.88,2.92
		c-1.37,0.82-2.74,1.63-4.1,2.44c-2.04,1.22-4.01,2.41-6.12,3.53c-1.12,0.59-2.26,1.08-3.36,1.68c-2.51,1.37-5.43,2.42-8.3,2.4
		c-1.06-0.01-2.01,0.1-2.99-0.34c-0.42-0.19-1.26-0.44-1.3-0.95C634.58,454.65,635.18,453.75,635.88,453.94z"/>
	<path class="st14" d="M708.54,407.21c-1.27,0.64-2.36,1.48-3.28,2.53c0.01,0.75-0.42,1.61,0.9,1.57c1.39-0.04,2.37-0.91,3.25-1.89
		c0.45-0.5,1.37-2,0.83-2.71c-0.67-0.89-2.51,0.34-3.06,0.84L708.54,407.21z"/>
	<path class="st14" d="M766.19,314.43c-0.99,1.31-2.42,2.84-3.06,4.47c-0.48,1.22-0.91,2.48-1.38,3.71
		c-0.92,2.42-1.44,4.92-2.21,7.37c-1.4,4.47-2.48,9.01-4.27,13.38c-0.81,1.98-1.78,3.86-2.73,5.77c-0.51,1.02-1.27,1.95-1.72,2.99
		c-0.4,0.93-0.94,1.7-1.36,2.61c-0.4,0.86-0.52,1.74-1.09,2.52c-0.67,0.93-1.08,1.82-1.63,2.82c-0.44,0.8-2.2,2.77-1.66,3.8
		c0.53,0.09,1.05-0.73,1.36-1.06c0.98-1,2.11-1.8,3.12-2.75c1.9-1.79,3.58-3.83,5.38-5.71c0.78-0.82,1.31-1.79,2.01-2.66
		c1-1.25,2.2-2.27,3.17-3.56c1.57-2.11,3.3-4.12,5.05-6.07c0.88-0.98,1.49-2.14,2.35-3.15c0.79-0.92,1.69-1.74,2.5-2.63
		c2.57-2.83,5.29-5.54,7.78-8.45c1.98-2.32,3.85-4.82,5.54-7.36c1.34-2.01,2.54-4.04,3.77-6.15c0.49-0.84,1.58-2.87,1.2-3.91
		c-0.49-1.32-2.05-1.86-3.28-2.05c-1.91-0.28-4.38-0.32-6.23,0.13c-2.09,0.51-3.94,1.29-5.91,2.11c-1.77,0.74-3.22,2.05-4.91,2.89
		C766.75,314.1,765.35,314.68,766.19,314.43z"/>
	<path class="st14" d="M783.93,355.36c-0.56,1.16-1.26,3.09-2.11,4.27c-0.77,1.07-1.49,2.06-2.16,3.2
		c-1.16,1.98-2.27,3.99-3.42,5.98c-2.09,3.63-4.71,6.98-6.31,10.86c-0.63,1.53-1.29,3.03-2.04,4.5c-0.79,1.55-1.15,3.24-1.7,4.88
		c-0.55,1.61-0.73,3.23-1.1,4.88c-0.3,1.33-0.92,2.59-0.54,3.97c1.3-1.69,2.23-3.57,3.43-5.35c0.84-1.25,1.5-2.54,2.64-3.55
		c1.14-1.02,2.05-2.13,3.07-3.27c1-1.12,1.99-2.27,2.75-3.57c0.7-1.2,1.14-2.45,1.95-3.59c0.76-1.07,1.3-2.3,2-3.41
		c0.83-1.31,1.67-2.6,2.19-4.08c0.99-2.79,1.99-5.74,2.73-8.6c0.35-1.34,0.58-3.16,0.34-4.56
		C785.45,356.81,783.7,353.75,783.93,355.36z"/>
	<path class="st14" d="M760.39,402.1c-0.53,1.81-1.23,3.85-1.64,5.73c-0.1,0.47-0.27,1.47,0.12,1.76c0.42,0.32,1.47-0.11,1.79-0.41
		c0.37-0.34,0.58-0.83,0.84-1.27c0.55-0.9,1.22-2.31,0.95-3.44c-0.28-1.22-1.41-2.27-2.41-1.01L760.39,402.1z"/>
	<path class="st14" d="M724.57,501.02c-3.85,3.69-8.29,6.94-11.42,11.29c-0.3,0.42-1.88,2.23-1.5,2.99c0.44,0.86,2.23,0.29,2.8,0.09
		c2.23-0.75,4.46-1.97,6.56-3.03c1.61-0.81,3.11-1.84,4.62-2.81c3.51-2.25,6.47-5.25,9.17-8.43c1.16-1.36,2.42-2.87,3.06-4.56
		c0.18-0.47,0.9-1.82,0.73-2.38c-0.56-1.87-5.03,0.11-5.93,0.69c-1.05,0.68-1.97,1.62-2.94,2.41c-0.82,0.66-1.58,1.21-2.42,1.77
		c-0.71,0.47-1.36,1.1-2.04,1.61C724.55,501.2,724.05,502.42,724.57,501.02z"/>
	<path class="st14" d="M707.18,518.76c-1.31,0.61-2.61,1.24-3.91,1.88c-0.01,0.6-1.62,1.7-0.82,2.5c0.44,0.44,1.9-0.14,2.33-0.28
		c0.94-0.32,1.45-0.98,2.15-1.64c0.71-0.68,0.65-0.95,0.25-1.78V518.76z"/>
	<path class="st14" d="M618.94,603.13c-3.11,2.36-6.51,4.56-9.99,6.39c-4.11,2.17-8.49,3.82-12.54,6.11
		c-6.29,3.56-12.95,6.24-19.54,9.15c-1.05,0.46-10.74,4.26-7.08,6.21c1.69,0.9,3.38,0.71,5.22,0.76c1.51,0.04,2.97,0.45,4.48,0.5
		c1.54,0.06,3.1-0.02,4.64-0.01c7.92,0.06,16.24-1.83,23.46-5.02c1.61-0.71,3.61-1.25,5.07-2.26c0.9-0.61,1.74-1.54,2.54-2.29
		c1.59-1.48,2.77-3.17,3.76-5.13c1.41-2.78,2.37-5.37,2.26-8.52c-0.04-1.13-0.4-2.5-1.2-3.38
		C619.37,604.94,618.6,604.73,618.94,603.13z"/>
	<path class="st14" d="M562.54,627.23c-1.77-0.87-3.77-2.21-5.7-2.3c-0.69-0.03-1.33,0.09-2,0.23c-1.48,0.31-3.82,0.49-4.95,1.61
		c-1.72,1.71,1.96,3.07,3.33,3.41c1.64,0.41,3.97,0.45,5.7,0.23c1.39-0.17,4.17-1.39,4.17-3.12c0.12-0.03,0.25-0.05,0.37-0.08
		H562.54z"/>
	<path class="st14" d="M667.15,605.4c7.37-2.21,14.33-5.21,21.2-8.66c2.66-1.34,5.29-2.86,7.82-4.43c1.65-1.02,3.28-2.34,5-3.21
		c0.71-0.36,4.96-2.84,5.55-1.65c0.76,1.54-3.88,4.62-4.54,5.2c-1.75,1.56-3.68,2.77-5.59,4.12c-1.61,1.14-3.39,1.71-5.09,2.68
		c-2.23,1.28-4.48,2.39-6.86,3.39c-1.76,0.74-3.56,1.63-5.4,2.1c-1.42,0.37-2.83,0.93-4.25,1.26c-1.06,0.24-2.13-0.07-3.19,0.19
		C670.5,606.73,668.04,607.37,667.15,605.4z"/>
	<path class="st14" d="M827.93,644.97c3.57,0,7.86,0.37,11.55-0.15c2.68-0.38,5.36-0.96,8.05-1.21c5.31-0.5,10.52-1.86,15.86-2.06
		c2.11-0.08,4.25,0.02,6.36,0.02c1.15,0,2.79-0.29,3.93-0.04c0.49,0.11,1.85,0.8,2.21,1.19c1.28,1.38,0.04,1.18-0.84,1.68
		c-1.9,1.08-3.37,1.96-5.59,2.43c-3.34,0.71-6.65,1.61-10.04,2.1c-2.34,0.33-4.68-0.08-7.01,0.29c-3.11,0.49-6.09,0.54-9.24,0.53
		c-2.56-0.01-5.12-0.01-7.68,0c-1.96,0.01-3.53-0.36-5.43-0.62c-1.61-0.22-2.56,0.09-3.92-0.66
		C825.51,648.12,824.5,647.15,827.93,644.97z"/>
	<path class="st14" d="M913.89,648.38c4.57,0.41,7.38,0.96,11.51,0.19c2.69-0.51,5.42-0.94,8.12-1.38c3.86-0.63,8.01-2.46,11.32-4.6
		c1.85-1.19,5.58-3.78,7.97-3.1c1.86,0.53,3.96,2.78,4.11,4.82c0.18,2.55-2.69,4.64-4.45,6.04c-3.06,2.43-7.63,3.31-11.44,3.53
		c-4.66,0.27-9.17-0.38-13.7-1.4c-1.39-0.31-2.76-0.72-4.15-1.03C921.99,651.18,919.47,651.5,913.89,648.38z"/>
	<path class="st14" d="M924.12,479.87c-0.29,3.1-2.22,10.78,1.69,13.28c2.08,1.33,3.07-2.17,3.1-3.75c0.04-2.28-1.41-8.24-4.11-8.85
		L924.12,479.87z"/>
	<path class="st14" d="M281.01,550.37c3.24,4.16,5.63,8.48,10.12,11.09c2.62,1.52,5.16,3.3,8.09,4.18c2.73,0.83,6.24,1.76,9.09,1.11
		c1.54-0.35,1.94,0.17,1.87-1.82c-0.03-0.88-0.69-2.05-1.16-2.75c-0.93-1.42-2.36-2.32-3.46-3.59c-1.29-1.5-2.06-2.94-3.64-4.17
		c-5.23-4.09-10.11-7.5-16.44-9.54c-2.28-0.73-2.44-1-4.45,0.25c-1.59,1-1.65,0.59-1.88,2.46c-0.3,2.48,1.49,4.46,2.76,6.4
		L281.01,550.37z"/>
	<path class="st14" d="M283.74,617.68c5.3,8.44,11.34,16.14,17.75,23.76c4.53,5.4,7.28,12.23,12.45,17.19
		c0.86,0.82,9.92,8.62,9.82,4.12c-0.02-1.03-2.59-5.06-3.15-5.96c-1.51-2.47-3.19-5.07-5.04-7.3c-1.52-1.83-3.28-3.63-4.57-5.66
		c-1.38-2.18-2.55-3.48-4.3-5.42c-2.19-2.44-3.37-5.5-5.31-8.11c-1.8-2.42-3.64-4.72-5.38-7.19c-2.33-3.3-4.74-6.99-8.44-8.38
		c-0.97-0.36-2.45-1.43-3.68-0.53C281.93,615.65,283.5,620.58,283.74,617.68z"/>
	<path class="st14" d="M612.12,777.78c7.62-1.36,13.79-2.57,21.3-0.81c3.67,0.86,7.38,2,10.99,3.08c2.33,0.7,5.87,1.38,7.56,3.12
		c1.78,1.82,1.16,5.1-0.46,6.71c-2.22,2.21-7.13,1.73-9.89,1.47c-5.67-0.53-11.1-1.22-16.55-2.88c-3.09-0.94-7.4-2.47-10-4.52
		C613.86,783,610.75,780.39,612.12,777.78z"/>
	<path class="st14" d="M716.73,818.71c-3.86-0.85-4.18-7.74-3.11-10.49c0.6-1.56,1.58-4.07,3.31-4.78c1.77-0.73,2.39,0.5,3.89,1.04
		c-1.6,3.44-3.57,6.67-5.91,9.69L716.73,818.71z"/>
	<path class="st14" d="M860.45,815.98c5.08-3.31,8.52-5.64,14.06-7.28c2.81-0.84,5.71-1.19,8.52-2.04c3.29-0.99,6.61-2.56,9.98-3.23
		c1.23-0.25,2.42-0.17,3.62-0.38c1.36-0.23,0.7-0.91,2.25-0.06c2.86,1.56,1.56,3.66-0.3,5.23c-3.52,2.99-6.53,4.17-11.09,5.24
		c-2.55,0.6-4.58,2.04-7.05,2.8c-1.49,0.46-3.04,0.71-4.54,1.1C870.32,818.83,863.52,817.8,860.45,815.98z"/>
	<path class="st14" d="M401.99,804.16c3.2,6.62,5.88,12.95,10.05,18.91c1.87,2.67,3.29,5.28,6.32,6.57c2.4,1.02,4.03,1.41,4.36-1.86
		c0.17-1.7-1.23-4.13-2.16-5.78c-2.68-4.78-6.5-8.93-9.68-13.3c-1.23-1.7-2.97-3.98-4.58-5.28
		C405.15,802.48,401.71,801.41,401.99,804.16L401.99,804.16z"/>
	<path class="st14" d="M535.71,949.7c7.69-1.6,14.36-3.99,21.65-6.64c3.02-1.1,6.02-1.1,9.08-1.75c0.28-0.06,0.62-0.65,1.04-0.75
		c0.75-0.19,2,0.04,2.8,0.05c0.8,0,4.28-0.47,4.97,0.03c2.84,2.09-3.23,7.61-4.54,8.99c-5,5.26-13.28,8.15-20.64,7.4
		c-3.72-0.38-7.1-2.37-10.71-2.78c-2.31-0.26-7.4-1.11-7.17-4.4C532.45,949.8,532.71,949.75,535.71,949.7z"/>
	<path class="st14" d="M667.61,872.38c-6.8,4.63-14.28,8.65-19.16,15.49c-3.37,4.72,2.79,3.74,5.51,2.71
		c2.27-0.86,3.97-1.71,5.96-3.1c1.78-1.24,2.77-2.48,4.26-3.98c1.08-1.09,2.46-1.96,3.44-3.13c1-1.2,1.4-3.8,2.57-4.6
		c-0.2-0.52-0.43-1.02-0.75-1.57L667.61,872.38z"/>
	<path class="st14" d="M482.04,767.77c4.95-2.09,9.87-3.85,14.49-6.33c4.3-2.3,8.43-4.68,12.81-6.86c5.62-2.79,11.69-6.7,18.21-6.85
		c2.45-0.06,4.07-1.24,6.34-0.22c1.81,0.82,3.17,1.55,4.32,3.18c3.32,4.72-3.26,9.26-6.86,11.69c-2.76,1.86-5.29,4.14-8.37,5.44
		c-3.61,1.52-7.49,2.21-11.14,3.57c-6.05,2.24-12.48,4.73-18.92,5.53c-3.34,0.41-6.4-0.81-9.08-2.55c-1.35-0.88-2.72-2.06-3.62-3.41
		C479.38,769.7,478.84,767.65,482.04,767.77z"/>
	
		<radialGradient id="SVGID_00000009576081957897861690000003578057252290876831_" cx="476.4585" cy="656.3301" r="72.6914" gradientTransform="matrix(1.5376 -0.6436 0.4127 0.9858 -398.5888 256.5906)" gradientUnits="userSpaceOnUse">
		<stop  offset="0" style="stop-color:#FF5B00"/>
		<stop  offset="0.1732" style="stop-color:#C54600"/>
		<stop  offset="0.3988" style="stop-color:#802E00"/>
		<stop  offset="0.6025" style="stop-color:#491A00"/>
		<stop  offset="0.7769" style="stop-color:#210C00"/>
		<stop  offset="0.9151" style="stop-color:#090300"/>
		<stop  offset="1" style="stop-color:#000000"/>
	</radialGradient>
	<path style="fill-rule:evenodd;clip-rule:evenodd;fill:url(#SVGID_00000009576081957897861690000003578057252290876831_);" d="
		M716.65,550.17c16.57,39.58-20.04,92.61-81.77,118.45c-61.73,25.84-125.2,14.7-141.77-24.87c-16.57-39.58,20.04-92.61,81.77-118.45
		C636.61,499.45,700.08,510.59,716.65,550.17z"/>
	
		<radialGradient id="SVGID_00000118382910065311109910000002432829013498772632_" cx="291.3351" cy="766.965" r="72.6909" gradientTransform="matrix(1.0538 0.7047 -0.5941 0.8884 504.7457 -488.9817)" gradientUnits="userSpaceOnUse">
		<stop  offset="0" style="stop-color:#FF5B00"/>
		<stop  offset="0.1732" style="stop-color:#C54600"/>
		<stop  offset="0.3988" style="stop-color:#802E00"/>
		<stop  offset="0.6025" style="stop-color:#491A00"/>
		<stop  offset="0.7769" style="stop-color:#210C00"/>
		<stop  offset="0.9151" style="stop-color:#090300"/>
		<stop  offset="1" style="stop-color:#000000"/>
	</radialGradient>
	<path style="fill-rule:evenodd;clip-rule:evenodd;fill:url(#SVGID_00000118382910065311109910000002432829013498772632_);" d="
		M432.7,448.92c-23.85,35.66-77.48,41.64-119.79,13.35c-42.31-28.29-57.27-80.14-33.42-115.8c23.85-35.66,77.48-41.64,119.79-13.35
		C441.59,361.41,456.55,413.26,432.7,448.92z"/>
	
		<radialGradient id="SVGID_00000087390077654874039920000009212260650888090548_" cx="781.1688" cy="653.2865" r="65.5691" gradientTransform="matrix(1.0538 0.7047 -0.5941 0.8884 504.7457 -488.9817)" gradientUnits="userSpaceOnUse">
		<stop  offset="0" style="stop-color:#FF5B00"/>
		<stop  offset="0.1732" style="stop-color:#C54600"/>
		<stop  offset="0.3988" style="stop-color:#802E00"/>
		<stop  offset="0.6025" style="stop-color:#491A00"/>
		<stop  offset="0.7769" style="stop-color:#210C00"/>
		<stop  offset="0.9151" style="stop-color:#090300"/>
		<stop  offset="1" style="stop-color:#000000"/>
	</radialGradient>
	<path style="fill-rule:evenodd;clip-rule:evenodd;fill:url(#SVGID_00000087390077654874039920000009212260650888090548_);" d="
		M1008.92,688.1c-21.51,32.17-69.89,37.56-108.05,12.04c-38.16-25.52-51.66-72.29-30.14-104.46
		c21.51-32.17,69.89-37.56,108.05-12.04C1016.94,609.16,1030.44,655.93,1008.92,688.1z"/>
	
		<radialGradient id="SVGID_00000131327257595626487000000011282137446246405797_" cx="591.1766" cy="1122.9303" r="65.5691" gradientTransform="matrix(1.0538 0.7047 -0.5941 0.8884 504.7457 -488.9817)" gradientUnits="userSpaceOnUse">
		<stop  offset="0" style="stop-color:#FF5B00"/>
		<stop  offset="0.1732" style="stop-color:#C54600"/>
		<stop  offset="0.3988" style="stop-color:#802E00"/>
		<stop  offset="0.6025" style="stop-color:#491A00"/>
		<stop  offset="0.7769" style="stop-color:#210C00"/>
		<stop  offset="0.9151" style="stop-color:#090300"/>
		<stop  offset="1" style="stop-color:#000000"/>
	</radialGradient>
	<path style="fill-rule:evenodd;clip-rule:evenodd;fill:url(#SVGID_00000131327257595626487000000011282137446246405797_);" d="
		M529.69,971.44c-21.51,32.17-69.89,37.56-108.05,12.04c-38.16-25.52-51.66-72.29-30.14-104.46
		c21.51-32.17,69.89-37.56,108.05-12.04C537.71,892.5,551.21,939.27,529.69,971.44z"/>
</g>
</svg>
