<?xml version="1.0" encoding="utf-8"?>
<!-- Generator: Adobe Illustrator 26.4.1, SVG Export Plug-In . SVG Version: 6.00 Build 0)  -->
<svg version="1.1" id="Слой_1" xmlns="http://www.w3.org/2000/svg" xmlns:xlink="http://www.w3.org/1999/xlink" x="0px" y="0px"
	 viewBox="0 0 1200 1200" style="enable-background:new 0 0 1200 1200;" xml:space="preserve">
<style type="text/css">
	.st0{fill:#020202;}
	.st1{fill-rule:evenodd;clip-rule:evenodd;fill:url(#SVGID_1_);}
	.st2{fill-rule:evenodd;clip-rule:evenodd;fill:url(#SVGID_00000040535644742585648120000011187217299813936049_);}
	.st3{fill-rule:evenodd;clip-rule:evenodd;fill:url(#SVGID_00000000204399689758546990000004245533722741257900_);}
	.st4{fill-rule:evenodd;clip-rule:evenodd;fill:url(#SVGID_00000075158859336968729250000007473909368818050239_);}
	.st5{fill-rule:evenodd;clip-rule:evenodd;fill:url(#SVGID_00000147196662052749641850000009282228833136909969_);}
	.st6{fill-rule:evenodd;clip-rule:evenodd;fill:url(#SVGID_00000160871384157002578150000016730939798498993540_);}
	.st7{fill-rule:evenodd;clip-rule:evenodd;fill:url(#SVGID_00000155840760772091157360000002546359044840981423_);}
	.st8{fill-rule:evenodd;clip-rule:evenodd;fill:url(#SVGID_00000005973339909836631870000001201052581311362235_);}
	.st9{fill-rule:evenodd;clip-rule:evenodd;fill:url(#SVGID_00000173161679048035482090000018214117514226807980_);}
	.st10{opacity:0.4;fill-rule:evenodd;clip-rule:evenodd;fill:url(#SVGID_00000103984385004957050960000015748008285356183440_);}
	.st11{opacity:0.4;fill-rule:evenodd;clip-rule:evenodd;fill:url(#SVGID_00000113325090517758514990000017057117087440206524_);}
	.st12{opacity:0.4;fill-rule:evenodd;clip-rule:evenodd;fill:url(#SVGID_00000038394838965327530880000004076147220766455731_);}
	.st13{opacity:0.4;fill-rule:evenodd;clip-rule:evenodd;fill:url(#SVGID_00000061434130774743529760000004927890954155658628_);}
	.st14{opacity:0.4;fill-rule:evenodd;clip-rule:evenodd;fill:url(#SVGID_00000105416724512267634120000005212381984448881064_);}
	.st15{opacity:0.4;fill-rule:evenodd;clip-rule:evenodd;fill:url(#SVGID_00000180326349058766039550000003541589564209850280_);}
	.st16{fill-rule:evenodd;clip-rule:evenodd;fill:url(#SVGID_00000099656185825818245800000011055723715490567861_);}
	.st17{fill-rule:evenodd;clip-rule:evenodd;fill:url(#SVGID_00000170956790646389952840000011903484898738086578_);}
	.st18{fill-rule:evenodd;clip-rule:evenodd;fill:url(#SVGID_00000179621579353988570120000012164912953614784945_);}
	.st19{fill-rule:evenodd;clip-rule:evenodd;fill:url(#SVGID_00000005254318758763980130000011216225141939109817_);}
	.st20{fill-rule:evenodd;clip-rule:evenodd;fill:url(#SVGID_00000154417853655418250780000012691930919928144052_);}
	.st21{fill-rule:evenodd;clip-rule:evenodd;fill:url(#SVGID_00000021106587266223848080000017984703739817588868_);}
	.st22{fill-rule:evenodd;clip-rule:evenodd;fill:url(#SVGID_00000022524431138607141010000008478990181377913506_);}
	.st23{fill-rule:evenodd;clip-rule:evenodd;fill:url(#SVGID_00000069389851811268610930000017530289139459741608_);}
	.st24{fill-rule:evenodd;clip-rule:evenodd;fill:url(#SVGID_00000157283164090732646410000002206861028044470941_);}
	.st25{fill-rule:evenodd;clip-rule:evenodd;fill:url(#SVGID_00000114050895678559520420000005992213175263048892_);}
	.st26{fill-rule:evenodd;clip-rule:evenodd;fill:url(#SVGID_00000139988236803492551690000002300042581773877655_);}
	.st27{fill-rule:evenodd;clip-rule:evenodd;fill:url(#SVGID_00000027572814438286342110000018321555105839741317_);}
	.st28{fill-rule:evenodd;clip-rule:evenodd;fill:#0EDBFF;}
	.st29{fill-rule:evenodd;clip-rule:evenodd;fill:url(#SVGID_00000013151671018326344360000017369122276583539595_);}
	.st30{fill-rule:evenodd;clip-rule:evenodd;fill:url(#SVGID_00000086677679067881935140000014544896286911865245_);}
	.st31{fill-rule:evenodd;clip-rule:evenodd;fill:url(#SVGID_00000023246100699668818150000005973642128499669933_);}
	.st32{fill-rule:evenodd;clip-rule:evenodd;fill:url(#SVGID_00000004506447106258117910000003945112649223879091_);}
	.st33{fill-rule:evenodd;clip-rule:evenodd;fill:url(#SVGID_00000034801516593055463030000010983929772081595579_);}
	.st34{opacity:0.4;fill-rule:evenodd;clip-rule:evenodd;fill:url(#SVGID_00000047027795205587129080000016339585898637326750_);}
	.st35{fill-rule:evenodd;clip-rule:evenodd;fill:url(#SVGID_00000129188920550816453790000000298345542450956210_);}
	.st36{fill-rule:evenodd;clip-rule:evenodd;fill:url(#SVGID_00000130635702348981761710000003225528649651820943_);}
</style>
<g>
	<rect x="0.5" y="0.5" class="st0" width="1202" height="1202"/>
	<path d="M1202,1v1201H1V1H1202 M1203,0H0v1203h1203V0L1203,0z"/>
</g>
<g>
	<radialGradient id="SVGID_1_" cx="600.1268" cy="600.1268" r="472.2564" gradientUnits="userSpaceOnUse">
		<stop  offset="5.586590e-03" style="stop-color:#009BFF"/>
		<stop  offset="1" style="stop-color:#000000"/>
	</radialGradient>
	<circle class="st1" cx="600.13" cy="600.13" r="472.26"/>
	
		<radialGradient id="SVGID_00000063596014727420366350000006238473380238078361_" cx="600.1268" cy="600.1268" r="395.2924" gradientUnits="userSpaceOnUse">
		<stop  offset="5.586590e-03" style="stop-color:#009BFF"/>
		<stop  offset="1" style="stop-color:#000000"/>
	</radialGradient>
	
		<circle style="fill-rule:evenodd;clip-rule:evenodd;fill:url(#SVGID_00000063596014727420366350000006238473380238078361_);" cx="600.13" cy="600.13" r="395.29"/>
	
		<radialGradient id="SVGID_00000135684488199699389240000010953493110701194422_" cx="600.1268" cy="600.1268" r="402.2993" gradientUnits="userSpaceOnUse">
		<stop  offset="5.586590e-03" style="stop-color:#0092FF"/>
		<stop  offset="0.1307" style="stop-color:#0090FB"/>
		<stop  offset="0.2556" style="stop-color:#0089EF"/>
		<stop  offset="0.3804" style="stop-color:#007DDB"/>
		<stop  offset="0.5054" style="stop-color:#006DBF"/>
		<stop  offset="0.6304" style="stop-color:#00599B"/>
		<stop  offset="0.7555" style="stop-color:#003F6E"/>
		<stop  offset="0.8783" style="stop-color:#00223B"/>
		<stop  offset="1" style="stop-color:#000000"/>
	</radialGradient>
	
		<circle style="fill-rule:evenodd;clip-rule:evenodd;fill:url(#SVGID_00000135684488199699389240000010953493110701194422_);" cx="600.13" cy="600.13" r="402.3"/>
	
		<linearGradient id="SVGID_00000090273873560545730240000008727636972144090496_" gradientUnits="userSpaceOnUse" x1="373.7353" y1="417.2615" x2="373.7353" y2="299.1082">
		<stop  offset="0" style="stop-color:#9A00B3"/>
		<stop  offset="1" style="stop-color:#7F72FF"/>
	</linearGradient>
	<path style="fill-rule:evenodd;clip-rule:evenodd;fill:url(#SVGID_00000090273873560545730240000008727636972144090496_);" d="
		M312.4,417.26c0,0,4.16-35.92,6.88-55.66c0,0,24.56-34.29,63.67-62.49l52.11,2.71C435.07,301.82,330.01,386.1,312.4,417.26z"/>
	
		<linearGradient id="SVGID_00000110462735913581868680000010707233330247193506_" gradientUnits="userSpaceOnUse" x1="347.5857" y1="423.2461" x2="391.9819" y2="287.7097">
		<stop  offset="0" style="stop-color:#5B008B"/>
		<stop  offset="1" style="stop-color:#8E00FF"/>
	</linearGradient>
	<path style="fill-rule:evenodd;clip-rule:evenodd;fill:url(#SVGID_00000110462735913581868680000010707233330247193506_);" d="
		M382.96,299.11c0,0,0,28.91-26.38,51.75c-26.38,22.84-37.85,14.82-37.85,14.82l-6.33,46.04l122.67-109.9L382.96,299.11z"/>
	
		<radialGradient id="SVGID_00000056393802097895810530000016497540029608740535_" cx="389.0811" cy="440.7328" r="548.0306" gradientUnits="userSpaceOnUse">
		<stop  offset="5.586590e-03" style="stop-color:#60DBFF"/>
		<stop  offset="0.0937" style="stop-color:#60D5FF"/>
		<stop  offset="0.211" style="stop-color:#5FC4FF"/>
		<stop  offset="0.3446" style="stop-color:#5DA9FF"/>
		<stop  offset="0.4903" style="stop-color:#5A82FF"/>
		<stop  offset="0.6442" style="stop-color:#5751FF"/>
		<stop  offset="0.6844" style="stop-color:#5643FF"/>
		<stop  offset="0.7432" style="stop-color:#563DF8"/>
		<stop  offset="0.8282" style="stop-color:#552EE5"/>
		<stop  offset="0.9287" style="stop-color:#5315C6"/>
		<stop  offset="1" style="stop-color:#5200AB"/>
	</radialGradient>
	<path style="fill-rule:evenodd;clip-rule:evenodd;fill:url(#SVGID_00000056393802097895810530000016497540029608740535_);" d="
		M941.54,600.32c0,32.77-4.61,64.52-13.32,94.48c-17.28,60.28-50.77,113.64-95.49,155.26c-31.97,29.81-69.71,53.51-111.26,69.28
		c-37.66,14.33-78.42,22.11-121.13,22.11c-6.05,0-12.17-0.14-18.15-0.5h-0.07c-8.93-0.43-17.79-1.3-26.5-2.38
		c-65.89-8.64-125.73-36.01-174.27-76.77c-18.22-15.19-34.78-32.33-49.4-51.06c-11.09-14.04-21.1-28.95-29.88-44.72
		c-2.09-3.75-4.11-7.56-6.12-11.38c0-0.14-0.07-0.22-0.14-0.36c-2.09-4.1-4.03-8.21-5.91-12.39c-0.07,0-0.07,0-0.07,0
		c-5.91-13.03-11.09-26.5-15.27-40.33c-3.17-9.94-5.83-20.16-7.99-30.53c-0.07-0.07-0.07-0.22-0.07-0.29
		c-1.51-7.27-2.81-14.62-3.82-22.04c-2.3-15.84-3.46-31.97-3.46-48.39c0-9.43,0.36-18.87,1.22-28.08
		c0.43-5.91,1.08-11.74,1.87-17.57c4.39-33.56,13.76-65.53,27.29-95.27c6.63-14.62,14.26-28.66,22.83-42.13
		c14.26-22.47,31.11-43.06,50.12-61.57c61.43-59.77,145.32-96.57,237.79-96.57c3.6,0,7.2,0.07,10.73,0.14
		c3.82,0.14,7.63,0.29,11.45,0.58c19.59,1.3,38.74,4.18,57.25,8.64c10.8,2.59,21.39,5.62,31.76,9.22
		c7.06,2.38,13.97,5.04,20.81,7.92c5.11,2.16,10.08,4.39,15.05,6.77c0.86,0.43,1.73,0.79,2.59,1.22
		c33.13,16.2,63.15,37.52,89.22,63.08c3.74,3.6,7.35,7.34,10.95,11.16c2.38,2.59,4.75,5.26,7.06,7.92
		c3.96,4.46,7.78,9.15,11.52,13.83c13.61,17.28,25.56,35.86,35.57,55.59c11.74,22.9,20.96,47.31,27.22,72.88
		C938.08,544.44,941.54,571.95,941.54,600.32z"/>
	
		<linearGradient id="SVGID_00000011752494182800261960000007742135002416673963_" gradientUnits="userSpaceOnUse" x1="259.2014" y1="506.7096" x2="749.9691" y2="506.7096">
		<stop  offset="0.0112" style="stop-color:#81E0FF"/>
		<stop  offset="0.3224" style="stop-color:#82DDFF"/>
		<stop  offset="0.5506" style="stop-color:#86D4FF"/>
		<stop  offset="0.7523" style="stop-color:#8BC4FF"/>
		<stop  offset="0.9375" style="stop-color:#94ADFF"/>
		<stop  offset="1" style="stop-color:#97A4FF"/>
	</linearGradient>
	<path style="fill-rule:evenodd;clip-rule:evenodd;fill:url(#SVGID_00000011752494182800261960000007742135002416673963_);" d="
		M749.97,293.64c-1.12,0.12-2.25,0.24-3.37,0.47c-3.85,0.71-6.86,0.36-10.65-0.71c-2.72-0.77-4.68-1.89-7.58-2.37
		c-4.14-0.65-7.99-2.43-12.13-2.96c-4.38-0.59-8.17-2.31-12.31-3.79c-3.25-1.18-4.97-0.77-8.11,0c-3.14,0.83-5.33-0.47-8.11-1.66
		c-3.14-1.36-6.27-1.6-9.59-2.25c-8.64-1.78-17.22-4.56-25.8-6.75c-5.33-1.36-10.24-1.36-15.68-1.42
		c-4.26-0.06-8.11,1.18-12.37,1.18c-2.84,0-5.27-0.47-8.11-0.89c-2.9-0.53-5.86,0.06-8.76-0.36c-4.32-0.65-6.63-1.3-11.01,0.06
		c-3.26,1.06-5.8,0.95-9.05,1.12c-3.61,0.18-7.69,1.12-11.24,1.95c-6.39,1.48-13.37,2.66-19.94,2.54c-4.02,0-9.94-1.12-13.79,0.24
		c-2.49,0.89-3.73,3.55-5.44,5.33c-3.31,3.43-7.4,6.51-10.18,10.36c-2.78,3.85-5.92,7.81-5.68,12.66c0.24,4.2,2.19,9.11,4.02,12.96
		c1.89,4.08,2.54,7.81-1.66,10.53c-5.27,3.49-11.36,6.69-17.4,8.4c-4.02,1.18-7.63,1.89-11.01-1.01c-1.24-1.07-2.01-3.14-3.55-3.96
		c-1.6-0.83-3.26,0-4.97,0.53c-4.26,1.24-8.4,2.66-12.72,3.37c-2.66,0.41-4.97,1.83-7.58,2.31c-3.14,0.59-5.39-1.72-8.64-0.95
		c-4.56,1.07-9.11,2.96-13.85,3.2c-3.37,0.18-7.63-1.3-10.47-3.02c-1.66-0.95-2.07-1.89-3.97-1.36c-1.54,0.36-3.85,2.25-4.68,3.43
		c-1.12,1.6-1.54,3.67-2.66,5.33c-1.18,1.83-2.31,3.61-3.37,5.56c-1.95,3.79-4.26,7.34-6.75,10.71c-1.77,2.37-3.02,5.56-4.97,7.75
		c-1.01,1.18-3.2,2.01-4.5,2.9c-3.55,2.49-7.28,4.73-10.71,7.4c-6.63,5.21-12.9,10.95-19.65,15.98c-5.15,3.85-12.37,6.1-18.23,8.52
		c-3.67,1.48-7.46,2.55-11.13,4.08c-1.18,0.47-3.37,1.01-4.38,1.89c-1.3,1.12-2.01,3.2-3.2,4.73c-3.2,3.91-6.57,7.81-9,12.31
		c-1.48,2.6-2.37,5.27-3.31,8.11c-1.3,3.85-3.37,7.4-4.68,11.24c-2.66,8.05-3.2,16.45-6.15,24.44c-1.72,4.68-4.2,8.94-6.33,13.2
		c-3.67,7.22-4.2,15.8-5.27,23.79c-0.59,4.68-0.35,10.06,0.47,14.62c0.89,4.91,0.65,10,0.59,15.03c-0.06,5.33-3.43,10.53-6.81,14.56
		c-3.08,3.73-7.75,5.15-11.18,8.46c-2.9,2.84-6.39,6.1-7.63,10.12c-0.53,1.78-0.06,3.79-0.36,5.68c-0.77,4.2-1.83,8.17-2.43,12.43
		c-0.65,5.27-0.77,10.24-0.77,15.56c0,2.66-0.18,5.39-0.06,8.05c0.12,2.54,1.07,4.91,1.24,7.46c0.12,1.78-0.24,3.55,0,5.33
		c0.36,2.01,1.12,4.08,1.6,6.04c1.18,4.73,2.07,9.35,2.96,14.09c0.83,4.38,2.54,8.7,3.91,12.96c1.89,5.8,3.14,11.78,4.26,17.81
		c0.89,4.5,0.83,9.17,1.48,13.73c0.53,3.67,1.36,7.4,1.54,11.07c0.18,5.56-1.18,11.13-1.24,16.75c-0.06,9.47,3.73,18.94,5.92,28.05
		c0.65,2.54,1.3,5.15,2.01,7.69c-23.44-46.28-36.63-98.59-36.63-153.98c0-67.35,19.53-130.13,53.2-183.04
		c14.32-22.49,31.13-43.08,50.12-61.55c61.49-59.77,145.34-96.58,237.84-96.58c7.46,0,14.79,0.24,22.13,0.71
		C668.01,262.75,711.09,274.58,749.97,293.64z"/>
	
		<linearGradient id="SVGID_00000062897713291560309760000016006788234229041291_" gradientUnits="userSpaceOnUse" x1="754.9777" y1="909.5696" x2="754.9777" y2="749.3691">
		<stop  offset="0" style="stop-color:#B8C2FF"/>
		<stop  offset="1" style="stop-color:#5B729C"/>
	</linearGradient>
	<path style="fill-rule:evenodd;clip-rule:evenodd;fill:url(#SVGID_00000062897713291560309760000016006788234229041291_);" d="
		M622.12,760.63c0,0,31.85,47.03,74.01,85.17c42.16,38.14,48.34,63.77,48.34,63.77s79.67-33.32,136.52-112.22
		C937.84,718.45,622.12,760.63,622.12,760.63z"/>
	
		<radialGradient id="SVGID_00000076590850506626310190000017640819449894453915_" cx="351.0531" cy="368.0873" r="449.0543" gradientUnits="userSpaceOnUse">
		<stop  offset="0" style="stop-color:#FFFFD9"/>
		<stop  offset="1" style="stop-color:#000000"/>
	</radialGradient>
	<path style="fill-rule:evenodd;clip-rule:evenodd;fill:url(#SVGID_00000076590850506626310190000017640819449894453915_);" d="
		M398.05,866.76c-35.27-29.53-64.5-66.1-85.51-107.53c-13.2-26.04-23.14-53.97-29.29-83.26c-0.06-0.06-0.06-0.18-0.06-0.3
		c-4.73-22.72-7.28-46.28-7.28-70.42c0-67.35,19.53-130.13,53.2-183.04c14.32-22.49,31.13-43.08,50.12-61.55
		c61.49-59.77,145.34-96.58,237.84-96.58c7.46,0,14.79,0.24,22.13,0.71c23.14,1.48,45.62,5.31,67.25,11.18
		c-26.66-8.74-54.8-14.26-83.95-16.13c-7.34-0.47-14.68-0.71-22.13-0.71c-92.5,0-176.35,36.81-237.84,96.58
		c-19,18.46-35.8,39.06-50.12,61.55c-33.67,52.91-53.2,115.69-53.2,183.04c0,24.14,2.54,47.7,7.28,70.42c0,0.12,0,0.24,0.06,0.3
		c6.15,29.29,16.1,57.23,29.29,83.26c21.01,41.42,50.24,78,85.51,107.53c37.38,31.36,81.51,54.78,129.91,67.85
		C469.39,916,431.09,894.48,398.05,866.76z"/>
	
		<linearGradient id="SVGID_00000120560763901354300650000000322288892223822245_" gradientUnits="userSpaceOnUse" x1="262.313" y1="410.1419" x2="691.373" y2="410.1419">
		<stop  offset="0" style="stop-color:#B8C2FF"/>
		<stop  offset="1" style="stop-color:#7D72B3"/>
	</linearGradient>
	
		<path style="opacity:0.4;fill-rule:evenodd;clip-rule:evenodd;fill:url(#SVGID_00000120560763901354300650000000322288892223822245_);" d="
		M679.77,268.48c-18.51-4.47-37.66-7.35-57.25-8.64c-3.82-0.29-7.63-0.43-11.45-0.58c8.14,4.54,15.7,12.53,17.57,20.74
		c3.1,14.04,7.63,27.08,10.23,41.12c2.59,13.83,2.09,30.97-4.18,43.5c-3.96,7.92-8.64,14.69-14.91,21.17
		c-4.46,4.54-8.28,7.06-11.45,12.67c-3.17,5.47-6.19,10.8-9.79,15.99c-5.33,7.78-10.95,16.06-17.07,23.19
		c-2.16,2.59-4.54,4.39-6.48,7.42c-2.45,3.75-3.6,7.27-6.27,10.23c-6.12,6.84-15.63,10.66-24.05,13.75
		c-10.95,4.1-20.24,8.71-30.53,14.19c-14.47,7.63-26.36,17.43-43.28,17.86c-5.62,0.14-11.45-0.65-17.07-0.14
		c-6.99,0.58-13.47,3.96-20.38,5.26c-6.05,1.15-12.1,2.38-18.15,3.39c-9.94,1.51-18.15,4.9-27.73,7.2
		c-12.46,3.1-25.49,2.3-38.02,4.03c-11.31,1.51-21.1,2.88-32.33,0.14c-17.35-4.32-26.64-12.53-22.97-30.97
		c2.45-12.1,1.58-21.32-4.61-30.61c-13.54,29.74-22.9,61.72-27.29,95.27c8.21,3.46,17.57,5.26,24.84,5.98
		c25.28,2.59,52.5-8.71,75.61-17.35c11.81-4.46,23.84-10.95,36.58-12.39c13.39-1.44,25.2,0.22,38.6-3.1
		c46.16-11.38,91.67-27.51,132.86-51.92c17.07-10.08,24.63-24.49,36.51-39.1c10.44-12.75,22.18-23.33,34.64-33.99
		c12.24-10.44,23.04-20.81,30.32-35.43c7.71-15.41,14.26-32.33,17.79-49.26C693.82,300.24,689.21,283.03,679.77,268.48z
		 M677.47,314.86c-0.72,3.82-1.22,7.92-2.38,11.52c-2.95,9.15-8.42,18.58-16.99,23.4c-3.96,2.23-9.22,0.86-11.52-3.1
		c-1.22-2.16-1.22-4.9-1.66-7.27c-0.86-4.68-1.44-9.29-1.37-14.12c0.14-11.59-0.29-22.76-1.37-34.35c1.22,6.55-0.29-9.72,9.94-14.19
		c4.82-2.16,12.1-0.22,15.77,3.53c4.61,4.68,5.69,12.6,7.42,18.72C676.82,304.49,678.48,309.1,677.47,314.86z"/>
	
		<linearGradient id="SVGID_00000116232931036568971070000004308374940254736824_" gradientUnits="userSpaceOnUse" x1="331.9496" y1="729.5112" x2="941.5405" y2="729.5112">
		<stop  offset="0" style="stop-color:#B8C2FF"/>
		<stop  offset="1" style="stop-color:#7D72B3"/>
	</linearGradient>
	
		<path style="opacity:0.4;fill-rule:evenodd;clip-rule:evenodd;fill:url(#SVGID_00000116232931036568971070000004308374940254736824_);" d="
		M628.07,859.49c-1.01,0.14-1.94,0.36-2.88,0.43l6.77,0.65C631.09,860.36,629.65,859.86,628.07,859.49z M628.07,859.49
		c-1.01,0.14-1.94,0.36-2.88,0.43l6.77,0.65C631.09,860.36,629.65,859.86,628.07,859.49z M931.53,518.08
		c-0.14,8.93-2.66,17.79-2.88,26.79c-0.22,11.95-2.23,21.24-5.33,32.77c-2.16,7.92-6.19,13.75-8.86,21.39
		c-3.02,8.79-7.35,16.28-11.81,24.34c-8.86,16.13-17.71,32.26-21.53,50.55c-3.46,16.49-4.18,30.39-12.39,45.51
		c-7.85,14.55-19.73,26.64-28.16,40.76c-3.96,6.77-6.7,6.41-12.67,10.66c-6.7,4.75-12.82,12.24-19.3,17.5
		c-13.97,11.16-26.72,18.87-43.64,25.2c-10.59,4.03-20.88,7.2-32.12,8.93c-7.35,1.15-14.55,0-21.82,1.22
		c-11.52,1.87-22.47,5.33-33.56,8.93c-18.22,5.91-36.8,9.29-54.95,14.91c-12.67,3.89-25.06,6.19-37.95,8.93
		c-7.85,1.66-14.19,5.91-22.32,4.25c-8.21-1.73-15.7-4.46-23.77-6.99c-10.3-3.17-18.8-3.38-29.89-3.38
		c-14.76,0-31.9,2.23-46.45-0.58c-16.42-3.17-32.77-7.56-49.18-10.95c-9.94-2.09-17.5-6.19-26.57-10.44
		c-8.5-3.96-17.64-5.11-26.5-7.92c-9.36-2.95-18.36-7.35-27.94-9.72c14.62,18.72,31.18,35.86,49.4,51.06
		c48.54,40.76,108.38,68.13,174.27,76.77c8.71,1.08,17.57,1.94,26.5,2.38h0.07c19.3-4.39,38.17-10.08,57.61-16.06
		c32.33-10.08,60.27-29.6,92.61-39.1c12.03-3.6,22.83-7.49,34.06-13.03c8.28-4.1,17.07-5.18,25.42-8.79
		c30.03-12.75,52.64-41.91,66.04-70.5c6.05-12.96,11.88-27.65,22.76-37.37c4.46-4.03,9.79-7.56,13.68-12.1
		c4.39-4.97,7.34-11.16,11.23-16.56c6.84-9.65,13.47-19.37,20.31-29.09c0.86-1.15,1.66-2.3,2.3-3.53
		c8.71-29.96,13.32-61.72,13.32-94.48C941.54,571.95,938.08,544.44,931.53,518.08z M618.56,861.94c1.22-0.79,3.24-2.45,4.54-2.81
		c1.3-0.43,3.24-0.07,4.97,0.36c2.52-0.36,5.04-0.65,7.42,0.36c1.37,0.65,3.96,1.87,4.54,3.46c0.65,1.51-0.22,2.45-1.22,3.46
		c-1.3,1.3-2.3,1.3-4.1,1.66c-3.75,0.72-7.42,1.37-11.31,1.01c-2.3-0.22-5.76-0.36-7.2-2.52
		C614.82,864.82,616.83,863.1,618.56,861.94z M640.96,906.45c-2.09,2.66-4.18,5.4-6.91,7.42c-2.59,2.02-5.47,3.24-8.28,4.82
		c-6.91,3.89-14.04,8.07-21.82,10.08c-3.1,0.79-6.19,0.65-9.43,0.86c-3.89,0.36-7.71,0.43-11.59,0.5c-4.61,0.07-9.07,1.01-13.68,1.3
		c-4.61,0.22-9.15,0.36-13.75,0.65c-7.63,0.5-14.4-0.79-21.6-3.38c-6.48-2.38-13.18-5.4-19.01-9.29c-4.1-2.74-7.63-6.62-11.16-10.08
		c-3.31-3.1-5.98-6.41-7.85-10.59c-0.65-1.51-1.37-3.1-1.01-4.75c0.14-0.79,0.5-1.44,0.5-1.66c1.3-1.01,2.59-1.94,3.82-2.45
		c2.45-1.08,5.18-1.59,7.78-1.87c6.27-0.86,13.11,0.22,19.37,0.72c3.74,0.29,7.06,0.5,10.73-0.07c4.9-0.72,9.79-2.23,14.55-3.53
		c11.52-3.1,22.83-5.54,34.71-6.84c11.81-1.3,24.2-2.59,36.08-0.58c4.46,0.72,9.87,2.02,13.76,4.61c2.88,1.94,5.18,5.04,6.77,8.14
		C645.64,895.72,644.49,901.91,640.96,906.45z M731.33,876.85c-2.09,2.45-5.11,3.89-7.71,5.69c-3.6,2.52-7.42,4.54-11.16,6.7
		c-3.17,1.87-6.19,3.39-9.51,4.9c-3.24,1.51-6.55,3.03-9.79,4.68c-3.53,1.8-7.35,3.02-11.09,4.32c-2.74,1.01-5.69,2.23-8.64,1.73
		c-2.38-0.5-5.04-1.44-6.77-3.24c-2.59-2.74-2.16-5.69-1.3-6.91c0-2.52-0.72-6.12,0.07-8.57c0.5-1.44,2.23-3.6,3.03-5.04
		c3.02-5.47,7.34-9.43,11.88-13.75c3.96-3.82,7.78-6.7,13.11-8.57c5.98-2.02,12.82-2.52,19.01-3.31c6.77-0.79,18.22-1.3,21.24,6.48
		C735.8,867.34,735.08,872.31,731.33,876.85z M631.96,860.58c-0.86-0.22-2.31-0.72-3.89-1.08c-1.01,0.14-1.94,0.36-2.88,0.43
		L631.96,860.58z"/>
	
		<linearGradient id="SVGID_00000018952505670877941870000000755066084618557884_" gradientUnits="userSpaceOnUse" x1="295.9431" y1="603.4218" x2="904.3104" y2="603.4218">
		<stop  offset="0" style="stop-color:#B8C2FF"/>
		<stop  offset="1" style="stop-color:#7D72B3"/>
	</linearGradient>
	
		<path style="opacity:0.4;fill-rule:evenodd;clip-rule:evenodd;fill:url(#SVGID_00000018952505670877941870000000755066084618557884_);" d="
		M904.31,445.2v1.37c-0.43,9.43-4.25,15.91-7.63,24.48c-2.74,6.91-5.91,13.11-9.43,19.66c-5.98,10.95-8.79,21.24-13.18,32.98
		c-6.84,18.36-10.3,37.16-21.03,53.87c-9.65,14.91-11.88,33.2-19.73,49.11c-8.86,17.79-22.4,30.53-36.94,43.5
		c-6.48,5.83-11.88,12.82-17.72,19.16c-6.19,6.7-11.02,15.34-18.44,20.67c-16.06,11.67-33.63,21.75-49.33,34.06
		c-9.43,7.35-16.13,17.14-26.5,23.26c-10.37,6.19-21.6,10.51-31.9,16.78c-9.29,5.69-18.44,11.81-28.52,15.91
		c-11.52,4.61-21.1,3.24-32.91,3.82c-13.11,0.58-26.65,4.03-38.96,8.28c-10.23,3.6-18.8,7.27-29.24,3.6
		c-6.91-2.45-13.18-6.99-20.45-8.5c-16.92-3.46-36.22,0-53.43-0.43c-13.47-0.36-28.3-3.46-41.48-6.12
		c-12.96-2.52-23.55-11.59-36.08-15.27c-15.48-4.54-33.56-0.65-48.54-6.55c-6.12-2.38-11.95-7.27-17.36-10.66
		c-1.15-0.72-2.3-1.44-3.46-2.16c-2.09-3.75-4.11-7.56-6.12-11.38c3.67,1.51,7.35,3.17,11.09,4.97c19.59,9.36,44,7.92,65.1,11.59
		c23.76,4.18,47.53,10.37,71.51,13.11c9.72,1.08,19.52,1.01,29.17-0.07c13.54-1.51,27.58-1.3,40.9-3.6
		c23.19-4.1,45.8-15.05,69.85-11.95c4.46,0.58,9.43,2.95,13.97,2.88c6.7-0.22,11.31-6.05,16.71-9.43
		c9.51-5.98,19.52-4.83,27.87-12.67c8.21-7.71,17.28-12.67,27.29-17.72c26.07-13.25,47.17-34.78,67.62-55.23
		c17.14-17.07,33.77-35.14,45.51-56.46c11.52-20.96,9.22-45.87,17.86-67.62c6.27-15.56,11.52-30.17,21.68-43.86
		c4.9-6.55,10.87-12.17,16.06-18.44c5.54-6.7,8.93-13.97,13.18-21.46c4.68-8.35,10.59-16.06,14.33-24.92
		c3.53-8.5,3.24-15.99,3.1-24.85c-0.14-9.72,0-19.59,0-29.31C882.35,406.89,894.3,425.47,904.31,445.2z"/>
	
		<linearGradient id="SVGID_00000150814681289198211850000008988693388457443716_" gradientUnits="userSpaceOnUse" x1="259.2165" y1="518.4043" x2="857.2131" y2="518.4043">
		<stop  offset="0" style="stop-color:#B8C2FF"/>
		<stop  offset="1" style="stop-color:#7D72B3"/>
	</linearGradient>
	
		<path style="opacity:0.4;fill-rule:evenodd;clip-rule:evenodd;fill:url(#SVGID_00000150814681289198211850000008988693388457443716_);" d="
		M850.16,367.86c-3.6-3.82-7.2-7.56-10.95-11.16c-26.07-25.57-56.1-46.88-89.22-63.08c-0.86-0.43-1.73-0.79-2.59-1.22
		c-4.97-2.38-9.94-4.61-15.05-6.77c-6.84-2.88-13.76-5.54-20.81-7.92c2.23,1.44,4.82,2.59,5.69,3.02c4.25,2.16,7.71,3.6,10.66,7.42
		c2.88,3.74,4.18,6.55,4.39,11.31c0.14,4.46,0.79,9.07,1.58,13.54c0.72,4.1,2.74,7.99,3.6,12.1c0.43,2.45,0.79,4.61,1.58,7.06
		c1.8,5.69,3.67,11.31,4.9,17.21c2.16,10.51-3.46,19.23-7.2,28.81c-5.91,15.19-9.65,30.61-14.04,46.3
		c-3.46,12.39-10.23,24.63-19.59,33.56c-9.15,8.86-22.68,10.87-30.89,20.45c-7.2,8.42-16.06,16.42-26.21,21.17
		c-11.74,5.62-24.13,9.94-36.58,13.75c-8.93,2.66-18.29,2.88-27.29,5.26c-11.16,2.81-21.39,8.43-31.9,12.96
		c-11.16,4.82-21.6,11.02-32.84,15.84c-11.31,4.75-21.82,11.23-33.05,15.84c-5.47,2.23-11.23,3.31-16.78,5.26
		c-11.52,4.03-22.68,11.38-34.93,12.82c-4.25,0.5-8.57,1.51-12.75,1.51c-3.38,0.07-6.41,0.43-9.65,1.66
		c-10.66,4.18-17.21,16.2-29.45,16.27c-11.23,0-22.32-0.43-33.49,0.86c-5.4,0.65-10.8,0.29-16.2,0.36c-1.58,0-3.67,0.36-5.26-0.29
		c-1.8-0.72-3.82-2.45-5.62-3.46c-4.03-2.23-7.92-5.11-11.52-7.85c-7.06-5.47-16.42-2.45-24.56-4.1c-2.45-0.5-6.05-0.22-8.21-1.44
		c-5.04-3.03-11.38-9.22-15.48-12.67c-0.86,9.22-1.22,18.65-1.22,28.08c0,16.42,1.15,32.55,3.46,48.39
		c1.01,7.42,2.3,14.76,3.82,22.04c0,0.07,0,0.22,0.07,0.29c2.16,10.37,4.82,20.6,7.99,30.53c4.18,13.83,9.36,27.29,15.27,40.33
		c0,0,0,0,0.07,0c9.29,1.51,18.87,2.74,28.23,1.37c13.32-1.94,26.57-4.03,40.11-3.53c12.67,0.58,24.49,4.9,36.87,6.99
		c13.9,2.3,28.37,4.18,42.49,5.11c12.89,0.79,25.71,1.87,38.53,3.31c9.65,1.15,19.3,3.03,28.95,3.67
		c25.06,1.73,49.55-4.82,74.17-7.42c12.31-1.3,24.56-4.39,36.65-6.99c7.42-1.58,14.62-3.53,21.17-7.56
		c8.64-5.4,14.11-13.68,21.82-20.24c8.5-7.27,17.36-14.33,26.21-21.1c7.56-5.76,14.69-12.03,22.61-17.14
		c6.05-3.96,12.1-7.71,17.79-12.17c11.16-8.79,20.02-18.94,29.24-29.6c12.89-14.98,18.22-35.79,23.4-54.37
		c4.68-17.07,7.92-34.13,17.28-49.47c4.61-7.49,8.07-16.13,10.23-24.63c1.37-5.33,1.87-11.31,4.32-16.35
		c3.89-8.21,11.52-14.11,16.2-21.89c3.67-6.12,7.78-11.81,10.37-18.58c5.04-13.32,8.86-26.28,11.02-40.47
		c1.58-10.44,4.97-20.02,8.21-30.03c0.5-1.66,1.01-3.31,1.44-5.04C854.91,373.12,852.53,370.45,850.16,367.86z M406.2,600.97
		c0.72-1.8,13.47-6.77,15.41-7.35c-0.07,0.07-0.22,0.14-0.43,0.22l-8.35,3.6c9.22-3.1,25.85,6.27,17.79,16.85
		c-2.38,3.1-8.57,4.61-12.24,5.19c-3.67,0.65-5.98-0.58-8.21-3.74c-1.87-2.74-3.24-7.49-3.75-10.73
		C406.2,603.85,405.69,602.12,406.2,600.97z M304.58,692.86c-9.94-2.74-16.56-6.41-22.68-14.76c-3.96-5.4-7.42-10.8-8.5-17.43
		c-0.86-5.47-3.02-10.37-1.73-15.84c1.01-4.32,2.74-9.07,4.75-13.11c2.23-4.54,5.54-9.22,5.83-10.73c9.94-0.86,19.23-1.22,29.16-1.3
		c11.09-0.07,22.18,1.37,33.34,1.44c5.04,0.07,10.08,0.29,15.05-0.79c4.83-0.94,9.51-2.23,14.4-3.02c8.5-1.44,16.42-2.45,24.41,1.8
		c6.05,3.24,8.86,9.94,11.67,15.99c1.58,3.46,2.52,5.91,2.52,9.79c0.07,4.68-0.22,9.29-0.79,13.97c-0.22,1.73-0.43,3.53-0.72,5.26
		c-6.98,15.27-26.21,20.31-40.54,25.64C349.81,697.47,326.12,698.69,304.58,692.86z M457.97,725.55
		c-4.46,11.23-23.26,15.27-34.06,15.7c-5.33,0.22-11.74-0.86-16.42-3.67c-2.59-1.58-5.33-4.61-6.84-7.27
		c-1.22-2.02-3.96-5.76-9.51-4.1c1.15-6.19,3.1-12.1,5.69-17.79c2.45-2.74,5.04-5.33,7.71-7.78c5.04-4.54,10.66-8.5,16.71-11.59
		c9.43-4.75,19.3-1.22,28.37,2.95c6.12,2.81,10.87,6.99,12.17,13.68C463.3,713.31,460.78,718.71,457.97,725.55z M584.28,723.39
		c-3.46,8.28-8.28,10.15-15.92,14.04c-8.93,4.54-19.8,7.92-29.89,7.99c-5.18,0.07-10.01-2.38-14.69-4.25
		c-3.1-1.22-6.48-2.02-8.93-4.32c-6.77-6.19-7.85-15.27-3.67-13.39c-2.59-5.55-4.25-11.23-4.9-17.21c1.15-0.94,1.87-2.16,2.23-3.67
		c3.6-6.77,10.3-12.39,16.92-16.13c11.81-6.77,26.86-7.56,39.46-2.3c5.54,2.3,9.07,5.11,13.25,9.36c1.94,2.02,4.68,3.89,6.19,6.34
		C588.1,706.11,586.95,717.05,584.28,723.39z M623.1,722.09c-1.94,1.58-5.69,4.68-8.21,4.18c-2.09-0.43-6.05-4.68-5.4-6.91
		l-1.37-1.37c3.02-4.68,6.05-9.43,9-14.26c4.61,2.02,8.71,1.73,11.52,6.77C631.24,715.18,626.56,719.29,623.1,722.09z
		 M719.67,495.61c-3.82,5.11-8.86,9.94-14.76,12.39c-7.42,3.1-17.36,5.4-17.72-5.76c-0.29-6.55,0.79-11.31,3.75-17.35
		c4.25-8.57,8.28-10.73,16.49-14.98c3.02,0.36,6.19,1.08,8.5,1.87c4.61,1.51,9,5.62,9.65,10.51
		C726.29,487.4,722.62,491.8,719.67,495.61z M809.76,447.08c-3.6,11.23-8.43,22.11-13.39,32.77c-6.05,13.11-6.77,26.57-9.79,40.4
		c-1.73,7.78-5.4,16.35-13.03,19.37c-3.31,1.3-6.55,1.01-10.23,1.01c-3.31,0-9.43,1.22-9.22,4.1c-1.94-5.4-5.26-12.67-6.55-18.8
		c-1.37-6.77-1.94-14.04-3.02-20.81c-1.15-7.13-1.66-14.26-2.38-21.46c-0.58-6.7-1.94-13.75-1.87-20.52
		c0.29-22.32,12.6-50.12,33.56-60.42c6.41-3.1,12.75-4.54,19.8-3.38c8.21,1.22,12.89,3.46,16.56,11.31
		C815.16,421.44,813.21,435.99,809.76,447.08z"/>
	
		<linearGradient id="SVGID_00000121996721720155008560000002340667834321043119_" gradientUnits="userSpaceOnUse" x1="702.2416" y1="469.1123" x2="710.4504" y2="469.1123">
		<stop  offset="0" style="stop-color:#E8DDFF"/>
		<stop  offset="1" style="stop-color:#AA8AD8"/>
	</linearGradient>
	
		<path style="opacity:0.4;fill-rule:evenodd;clip-rule:evenodd;fill:url(#SVGID_00000121996721720155008560000002340667834321043119_);" d="
		M710.45,468.32c-1.08,0.58-2.09,1.08-3.02,1.58c-1.87-0.29-3.67-0.36-5.18-0.22L710.45,468.32z"/>
	
		<linearGradient id="SVGID_00000155838902202928939650000004951373956358828720_" gradientUnits="userSpaceOnUse" x1="280.6044" y1="620.7982" x2="282.3092" y2="620.7982">
		<stop  offset="0" style="stop-color:#E8DDFF"/>
		<stop  offset="1" style="stop-color:#AA8AD8"/>
	</linearGradient>
	
		<path style="opacity:0.4;fill-rule:evenodd;clip-rule:evenodd;fill:url(#SVGID_00000155838902202928939650000004951373956358828720_);" d="
		M282.26,620.99c-0.5,0.07-1.08,0.07-1.66,0.14C281.97,620.27,282.48,620.27,282.26,620.99z"/>
	
		<linearGradient id="SVGID_00000116920634798149645340000010122407138895712431_" gradientUnits="userSpaceOnUse" x1="665.7742" y1="326.7798" x2="884.735" y2="326.7798">
		<stop  offset="0" style="stop-color:#7F72FF"/>
		<stop  offset="1" style="stop-color:#9A00B3"/>
	</linearGradient>
	<path style="fill-rule:evenodd;clip-rule:evenodd;fill:url(#SVGID_00000116920634798149645340000010122407138895712431_);" d="
		M665.77,265.43l59.89-23.59c0,0,95.29,37.03,155.32,118.1l3.75,51.78C884.74,411.72,771.21,368.2,665.77,265.43z"/>
	
		<linearGradient id="SVGID_00000004513713266783445680000009466134417025608597_" gradientUnits="userSpaceOnUse" x1="715.5093" y1="852.4041" x2="826.5787" y2="513.3223">
		<stop  offset="0" style="stop-color:#280077"/>
		<stop  offset="1" style="stop-color:#812CFF"/>
	</linearGradient>
	<path style="fill-rule:evenodd;clip-rule:evenodd;fill:url(#SVGID_00000004513713266783445680000009466134417025608597_);" d="
		M883.43,792.25c0,0-50.19,54.45-88.12,66.59l-31.14,9.5c0,0-142.06-51.11-149.84-140.02c-6.54-74.7,121.22-189.35,155.79-202.99
		c34.57-13.65,75.05-5.92,75.05-5.92L883.43,792.25z"/>
	
		<linearGradient id="SVGID_00000098931357635797366040000007516956136263603886_" gradientUnits="userSpaceOnUse" x1="844.746" y1="812.6022" x2="844.746" y2="472.24" gradientTransform="matrix(0.9503 0.3113 -0.3113 0.9503 197.505 -189.6794)">
		<stop  offset="0" style="stop-color:#7A00B3"/>
		<stop  offset="1" style="stop-color:#B136FF"/>
	</linearGradient>
	<path style="fill-rule:evenodd;clip-rule:evenodd;fill:url(#SVGID_00000098931357635797366040000007516956136263603886_);" d="
		M845.17,519.41c-29.96-9.51-159.45,50.13-194.22,183.93c-7.05,27.15,58.63,130.29,137.09,155.51
		c26.04,8.37,145.43-95.93,150.42-166.61C943.44,621.56,889.67,533.54,845.17,519.41z"/>
	
		<linearGradient id="SVGID_00000073714719456778704820000018057013987417362567_" gradientUnits="userSpaceOnUse" x1="783.805" y1="752.7178" x2="783.805" y2="518.4319">
		<stop  offset="0" style="stop-color:#8E00B3"/>
		<stop  offset="1" style="stop-color:#E05CFF"/>
	</linearGradient>
	<path style="fill-rule:evenodd;clip-rule:evenodd;fill:url(#SVGID_00000073714719456778704820000018057013987417362567_);" d="
		M659.3,718.99c18.48-151.52,156.25-200.85,186.21-191.34c21.64,6.87,53.47,38.65,71.67,69.98c-18.79-38.69-46.88-70.24-72.01-78.22
		c-29.96-9.51-159.45,50.13-194.22,183.93c-2.45,9.43,3.9,28.05,16.5,49.38C660.56,738.17,658.42,726.2,659.3,718.99z"/>
	
		<linearGradient id="SVGID_00000107569363873654247320000013261324780024544441_" gradientUnits="userSpaceOnUse" x1="408.1653" y1="888.3331" x2="408.1653" y2="750.7807">
		<stop  offset="0" style="stop-color:#81A9CE"/>
		<stop  offset="1" style="stop-color:#5B729C"/>
	</linearGradient>
	<path style="fill-rule:evenodd;clip-rule:evenodd;fill:url(#SVGID_00000107569363873654247320000013261324780024544441_);" d="
		M405.98,881.33c0,0,30.88,11.32,53.39,5.18c0,0,8.65-73.03-18.87-119.75c-27.52-46.71-74.16,23.88-74.16,23.88l-10.67,44.71
		C355.67,835.34,381.63,866.56,405.98,881.33z"/>
	
		<linearGradient id="SVGID_00000176029205573064854870000013556294470906423720_" gradientUnits="userSpaceOnUse" x1="369.5135" y1="848.821" x2="415.3932" y2="708.7557">
		<stop  offset="0" style="stop-color:#280077"/>
		<stop  offset="1" style="stop-color:#812CFF"/>
	</linearGradient>
	<path style="fill-rule:evenodd;clip-rule:evenodd;fill:url(#SVGID_00000176029205573064854870000013556294470906423720_);" d="
		M432.75,869.54l19.8-5.3c0,0,9.54-40.46-7.03-86.1c-18.82-51.81-87.8-90.54-98.03-91.38c-10.23-0.83-20.33,22.46-20.33,22.46
		L432.75,869.54z"/>
	
		<linearGradient id="SVGID_00000181779397201469269270000015175303631713918340_" gradientUnits="userSpaceOnUse" x1="650.0438" y1="970.2441" x2="650.0438" y2="909.5696">
		<stop  offset="0" style="stop-color:#7A00B3"/>
		<stop  offset="0.9162" style="stop-color:#7006FC"/>
		<stop  offset="1" style="stop-color:#7006F9"/>
	</linearGradient>
	<path style="fill-rule:evenodd;clip-rule:evenodd;fill:url(#SVGID_00000181779397201469269270000015175303631713918340_);" d="
		M744.47,909.57l-32.88,42.77c0,0-57.09,27.63-114.39,14.24l-41.57-28.01L744.47,909.57z"/>
	
		<linearGradient id="SVGID_00000026864532223003791640000010098230450519040172_" gradientUnits="userSpaceOnUse" x1="372.2654" y1="871.2047" x2="372.2654" y2="696.8051">
		<stop  offset="0" style="stop-color:#7A00B3"/>
		<stop  offset="1" style="stop-color:#B136FF"/>
	</linearGradient>
	<path style="fill-rule:evenodd;clip-rule:evenodd;fill:url(#SVGID_00000026864532223003791640000010098230450519040172_);" d="
		M312.35,741.28c3.44-15.72,17.29-41.84,29.7-44.39c12.41-2.55,71.07,53.14,84.64,88.97c13.57,35.83,6.73,75.57,6.06,83.67
		c-0.67,8.1-67.22-14.48-100.8-42.08C298.37,799.86,312.35,741.28,312.35,741.28z"/>
	
		<linearGradient id="SVGID_00000149352496021198358450000000366007028988834975_" gradientUnits="userSpaceOnUse" x1="381.4062" y1="871.1364" x2="381.4062" y2="696.8051">
		<stop  offset="0" style="stop-color:#8E00B3"/>
		<stop  offset="1" style="stop-color:#E05CFF"/>
	</linearGradient>
	<path style="fill-rule:evenodd;clip-rule:evenodd;fill:url(#SVGID_00000149352496021198358450000000366007028988834975_);" d="
		M426.69,785.86c-13.58-35.83-72.23-91.52-84.64-88.97c-4.78,0.98-9.78,5.48-14.31,11.52c2.78-2.53,5.61-4.32,8.38-4.89
		c12.41-2.55,72.16,41.77,85.5,77.7c16.37,44.12,7.37,75.96,5.76,89.87c3.23,0.21,5.26-0.22,5.37-1.55
		C433.42,861.43,440.27,821.7,426.69,785.86z"/>
	
		<linearGradient id="SVGID_00000168105710902105069930000016480421023401829526_" gradientUnits="userSpaceOnUse" x1="633.0266" y1="640.9438" x2="662.2144" y2="551.8369">
		<stop  offset="0" style="stop-color:#5B008B"/>
		<stop  offset="1" style="stop-color:#8E00FF"/>
	</linearGradient>
	<path style="fill-rule:evenodd;clip-rule:evenodd;fill:url(#SVGID_00000168105710902105069930000016480421023401829526_);" d="
		M611.95,633.69c-14.74-6.89,1.98-71.53,16.48-85.59c14.5-14.06,52.21,18.8,57.21,45.68C690.64,620.64,645.71,649.47,611.95,633.69z
		"/>
	
		<linearGradient id="SVGID_00000036246829151001317200000005959461197791301018_" gradientUnits="userSpaceOnUse" x1="643.1967" y1="634.5081" x2="667.3386" y2="560.8058">
		<stop  offset="0" style="stop-color:#A400CA"/>
		<stop  offset="1" style="stop-color:#B136FF"/>
	</linearGradient>
	<path style="fill-rule:evenodd;clip-rule:evenodd;fill:url(#SVGID_00000036246829151001317200000005959461197791301018_);" d="
		M626.7,628.76c-11.8-5.72,1.58-59.35,13.2-71.01c11.62-11.67,41.82,15.6,45.82,37.9C689.72,617.94,653.73,641.85,626.7,628.76z"/>
	
		<linearGradient id="SVGID_00000040559362743633682140000016634860134659509428_" gradientUnits="userSpaceOnUse" x1="764.2255" y1="372.2474" x2="799.0667" y2="265.8816">
		<stop  offset="0" style="stop-color:#5B008B"/>
		<stop  offset="1" style="stop-color:#8E00FF"/>
	</linearGradient>
	<path style="fill-rule:evenodd;clip-rule:evenodd;fill:url(#SVGID_00000040559362743633682140000016634860134659509428_);" d="
		M725.67,241.84c0,0,2.96,36.35,43.89,80.92c40.93,44.57,111.43,37.18,111.43,37.18l3.75,51.78c0,0-149.91-66.26-218.96-146.29
		L725.67,241.84z"/>
	<g>
		<path class="st28" d="M843.22,564.03c-1.7,1.41-5.41,4.07-2.47,6.13c0.8,0.56,1.49,0.26,2.33,0.51c0.66,0.19,0.82,0.7,1.58,0.41
			c2.39-0.91,1.44-7.7-1.26-6.34L843.22,564.03z"/>
		<path class="st28" d="M984.61,503.14c-1.7,1.41-5.41,4.07-2.47,6.13c0.79,0.56,1.49,0.26,2.33,0.51c0.66,0.19,0.82,0.7,1.58,0.41
			c2.39-0.91,1.44-7.7-1.26-6.34L984.61,503.14z"/>
		<path class="st28" d="M922.51,754.23c-1.7,1.41-5.41,4.07-2.47,6.13c0.79,0.56,1.49,0.26,2.33,0.51c0.66,0.19,0.82,0.7,1.58,0.41
			c2.39-0.91,1.44-7.7-1.26-6.34L922.51,754.23z"/>
		<path class="st28" d="M855.58,588.72c1.08-0.6,2.2-0.92,3.35-0.95c0.26,1.47,1.61,4.35-0.49,5.5c-1.76,0.96-1.23-2.19-2.06-2.92
			L855.58,588.72z"/>
		<path class="st28" d="M631.15,603.85c2.25,0.89,4.48,1.82,6.69,2.79c0.72-0.63,1.8-0.51,2.64-1.07c1.08-0.72,2.06-2.23,2.48-3.49
			c0.63-1.91-0.34-3.46-1.22-4.92c-0.58-0.97-1.15-2.4-2.04-3.06c-1.04-0.77-3.07-0.47-4.16,0.05c-1.34,0.64-2.33,2.02-3.22,3.25
			c-0.84,1.15-1.82,3.07-1.86,4.52c-0.04,1.56,1.2,3.21,2.34,4.01L631.15,603.85z"/>
		<path class="st28" d="M313.09,773.91c2.25,0.89,4.48,1.82,6.69,2.79c0.71-0.63,1.79-0.51,2.64-1.07c1.08-0.72,2.06-2.23,2.48-3.49
			c0.63-1.91-0.34-3.46-1.22-4.92c-0.58-0.97-1.15-2.4-2.04-3.06c-1.04-0.78-3.07-0.47-4.16,0.05c-1.34,0.64-2.33,2.02-3.22,3.25
			c-0.84,1.15-1.82,3.07-1.86,4.52c-0.04,1.56,1.2,3.21,2.34,4.01L313.09,773.91z"/>
		<path class="st28" d="M933.12,862.65c2.25,0.89,4.48,1.82,6.69,2.79c0.71-0.63,1.79-0.51,2.64-1.07c1.08-0.72,2.06-2.23,2.48-3.49
			c0.63-1.91-0.34-3.46-1.22-4.92c-0.58-0.97-1.15-2.4-2.04-3.06c-1.04-0.77-3.07-0.47-4.16,0.05c-1.34,0.64-2.33,2.02-3.22,3.25
			c-0.84,1.15-1.82,3.07-1.86,4.52c-0.04,1.56,1.2,3.21,2.34,4.01L933.12,862.65z"/>
		<path class="st28" d="M888.53,801.06c2.25,0.89,4.48,1.82,6.69,2.79c0.72-0.63,1.8-0.51,2.64-1.07c1.08-0.72,2.06-2.23,2.48-3.49
			c0.63-1.91-0.34-3.46-1.22-4.92c-0.58-0.97-1.15-2.4-2.04-3.06c-1.04-0.78-3.07-0.47-4.16,0.05c-1.34,0.64-2.33,2.02-3.22,3.25
			c-0.84,1.15-1.82,3.07-1.86,4.52c-0.04,1.56,1.2,3.21,2.34,4.01L888.53,801.06z"/>
		<path class="st28" d="M269.67,371.24c5.7,2.25,11.35,4.61,16.95,7.08c1.81-1.6,4.55-1.3,6.68-2.71c2.74-1.82,5.22-5.66,6.27-8.84
			c1.6-4.83-0.87-8.78-3.08-12.46c-1.48-2.46-2.9-6.08-5.16-7.76c-2.64-1.96-7.77-1.19-10.53,0.12c-3.4,1.62-5.89,5.11-8.15,8.22
			c-2.12,2.91-4.61,7.77-4.71,11.45c-0.11,3.95,3.04,8.13,5.93,10.15L269.67,371.24z"/>
		<path class="st28" d="M645.64,164.32c5.7,2.25,11.35,4.61,16.95,7.08c1.81-1.6,4.55-1.3,6.68-2.71c2.74-1.82,5.22-5.66,6.27-8.84
			c1.6-4.83-0.87-8.77-3.08-12.46c-1.48-2.46-2.9-6.08-5.16-7.76c-2.64-1.96-7.77-1.19-10.53,0.12c-3.4,1.62-5.89,5.11-8.15,8.22
			c-2.12,2.91-4.61,7.77-4.71,11.45c-0.11,3.95,3.04,8.13,5.93,10.15L645.64,164.32z"/>
		<path class="st28" d="M695.61,660.41c-0.96,0.67-1.75,1.52-2.35,2.53c0.92,1.16,1.37,2.25,2.95,2.7c0.63,0.18,1.3,0.2,1.81-0.3
			c0.66-0.64,0.3-1.35,0.48-1.98c0.43-1.53,0.85-1.93-0.01-3.33c-0.52-0.84-0.88-1.18-1.8-1.18c-0.64,0-2.04,0.18-2.36,0.89
			L695.61,660.41z"/>
		<path class="st28" d="M700.72,696.09c-0.17,0.39-1.9,4.79,0.35,3.52c1.13-0.64,0.73-2.37-0.04-2.87c0.04-0.14,0.08-0.29,0.12-0.43
			L700.72,696.09z"/>
		<path class="st28" d="M813.36,761.05c-1.51,1.97-1.7,2.77-2.38,4.81c0.64,0.6,1.9,0.93,2.74,0.9c1.32-0.06,1.38-0.48,1.42-1.74
			c0.03-1.02,0.45-1.82,0.21-2.8c-0.25-1-1.25-2.03-2.41-1.39L813.36,761.05z"/>
		<path class="st28" d="M718.4,664.72c0.86,0.79,1.4,1.77,1.62,2.94c-1.2,0.3-1.34-0.88-1.52-1.81c-0.28-1.49,0.41-1.03,1.11-2.22
			c0.13,0.03,0.26,0.06,0.39,0.08L718.4,664.72z"/>
		<path class="st28" d="M826.39,568.28c-0.96,0.67-1.74,1.51-2.35,2.52c0.57,0.7,0.3,1.98,1.62,1.88c0.93-0.07,1.7-1.07,2.14-1.84
			c0.52-0.89,0.57-1.62,0.63-2.59c0.03-0.49,0.03-2.6-0.87-1.21L826.39,568.28z"/>
		<path class="st28" d="M811.78,317.04c1.09-0.28,2.49-0.88,3.61-0.87c0.32,0,0.74,0.23,1.09,0.27c1.16,0.1,1.2-0.15,1.76,0.78
			c0.64,1.05,0.93,1.82,0.74,3.06c-0.67,4.24-6.66-2.15-4.57-3.71L811.78,317.04z"/>
		<path class="st28" d="M353.62,324.59c-1.9,0.58-4.79,0.79-5.02,2.99c-0.2,1.88,2.91,3.84,4.48,4.35c2.8,0.91,7.37,1.36,8.75-1.81
			c0.81-1.86,0.2-5.45-0.94-7.08c-2.34-3.35-7.13-1.98-10.78-0.56L353.62,324.59z"/>
		<path class="st28" d="M839.65,765.71c-0.85-6.53-2.04-12.98,3.77-16.41c3.16-1.86,8.96-2.52,11.94-0.31
			c2.16,1.6,4.05,4.59,5.4,6.82c1.99,3.31,1.47,3.31,0.43,6.33c-2.39,6.93-4.02,11.5-10.91,11.51c-9.11,0.02-10.51-7.06-10.63-15.86
			V765.71z"/>
		<path class="st28" d="M843.69,582.1c2.54-0.69,4.71-2.02,6.54-3.97c-1.82-1.13-5.82-3.48-6.54-0.05V582.1z"/>
		<path class="st28" d="M327.57,748.33c2.54-0.69,4.71-2.01,6.54-3.97c-1.82-1.13-5.82-3.48-6.54-0.05V748.33z"/>
		<path class="st28" d="M327.57,803.16c2.54-0.69,4.71-2.01,6.54-3.97c-1.82-1.13-5.82-3.48-6.54-0.05V803.16z"/>
		<path class="st28" d="M713.46,606.95c2.53-3.1,6.17-8.77,10.75-5.66c2.66,1.8,3.42,6.58,0.88,8.48c-2.36,1.76-4.52,2.26-7.18,2.99
			c-2.03,0.56-5.06-0.79-4.45-3.8V606.95z"/>
		<path class="st28" d="M799.09,748.11c2.53-3.1,6.17-8.77,10.75-5.66c2.66,1.8,3.42,6.58,0.88,8.48c-2.36,1.76-4.52,2.26-7.18,2.99
			c-2.03,0.56-5.06-0.79-4.45-3.8V748.11z"/>
		<path class="st28" d="M786.19,280.28c3.95,0.66,10.67,1.04,10.23,6.56c-0.26,3.2-4.03,6.22-6.94,4.94
			c-2.69-1.18-4.2-2.82-6.14-4.77c-1.49-1.49-1.81-4.79,1.11-5.74L786.19,280.28z"/>
		<path class="st28" d="M772.17,784.7c2.53-3.1,6.17-8.76,10.75-5.66c2.66,1.8,3.42,6.58,0.88,8.48c-2.36,1.76-4.52,2.26-7.18,2.99
			c-2.03,0.56-5.06-0.79-4.45-3.8V784.7z"/>
		<path class="st28" d="M655.46,602.26c-3.23,2.05-8.67,4.6-9.22,9.03c-0.33,2.68,0.9,4.25,3.32,5.41c2.06,0.99,5.15,1.07,7.21,0.03
			c2.96-1.49,6.38-3.96,7.71-7.11c0.96-2.27,0.8-3.83-0.26-6.09c-0.57-1.21-1.72-2.66-3.02-3.11c-4.13-1.43-6.61,2.62-9.67,4.45
			L655.46,602.26z"/>
		<path class="st28" d="M665.93,590.48c1.76,0.62,3.25,1.61,4.46,2.94c-1.76,0.6-3.64,1.99-5.44,1.35
			c-2.33-0.83-2.77-3.05-2.24-5.28c0.29-1.22,2.48-3.36,3.73-2.82c0.63,0.27,0.75,1.13,0.96,1.68c0.44,1.16,0.46,0.91-0.16,2.13
			H665.93z"/>
		<path class="st28" d="M755.15,571.01c-8.55,7.49-16.59,16.45-21.12,27.17c-2.31,5.46,1.79,5.73,6.75,4.77
			c9.61-1.88,19.27-4.53,28.76-6.97c5.62-1.44,13.68-4.4,17.59-9.18c2.99-3.66,4.24-9.97,3.58-14.57
			c-0.92-6.44-5.5-8.95-11.35-10.56c-13.36-3.7-32.32,10.72-37.28,23.03L755.15,571.01z"/>
		<path class="st28" d="M707.52,619.64c2.77,0.08,5.35,0.75,7.74,2.01c-0.69,0.82-0.47,1.93-0.83,2.89
			c-0.54,1.42-1.89,2.86-3.16,3.67c-2.13,1.35-5.66,1.84-8.02,0.95c-7.16-2.72,3.82-11.21,6.24-8.21L707.52,619.64z"/>
		<path class="st28" d="M307.72,893.18c-0.96,0.67-1.75,1.52-2.35,2.53c0.92,1.15,1.37,2.25,2.95,2.7c0.63,0.18,1.3,0.2,1.81-0.3
			c0.66-0.64,0.3-1.35,0.48-1.98c0.43-1.53,0.85-1.93-0.01-3.33c-0.52-0.84-0.88-1.18-1.8-1.18c-0.64,0-2.04,0.18-2.36,0.89
			L307.72,893.18z"/>
		<path class="st28" d="M312.83,928.86c-0.17,0.39-1.9,4.79,0.35,3.52c1.13-0.64,0.73-2.37-0.04-2.87c0.04-0.14,0.08-0.29,0.12-0.43
			L312.83,928.86z"/>
		<path class="st28" d="M330.51,897.49c0.86,0.79,1.4,1.77,1.62,2.94c-1.2,0.3-1.34-0.88-1.52-1.81c-0.28-1.49,0.41-1.03,1.11-2.22
			c0.13,0.03,0.26,0.06,0.39,0.08L330.51,897.49z"/>
		<path class="st28" d="M319.63,852.41c2.77,0.08,5.35,0.75,7.74,2.01c-0.69,0.82-0.47,1.93-0.83,2.89
			c-0.54,1.42-1.89,2.86-3.16,3.67c-2.13,1.34-5.66,1.84-8.02,0.95c-7.16-2.72,3.82-11.21,6.24-8.21L319.63,852.41z"/>
		<path class="st28" d="M772.16,286.62c2.43,1.69,5.05,2.98,6.9,5.25c2.13,2.62,4.22,4.98,5.87,7.92c0.83,1.48,2.84,4.72-0.12,5.13
			c-3.21,0.44-8.89-3.78-11.22-5.43c-3.99-2.81-7.85-5.39-10.74-9.44c-1.46-2.05-3.68-5.6-2.2-8.06c1.24-2.07,3.02-2.43,5.29-2.38
			c2.37,0.05,3.74,0.75,5.6,2.25c0.86,0.69,5.02,4.92,3.61,6.06L772.16,286.62z"/>
		<path class="st28" d="M803.19,558.69c-1.18,0.85-10.22,5.87-5.92,8.05c2.31,1.17,6.86,0.83,9.21-0.17
			c2.09-0.89,4.21-2.26,2.9-4.67c-2.65-4.86-9.3-2.06-12.74,0.06L803.19,558.69z"/>
		<path class="st28" d="M868.27,262.73c-2.96,2.14-25.66,14.74-14.85,20.19c5.81,2.93,17.22,2.08,23.12-0.42
			c5.25-2.23,10.56-5.68,7.27-11.71c-6.66-12.19-23.35-5.16-31.96,0.16L868.27,262.73z"/>
		<path class="st28" d="M330.83,778.07c0.95,5.3,2.04,11.1,6.65,14.61c4.78,3.63,10.19,2.16,14.88-0.61
			c3.48-2.05,6.76-4.24,10.16-6.33c1.98-1.22,3.72-1.53,3.81-4.36c0.09-3.04-2.71-7.13-4.46-9.44c-2.09-2.76-6.31-6.06-9.57-7.27
			c-7.12-2.66-20.71-0.02-20.55,9.67L330.83,778.07z"/>
		<path class="st28" d="M807.53,788.49c0.67,3.72,1.43,7.79,4.67,10.25c3.36,2.55,7.15,1.52,10.44-0.42
			c2.44-1.44,4.75-2.98,7.13-4.45c1.39-0.86,2.61-1.07,2.67-3.06c0.07-2.14-1.9-5-3.13-6.62c-1.47-1.94-4.43-4.25-6.71-5.1
			c-5-1.87-14.54-0.01-14.42,6.79L807.53,788.49z"/>
	</g>
	
		<radialGradient id="SVGID_00000137110913385614737510000010055598756018562219_" cx="850.5203" cy="757.7994" r="64.5804" gradientUnits="userSpaceOnUse">
		<stop  offset="0" style="stop-color:#317AFF"/>
		<stop  offset="0.1048" style="stop-color:#2967D7"/>
		<stop  offset="0.2917" style="stop-color:#1D4897"/>
		<stop  offset="0.4701" style="stop-color:#132E61"/>
		<stop  offset="0.635" style="stop-color:#0B1A37"/>
		<stop  offset="0.7833" style="stop-color:#050C19"/>
		<stop  offset="0.91" style="stop-color:#010307"/>
		<stop  offset="1" style="stop-color:#000000"/>
	</radialGradient>
	
		<circle style="fill-rule:evenodd;clip-rule:evenodd;fill:url(#SVGID_00000137110913385614737510000010055598756018562219_);" cx="850.52" cy="757.8" r="64.58"/>
	
		<radialGradient id="SVGID_00000060731703197802168600000008706716627630748569_" cx="764.0815" cy="582.2297" r="59.9595" gradientUnits="userSpaceOnUse">
		<stop  offset="0" style="stop-color:#317AFF"/>
		<stop  offset="0.1048" style="stop-color:#2967D7"/>
		<stop  offset="0.2917" style="stop-color:#1D4897"/>
		<stop  offset="0.4701" style="stop-color:#132E61"/>
		<stop  offset="0.635" style="stop-color:#0B1A37"/>
		<stop  offset="0.7833" style="stop-color:#050C19"/>
		<stop  offset="0.91" style="stop-color:#010307"/>
		<stop  offset="1" style="stop-color:#000000"/>
	</radialGradient>
	
		<circle style="fill-rule:evenodd;clip-rule:evenodd;fill:url(#SVGID_00000060731703197802168600000008706716627630748569_);" cx="764.08" cy="582.23" r="59.96"/>
	
		<radialGradient id="SVGID_00000078028185527963528250000000469184589541341094_" cx="657.0662" cy="189.7455" r="35.5424" gradientTransform="matrix(0.8091 0.5877 -0.3866 0.5322 315.3671 -192.1125)" gradientUnits="userSpaceOnUse">
		<stop  offset="0" style="stop-color:#317AFF"/>
		<stop  offset="0.1048" style="stop-color:#2967D7"/>
		<stop  offset="0.2917" style="stop-color:#1D4897"/>
		<stop  offset="0.4701" style="stop-color:#132E61"/>
		<stop  offset="0.635" style="stop-color:#0B1A37"/>
		<stop  offset="0.7833" style="stop-color:#050C19"/>
		<stop  offset="0.91" style="stop-color:#010307"/>
		<stop  offset="1" style="stop-color:#000000"/>
	</radialGradient>
	<path style="fill-rule:evenodd;clip-rule:evenodd;fill:url(#SVGID_00000078028185527963528250000000469184589541341094_);" d="
		M802.4,315.92c-7.59,10.45-26.62,9.56-42.5-1.97c-15.88-11.54-22.6-29.36-15.02-39.8c7.59-10.45,26.62-9.56,42.5,1.97
		C803.27,287.65,809.99,305.47,802.4,315.92z"/>
	
		<radialGradient id="SVGID_00000127032079828408630170000010640148948200539042_" cx="348.5869" cy="776.7083" r="64.5806" gradientUnits="userSpaceOnUse">
		<stop  offset="0" style="stop-color:#317AFF"/>
		<stop  offset="0.1048" style="stop-color:#2967D7"/>
		<stop  offset="0.2917" style="stop-color:#1D4897"/>
		<stop  offset="0.4701" style="stop-color:#132E61"/>
		<stop  offset="0.635" style="stop-color:#0B1A37"/>
		<stop  offset="0.7833" style="stop-color:#050C19"/>
		<stop  offset="0.91" style="stop-color:#010307"/>
		<stop  offset="1" style="stop-color:#000000"/>
	</radialGradient>
	
		<circle style="fill-rule:evenodd;clip-rule:evenodd;fill:url(#SVGID_00000127032079828408630170000010640148948200539042_);" cx="348.59" cy="776.71" r="64.58"/>
	
		<linearGradient id="SVGID_00000039119987449709177110000015026614078266071179_" gradientUnits="userSpaceOnUse" x1="803.8312" y1="361.8372" x2="803.8312" y2="247.7707">
		<stop  offset="0" style="stop-color:#B000D9"/>
		<stop  offset="1" style="stop-color:#E05CFF"/>
	</linearGradient>
	<path style="fill-rule:evenodd;clip-rule:evenodd;fill:url(#SVGID_00000039119987449709177110000015026614078266071179_);" d="
		M726.67,247.77c0,0,15.66,66.52,59.7,91.59c55.73,31.72,94.61,20.58,94.61,20.58s-49.8-1.76-95.85-33.16
		C746.68,300.56,726.67,247.77,726.67,247.77z"/>
	
		<linearGradient id="SVGID_00000181772241327385418600000014957326103814132912_" gradientUnits="userSpaceOnUse" x1="705.0754" y1="872.7457" x2="705.0754" y2="717.1548">
		<stop  offset="0" style="stop-color:#B8C2FF"/>
		<stop  offset="1" style="stop-color:#7D72B3"/>
	</linearGradient>
	
		<path style="opacity:0.4;fill-rule:evenodd;clip-rule:evenodd;fill:url(#SVGID_00000181772241327385418600000014957326103814132912_);" d="
		M622.12,760.63l29.58-43.48c0,0,37.93,107.89,136.34,141.69l-21.56,13.9C766.48,872.75,666.15,844.2,622.12,760.63z"/>
	
		<linearGradient id="SVGID_00000099620456194846901690000005408558983355569076_" gradientUnits="userSpaceOnUse" x1="800.132" y1="486.6907" x2="800.132" y2="280.3812">
		<stop  offset="0" style="stop-color:#81A9CE"/>
		<stop  offset="1" style="stop-color:#5B729C"/>
	</linearGradient>
	<path style="fill-rule:evenodd;clip-rule:evenodd;fill:url(#SVGID_00000099620456194846901690000005408558983355569076_);" d="
		M678.13,280.38c0,0,141.89,142.83,244.01,206.31c0,0-9.88-39.03-37.4-74.97C884.74,411.72,799,383.54,678.13,280.38z"/>
	
		<radialGradient id="SVGID_00000152977240194729227510000009619156340015019152_" cx="450.6906" cy="436.7062" r="85.9226" gradientTransform="matrix(1.3926 -0.9161 0.5873 0.8928 -423.4507 453.7722)" gradientUnits="userSpaceOnUse">
		<stop  offset="0" style="stop-color:#06FEFF"/>
		<stop  offset="0.1732" style="stop-color:#05C4C5"/>
		<stop  offset="0.3988" style="stop-color:#037F80"/>
		<stop  offset="0.6025" style="stop-color:#024849"/>
		<stop  offset="0.7769" style="stop-color:#012121"/>
		<stop  offset="0.9151" style="stop-color:#000909"/>
		<stop  offset="1" style="stop-color:#000000"/>
	</radialGradient>
	<path style="fill-rule:evenodd;clip-rule:evenodd;fill:url(#SVGID_00000152977240194729227510000009619156340015019152_);" d="
		M580.31,352.07c27.87,42.37-3.1,111.95-69.19,155.43c-66.08,43.47-142.25,44.37-170.12,2c-27.87-42.37,3.1-111.95,69.19-155.43
		C476.27,310.6,552.44,309.71,580.31,352.07z"/>
</g>
</svg>
