<?xml version="1.0" encoding="utf-8"?>
<!-- Generator: Adobe Illustrator 26.4.1, SVG Export Plug-In . SVG Version: 6.00 Build 0)  -->
<svg version="1.1" id="Слой_1" xmlns="http://www.w3.org/2000/svg" xmlns:xlink="http://www.w3.org/1999/xlink" x="0px" y="0px"
	 viewBox="0 0 1200 1200" style="enable-background:new 0 0 1200 1200;" xml:space="preserve">
<style type="text/css">
	.st0{fill:#020202;}
	.st1{fill-rule:evenodd;clip-rule:evenodd;fill:url(#SVGID_1_);}
	.st2{fill-rule:evenodd;clip-rule:evenodd;fill:url(#SVGID_00000095312220772090385700000015774703936452830594_);}
	.st3{fill-rule:evenodd;clip-rule:evenodd;fill:url(#SVGID_00000044885006759767203030000000242964693962627208_);}
	.st4{fill-rule:evenodd;clip-rule:evenodd;fill:url(#SVGID_00000018198381393067438770000000986871393587973527_);}
	.st5{fill-rule:evenodd;clip-rule:evenodd;fill:url(#SVGID_00000103256366315761155410000001269381017372877223_);}
	.st6{fill-rule:evenodd;clip-rule:evenodd;fill:url(#SVGID_00000059267379717508656930000005343552133269004938_);}
	.st7{opacity:0.5;fill-rule:evenodd;clip-rule:evenodd;fill:url(#SVGID_00000026136817353665746020000005483882926144811698_);}
	.st8{opacity:0.89;fill-rule:evenodd;clip-rule:evenodd;fill:url(#SVGID_00000015312433182600668580000007876062234840390071_);}
	.st9{fill-rule:evenodd;clip-rule:evenodd;fill:url(#SVGID_00000014626436904395882480000013482218521967103650_);}
	.st10{fill-rule:evenodd;clip-rule:evenodd;fill:url(#SVGID_00000123402681060789129080000004545395139854387076_);}
	.st11{fill-rule:evenodd;clip-rule:evenodd;fill:url(#SVGID_00000051357333532321739290000003869738072182557328_);}
	.st12{fill-rule:evenodd;clip-rule:evenodd;fill:url(#SVGID_00000057124726681073962490000013080477467755681688_);}
	.st13{opacity:0.5;fill-rule:evenodd;clip-rule:evenodd;fill:url(#SVGID_00000033340626546546739390000009578047697370023042_);}
	.st14{fill-rule:evenodd;clip-rule:evenodd;fill:url(#SVGID_00000067195169131679087700000007996581244848912531_);}
	.st15{fill-rule:evenodd;clip-rule:evenodd;fill:url(#SVGID_00000011004895577340151310000005754213115916828323_);}
	.st16{fill-rule:evenodd;clip-rule:evenodd;fill:url(#SVGID_00000171000716360345439530000004905579368335843457_);}
	.st17{fill-rule:evenodd;clip-rule:evenodd;fill:url(#SVGID_00000098212945811263528880000013642826805117974948_);}
	.st18{fill-rule:evenodd;clip-rule:evenodd;fill:url(#SVGID_00000011020209557311921700000000357315789522612118_);}
	.st19{fill-rule:evenodd;clip-rule:evenodd;fill:url(#SVGID_00000066513345070215400170000007860851364083837854_);}
	.st20{fill-rule:evenodd;clip-rule:evenodd;fill:url(#SVGID_00000140699466076975009310000000996955658205431202_);}
	.st21{fill-rule:evenodd;clip-rule:evenodd;fill:url(#SVGID_00000179647710432463406040000007851101447176711085_);}
	.st22{fill-rule:evenodd;clip-rule:evenodd;fill:url(#SVGID_00000156564398461138416560000003330893630281157553_);}
	.st23{fill-rule:evenodd;clip-rule:evenodd;fill:url(#SVGID_00000078763298077706149250000004983402527490053535_);}
	.st24{fill-rule:evenodd;clip-rule:evenodd;fill:url(#SVGID_00000021837125686969839990000011442153335586994614_);}
	.st25{fill-rule:evenodd;clip-rule:evenodd;fill:url(#SVGID_00000166669669771288340520000000783928490176421037_);}
	.st26{opacity:0.4;fill-rule:evenodd;clip-rule:evenodd;fill:url(#SVGID_00000023241918868238345290000007573475586885489304_);}
	.st27{fill-rule:evenodd;clip-rule:evenodd;fill:url(#SVGID_00000010280037317578611840000005948724095500472482_);}
	.st28{opacity:0.4;fill-rule:evenodd;clip-rule:evenodd;fill:url(#SVGID_00000160908711383067852870000012628158181393962127_);}
	.st29{fill-rule:evenodd;clip-rule:evenodd;fill:url(#SVGID_00000074407521040940334380000008072047140649851578_);}
	.st30{opacity:0.5;fill-rule:evenodd;clip-rule:evenodd;fill:url(#SVGID_00000057855755752546131550000016229541652827648653_);}
	.st31{opacity:0.4;fill-rule:evenodd;clip-rule:evenodd;fill:url(#SVGID_00000065775015586642583060000013693101572590807177_);}
	.st32{fill-rule:evenodd;clip-rule:evenodd;fill:url(#SVGID_00000079470660223860758390000011597710147407754915_);}
	.st33{opacity:0.4;fill-rule:evenodd;clip-rule:evenodd;fill:url(#SVGID_00000173865069086740688300000012585911562368525735_);}
	.st34{fill-rule:evenodd;clip-rule:evenodd;fill:url(#SVGID_00000059306309729610171490000002901484605650655910_);}
	.st35{opacity:0.4;fill-rule:evenodd;clip-rule:evenodd;fill:url(#SVGID_00000008829345024483543820000013439629574682347649_);}
	.st36{fill-rule:evenodd;clip-rule:evenodd;fill:#E5BDFA;}
	.st37{fill-rule:evenodd;clip-rule:evenodd;fill:#FFA5F7;}
	.st38{opacity:0.71;fill-rule:evenodd;clip-rule:evenodd;fill:url(#SVGID_00000012453062503645041920000006509967368117163914_);}
	.st39{fill-rule:evenodd;clip-rule:evenodd;fill:url(#SVGID_00000129883871302229301390000014270985548094376868_);}
	.st40{fill-rule:evenodd;clip-rule:evenodd;fill:url(#SVGID_00000084497457376340608650000009356649977469746850_);}
	.st41{fill-rule:evenodd;clip-rule:evenodd;fill:url(#SVGID_00000111886107756450226650000007462100201532872637_);}
	.st42{fill-rule:evenodd;clip-rule:evenodd;fill:url(#SVGID_00000160902841850755223090000011123002661114703034_);}
	.st43{fill-rule:evenodd;clip-rule:evenodd;fill:url(#SVGID_00000085960606175635123680000007179579322371345807_);}
	.st44{opacity:0.71;fill-rule:evenodd;clip-rule:evenodd;fill:url(#SVGID_00000160169760017152554960000005878134940876151183_);}
	.st45{opacity:0.71;fill-rule:evenodd;clip-rule:evenodd;fill:url(#SVGID_00000087373898703660831680000000202926391651168407_);}
</style>
<g>
	<rect x="0.5" y="0.5" class="st0" width="1202" height="1202"/>
	<path d="M1202,1v1201H1V1H1202 M1203,0H0v1203h1203V0L1203,0z"/>
</g>
<g>
	<radialGradient id="SVGID_1_" cx="608.5352" cy="601.9296" r="451.854" gradientUnits="userSpaceOnUse">
		<stop  offset="0" style="stop-color:#9813FF"/>
		<stop  offset="1" style="stop-color:#000000"/>
	</radialGradient>
	<circle class="st1" cx="608.54" cy="601.93" r="451.85"/>
	
		<radialGradient id="SVGID_00000075158794339578062730000003271006204323937152_" cx="638.4624" cy="627.662" r="380.8203" gradientUnits="userSpaceOnUse">
		<stop  offset="0" style="stop-color:#9813FF"/>
		<stop  offset="1" style="stop-color:#000000"/>
	</radialGradient>
	
		<circle style="fill-rule:evenodd;clip-rule:evenodd;fill:url(#SVGID_00000075158794339578062730000003271006204323937152_);" cx="638.46" cy="627.66" r="380.82"/>
	
		<radialGradient id="SVGID_00000122697279083749383010000004092122629780155560_" cx="604.4985" cy="595.3386" r="363.4079" gradientUnits="userSpaceOnUse">
		<stop  offset="0" style="stop-color:#9813FF"/>
		<stop  offset="1" style="stop-color:#000000"/>
	</radialGradient>
	
		<circle style="fill-rule:evenodd;clip-rule:evenodd;fill:url(#SVGID_00000122697279083749383010000004092122629780155560_);" cx="604.5" cy="595.34" r="363.41"/>
	
		<linearGradient id="SVGID_00000137095978513532243820000009793623633095822759_" gradientUnits="userSpaceOnUse" x1="840.1578" y1="485.6247" x2="869.3159" y2="301.5277">
		<stop  offset="0" style="stop-color:#8931B3"/>
		<stop  offset="1" style="stop-color:#8E8CFF"/>
	</linearGradient>
	<path style="fill-rule:evenodd;clip-rule:evenodd;fill:url(#SVGID_00000137095978513532243820000009793623633095822759_);" d="
		M780.84,288.74c0,0,44.92,12.44,74.82,10.62c0,0,53.55,36.39,83.46,132.81c0,0-25.72,30.49-20.25,65.92
		C918.87,498.09,873.06,373.63,780.84,288.74z"/>
	
		<linearGradient id="SVGID_00000176762889889364302930000014873352181859582114_" gradientUnits="userSpaceOnUse" x1="42.7993" y1="636.2557" x2="52.9093" y2="572.4233" gradientTransform="matrix(-0.985 -0.1724 0.1724 -0.985 752.4388 1577.6523)">
		<stop  offset="0" style="stop-color:#8E8CFF"/>
		<stop  offset="1" style="stop-color:#8931B3"/>
	</linearGradient>
	<path style="fill-rule:evenodd;clip-rule:evenodd;fill:url(#SVGID_00000176762889889364302930000014873352181859582114_);" d="
		M830.11,1008.29c0,0-18.32-5.53-31.92-3.88c0,0-18.28-13.71-18.57-37.47c0,0,14.03-17.31,19.12-30.66
		C798.74,936.28,804.36,974.66,830.11,1008.29z"/>
	
		<radialGradient id="SVGID_00000118389688289871320760000016987234102312037033_" cx="469.1481" cy="449.41" r="514.46" gradientUnits="userSpaceOnUse">
		<stop  offset="5.586590e-03" style="stop-color:#FFB8E2"/>
		<stop  offset="0.2234" style="stop-color:#FDB7E3"/>
		<stop  offset="0.332" style="stop-color:#F5B5E5"/>
		<stop  offset="0.4166" style="stop-color:#E8B0E9"/>
		<stop  offset="0.4887" style="stop-color:#D5AAEF"/>
		<stop  offset="0.5521" style="stop-color:#BDA2F7"/>
		<stop  offset="0.5838" style="stop-color:#AE9DFC"/>
		<stop  offset="0.6382" style="stop-color:#A996FC"/>
		<stop  offset="0.7168" style="stop-color:#9A83FD"/>
		<stop  offset="0.8102" style="stop-color:#8163FE"/>
		<stop  offset="0.9142" style="stop-color:#5F38FF"/>
		<stop  offset="0.9162" style="stop-color:#5E37FF"/>
		<stop  offset="0.986" style="stop-color:#5E9AFF"/>
	</radialGradient>
	<path style="fill-rule:evenodd;clip-rule:evenodd;fill:url(#SVGID_00000118389688289871320760000016987234102312037033_);" d="
		M926.1,568.06c0,32.77-4.61,64.52-13.32,94.48C895.49,722.82,862,776.18,817.28,817.8c-31.97,29.81-69.71,53.51-111.26,69.28
		c-37.66,14.33-78.42,22.11-121.13,22.11c-6.05,0-12.17-0.14-18.15-0.5h-0.07c-8.93-0.43-17.79-1.3-26.5-2.38
		c-65.89-8.64-125.73-36.01-174.27-76.77c-18.22-15.19-34.78-32.33-49.4-51.06c-11.09-14.04-21.1-28.95-29.89-44.72
		c-2.09-3.74-4.1-7.56-6.12-11.38c0-0.14-0.07-0.22-0.14-0.36c-2.09-4.1-4.03-8.21-5.91-12.39c-0.07,0-0.07,0-0.07,0
		c-5.91-13.03-11.09-26.5-15.27-40.33c-3.17-9.94-5.83-20.16-7.99-30.53c-0.07-0.07-0.07-0.22-0.07-0.29
		c-1.51-7.27-2.81-14.62-3.82-22.04c-2.3-15.84-3.46-31.97-3.46-48.39c0-9.43,0.36-18.87,1.22-28.09
		c0.43-5.91,1.08-11.74,1.87-17.57c4.39-33.56,13.75-65.53,27.29-95.27c6.63-14.62,14.26-28.66,22.83-42.13
		c14.26-22.47,31.11-43.06,50.12-61.57c61.43-59.77,145.32-96.57,237.79-96.57c3.6,0,7.2,0.07,10.73,0.14
		c3.82,0.14,7.63,0.29,11.45,0.58c19.59,1.3,38.74,4.18,57.25,8.64c10.8,2.59,21.39,5.62,31.76,9.22
		c7.06,2.38,13.97,5.04,20.81,7.92c5.11,2.16,10.08,4.39,15.05,6.77c0.86,0.43,1.73,0.79,2.59,1.22
		c33.13,16.2,63.16,37.52,89.22,63.08c3.74,3.6,7.35,7.35,10.95,11.16c2.38,2.59,4.75,5.26,7.06,7.92
		c3.96,4.46,7.78,9.15,11.52,13.83c13.61,17.28,25.56,35.86,35.57,55.59c11.74,22.9,20.96,47.31,27.22,72.88
		C922.64,512.18,926.1,539.69,926.1,568.06z"/>
	
		<linearGradient id="SVGID_00000015325380603813611860000001478528743088249256_" gradientUnits="userSpaceOnUse" x1="256.7801" y1="415.5114" x2="399.5579" y2="415.5114">
		<stop  offset="0" style="stop-color:#FFFFFF"/>
		<stop  offset="0.1732" style="stop-color:#DBD0EA"/>
		<stop  offset="0.3634" style="stop-color:#B9A3D7"/>
		<stop  offset="0.5466" style="stop-color:#9F80C7"/>
		<stop  offset="0.7184" style="stop-color:#8C67BC"/>
		<stop  offset="0.8743" style="stop-color:#8057B5"/>
		<stop  offset="1" style="stop-color:#7C52B3"/>
	</linearGradient>
	
		<path style="opacity:0.5;fill-rule:evenodd;clip-rule:evenodd;fill:url(#SVGID_00000015325380603813611860000001478528743088249256_);" d="
		M256.78,517.68c0,0,60.85,31.74,115.36-11.42c54.51-43.16,10.91-204.17,10.91-204.17L256.78,517.68z"/>
	
		<linearGradient id="SVGID_00000105390872431080492410000004276853473775046325_" gradientUnits="userSpaceOnUse" x1="652.3328" y1="651.786" x2="900.2458" y2="651.786">
		<stop  offset="0" style="stop-color:#7C52B3"/>
		<stop  offset="0.1257" style="stop-color:#8057B5"/>
		<stop  offset="0.2816" style="stop-color:#8C67BC"/>
		<stop  offset="0.4534" style="stop-color:#9F80C7"/>
		<stop  offset="0.6366" style="stop-color:#B9A3D7"/>
		<stop  offset="0.8268" style="stop-color:#DBD0EA"/>
		<stop  offset="1" style="stop-color:#FFFFFF"/>
	</linearGradient>
	
		<path style="opacity:0.89;fill-rule:evenodd;clip-rule:evenodd;fill:url(#SVGID_00000105390872431080492410000004276853473775046325_);" d="
		M652.33,762.93c0,0,27.53,33.1,94.9,36.74c67.37,3.64,134.69-73.68,150.15-143.72c15.46-70.04-34.57-140.84-83.69-151.84
		C764.58,493.12,652.33,762.93,652.33,762.93z"/>
	
		<radialGradient id="SVGID_00000093154030587401572810000015237912123695209406_" cx="335.6069" cy="335.8311" r="449.0546" gradientUnits="userSpaceOnUse">
		<stop  offset="0" style="stop-color:#FFFFD9"/>
		<stop  offset="1" style="stop-color:#000000"/>
	</radialGradient>
	<path style="fill-rule:evenodd;clip-rule:evenodd;fill:url(#SVGID_00000093154030587401572810000015237912123695209406_);" d="
		M382.61,834.5c-35.27-29.53-64.51-66.1-85.51-107.53c-13.2-26.04-23.14-53.97-29.29-83.26c-0.06-0.06-0.06-0.18-0.06-0.3
		c-4.73-22.73-7.28-46.28-7.28-70.42c0-67.35,19.53-130.13,53.2-183.04c14.32-22.49,31.13-43.08,50.12-61.55
		c61.49-59.77,145.34-96.58,237.84-96.58c7.46,0,14.79,0.24,22.13,0.71c23.14,1.48,45.62,5.31,67.25,11.18
		c-26.66-8.74-54.8-14.26-83.95-16.13c-7.34-0.47-14.68-0.71-22.13-0.71c-92.5,0-176.35,36.81-237.84,96.58
		c-19,18.46-35.8,39.06-50.12,61.55c-33.67,52.91-53.2,115.69-53.2,183.04c0,24.15,2.54,47.7,7.28,70.42c0,0.12,0,0.24,0.06,0.3
		c6.15,29.29,16.1,57.23,29.29,83.26c21.01,41.42,50.24,78,85.51,107.53c37.38,31.36,81.51,54.78,129.91,67.85
		C453.95,883.75,415.64,862.22,382.61,834.5z"/>
	
		<linearGradient id="SVGID_00000123431686514557697550000006662093449305715379_" gradientUnits="userSpaceOnUse" x1="453.9937" y1="941.0051" x2="479.4002" y2="780.595">
		<stop  offset="0" style="stop-color:#6D109D"/>
		<stop  offset="1" style="stop-color:#8E8CFF"/>
	</linearGradient>
	<path style="fill-rule:evenodd;clip-rule:evenodd;fill:url(#SVGID_00000123431686514557697550000006662093449305715379_);" d="
		M306.26,764.87c0,0,21.61,35.22,16.16,92.53c0,0,47.38,82.81,181.1,89.63c0,0,67.31-49.62,131.74-41.54
		C635.25,905.49,524.01,746.91,306.26,764.87z"/>
	
		<linearGradient id="SVGID_00000108291660819623210400000000931733949999414165_" gradientUnits="userSpaceOnUse" x1="352.7352" y1="438.4178" x2="240.1866" y2="340.5808">
		<stop  offset="0" style="stop-color:#C98EFF"/>
		<stop  offset="1" style="stop-color:#8931B3"/>
	</linearGradient>
	<path style="fill-rule:evenodd;clip-rule:evenodd;fill:url(#SVGID_00000108291660819623210400000000931733949999414165_);" d="
		M256.78,517.68c0,0-22.41-61.85-42.53-83.69c0,0-15.46-98.24,84.6-131.9c0,0,53.89,10.28,84.2,0c0,0,11.54,66.4-34.17,137.36
		C309.9,499.95,256.78,517.68,256.78,517.68z"/>
	
		<linearGradient id="SVGID_00000139996331666501088950000003810357661823255211_" gradientUnits="userSpaceOnUse" x1="843.261" y1="658.1902" x2="633.2964" y2="536.9672" gradientTransform="matrix(0.9916 0.129 -0.129 0.9916 92.8586 -49.0762)">
		<stop  offset="0" style="stop-color:#5400B3"/>
		<stop  offset="1" style="stop-color:#F2C0FF"/>
	</linearGradient>
	<path style="fill-rule:evenodd;clip-rule:evenodd;fill:url(#SVGID_00000139996331666501088950000003810357661823255211_);" d="
		M869.76,565.84c0,0-23.84-83.86-104.82-88.89c-85.89-5.34-161.95,166.06-135.45,247.94c26.5,81.88,122.1,70.09,165.87,40.33
		C848.53,729.07,874.62,649.2,869.76,565.84z"/>
	
		<linearGradient id="SVGID_00000023996606468841111110000001602609735969911680_" gradientUnits="userSpaceOnUse" x1="505.4549" y1="321.9982" x2="666.6825" y2="321.9982">
		<stop  offset="0" style="stop-color:#FFFFFF"/>
		<stop  offset="0.1732" style="stop-color:#DBD0EA"/>
		<stop  offset="0.3634" style="stop-color:#B9A3D7"/>
		<stop  offset="0.5466" style="stop-color:#9F80C7"/>
		<stop  offset="0.7184" style="stop-color:#8C67BC"/>
		<stop  offset="0.8743" style="stop-color:#8057B5"/>
		<stop  offset="1" style="stop-color:#7C52B3"/>
	</linearGradient>
	
		<path style="opacity:0.5;fill-rule:evenodd;clip-rule:evenodd;fill:url(#SVGID_00000023996606468841111110000001602609735969911680_);" d="
		M505.45,319.57c0,0,29.07,49.18,85.38,43.8c61.49-5.88,77.93-57.94,75.64-78.56C664.19,264.19,505.45,319.57,505.45,319.57z"/>
	
		<linearGradient id="SVGID_00000068661726396888692450000010057570793157920649_" gradientUnits="userSpaceOnUse" x1="757.4249" y1="745.7028" x2="757.4249" y2="461.2002" gradientTransform="matrix(0.9916 0.129 -0.129 0.9916 92.8586 -49.0762)">
		<stop  offset="0" style="stop-color:#644FF7"/>
		<stop  offset="1" style="stop-color:#9F6DFF"/>
	</linearGradient>
	<path style="fill-rule:evenodd;clip-rule:evenodd;fill:url(#SVGID_00000068661726396888692450000010057570793157920649_);" d="
		M778.17,506.26c-74.26-0.41-184.26,197.18-88.49,263.61c90.99,63.11,175.07-73.87,184.94-120.67
		C884.49,602.4,878.16,506.81,778.17,506.26z"/>
	
		<linearGradient id="SVGID_00000031165154510171211790000002606671573765612467_" gradientUnits="userSpaceOnUse" x1="682.1397" y1="749.5161" x2="832.3006" y2="565.4237">
		<stop  offset="0" style="stop-color:#935CE1"/>
		<stop  offset="0.2206" style="stop-color:#8F5AE0"/>
		<stop  offset="0.4267" style="stop-color:#8454DC"/>
		<stop  offset="0.6273" style="stop-color:#714AD5"/>
		<stop  offset="0.823" style="stop-color:#573CCC"/>
		<stop  offset="0.9944" style="stop-color:#392CC2"/>
	</linearGradient>
	<path style="fill-rule:evenodd;clip-rule:evenodd;fill:url(#SVGID_00000031165154510171211790000002606671573765612467_);" d="
		M743.62,767.87c-3.53-0.29-6.99-0.79-10.23-1.3c-46.09-7.92-63.37-39.97-67.26-72.3c-2.45-20.52,0.5-41.12,4.9-55.81
		c8.71-29.09,55.45-97.29,108.96-106.87c19.01-3.46,38.89,0.58,58.26,16.49c16.35,13.54,24.49,31.33,26.36,51.06
		C871.8,672.74,793.81,772.34,743.62,767.87z"/>
	
		<radialGradient id="SVGID_00000127764859167519604300000014303205153208910214_" cx="704.9692" cy="865.9007" r="127.9403" gradientTransform="matrix(-0.3303 -0.9439 0.9439 -0.3303 -71.3899 1246.2792)" gradientUnits="userSpaceOnUse">
		<stop  offset="0" style="stop-color:#DEA5FF"/>
		<stop  offset="1" style="stop-color:#8931B3"/>
	</radialGradient>
	<path style="fill-rule:evenodd;clip-rule:evenodd;fill:url(#SVGID_00000127764859167519604300000014303205153208910214_);" d="
		M518.54,229.22c0,0-34.1,43.79-17.28,83.16c17.85,41.76,117.87,39.99,150.19,8.09c32.32-31.9,6.53-92.76-21.28-103.44
		C598.5,204.86,556.69,207.16,518.54,229.22z"/>
	
		<linearGradient id="SVGID_00000106852722502079493130000003793267318882707901_" gradientUnits="userSpaceOnUse" x1="716.3839" y1="1017.3254" x2="716.3839" y2="867.2079" gradientTransform="matrix(-0.3303 -0.9439 0.9439 -0.3303 -71.3899 1246.2792)">
		<stop  offset="0" style="stop-color:#C287F8"/>
		<stop  offset="1" style="stop-color:#CCB3FF"/>
	</linearGradient>
	<path style="fill-rule:evenodd;clip-rule:evenodd;fill:url(#SVGID_00000106852722502079493130000003793267318882707901_);" d="
		M512.17,286.52c17.41,35.1,136.64,40.12,145.25-20.78c8.18-57.86-76.33-65.02-100.73-58.58
		C532.29,213.6,488.72,239.25,512.17,286.52z"/>
	
		<linearGradient id="SVGID_00000008866956350387183370000004527018893013021591_" gradientUnits="userSpaceOnUse" x1="581.7866" y1="302.7063" x2="581.7866" y2="216.1721">
		<stop  offset="0" style="stop-color:#9F6DFF"/>
		<stop  offset="0.2695" style="stop-color:#9B69FF"/>
		<stop  offset="0.52" style="stop-color:#905EFD"/>
		<stop  offset="0.7622" style="stop-color:#7E4BFB"/>
		<stop  offset="0.9993" style="stop-color:#6431F7"/>
		<stop  offset="1" style="stop-color:#6431F7"/>
	</linearGradient>
	<path style="fill-rule:evenodd;clip-rule:evenodd;fill:url(#SVGID_00000008866956350387183370000004527018893013021591_);" d="
		M640.47,250.74c0.22,1.94,0.22,3.82,0,5.62c-0.07,1.94-0.36,3.89-0.79,5.69c-9.72,39.1-88.29,51.85-106.22,30.1
		c-4.97-6.05-7.99-12.03-9.43-17.71c-6.12-23.98,15.27-43.21,29.45-50.63C570.97,214.59,636.58,205.16,640.47,250.74z"/>
	
		<linearGradient id="SVGID_00000057841655037393911430000015370080395796016016_" gradientUnits="userSpaceOnUse" x1="258.6671" y1="437.0433" x2="258.6671" y2="302.0944">
		<stop  offset="0" style="stop-color:#FC9FF7"/>
		<stop  offset="1" style="stop-color:#F66DFF"/>
	</linearGradient>
	<path style="fill-rule:evenodd;clip-rule:evenodd;fill:url(#SVGID_00000057841655037393911430000015370080395796016016_);" d="
		M214.25,433.99c1.65,22.31,113.85-83.46,84.6-131.9C298.84,302.09,205.15,310.74,214.25,433.99z"/>
	
		<linearGradient id="SVGID_00000065053483572512745310000008299174170577869241_" gradientUnits="userSpaceOnUse" x1="413.2511" y1="952.7353" x2="413.2511" y2="839.8946">
		<stop  offset="0" style="stop-color:#C282F7"/>
		<stop  offset="1" style="stop-color:#DC6DFF"/>
	</linearGradient>
	<path style="fill-rule:evenodd;clip-rule:evenodd;fill:url(#SVGID_00000065053483572512745310000008299174170577869241_);" d="
		M322.42,857.4c-6.97-39.86,195.66-12.32,181.1,89.63C500.33,969.31,333.99,923.59,322.42,857.4z"/>
	
		<linearGradient id="SVGID_00000111881418534136219610000009860656252196095885_" gradientUnits="userSpaceOnUse" x1="409.7079" y1="944.37" x2="409.7079" y2="858.0538">
		<stop  offset="0" style="stop-color:#4848F7"/>
		<stop  offset="1" style="stop-color:#6D20FF"/>
	</linearGradient>
	<path style="fill-rule:evenodd;clip-rule:evenodd;fill:url(#SVGID_00000111881418534136219610000009860656252196095885_);" d="
		M485.31,944.09c-3.38,2.74-114.57-13.68-152.81-81.23c-2.52-4.54,9.36-5.98,27.58-3.82c6.91,0.79,14.69,2.16,22.97,4.1
		c26.36,6.12,57.39,18.08,78.42,37.09c6.55,5.91,11.59,11.23,15.34,15.99c5.4,6.91,8.28,12.53,9.58,16.85
		C488.19,939.19,486.89,942.86,485.31,944.09z"/>
	
		<linearGradient id="SVGID_00000032635943762851028190000007097204706816450471_" gradientUnits="userSpaceOnUse" x1="429.9272" y1="916.2184" x2="429.9272" y2="863.1448">
		<stop  offset="0" style="stop-color:#644FF7"/>
		<stop  offset="1" style="stop-color:#9F6DFF"/>
	</linearGradient>
	<path style="fill-rule:evenodd;clip-rule:evenodd;fill:url(#SVGID_00000032635943762851028190000007097204706816450471_);" d="
		M476.81,916.22c-44.07-7.78-75.76-33.85-93.76-53.07c26.36,6.12,57.39,18.08,78.42,37.09
		C468.02,906.14,473.06,911.46,476.81,916.22z"/>
	
		<linearGradient id="SVGID_00000039832088295486791790000004739551412754865575_" gradientUnits="userSpaceOnUse" x1="256.292" y1="411.6943" x2="256.292" y2="315.0541">
		<stop  offset="0" style="stop-color:#9F6DFF"/>
		<stop  offset="1" style="stop-color:#644FF7"/>
	</linearGradient>
	<path style="fill-rule:evenodd;clip-rule:evenodd;fill:url(#SVGID_00000039832088295486791790000004739551412754865575_);" d="
		M286.66,332.73c-1.87,5.99-5.03,13.98-9.79,24.61c-8.51,18.94-25.32,38.66-37.57,48.26c-6.25,4.96-11.34,7.28-13.4,5.48
		c-4.25-3.67-3.54-30.86,9.47-56.12c13.02-25.32,48.26-43.3,51.87-39.37C289.5,318.04,289.89,322.55,286.66,332.73z"/>
	
		<linearGradient id="SVGID_00000147937140031225126040000013042864722736893577_" gradientUnits="userSpaceOnUse" x1="259.0065" y1="366.6558" x2="268.4445" y2="372.6224">
		<stop  offset="0" style="stop-color:#9084FF"/>
		<stop  offset="1" style="stop-color:#C287F8"/>
	</linearGradient>
	<path style="fill-rule:evenodd;clip-rule:evenodd;fill:url(#SVGID_00000147937140031225126040000013042864722736893577_);" d="
		M286.66,332.73c-1.87,5.99-5.03,13.98-9.79,24.61c-8.51,18.94-25.32,38.66-37.57,48.26C253.61,366.69,278.93,340.21,286.66,332.73z
		"/>
	
		<linearGradient id="SVGID_00000089546417849146707370000015434329325873496720_" gradientUnits="userSpaceOnUse" x1="296.4178" y1="662.6414" x2="355.2372" y2="699.8257">
		<stop  offset="0" style="stop-color:#9084FF"/>
		<stop  offset="0.4888" style="stop-color:#D08BFC"/>
		<stop  offset="1" style="stop-color:#FFC9F8"/>
	</linearGradient>
	<path style="fill-rule:evenodd;clip-rule:evenodd;fill:url(#SVGID_00000089546417849146707370000015434329325873496720_);" d="
		M322.41,716.89c-3.53-2.16-6.98-6.05-10.08-11.02c0,0,0-0.07-0.14-0.22c-11.31-18.22-17.86-49.91-5.91-56.39
		c14.76-8.07,36.58-3.89,46.45,22.32c0,0,0,0.07,0.07,0.14c0.36,0.86,0.72,1.8,0.94,2.74c0.07,0.14,0.14,0.29,0.14,0.43
		c0.14,0.72,0.36,1.37,0.58,1.8c0.29,0.94,0.58,1.87,0.79,2.88C361.37,704.57,338.9,726.9,322.41,716.89z"/>
	
		<radialGradient id="SVGID_00000160162948230001269970000011884097623248524162_" cx="326.3222" cy="675.6139" r="28.2812" gradientUnits="userSpaceOnUse">
		<stop  offset="0" style="stop-color:#1372B3"/>
		<stop  offset="1" style="stop-color:#FFFFFF"/>
	</radialGradient>
	
		<path style="opacity:0.4;fill-rule:evenodd;clip-rule:evenodd;fill:url(#SVGID_00000160162948230001269970000011884097623248524162_);" d="
		M352.73,671.59c-5.55-11.16-27.15-24.12-40.4-12.03c-13.9,12.67-1.3,43.21-0.14,46.09c-11.31-18.22-17.86-49.91-5.91-56.39
		C321.04,641.2,342.86,645.38,352.73,671.59z"/>
	
		<linearGradient id="SVGID_00000125595178954555701240000002220399511380596613_" gradientUnits="userSpaceOnUse" x1="390.2455" y1="357.0287" x2="417.3599" y2="374.1698" gradientTransform="matrix(0.9965 0.0841 -0.0841 0.9965 57.0744 -29.6604)">
		<stop  offset="0" style="stop-color:#9084FF"/>
		<stop  offset="0.4888" style="stop-color:#D08BFC"/>
		<stop  offset="1" style="stop-color:#FFC9F8"/>
	</linearGradient>
	<path style="fill-rule:evenodd;clip-rule:evenodd;fill:url(#SVGID_00000125595178954555701240000002220399511380596613_);" d="
		M425.77,384.86c-1.54-1.13-2.97-3.05-4.2-5.45c0,0,0-0.03-0.06-0.11c-4.49-8.81-6.27-23.62-0.53-26.13
		c7.09-3.13,16.96-0.37,20.47,12.06c0,0,0,0.03,0.03,0.07c0.13,0.41,0.26,0.85,0.32,1.29c0.03,0.07,0.06,0.14,0.05,0.2
		c0.04,0.34,0.11,0.64,0.19,0.85c0.1,0.44,0.19,0.88,0.25,1.35C444.14,380.72,432.95,390.1,425.77,384.86z"/>
	
		<radialGradient id="SVGID_00000011722263498624786470000003319438783961650051_" cx="404.0306" cy="363.0084" r="13.0369" gradientTransform="matrix(0.9965 0.0841 -0.0841 0.9965 57.0744 -29.6604)" gradientUnits="userSpaceOnUse">
		<stop  offset="0" style="stop-color:#1372B3"/>
		<stop  offset="1" style="stop-color:#FFFFFF"/>
	</radialGradient>
	
		<path style="opacity:0.4;fill-rule:evenodd;clip-rule:evenodd;fill:url(#SVGID_00000011722263498624786470000003319438783961650051_);" d="
		M441.45,365.23c-2.11-5.34-11.54-12.13-18.09-7.09c-6.88,5.28-2.27,19.8-1.85,21.17c-4.49-8.81-6.27-23.62-0.53-26.13
		C428.07,350.04,437.93,352.81,441.45,365.23z"/>
	
		<linearGradient id="SVGID_00000127023894306115462700000000631513496045256127_" gradientUnits="userSpaceOnUse" x1="701.9902" y1="841.4451" x2="641.7386" y2="840.1801">
		<stop  offset="0" style="stop-color:#9566FC"/>
		<stop  offset="1" style="stop-color:#5445B1"/>
	</linearGradient>
	<path style="fill-rule:evenodd;clip-rule:evenodd;fill:url(#SVGID_00000127023894306115462700000000631513496045256127_);" d="
		M681.26,861.14c0,0,0,0-0.11,0c-0.68,0.34-1.47,0.68-2.26,0.79c-0.11,0.11-0.23,0.23-0.34,0.23c-0.57,0.11-1.13,0.23-1.47,0.45
		c-0.68,0.23-1.47,0.45-2.37,0.68c-11.41,3.05-22.15-1.13-28.14-7.91c-4.86-5.42-6.55-12.32-3.05-18.42
		c1.7-2.94,4.86-5.88,8.93-8.48c0,0,0,0,0.11-0.11c14.8-9.61,40.79-15.59,46.33-5.88c1.58,2.6,2.6,5.54,2.94,8.59
		C703.53,841.93,697.99,854.47,681.26,861.14z"/>
	
		<radialGradient id="SVGID_00000021836703518466637760000013188056772117617562_" cx="494.2112" cy="690.614" r="63.6984" gradientUnits="userSpaceOnUse">
		<stop  offset="0" style="stop-color:#FFFFE8"/>
		<stop  offset="0.2005" style="stop-color:#BBBBAA"/>
		<stop  offset="0.4155" style="stop-color:#79796E"/>
		<stop  offset="0.6108" style="stop-color:#45453F"/>
		<stop  offset="0.7795" style="stop-color:#1F1F1D"/>
		<stop  offset="0.9148" style="stop-color:#080808"/>
		<stop  offset="1" style="stop-color:#000000"/>
	</radialGradient>
	
		<path style="opacity:0.5;fill-rule:evenodd;clip-rule:evenodd;fill:url(#SVGID_00000021836703518466637760000013188056772117617562_);" d="
		M400.02,673.25c0,0,20.52,32.73,76.79,29.32c56.27-3.41,66.5-30.94,69.91-53.33c3.41-22.4-5.98-49.95-5.98-49.95
		S416.37,622.78,400.02,673.25z"/>
	
		<radialGradient id="SVGID_00000150098363202323815310000003582741832930623377_" cx="671.7488" cy="836.4544" r="25.1285" gradientUnits="userSpaceOnUse">
		<stop  offset="0" style="stop-color:#1372B3"/>
		<stop  offset="1" style="stop-color:#FFFFFF"/>
	</radialGradient>
	
		<path style="opacity:0.4;fill-rule:evenodd;clip-rule:evenodd;fill:url(#SVGID_00000150098363202323815310000003582741832930623377_);" d="
		M701.83,831.08c-4.63-3.96-14.24-8.81-29.95-3.84c-24.07,7.57-25.31,28.14-25.31,28.14c-4.86-5.42-6.55-12.32-3.05-18.42
		c1.7-2.94,4.86-5.88,8.93-8.48c0,0,0,0,0.11-0.11c14.8-9.61,40.79-15.59,46.33-5.88C700.48,825.09,701.49,828.03,701.83,831.08z"/>
	
		<linearGradient id="SVGID_00000162310128604196872850000010516344587634199995_" gradientUnits="userSpaceOnUse" x1="377.9808" y1="551.9217" x2="541.6386" y2="655.3827">
		<stop  offset="0" style="stop-color:#9084FF"/>
		<stop  offset="0.1181" style="stop-color:#9785FF"/>
		<stop  offset="0.2893" style="stop-color:#AA87FE"/>
		<stop  offset="0.492" style="stop-color:#CA8AFC"/>
		<stop  offset="0.5279" style="stop-color:#D08BFC"/>
		<stop  offset="1" style="stop-color:#FFC9F8"/>
	</linearGradient>
	<path style="fill-rule:evenodd;clip-rule:evenodd;fill:url(#SVGID_00000162310128604196872850000010516344587634199995_);" d="
		M543.49,630.97l-0.07,1.22c0.15,87.14-130.42,76.48-150.87,30.1c-2.81-6.41-5.19-13.54-6.99-21.03c0,0,0,0,0-0.07
		c-11.52-46.66-4.32-109.17,16.49-123.5c21.89-15.05,63.95-15.41,94.55,0C531.11,535.05,544.72,586.97,543.49,630.97z"/>
	
		<linearGradient id="SVGID_00000058551943943035203570000013515665826259904954_" gradientUnits="userSpaceOnUse" x1="380.0903" y1="573.7374" x2="543.567" y2="573.7374">
		<stop  offset="0" style="stop-color:#1372B3"/>
		<stop  offset="1" style="stop-color:#FFFFFF"/>
	</linearGradient>
	
		<path style="opacity:0.4;fill-rule:evenodd;clip-rule:evenodd;fill:url(#SVGID_00000058551943943035203570000013515665826259904954_);" d="
		M543.49,630.97l-0.07,1.22c0,0,1.95-54.51-24.41-83.61c-26.43-29.09-79.14-37.3-109.32-4.54c-29.38,31.97-24.41,94.19-24.13,97.15
		c-11.52-46.66-4.32-109.17,16.49-123.5c21.89-15.05,63.95-15.41,94.55,0C531.11,535.05,544.72,586.97,543.49,630.97z"/>
	<g>
		
			<linearGradient id="SVGID_00000137831679595620675600000013019505609339980168_" gradientUnits="userSpaceOnUse" x1="717.3054" y1="294.3856" x2="797.6761" y2="345.1942">
			<stop  offset="0" style="stop-color:#845FFF"/>
			<stop  offset="0.4888" style="stop-color:#A972FC"/>
			<stop  offset="1" style="stop-color:#D4B0F8"/>
		</linearGradient>
		<path style="fill-rule:evenodd;clip-rule:evenodd;fill:url(#SVGID_00000137831679595620675600000013019505609339980168_);" d="
			M788.26,356.68c-7.42,3.96-24.99-6.98-41.05-20.67c-19.52-16.78-36.65-37.73-29.96-40.76c9.15-4.1,42.78-1.37,58.26,11.38
			c6.63,5.47,12.96,13.9,16.78,22.47C797.12,340.26,797.55,351.64,788.26,356.68z"/>
		
			<linearGradient id="SVGID_00000062156809323517312160000005759506839013172392_" gradientUnits="userSpaceOnUse" x1="715.7821" y1="314.7446" x2="792.2967" y2="314.7446">
			<stop  offset="0" style="stop-color:#1372B3"/>
			<stop  offset="1" style="stop-color:#FFFFFF"/>
		</linearGradient>
		
			<path style="opacity:0.4;fill-rule:evenodd;clip-rule:evenodd;fill:url(#SVGID_00000062156809323517312160000005759506839013172392_);" d="
			M792.3,329.1c-0.07-0.07-0.14-0.22-0.22-0.29c-24.32-36.72-61.83-35.13-64.57-25.12c-2.74,10.01,19.71,32.32,19.71,32.32
			c-19.52-16.78-36.65-37.73-29.96-40.76c9.15-4.1,42.78-1.37,58.26,11.38C782.14,312.1,788.48,320.53,792.3,329.1z"/>
	</g>
	<path class="st36" d="M238.43,424.78c0,0,55.53-27.86,61.36-82.88C299.79,341.9,271.78,398.53,238.43,424.78z"/>
	<path class="st36" d="M652.33,697.58c0,0,5.47-110.32,85.26-175.34C737.59,522.24,641.89,568.03,652.33,697.58z"/>
	<path class="st37" d="M515.43,291.38c0,0,14.96,22.71,66.11,20.98c51.14-1.74,67.93-25.08,70.79-31.34c0,0-12.69,39.16-70.51,37.79
		C520.81,317.37,515.43,291.38,515.43,291.38z"/>
	<path class="st37" d="M409.71,847.28c0,0,77.55,31.3,93.26,76.35C502.97,923.62,501.24,871.92,409.71,847.28z"/>
	
		<linearGradient id="SVGID_00000058589339986809664000000012577577789891211706_" gradientUnits="userSpaceOnUse" x1="665.2447" y1="612.3613" x2="864.5986" y2="612.3613">
		<stop  offset="0" style="stop-color:#7C52B3"/>
		<stop  offset="1" style="stop-color:#FFFFFF"/>
	</linearGradient>
	
		<path style="opacity:0.71;fill-rule:evenodd;clip-rule:evenodd;fill:url(#SVGID_00000058589339986809664000000012577577789891211706_);" d="
		M864.6,599.14v0.14c0,0-26.35-45.5-99.44-25.55c-65.53,17.86-93.84,102.17-99.03,120.54c-2.45-20.52,0.5-41.12,4.9-55.81
		c8.71-29.09,55.45-97.29,108.96-106.87c19.01-3.46,38.89,0.58,58.26,16.49C854.59,561.63,862.73,579.41,864.6,599.14z"/>
	
		<radialGradient id="SVGID_00000131347860248669096990000003020872376170701207_" cx="876.209" cy="841.6389" r="122.6655" gradientTransform="matrix(0.9841 0.1777 -0.1777 0.9841 138.4464 -66.7422)" gradientUnits="userSpaceOnUse">
		<stop  offset="5.586590e-03" style="stop-color:#FFB8E2"/>
		<stop  offset="0.2234" style="stop-color:#FDB7E3"/>
		<stop  offset="0.332" style="stop-color:#F5B5E5"/>
		<stop  offset="0.4166" style="stop-color:#E8B0E9"/>
		<stop  offset="0.4887" style="stop-color:#D5AAEF"/>
		<stop  offset="0.5521" style="stop-color:#BDA2F7"/>
		<stop  offset="0.5838" style="stop-color:#AE9DFC"/>
		<stop  offset="0.6382" style="stop-color:#A996FC"/>
		<stop  offset="0.7168" style="stop-color:#9A83FD"/>
		<stop  offset="0.8102" style="stop-color:#8163FE"/>
		<stop  offset="0.9142" style="stop-color:#5F38FF"/>
		<stop  offset="0.9162" style="stop-color:#5E37FF"/>
		<stop  offset="0.986" style="stop-color:#5E9AFF"/>
	</radialGradient>
	<path style="fill-rule:evenodd;clip-rule:evenodd;fill:url(#SVGID_00000131347860248669096990000003020872376170701207_);" d="
		M953.36,964.42c-1.39,7.69-3.82,14.94-7.13,21.6c-6.61,13.41-16.73,24.51-28.98,32.39c-8.77,5.64-18.62,9.6-29.04,11.54
		c-9.44,1.77-19.34,1.86-29.36,0.05c-1.42-0.26-2.85-0.55-4.24-0.89l-0.02,0c-2.08-0.48-4.12-1.06-6.12-1.68
		c-15.1-4.82-27.98-13.78-37.64-25.4c-3.63-4.34-6.79-9.06-9.43-14.07c-2.01-3.76-3.72-7.69-5.12-11.76
		c-0.33-0.97-0.64-1.95-0.95-2.93c0.01-0.03-0.01-0.05-0.02-0.09c-0.32-1.05-0.6-2.1-0.86-3.16c-0.02,0-0.02,0-0.02,0
		c-0.83-3.31-1.48-6.69-1.87-10.11c-0.32-2.47-0.51-4.98-0.58-7.5c-0.01-0.02-0.01-0.05,0-0.07c-0.05-1.77-0.04-3.55,0.04-5.33
		c0.13-3.82,0.54-7.65,1.24-11.5c0.4-2.21,0.88-4.41,1.48-6.54c0.35-1.37,0.75-2.71,1.18-4.04c2.45-7.69,6-14.79,10.44-21.2
		c2.17-3.15,4.56-6.12,7.14-8.92c4.3-4.67,9.12-8.79,14.37-12.32c16.95-11.42,38.19-16.5,59.89-12.58c0.84,0.15,1.69,0.32,2.51,0.49
		c0.89,0.2,1.78,0.39,2.66,0.62c4.54,1.13,8.91,2.62,13.07,4.45c2.43,1.07,4.78,2.22,7.06,3.51c1.55,0.86,3.06,1.78,4.55,2.74
		c1.11,0.72,2.18,1.46,3.24,2.23c0.18,0.14,0.37,0.26,0.56,0.4c7.09,5.21,13.23,11.48,18.26,18.58c0.73,1,1.41,2.04,2.1,3.08
		c0.45,0.71,0.89,1.43,1.32,2.16c0.74,1.22,1.44,2.48,2.12,3.73c2.46,4.63,4.48,9.5,5.99,14.55c1.78,5.87,2.91,11.99,3.3,18.25
		C954.91,951.16,954.56,957.76,953.36,964.42z"/>
	
		<linearGradient id="SVGID_00000083046488141143066130000002589255625849374133_" gradientUnits="userSpaceOnUse" x1="531.3641" y1="1233.4906" x2="449.5896" y2="1186.2781" gradientTransform="matrix(0.4375 -0.8992 0.8992 0.4375 -397.0172 832.5705)">
		<stop  offset="0" style="stop-color:#5400B3"/>
		<stop  offset="1" style="stop-color:#F2C0FF"/>
	</linearGradient>
	<path style="fill-rule:evenodd;clip-rule:evenodd;fill:url(#SVGID_00000083046488141143066130000002589255625849374133_);" d="
		M895.29,862.33c0,0-32.28-0.86-44.34,31.29c-12.79,34.1,37.3,86.38,69.23,85.92c31.93-0.46,39.98-40.64,35.18-62.09
		C949.51,891.39,924.98,870.81,895.29,862.33z"/>
	
		<linearGradient id="SVGID_00000029034279451235941410000008483353732871756210_" gradientUnits="userSpaceOnUse" x1="498.2513" y1="1264.9355" x2="498.2513" y2="1158.1876" gradientTransform="matrix(0.4375 -0.8992 0.8992 0.4375 -397.0172 832.5705)">
		<stop  offset="0" style="stop-color:#644FF7"/>
		<stop  offset="1" style="stop-color:#9F6DFF"/>
	</linearGradient>
	<path style="fill-rule:evenodd;clip-rule:evenodd;fill:url(#SVGID_00000029034279451235941410000008483353732871756210_);" d="
		M862.86,891.93c-9.59,30.01,45.31,99.31,80.67,68.87c33.59-28.92-3.48-80.13-18.54-89.99
		C909.92,860.95,875.77,851.53,862.86,891.93z"/>
	
		<linearGradient id="SVGID_00000160155531177442227710000012761252944926203808_" gradientUnits="userSpaceOnUse" x1="431.3623" y1="1261.561" x2="431.3623" y2="1173.1626" gradientTransform="matrix(0.3179 -0.9481 0.9481 0.3179 -380.2748 937.0549)">
		<stop  offset="5.586590e-03" style="stop-color:#392CC2"/>
		<stop  offset="1" style="stop-color:#5F33C5"/>
	</linearGradient>
	<path style="fill-rule:evenodd;clip-rule:evenodd;fill:url(#SVGID_00000160155531177442227710000012761252944926203808_);" d="
		M949.69,938.72c-0.55,1.39-1.17,2.73-1.75,3.98c-8.63,17.66-22,20.64-33.78,18.16c-7.47-1.58-14.28-5.36-18.84-8.98
		c-9.04-7.17-26.87-34.64-23.4-57.51c1.21-8.13,5.15-15.67,13.17-21.52c6.8-4.92,14.04-5.98,21.16-4.27
		C932.83,874.91,957.64,918.97,949.69,938.72z"/>
	
		<linearGradient id="SVGID_00000175321058648784818670000006983325463345839545_" gradientUnits="userSpaceOnUse" x1="426.1556" y1="1261.1323" x2="426.1556" y2="1173.6931" gradientTransform="matrix(0.3179 -0.9481 0.9481 0.3179 -380.2748 937.0549)">
		<stop  offset="0" style="stop-color:#5E48F7"/>
		<stop  offset="1" style="stop-color:#8C50FF"/>
	</linearGradient>
	<path style="fill-rule:evenodd;clip-rule:evenodd;fill:url(#SVGID_00000175321058648784818670000006983325463345839545_);" d="
		M947.94,942.7c-14.13,28.86-40.9,18.49-52.62,9.18c-9.04-7.17-26.87-34.64-23.4-57.51c2.18-4.28,5.43-8.2,10.03-11.55
		C911.73,861.12,950.58,914.84,947.94,942.7z"/>
	
		<linearGradient id="SVGID_00000088103707479969199430000002286296628752396218_" gradientUnits="userSpaceOnUse" x1="388.6828" y1="1204.0223" x2="473.9143" y2="1204.0223" gradientTransform="matrix(0.3179 -0.9481 0.9481 0.3179 -380.2748 937.0549)">
		<stop  offset="0" style="stop-color:#7C52B3"/>
		<stop  offset="1" style="stop-color:#FFFFFF"/>
	</linearGradient>
	
		<path style="opacity:0.71;fill-rule:evenodd;clip-rule:evenodd;fill:url(#SVGID_00000088103707479969199430000002286296628752396218_);" d="
		M906.25,868.59l0.05,0.02c0,0-19.22,4.96-21.57,37.05c-2.11,28.77,23.69,50.8,29.43,55.2c-7.47-1.58-14.28-5.36-18.84-8.98
		c-9.04-7.17-26.87-34.64-23.4-57.51c1.21-8.13,5.15-15.67,13.17-21.52C891.89,867.94,899.13,866.88,906.25,868.59z"/>
	
		<linearGradient id="SVGID_00000156578115724079933820000000282275186930221466_" gradientUnits="userSpaceOnUse" x1="522.9454" y1="245.305" x2="640.6278" y2="245.305">
		<stop  offset="0" style="stop-color:#7C52B3"/>
		<stop  offset="1" style="stop-color:#FFFFFF"/>
	</linearGradient>
	
		<path style="opacity:0.71;fill-rule:evenodd;clip-rule:evenodd;fill:url(#SVGID_00000156578115724079933820000000282275186930221466_);" d="
		M640.47,250.74c0.22,1.94,0.22,3.82,0,5.62c-13.68-20.09-38.89-24.56-70.64-17.72c-31.83,6.84-45.8,35.79-45.8,35.79
		c-6.12-23.98,15.27-43.21,29.45-50.63C570.97,214.59,636.58,205.16,640.47,250.74z"/>
</g>
</svg>
