<?xml version="1.0" encoding="utf-8"?>
<!-- Generator: Adobe Illustrator 26.4.1, SVG Export Plug-In . SVG Version: 6.00 Build 0)  -->
<svg version="1.1" id="Слой_1" xmlns="http://www.w3.org/2000/svg" xmlns:xlink="http://www.w3.org/1999/xlink" x="0px" y="0px"
	 viewBox="0 0 1200 1200" style="enable-background:new 0 0 1200 1200;" xml:space="preserve">
<style type="text/css">
	.st0{fill:#020202;}
	.st1{fill-rule:evenodd;clip-rule:evenodd;fill:url(#SVGID_1_);}
	.st2{fill-rule:evenodd;clip-rule:evenodd;fill:url(#SVGID_00000044142425971983318590000017764828855505213614_);}
	.st3{fill-rule:evenodd;clip-rule:evenodd;fill:url(#SVGID_00000088838433635399968830000007241550208689703559_);}
	.st4{opacity:0.4;}
	.st5{fill-rule:evenodd;clip-rule:evenodd;fill:#B9BFE2;}
	.st6{fill-rule:evenodd;clip-rule:evenodd;fill:url(#SVGID_00000128471086932189733560000011181080353774192285_);}
	.st7{fill-rule:evenodd;clip-rule:evenodd;fill:url(#SVGID_00000160880871740415519280000000857031413184807595_);}
	.st8{fill-rule:evenodd;clip-rule:evenodd;fill:url(#SVGID_00000181072257161853704440000008394274168382627988_);}
	.st9{fill-rule:evenodd;clip-rule:evenodd;fill:url(#SVGID_00000018213825914934741450000015502262217127291828_);}
	.st10{fill-rule:evenodd;clip-rule:evenodd;fill:url(#SVGID_00000060005316690473569840000003813237419481958028_);}
	.st11{fill-rule:evenodd;clip-rule:evenodd;fill:url(#SVGID_00000054260817799059054340000009272297554838783618_);}
	.st12{fill-rule:evenodd;clip-rule:evenodd;fill:url(#SVGID_00000171708098814497164490000003466550644374481072_);}
	.st13{fill-rule:evenodd;clip-rule:evenodd;fill:#004A59;}
	.st14{fill-rule:evenodd;clip-rule:evenodd;fill:url(#SVGID_00000140728312801544965430000005805137610947226765_);}
	.st15{fill-rule:evenodd;clip-rule:evenodd;fill:url(#SVGID_00000003087027491480604990000012093110101458549638_);}
	.st16{fill-rule:evenodd;clip-rule:evenodd;fill:#00777A;}
	.st17{fill-rule:evenodd;clip-rule:evenodd;fill:url(#SVGID_00000115473763159748851370000017896016001882958772_);}
	.st18{fill-rule:evenodd;clip-rule:evenodd;fill:#006D7A;}
	.st19{fill-rule:evenodd;clip-rule:evenodd;fill:url(#SVGID_00000105400283002281641320000007501464996848011957_);}
	.st20{fill-rule:evenodd;clip-rule:evenodd;fill:url(#SVGID_00000177483543748506744640000000549213457317398689_);}
	.st21{fill-rule:evenodd;clip-rule:evenodd;fill:url(#SVGID_00000077310939379070112870000002709835322919842955_);}
	.st22{fill-rule:evenodd;clip-rule:evenodd;fill:url(#SVGID_00000072993095628460753020000016257367411938208936_);}
	.st23{fill-rule:evenodd;clip-rule:evenodd;fill:url(#SVGID_00000122686830763910744170000006162237845531116193_);}
	.st24{fill-rule:evenodd;clip-rule:evenodd;fill:url(#SVGID_00000176752285901598590760000017310091264724327611_);}
	.st25{fill-rule:evenodd;clip-rule:evenodd;fill:url(#SVGID_00000087391856349990954800000014152619210155241137_);}
	.st26{fill-rule:evenodd;clip-rule:evenodd;fill:url(#SVGID_00000028291029773219455670000008110655932048488887_);}
	.st27{fill-rule:evenodd;clip-rule:evenodd;fill:url(#SVGID_00000047042118029594229880000011075423600742402951_);}
	.st28{fill-rule:evenodd;clip-rule:evenodd;fill:url(#SVGID_00000041266090851953871380000009260818438861195649_);}
	.st29{fill-rule:evenodd;clip-rule:evenodd;fill:url(#SVGID_00000147941088173885625640000007152996694604988577_);}
	.st30{fill-rule:evenodd;clip-rule:evenodd;fill:url(#SVGID_00000119811020789963365800000018007531658932292510_);}
	.st31{fill-rule:evenodd;clip-rule:evenodd;fill:url(#SVGID_00000106865552282058697520000015719210858124432257_);}
	.st32{fill-rule:evenodd;clip-rule:evenodd;fill:url(#SVGID_00000018953678933126373110000014784290297169067399_);}
	.st33{fill-rule:evenodd;clip-rule:evenodd;fill:url(#SVGID_00000130618917768832751750000001552124473315414916_);}
	.st34{fill-rule:evenodd;clip-rule:evenodd;fill:url(#SVGID_00000013904626479950368610000016712439536218051500_);}
	.st35{fill-rule:evenodd;clip-rule:evenodd;fill:url(#SVGID_00000177449565362823804600000001579460506982059153_);}
	.st36{fill-rule:evenodd;clip-rule:evenodd;fill:#FFFF8D;}
	.st37{fill-rule:evenodd;clip-rule:evenodd;fill:url(#SVGID_00000103237169290689681830000015346896174115150769_);}
	.st38{fill-rule:evenodd;clip-rule:evenodd;fill:url(#SVGID_00000082338465644106943210000015404930113263401393_);}
	.st39{fill-rule:evenodd;clip-rule:evenodd;fill:url(#SVGID_00000078022824763159468050000011168955712943897732_);}
	.st40{fill-rule:evenodd;clip-rule:evenodd;fill:url(#SVGID_00000026883523214970754280000000553595246223729547_);}
	.st41{fill-rule:evenodd;clip-rule:evenodd;fill:url(#SVGID_00000080888239858526801310000017067272818775164339_);}
	.st42{fill-rule:evenodd;clip-rule:evenodd;fill:url(#SVGID_00000088840816005427403160000009515653821673960381_);}
	.st43{fill-rule:evenodd;clip-rule:evenodd;fill:url(#SVGID_00000134966877407267695110000007270970108860221366_);}
	.st44{fill-rule:evenodd;clip-rule:evenodd;fill:url(#SVGID_00000026861866233402200820000008943818560995050660_);}
</style>
<g>
	<rect x="0.5" y="0.5" class="st0" width="1202" height="1202"/>
	<path d="M1202,1v1201H1V1H1202 M1203,0H0v1203h1203V0L1203,0z"/>
</g>
<g>
	<radialGradient id="SVGID_1_" cx="600.1268" cy="625.3239" r="493.6634" gradientUnits="userSpaceOnUse">
		<stop  offset="5.586590e-03" style="stop-color:#00FF00"/>
		<stop  offset="1" style="stop-color:#000000"/>
	</radialGradient>
	<circle class="st1" cx="600.13" cy="625.32" r="493.66"/>
	
		<radialGradient id="SVGID_00000107577192366937049250000013736264679633356216_" cx="624.0697" cy="634.7642" r="383.0247" gradientUnits="userSpaceOnUse">
		<stop  offset="0.0279" style="stop-color:#00FFA9"/>
		<stop  offset="0.1503" style="stop-color:#00FBA6"/>
		<stop  offset="0.2723" style="stop-color:#00EF9E"/>
		<stop  offset="0.3944" style="stop-color:#00DB91"/>
		<stop  offset="0.5165" style="stop-color:#00BF7E"/>
		<stop  offset="0.6387" style="stop-color:#009B66"/>
		<stop  offset="0.761" style="stop-color:#006E49"/>
		<stop  offset="0.881" style="stop-color:#003B27"/>
		<stop  offset="1" style="stop-color:#000000"/>
	</radialGradient>
	
		<circle style="fill-rule:evenodd;clip-rule:evenodd;fill:url(#SVGID_00000107577192366937049250000013736264679633356216_);" cx="624.07" cy="634.76" r="383.02"/>
	
		<radialGradient id="SVGID_00000050635450025360409720000002302052782105698965_" cx="397.9031" cy="462.9462" r="548.0306" gradientUnits="userSpaceOnUse">
		<stop  offset="5.586590e-03" style="stop-color:#0CC463"/>
		<stop  offset="0.2058" style="stop-color:#0CC163"/>
		<stop  offset="0.3613" style="stop-color:#0BB765"/>
		<stop  offset="0.5018" style="stop-color:#09A767"/>
		<stop  offset="0.6334" style="stop-color:#078F6B"/>
		<stop  offset="0.7576" style="stop-color:#04726F"/>
		<stop  offset="0.8715" style="stop-color:#004F74"/>
	</radialGradient>
	<path style="fill-rule:evenodd;clip-rule:evenodd;fill:url(#SVGID_00000050635450025360409720000002302052782105698965_);" d="
		M950.36,622.53c0,32.77-4.61,64.52-13.32,94.48c-17.28,60.27-50.77,113.64-95.49,155.26c-31.97,29.81-69.71,53.51-111.26,69.28
		c-37.66,14.33-78.42,22.11-121.13,22.11c-6.05,0-12.17-0.14-18.15-0.5h-0.07c-8.93-0.43-17.79-1.3-26.5-2.38
		c-65.89-8.64-125.73-36.01-174.27-76.77c-18.22-15.19-34.78-32.33-49.4-51.06c-11.09-14.04-21.1-28.95-29.89-44.72
		c-2.09-3.74-4.1-7.56-6.12-11.38c0-0.14-0.07-0.22-0.14-0.36c-2.09-4.1-4.03-8.21-5.9-12.39c-0.07,0-0.07,0-0.07,0
		c-5.9-13.03-11.09-26.5-15.27-40.33c-3.17-9.94-5.83-20.16-7.99-30.53c-0.07-0.07-0.07-0.22-0.07-0.29
		c-1.51-7.27-2.81-14.62-3.82-22.04c-2.3-15.84-3.46-31.97-3.46-48.39c0-9.43,0.36-18.87,1.22-28.09
		c0.43-5.91,1.08-11.74,1.87-17.57c4.39-33.56,13.75-65.53,27.29-95.27c6.63-14.62,14.26-28.66,22.83-42.13
		c14.26-22.47,31.11-43.06,50.12-61.57c61.43-59.77,145.32-96.57,237.79-96.57c3.6,0,7.2,0.07,10.73,0.14
		c3.82,0.14,7.63,0.29,11.45,0.58c19.59,1.3,38.74,4.18,57.25,8.64c10.8,2.59,21.39,5.62,31.76,9.22
		c7.06,2.38,13.97,5.04,20.81,7.92c5.11,2.16,10.08,4.39,15.05,6.77c0.86,0.43,1.73,0.79,2.59,1.22
		c33.13,16.2,63.16,37.52,89.22,63.08c3.74,3.6,7.35,7.35,10.95,11.16c2.38,2.59,4.75,5.26,7.06,7.92
		c3.96,4.46,7.78,9.15,11.52,13.83c13.61,17.28,25.56,35.86,35.57,55.59c11.74,22.9,20.96,47.31,27.22,72.88
		C946.91,566.65,950.36,594.16,950.36,622.53z"/>
	<g class="st4">
		<path class="st5" d="M353.82,469.84c-6.48,13.26-11.44,24.08-12.73,38.57c-0.94,10.61-2.74,20.95-1.69,31.68
			c1.1,11.23,5.52,20.99,8.91,31.59c4.03,12.61,10.57,24.48,20.07,33.88c16.32,16.16,39.39,16.47,58.74,5.82
			c9.89-5.44,18.12-12.75,28.57-17.41c14.38-6.41,27.94-12.45,37.92-25.27c10.88-13.97,14.96-30.39,16.76-47.83
			c1.07-10.43,2.51-20.18,0.2-30.59c-1.82-8.19-5.2-16.6-9.36-23.88c-3.18-5.56-6.85-11.18-10.82-16.23
			c-5.77-7.34-11.99-9.86-20.19-13.59c-5.04-2.29-9.03-4.9-14.78-5.1c-6.33-0.22-13.53-0.31-19.79,0.44
			c-7.52,0.9-14.18,3.71-21.26,6.1c-6.74,2.27-13.76,3.65-20.34,6.41c-6.61,2.77-12.89,4.81-19.8,6.79
			c-8.75,2.51-15.81,4.92-22.41,11.46c-1.55,1.54-4.14,3.53-5.41,5.28C343.94,471.33,344.73,474.96,353.82,469.84z"/>
		<path class="st5" d="M477.53,615.38c1.87-6.29,3.15-18.29,9.21-22.89c2.44-1.84,6-3.33,8.97-4.03c4.94-1.16,8.42,0.43,12.73,2.77
			c10.82,5.88,8.8,22.57,2.8,31.43c-5.16,7.63-18.16,14.41-26.46,8.19c-5.83-4.37-8.97-13.41-6.95-20.63
			c0.5-0.1,1.01-0.21,1.51-0.31L477.53,615.38z"/>
		<path class="st5" d="M683.11,719.08c-0.62,6.72-2.56,17.06-1.49,24.47c1.03,7.08,2.36,14.11,4.14,21.04
			c3.15,12.26,7.66,26.53,20.93,31.2c11.79,4.15,25.89,0.14,37-4.35c11.87-4.81,25.18-8.62,35.89-15.77
			c10.69-7.15,21.15-16.11,29.14-26.11c8.76-10.96,12.43-20.72,12.76-35.06c0.46-20.26-7.88-38.08-18.25-55.04
			c-11.47-18.74-32.65-24.21-52.92-16.9c-16.97,6.12-25.72,24.4-38.12,36.55c-3.88,3.81-6.74,8.1-10.87,11.32
			c-4.73,3.68-6.53,7.51-9.5,12.38c-2.37,3.89-5.55,6.29-7.37,10.73C682.14,719.15,683.11,725.82,683.11,719.08z"/>
		<path class="st5" d="M839.57,708.16c1.14-1.63,9.11-19.15,16.33-18.36c3.47,0.38,6.2,4.23,7.86,7.04
			c2.69,4.54,4.82,8.76,1.3,13.92c-4.52,6.6-22.88,11.49-24.02-0.42c-0.49-0.12-0.98-0.24-1.47-0.35V708.16z"/>
		<path class="st5" d="M562.05,344.13c1.14-1.63,9.11-19.15,16.33-18.36c3.47,0.38,6.2,4.23,7.86,7.04
			c2.69,4.54,4.82,8.76,1.3,13.92c-4.52,6.6-22.88,11.49-24.02-0.42c-0.49-0.12-0.98-0.23-1.47-0.35V344.13z"/>
		<path class="st5" d="M751.4,601.27c1.14-1.63,9.11-19.15,16.33-18.36c3.47,0.38,6.2,4.23,7.86,7.04c2.69,4.54,4.82,8.76,1.3,13.92
			c-4.52,6.6-22.88,11.49-24.02-0.42c-0.49-0.12-0.98-0.24-1.47-0.35V601.27z"/>
		<path class="st5" d="M704.94,517.14c-4.09,10.96-9.07,17.72-5.72,28.1c1.62,5.04,2.35,10.31,3.78,15.39
			c2.8,9.91,10.53,15.95,17.47,22.99c9.17,9.3,17.34,12.18,29.64,6.28c4.04-1.93,7.65-4.65,11.23-7.28
			c5.49-4.04,7.71-6.73,10.95-12.78c2.86-5.35,3.67-10.34,5.83-15.91c2.32-6.01,4.92-10.78,5.12-17.45
			c0.19-6.41,0.66-13.39-1.05-19.55c-2.2-7.92-6.41-14.87-10.67-21.76c-3.75-6.06-8.19-11.87-13.82-16.41
			c-4.68-3.78-10.66-3.7-16.41-4.92c-9.93-2.1-24.31,5.94-29.6,14.1C704.26,499.39,700.25,512.73,704.94,517.14z"/>
		<path class="st5" d="M681.29,582.63c0.97,7.81,3.48,14.98,7.54,21.5c1.24-1.06,3.26-1.6,4.87-1.81c0.07-2.28,1.8-3.08,2.23-5.05
			c0.48-2.17-0.13-5.12-0.1-7.36c0.05-4.08-1.36-7.32-2.7-10.94c-1.11-3-2.64-8.07-6.44-7.38
			C679.5,572.9,680.19,578.83,681.29,582.63L681.29,582.63z"/>
		<path class="st5" d="M340.18,800.95c0.5,6.2,0.22,11.41,3.64,16.64c3.4,5.2,7.62,9.92,11.91,14.41c2.89,3.02,8.22,9.42,13.14,6.67
			c4.03-2.25,5.38-10.33,4.96-14.4c-0.34-3.28-1.54-6.92-2.34-10.15c-0.93-3.76-2.49-7.35-4.7-10.53
			c-3.77-5.41-12.6-15.48-20.23-10.62c-2.18,1.39-4.4,2.43-5.57,4.69C339.87,799.79,340.18,802.08,340.18,800.95z"/>
		<path class="st5" d="M511.44,773.66c-1.22-3.21-2.07-6.49-2.57-9.86c-0.51-1.04-0.33-1.94,0.55-2.69
			c1.2-3.59,2.37-7.15,4.21-10.48c3.31-5.96,7.23-12.59,13.23-16.21c2.2-1.33,4.49-1.68,6.95-2.28c2.5-0.6,4.97-1.57,7.51-2.01
			c4.35-0.76,9.22,0.19,13.42,1.3c4.7,1.24,10.49,2.69,14.74,5.07c4.07,2.28,6.56,6.3,9.05,10.09c5.11,7.8,7.27,18.86,0.14,26.42
			c-1.97,2.09-4.47,3.7-6.83,5.3c-2.5,1.71-4.88,3.86-7.56,5.3c-3.21,1.71-7.47,2.06-11,2.78c-6.82,1.4-14.04,1.28-20.75-0.67
			C525.45,783.67,520.31,778.76,511.44,773.66z"/>
	</g>
	
		<linearGradient id="SVGID_00000183964651532173897060000003382878780794967182_" gradientUnits="userSpaceOnUse" x1="842.4885" y1="692.3085" x2="842.4885" y2="501.2518">
		<stop  offset="0" style="stop-color:#007C6F"/>
		<stop  offset="0.6647" style="stop-color:#29D73B"/>
		<stop  offset="0.9888" style="stop-color:#3BFF24"/>
	</linearGradient>
	<path style="fill-rule:evenodd;clip-rule:evenodd;fill:url(#SVGID_00000183964651532173897060000003382878780794967182_);" d="
		M807.5,501.25c0,0-18.36,33.22-8.58,92.65c21.76,132.26,94.48,112.06,89.78,50.66L807.5,501.25z"/>
	
		<radialGradient id="SVGID_00000096056816838971578120000003324847769078756260_" cx="460.2181" cy="820.5573" r="73.6413" gradientTransform="matrix(1.6545 0.2028 -0.1526 1.2446 -45.1629 -291.9489)" gradientUnits="userSpaceOnUse">
		<stop  offset="0" style="stop-color:#00FF00"/>
		<stop  offset="1" style="stop-color:#000000"/>
	</radialGradient>
	<path style="fill-rule:evenodd;clip-rule:evenodd;fill:url(#SVGID_00000096056816838971578120000003324847769078756260_);" d="
		M712.89,837.59c-6.21,50.62-65.79,84.97-133.08,76.72c-67.29-8.25-116.81-55.97-110.6-106.59c6.21-50.62,65.79-84.97,133.08-76.72
		C669.58,739.24,719.1,786.97,712.89,837.59z"/>
	
		<linearGradient id="SVGID_00000181078255652869712720000018404516895465824133_" gradientUnits="userSpaceOnUse" x1="268.0226" y1="528.9225" x2="758.7903" y2="528.9225">
		<stop  offset="0.0112" style="stop-color:#92FF2C"/>
		<stop  offset="0.2325" style="stop-color:#8FFC2D"/>
		<stop  offset="0.3947" style="stop-color:#86F332"/>
		<stop  offset="0.5382" style="stop-color:#76E33A"/>
		<stop  offset="0.6707" style="stop-color:#5FCD44"/>
		<stop  offset="0.7958" style="stop-color:#42B152"/>
		<stop  offset="0.9136" style="stop-color:#1F8E63"/>
		<stop  offset="1" style="stop-color:#007072"/>
	</linearGradient>
	<path style="fill-rule:evenodd;clip-rule:evenodd;fill:url(#SVGID_00000181078255652869712720000018404516895465824133_);" d="
		M758.79,315.85c-1.12,0.12-2.25,0.24-3.37,0.47c-3.85,0.71-6.86,0.36-10.65-0.71c-2.72-0.77-4.68-1.89-7.58-2.37
		c-4.14-0.65-7.99-2.43-12.13-2.96c-4.38-0.59-8.17-2.31-12.31-3.79c-3.26-1.18-4.97-0.77-8.11,0c-3.14,0.83-5.33-0.47-8.11-1.66
		c-3.14-1.36-6.27-1.6-9.59-2.25c-8.64-1.78-17.22-4.56-25.8-6.75c-5.33-1.36-10.24-1.36-15.68-1.42
		c-4.26-0.06-8.11,1.18-12.37,1.18c-2.84,0-5.27-0.47-8.11-0.89c-2.9-0.53-5.86,0.06-8.76-0.36c-4.32-0.65-6.63-1.3-11.01,0.06
		c-3.26,1.07-5.8,0.95-9.06,1.12c-3.61,0.18-7.69,1.12-11.24,1.95c-6.39,1.48-13.37,2.66-19.94,2.54c-4.02,0-9.94-1.12-13.79,0.24
		c-2.49,0.89-3.73,3.55-5.44,5.33c-3.31,3.43-7.4,6.51-10.18,10.36c-2.78,3.85-5.92,7.81-5.68,12.66c0.24,4.2,2.19,9.11,4.02,12.96
		c1.89,4.08,2.54,7.81-1.66,10.53c-5.27,3.49-11.36,6.69-17.4,8.4c-4.02,1.18-7.63,1.89-11.01-1.01c-1.24-1.07-2.01-3.14-3.55-3.96
		c-1.6-0.83-3.26,0-4.97,0.53c-4.26,1.24-8.4,2.66-12.72,3.37c-2.66,0.41-4.97,1.83-7.57,2.31c-3.14,0.59-5.39-1.72-8.64-0.95
		c-4.56,1.07-9.11,2.96-13.85,3.2c-3.37,0.18-7.63-1.3-10.48-3.02c-1.66-0.95-2.07-1.89-3.96-1.36c-1.54,0.35-3.85,2.25-4.68,3.43
		c-1.12,1.6-1.54,3.67-2.66,5.33c-1.18,1.83-2.31,3.61-3.37,5.56c-1.95,3.79-4.26,7.34-6.75,10.71c-1.78,2.37-3.02,5.56-4.97,7.75
		c-1.01,1.18-3.2,2.01-4.5,2.9c-3.55,2.49-7.28,4.73-10.71,7.4c-6.63,5.21-12.9,10.95-19.65,15.98c-5.15,3.85-12.37,6.1-18.23,8.52
		c-3.67,1.48-7.46,2.54-11.13,4.08c-1.18,0.47-3.37,1.01-4.38,1.89c-1.3,1.12-2.01,3.2-3.2,4.73c-3.2,3.91-6.57,7.81-8.99,12.31
		c-1.48,2.6-2.37,5.27-3.31,8.11c-1.3,3.85-3.37,7.4-4.68,11.24c-2.66,8.05-3.2,16.45-6.15,24.44c-1.72,4.68-4.2,8.94-6.33,13.2
		c-3.67,7.22-4.2,15.8-5.27,23.79c-0.59,4.68-0.36,10.06,0.47,14.62c0.89,4.91,0.65,10,0.59,15.03c-0.06,5.33-3.43,10.53-6.81,14.56
		c-3.08,3.73-7.75,5.15-11.18,8.46c-2.9,2.84-6.39,6.1-7.63,10.12c-0.53,1.78-0.06,3.79-0.35,5.68c-0.77,4.2-1.83,8.17-2.43,12.43
		c-0.65,5.27-0.77,10.24-0.77,15.56c0,2.66-0.18,5.39-0.06,8.05c0.12,2.54,1.07,4.91,1.24,7.46c0.12,1.78-0.24,3.55,0,5.33
		c0.35,2.01,1.12,4.08,1.6,6.04c1.18,4.73,2.07,9.35,2.96,14.08c0.83,4.38,2.55,8.7,3.91,12.96c1.89,5.8,3.14,11.78,4.26,17.81
		c0.89,4.5,0.83,9.17,1.48,13.73c0.53,3.67,1.36,7.4,1.54,11.07c0.18,5.56-1.18,11.13-1.24,16.75c-0.06,9.47,3.73,18.94,5.92,28.05
		c0.65,2.54,1.3,5.15,2.01,7.69c-23.43-46.28-36.63-98.59-36.63-153.98c0-67.35,19.53-130.13,53.2-183.04
		c14.32-22.49,31.13-43.08,50.12-61.55c61.49-59.77,145.34-96.58,237.84-96.58c7.46,0,14.8,0.24,22.13,0.71
		C676.83,284.96,719.91,296.79,758.79,315.85z"/>
	
		<radialGradient id="SVGID_00000050620982675861591760000009258028410317914002_" cx="375.9003" cy="483.9845" r="28.2134" gradientTransform="matrix(2.394 1.3822 -0.7113 1.232 167.8268 -653.247)" gradientUnits="userSpaceOnUse">
		<stop  offset="0" style="stop-color:#00FF00"/>
		<stop  offset="1" style="stop-color:#000000"/>
	</radialGradient>
	<path style="fill-rule:evenodd;clip-rule:evenodd;fill:url(#SVGID_00000050620982675861591760000009258028410317914002_);" d="
		M791.02,501.59c-11.08,19.2-50.31,17.3-87.61-4.24c-37.3-21.54-58.56-54.56-47.47-73.76c11.08-19.2,50.31-17.3,87.61,4.24
		C780.85,449.37,802.1,482.39,791.02,501.59z"/>
	
		<radialGradient id="SVGID_00000061464430099442505480000011124255276944697265_" cx="842.597" cy="794.9184" r="48.9839" gradientUnits="userSpaceOnUse">
		<stop  offset="0.0112" style="stop-color:#3BFF24"/>
		<stop  offset="0.5336" style="stop-color:#26D832"/>
		<stop  offset="1" style="stop-color:#11B140"/>
	</radialGradient>
	<path style="fill-rule:evenodd;clip-rule:evenodd;fill:url(#SVGID_00000061464430099442505480000011124255276944697265_);" d="
		M866.9,741.33c0,0-34.06,0.49-61.74,35.17c-27.68,34.68-27.44,65.38-23.46,75.68C785.69,862.47,866.9,741.33,866.9,741.33z"/>
	
		<radialGradient id="SVGID_00000110466346903010905430000001238351467349546424_" cx="350.8329" cy="457.5983" r="50.4503" gradientTransform="matrix(0.2225 1.652 -1.4099 0.1899 1390.4475 -79.0685)" gradientUnits="userSpaceOnUse">
		<stop  offset="0" style="stop-color:#00FF00"/>
		<stop  offset="1" style="stop-color:#000000"/>
	</radialGradient>
	<path style="fill-rule:evenodd;clip-rule:evenodd;fill:url(#SVGID_00000110466346903010905430000001238351467349546424_);" d="
		M834.57,670.75c-39.28,5.29-76.16-27.73-82.36-73.76c-6.2-46.03,20.62-87.63,59.9-92.93c39.28-5.29,76.16,27.73,82.36,73.76
		C900.67,623.85,873.85,665.46,834.57,670.75z"/>
	
		<radialGradient id="SVGID_00000165203127573763219060000002805651486612100742_" cx="359.8744" cy="390.3006" r="449.0546" gradientUnits="userSpaceOnUse">
		<stop  offset="0" style="stop-color:#FFFF4A"/>
		<stop  offset="1" style="stop-color:#000000"/>
	</radialGradient>
	<path style="fill-rule:evenodd;clip-rule:evenodd;fill:url(#SVGID_00000165203127573763219060000002805651486612100742_);" d="
		M406.87,888.97c-35.27-29.53-64.5-66.1-85.51-107.53c-13.2-26.04-23.14-53.97-29.29-83.26c-0.06-0.06-0.06-0.18-0.06-0.3
		c-4.73-22.73-7.28-46.28-7.28-70.42c0-67.35,19.53-130.13,53.2-183.04c14.32-22.49,31.13-43.08,50.12-61.55
		c61.49-59.77,145.34-96.58,237.84-96.58c7.46,0,14.79,0.24,22.13,0.71c23.13,1.48,45.62,5.31,67.25,11.18
		c-26.66-8.74-54.8-14.26-83.95-16.13c-7.34-0.47-14.68-0.71-22.13-0.71c-92.5,0-176.35,36.81-237.84,96.58
		c-19,18.46-35.8,39.06-50.12,61.55c-33.67,52.91-53.2,115.69-53.2,183.04c0,24.15,2.55,47.7,7.28,70.42c0,0.12,0,0.24,0.06,0.3
		c6.15,29.29,16.1,57.23,29.29,83.26c21.01,41.42,50.24,78,85.51,107.53c37.38,31.36,81.51,54.78,129.91,67.85
		C478.21,938.22,439.91,916.69,406.87,888.97z"/>
	<path class="st13" d="M835.28,877.94c0,0-38.83,9.43-51.84-19.68c-13.01-29.11,36.53-105.52,76.35-115.52
		c39.82-10.01,47.53,36.79,47.53,36.79L835.28,877.94z"/>
	
		<radialGradient id="SVGID_00000153679116740563888190000013587318693426472110_" cx="746.4326" cy="410.7583" r="71.8894" gradientUnits="userSpaceOnUse">
		<stop  offset="0.0168" style="stop-color:#B0FF24"/>
		<stop  offset="0.2859" style="stop-color:#88F72B"/>
		<stop  offset="0.8869" style="stop-color:#25E43D"/>
		<stop  offset="1" style="stop-color:#11E040"/>
	</radialGradient>
	<path style="fill-rule:evenodd;clip-rule:evenodd;fill:url(#SVGID_00000153679116740563888190000013587318693426472110_);" d="
		M600.13,343.46c0,0,15.96,53.72,72.98,94.15c91.96,65.21,129.94,41.72,129.94,41.72L600.13,343.46z"/>
	<path class="st13" d="M725.18,938.47c0,0,39.55-20.76,40.38-48.96c0.82-28.2-59.7-66.73-177.72-83.72
		c-108.1-15.56-190.77,8.22-196.22,29.14c-5.46,20.92,22.74,71.86,80.05,97.33C528.96,957.73,695.8,952.86,725.18,938.47z"/>
	
		<radialGradient id="SVGID_00000106829285904827875180000001817698117839788989_" cx="615.3146" cy="461.7919" r="29.2465" gradientUnits="userSpaceOnUse">
		<stop  offset="0.0168" style="stop-color:#B0FF24"/>
		<stop  offset="0.2859" style="stop-color:#88F72B"/>
		<stop  offset="0.8869" style="stop-color:#25E43D"/>
		<stop  offset="1" style="stop-color:#11E040"/>
	</radialGradient>
	<path style="fill-rule:evenodd;clip-rule:evenodd;fill:url(#SVGID_00000106829285904827875180000001817698117839788989_);" d="
		M536.16,441.79c0,0,24.06,38.05,61.4,41.35c37.34,3.3,48.38-25.97,48.38-25.97S560.9,456.49,536.16,441.79z"/>
	<path class="st16" d="M520.33,411.65c0,0,13,48.93,63.64,61.86c55.71,14.23,72.04-22.24,63.97-42.2S574.04,380.75,520.33,411.65z"
		/>
	
		<radialGradient id="SVGID_00000052100304061933415190000001985941830587134106_" cx="503.9538" cy="352.4106" r="44.007" gradientUnits="userSpaceOnUse">
		<stop  offset="0.0168" style="stop-color:#B0FF24"/>
		<stop  offset="0.2859" style="stop-color:#88F72B"/>
		<stop  offset="0.8869" style="stop-color:#25E43D"/>
		<stop  offset="1" style="stop-color:#11E040"/>
	</radialGradient>
	<path style="fill-rule:evenodd;clip-rule:evenodd;fill:url(#SVGID_00000052100304061933415190000001985941830587134106_);" d="
		M411.18,395.33c0,0,35.1,6.51,86.77-24.19c51.67-30.7,40.99-59.01,40.99-59.01L411.18,395.33z"/>
	<path class="st16" d="M398.91,372.78c0,0-13.16,18.08,12.26,22.55c25.42,4.47,111.36-37.7,127.21-69.58
		C554.24,293.86,470.92,275.97,398.91,372.78z"/>
	<path class="st18" d="M626.71,306.52c0,0-33.8,5.82-35.62,23.38c-1.82,17.56,53.5,87.74,113.71,124.9
		c60.21,37.16,119.16,24.62,128.26,15.5C842.15,461.16,754.38,315.65,626.71,306.52z"/>
	<path class="st13" d="M862.9,507.24c0,0-32.2-33.74-57.73-21.08c-21,10.41-11.99,113.51,9.84,152.83
		c21.83,39.32,50.03,35.77,60.95,27.08C886.87,657.39,889.3,542.14,862.9,507.24z"/>
	<path class="st13" d="M860.71,431.31c0,0-9.82-3.14-16.39,6.32c-6.57,9.46,38.91,74.24,58.01,81.88
		c19.1,7.63,22.93-19.78,22.93-19.78L860.71,431.31z"/>
	
		<radialGradient id="SVGID_00000089558892035354110020000001061754496436027826_" cx="719.2706" cy="419.4229" r="103.1528" gradientUnits="userSpaceOnUse">
		<stop  offset="0.0112" style="stop-color:#00FF24"/>
		<stop  offset="0.1859" style="stop-color:#28FF1E"/>
		<stop  offset="0.5798" style="stop-color:#8DFF10"/>
		<stop  offset="1" style="stop-color:#FFFF00"/>
	</radialGradient>
	<path style="fill-rule:evenodd;clip-rule:evenodd;fill:url(#SVGID_00000089558892035354110020000001061754496436027826_);" d="
		M616.71,328.84c-15.19,25.78,121.85,172.24,204.67,144.63c16.37-5.46,25.24-112.97-30.02-163.96
		C745.42,267.13,646.72,277.9,616.71,328.84z"/>
	
		<radialGradient id="SVGID_00000179647412665362979630000009331288439376135348_" cx="822.9481" cy="598.7287" r="70.0351" gradientUnits="userSpaceOnUse">
		<stop  offset="0.0112" style="stop-color:#00FF24"/>
		<stop  offset="0.1859" style="stop-color:#28FF1E"/>
		<stop  offset="0.5798" style="stop-color:#8DFF10"/>
		<stop  offset="1" style="stop-color:#FFFF00"/>
	</radialGradient>
	<path style="fill-rule:evenodd;clip-rule:evenodd;fill:url(#SVGID_00000179647412665362979630000009331288439376135348_);" d="
		M821.38,502.59c-24.78,10.37-20.92,120.07,10.01,151.91c30.93,31.84,78.23-14.55,82.78-62.76
		C918.71,543.52,860.49,486.22,821.38,502.59z"/>
	
		<radialGradient id="SVGID_00000088104796460606927220000012814850153734883502_" cx="882.6234" cy="481.768" r="42.1452" gradientUnits="userSpaceOnUse">
		<stop  offset="0.0112" style="stop-color:#00FF24"/>
		<stop  offset="0.1859" style="stop-color:#28FF1E"/>
		<stop  offset="0.5798" style="stop-color:#8DFF10"/>
		<stop  offset="1" style="stop-color:#FFFF00"/>
	</radialGradient>
	<path style="fill-rule:evenodd;clip-rule:evenodd;fill:url(#SVGID_00000088104796460606927220000012814850153734883502_);" d="
		M853.21,443.77c-1.48,22.25,46.43,70.23,61.2,65.18c14.77-5.05,28.86-40.32,18.85-65.18C923.26,418.9,855.03,416.48,853.21,443.77z
		"/>
	
		<radialGradient id="SVGID_00000049935684970497082000000005094118286799332017_" cx="569.3597" cy="935.1091" r="156.5822" gradientUnits="userSpaceOnUse">
		<stop  offset="0.0112" style="stop-color:#00FF24"/>
		<stop  offset="0.1859" style="stop-color:#28FF1E"/>
		<stop  offset="0.5798" style="stop-color:#8DFF10"/>
		<stop  offset="1" style="stop-color:#FFFF00"/>
	</radialGradient>
	<path style="fill-rule:evenodd;clip-rule:evenodd;fill:url(#SVGID_00000049935684970497082000000005094118286799332017_);" d="
		M418.81,823.65c-64.04,16.5,42.33,142.41,133.31,158.96c106.43,19.36,203.25-52.47,205.07-92.07
		C759.02,850.94,538.88,792.72,418.81,823.65z"/>
	
		<radialGradient id="SVGID_00000047045057698683585340000014236502091155607983_" cx="850.1456" cy="839.8954" r="60.0462" gradientUnits="userSpaceOnUse">
		<stop  offset="0.0112" style="stop-color:#00FF24"/>
		<stop  offset="0.1859" style="stop-color:#28FF1E"/>
		<stop  offset="0.5798" style="stop-color:#8DFF10"/>
		<stop  offset="1" style="stop-color:#FFFF00"/>
	</radialGradient>
	<path style="fill-rule:evenodd;clip-rule:evenodd;fill:url(#SVGID_00000047045057698683585340000014236502091155607983_);" d="
		M793.44,856.58c-11.76-28.14,55.94-116.62,87.33-106.17c31.38,10.45,51.85,83.61,9.55,113.63
		C865.14,881.91,805.72,885.96,793.44,856.58z"/>
	
		<radialGradient id="SVGID_00000018938371193514764170000009680980190698533052_" cx="461.7007" cy="355.7878" r="63.5599" gradientUnits="userSpaceOnUse">
		<stop  offset="0.0112" style="stop-color:#00FF24"/>
		<stop  offset="0.1859" style="stop-color:#28FF1E"/>
		<stop  offset="0.5798" style="stop-color:#8DFF10"/>
		<stop  offset="1" style="stop-color:#FFFF00"/>
	</radialGradient>
	<path style="fill-rule:evenodd;clip-rule:evenodd;fill:url(#SVGID_00000018938371193514764170000009680980190698533052_);" d="
		M412.49,388.33c31.38,6.83,105.62-44.79,119.17-69.41c13.56-24.62-55.82-57.24-102.53-33.23
		C396.06,302.69,384.67,382.27,412.49,388.33z"/>
	
		<radialGradient id="SVGID_00000152223156494739926850000015480237022374979725_" cx="580.7847" cy="441.5911" r="58.148" gradientUnits="userSpaceOnUse">
		<stop  offset="0.0112" style="stop-color:#00FF24"/>
		<stop  offset="0.1859" style="stop-color:#28FF1E"/>
		<stop  offset="0.5798" style="stop-color:#8DFF10"/>
		<stop  offset="1" style="stop-color:#FFFF00"/>
	</radialGradient>
	<path style="fill-rule:evenodd;clip-rule:evenodd;fill:url(#SVGID_00000152223156494739926850000015480237022374979725_);" d="
		M533.39,388.95c-34.98,16.22,4.58,62.08,44.86,75.35s75.76-10.85,68.93-37.67C640.36,399.79,595.33,360.23,533.39,388.95z"/>
	
		<radialGradient id="SVGID_00000138541836107565117610000015603185319886847619_" cx="571.6152" cy="825.2184" r="113.3763" gradientUnits="userSpaceOnUse">
		<stop  offset="0.0112" style="stop-color:#3BFF24"/>
		<stop  offset="0.5336" style="stop-color:#26D832"/>
		<stop  offset="1" style="stop-color:#11B140"/>
	</radialGradient>
	<path style="fill-rule:evenodd;clip-rule:evenodd;fill:url(#SVGID_00000138541836107565117610000015603185319886847619_);" d="
		M444.7,803.34c0,0,134.97-19.39,267.09,36.08C711.79,839.42,587.39,763,444.7,803.34z"/>
	
		<radialGradient id="SVGID_00000162320695321004368390000004861538439330270140_" cx="876.3215" cy="475.5275" r="28.0841" gradientUnits="userSpaceOnUse">
		<stop  offset="0.0112" style="stop-color:#3BFF24"/>
		<stop  offset="0.5336" style="stop-color:#26D832"/>
		<stop  offset="1" style="stop-color:#11B140"/>
	</radialGradient>
	<path style="fill-rule:evenodd;clip-rule:evenodd;fill:url(#SVGID_00000162320695321004368390000004861538439330270140_);" d="
		M844.32,444.24c0,0,8.92,42.94,44.38,65.09C888.7,509.32,855.15,475.68,844.32,444.24z"/>
	
		<radialGradient id="SVGID_00000047776134956661772880000015451897857093990847_" cx="367.9919" cy="426.8024" r="355.8769" gradientUnits="userSpaceOnUse">
		<stop  offset="0" style="stop-color:#97FF11"/>
		<stop  offset="1" style="stop-color:#000000"/>
	</radialGradient>
	<path style="fill-rule:evenodd;clip-rule:evenodd;fill:url(#SVGID_00000047776134956661772880000015451897857093990847_);" d="
		M268.02,622.51c1.57,17.32,10.15-76.45,41.13-91.49c30.98-15.04,125.23,52.41,168.69,79.21c100.4,61.91,213.15-8.38,241.05-46.19
		c27.9-37.81-13.92-96.97-37.58-110.14c-23.66-13.17-35.58,45.02-83.74,38.21c-48.17-6.81-85.21-62.16-88.97-80.42
		c-3.77-18.26,41.72-44.64,60.82-47.37c19.1-2.73,40.15-56.26,26.76-68.77c-13.39-12.51-35.4,46.99-87.58,82.4
		c-37.42,25.39-95.64,47.95-126.57,2.15C382.02,380.1,255,478.65,268.02,622.51z"/>
	
		<linearGradient id="SVGID_00000009589748417879659390000010254617860654520226_" gradientUnits="userSpaceOnUse" x1="662.4351" y1="288.791" x2="763.6284" y2="384.6733">
		<stop  offset="0" style="stop-color:#FFFFE8"/>
		<stop  offset="0.2005" style="stop-color:#BBBBAA"/>
		<stop  offset="0.4155" style="stop-color:#79796E"/>
		<stop  offset="0.6108" style="stop-color:#45453F"/>
		<stop  offset="0.7795" style="stop-color:#1F1F1D"/>
		<stop  offset="0.9148" style="stop-color:#080808"/>
		<stop  offset="1" style="stop-color:#000000"/>
	</linearGradient>
	<path style="fill-rule:evenodd;clip-rule:evenodd;fill:url(#SVGID_00000009589748417879659390000010254617860654520226_);" d="
		M627.62,333.64c-1.48,23.33,49.8,12.6,95.85,9.81c46.05-2.79,81.69-2.62,81.69-2.62s-34.67-40.61-92.79-46.98
		C654.26,287.48,628.53,319.34,627.62,333.64z"/>
	
		<linearGradient id="SVGID_00000129918793943350547420000010239046609830533556_" gradientUnits="userSpaceOnUse" x1="417.8283" y1="295.6417" x2="448.6119" y2="324.8097">
		<stop  offset="0" style="stop-color:#FFFFE8"/>
		<stop  offset="0.2005" style="stop-color:#BBBBAA"/>
		<stop  offset="0.4155" style="stop-color:#79796E"/>
		<stop  offset="0.6108" style="stop-color:#45453F"/>
		<stop  offset="0.7795" style="stop-color:#1F1F1D"/>
		<stop  offset="0.9148" style="stop-color:#080808"/>
		<stop  offset="1" style="stop-color:#000000"/>
	</linearGradient>
	<path style="fill-rule:evenodd;clip-rule:evenodd;fill:url(#SVGID_00000129918793943350547420000010239046609830533556_);" d="
		M407.39,362c13.97,6.4,17.39-35.96,36.49-55.48c19.1-19.52,41.84-23.24,41.84-23.24s-39.11-0.77-63.67,10.57
		C397.48,305.19,395.51,356.55,407.39,362z"/>
	
		<linearGradient id="SVGID_00000128486829493766901630000000732363170419959951_" gradientUnits="userSpaceOnUse" x1="552.0563" y1="374.0807" x2="609.6719" y2="428.6725">
		<stop  offset="0" style="stop-color:#FFFFE8"/>
		<stop  offset="0.2005" style="stop-color:#BBBBAA"/>
		<stop  offset="0.4155" style="stop-color:#79796E"/>
		<stop  offset="0.6108" style="stop-color:#45453F"/>
		<stop  offset="0.7795" style="stop-color:#1F1F1D"/>
		<stop  offset="0.9148" style="stop-color:#080808"/>
		<stop  offset="1" style="stop-color:#000000"/>
	</linearGradient>
	<path style="fill-rule:evenodd;clip-rule:evenodd;fill:url(#SVGID_00000128486829493766901630000000732363170419959951_);" d="
		M528.93,398.49c0,0,22.74-17.8,52.76-16.43c30.02,1.36,51.83,21.45,51.83,21.45s-22.72-6.89-38.64-1.89
		C578.96,406.62,554.4,433.12,528.93,398.49z"/>
	
		<linearGradient id="SVGID_00000101806209406473212590000007968513069877918083_" gradientUnits="userSpaceOnUse" x1="820.1465" y1="507.7365" x2="903.324" y2="586.5485">
		<stop  offset="0" style="stop-color:#FFFFE8"/>
		<stop  offset="0.2005" style="stop-color:#BBBBAA"/>
		<stop  offset="0.4155" style="stop-color:#79796E"/>
		<stop  offset="0.6108" style="stop-color:#45453F"/>
		<stop  offset="0.7795" style="stop-color:#1F1F1D"/>
		<stop  offset="0.9148" style="stop-color:#080808"/>
		<stop  offset="1" style="stop-color:#000000"/>
	</linearGradient>
	<path style="fill-rule:evenodd;clip-rule:evenodd;fill:url(#SVGID_00000101806209406473212590000007968513069877918083_);" d="
		M818.65,509.32c0,0,31.84-11.98,61.4,15.66c29.56,27.64,31.84,52.54,31.84,52.54s-19.1-29.04-38.21-31.74
		c-19.1-2.71-42.52,11.39-52.19,2.75C811.82,539.88,810.31,517.88,818.65,509.32z"/>
	
		<linearGradient id="SVGID_00000183963183008130361630000013978841727406723204_" gradientUnits="userSpaceOnUse" x1="873.0285" y1="421.2615" x2="930.3729" y2="475.5962">
		<stop  offset="0" style="stop-color:#FFFFE8"/>
		<stop  offset="0.2005" style="stop-color:#BBBBAA"/>
		<stop  offset="0.4155" style="stop-color:#79796E"/>
		<stop  offset="0.6108" style="stop-color:#45453F"/>
		<stop  offset="0.7795" style="stop-color:#1F1F1D"/>
		<stop  offset="0.9148" style="stop-color:#080808"/>
		<stop  offset="1" style="stop-color:#000000"/>
	</linearGradient>
	<path style="fill-rule:evenodd;clip-rule:evenodd;fill:url(#SVGID_00000183963183008130361630000013978841727406723204_);" d="
		M859.79,435.27c0,0,6.72-9,28.91-8.47c22.19,0.53,36.04,10.74,41.38,17.43c5.33,6.69,2.27,29.27,2.27,29.27
		s-1.82-18.22-10.92-26.87C912.34,438,859.54,458.92,859.79,435.27z"/>
	
		<linearGradient id="SVGID_00000111153448056037915750000000589989146428984205_" gradientUnits="userSpaceOnUse" x1="834.5104" y1="780.1652" x2="888.8358" y2="831.6393">
		<stop  offset="0" style="stop-color:#FFFFE8"/>
		<stop  offset="0.2005" style="stop-color:#BBBBAA"/>
		<stop  offset="0.4155" style="stop-color:#79796E"/>
		<stop  offset="0.6108" style="stop-color:#45453F"/>
		<stop  offset="0.7795" style="stop-color:#1F1F1D"/>
		<stop  offset="0.9148" style="stop-color:#080808"/>
		<stop  offset="1" style="stop-color:#000000"/>
	</linearGradient>
	<path style="fill-rule:evenodd;clip-rule:evenodd;fill:url(#SVGID_00000111153448056037915750000000589989146428984205_);" d="
		M805.17,818.23c0,0,39.58-64.09,68.06-59.63c28.48,4.46,38.66,48.72,38.66,48.72s-17.15-23.74-52.1-19.97
		C824.84,791.1,805.17,818.23,805.17,818.23z"/>
	
		<linearGradient id="SVGID_00000081608962483981249640000005789901205305148090_" gradientUnits="userSpaceOnUse" x1="466.0363" y1="777.4341" x2="661.043" y2="962.2061">
		<stop  offset="0" style="stop-color:#FFFFE8"/>
		<stop  offset="0.2005" style="stop-color:#BBBBAA"/>
		<stop  offset="0.4155" style="stop-color:#79796E"/>
		<stop  offset="0.6108" style="stop-color:#45453F"/>
		<stop  offset="0.7795" style="stop-color:#1F1F1D"/>
		<stop  offset="0.9148" style="stop-color:#080808"/>
		<stop  offset="1" style="stop-color:#000000"/>
	</linearGradient>
	<path style="fill-rule:evenodd;clip-rule:evenodd;fill:url(#SVGID_00000081608962483981249640000005789901205305148090_);" d="
		M407.39,839.33c0,0,54.31-27.36,162.93-12.01c108.62,15.35,170.47,50.73,170.47,50.73s-112.42-24.35-178.74-13.43
		c-66.32,10.92-86.53,69.09-86.53,69.09S393.64,898.64,407.39,839.33z"/>
	<path class="st36" d="M583.24,978.33c0,0,74.96-10.54,112.88-28.01C696.12,950.32,617.09,994.7,583.24,978.33z"/>
	<path class="st36" d="M803.04,858.25c0,0,30.16,10.01,70.18,6.37C873.23,864.62,826.06,882.78,803.04,858.25z"/>
	<path class="st36" d="M813.22,596.78c0,0,24.63,45.09,49.33,56.5C862.55,653.28,833.15,663.7,813.22,596.78z"/>
	<path class="st36" d="M688.36,411.65c0,0,45.11,50.07,116.8,56.4L688.36,411.65z"/>
	<path class="st36" d="M540.35,431.31c0,0,24.15,32.08,68.85,33L540.35,431.31z"/>
	<path class="st36" d="M411.18,381.98c0,0,47.51-6.97,97.41-42.33L411.18,381.98z"/>
	
		<radialGradient id="SVGID_00000027568475981939926440000008524020765570884767_" cx="379.679" cy="684.4634" r="53.0984" gradientTransform="matrix(0.9696 0.2447 -0.2447 0.9696 177.8334 -105.3914)" gradientUnits="userSpaceOnUse">
		<stop  offset="0.0168" style="stop-color:#B0FF24"/>
		<stop  offset="0.2859" style="stop-color:#88F72B"/>
		<stop  offset="0.8869" style="stop-color:#25E43D"/>
		<stop  offset="1" style="stop-color:#11E040"/>
	</radialGradient>
	<path style="fill-rule:evenodd;clip-rule:evenodd;fill:url(#SVGID_00000027568475981939926440000008524020765570884767_);" d="
		M317.62,577.4c0,0,52.6,41.06,74.81,140.38C392.43,717.77,405.16,620.27,317.62,577.4z"/>
	<path class="st16" d="M318.98,786.62c0,0,42.83,20.75,65.38-0.98c22.55-21.73,8.72-95.34-22.26-151.09
		c-30.98-55.75-68.92-80.41-84.79-72.33C266.37,567.79,208.5,706.48,318.98,786.62z"/>
	
		<radialGradient id="SVGID_00000043425241357232482620000000340256350114085262_" cx="327.5781" cy="770.6" r="83.3931" gradientTransform="matrix(0.9696 0.2447 -0.2447 0.9696 177.8334 -105.3914)" gradientUnits="userSpaceOnUse">
		<stop  offset="0.0112" style="stop-color:#00FF24"/>
		<stop  offset="0.1859" style="stop-color:#28FF1E"/>
		<stop  offset="0.5798" style="stop-color:#8DFF10"/>
		<stop  offset="1" style="stop-color:#FFFF00"/>
	</radialGradient>
	<path style="fill-rule:evenodd;clip-rule:evenodd;fill:url(#SVGID_00000043425241357232482620000000340256350114085262_);" d="
		M284.93,576.05c-28.32-7.15-50.75,90.75-36.31,143.84c18.78,69.02,111.2,79.24,130.71,58.32
		C398.84,757.29,385.63,601.46,284.93,576.05z"/>
	
		<linearGradient id="SVGID_00000027564467457249922730000004369381206350710964_" gradientUnits="userSpaceOnUse" x1="250.1532" y1="667.7273" x2="316.2846" y2="730.3879" gradientTransform="matrix(0.9696 0.2447 -0.2447 0.9696 177.8334 -105.3914)">
		<stop  offset="0" style="stop-color:#FFFFE8"/>
		<stop  offset="0.2005" style="stop-color:#BBBBAA"/>
		<stop  offset="0.4155" style="stop-color:#79796E"/>
		<stop  offset="0.6108" style="stop-color:#45453F"/>
		<stop  offset="0.7795" style="stop-color:#1F1F1D"/>
		<stop  offset="0.9148" style="stop-color:#080808"/>
		<stop  offset="1" style="stop-color:#000000"/>
	</linearGradient>
	<path style="fill-rule:evenodd;clip-rule:evenodd;fill:url(#SVGID_00000027564467457249922730000004369381206350710964_);" d="
		M254.79,712.52c0,0-7.79-100.67,17.34-118.82c25.13-18.15,63.07,20.17,63.07,20.17s-18.22,4.9-42.01,18.11
		C269.42,645.19,254.79,712.52,254.79,712.52z"/>
	<path class="st36" d="M288.27,761.49c0,0,33.38,18.12,58.15,20.11C346.43,781.61,314.01,794.17,288.27,761.49z"/>
	
		<radialGradient id="SVGID_00000073682960375220918870000008543931241392552331_" cx="590.9086" cy="908.3317" r="32.0698" gradientTransform="matrix(1.6187 -0.3977 0.2992 1.2177 -351.5869 -17.5482)" gradientUnits="userSpaceOnUse">
		<stop  offset="0" style="stop-color:#00FF00"/>
		<stop  offset="1" style="stop-color:#000000"/>
	</radialGradient>
	<path style="fill-rule:evenodd;clip-rule:evenodd;fill:url(#SVGID_00000073682960375220918870000008543931241392552331_);" d="
		M928.6,840.77c5.3,21.57-13.65,44.76-42.32,51.81c-28.67,7.04-56.21-4.73-61.51-26.3c-5.3-21.57,13.65-44.76,42.32-51.81
		C895.76,807.43,923.3,819.2,928.6,840.77z"/>
	
		<radialGradient id="SVGID_00000137099472920798056410000004812220236961583291_" cx="409.6141" cy="873.7659" r="44.5023" gradientTransform="matrix(0.1357 1.6613 -1.2498 0.1021 1306.7848 -66.6438)" gradientUnits="userSpaceOnUse">
		<stop  offset="0" style="stop-color:#00FF00"/>
		<stop  offset="1" style="stop-color:#000000"/>
	</radialGradient>
	<path style="fill-rule:evenodd;clip-rule:evenodd;fill:url(#SVGID_00000137099472920798056410000004812220236961583291_);" d="
		M276.37,776.99c-30.72,2.51-58.32-28.56-61.65-69.39c-3.33-40.83,18.86-75.97,49.58-78.48c30.72-2.51,58.32,28.56,61.65,69.39
		C329.29,739.35,307.09,774.49,276.37,776.99z"/>
	
		<radialGradient id="SVGID_00000040576660990080618480000002481315170425419452_" cx="262.5192" cy="853.0019" r="30.6947" gradientTransform="matrix(-1.0488 1.2956 -1.1057 -0.8951 1643.946 730.414)" gradientUnits="userSpaceOnUse">
		<stop  offset="0" style="stop-color:#00FF00"/>
		<stop  offset="1" style="stop-color:#000000"/>
	</radialGradient>
	<path style="fill-rule:evenodd;clip-rule:evenodd;fill:url(#SVGID_00000040576660990080618480000002481315170425419452_);" d="
		M393.26,346.78c-18.74-15.17-19.53-45.28-1.75-67.24c17.78-21.96,47.39-27.47,66.13-12.29c18.74,15.17,19.53,45.28,1.75,67.24
		C441.61,356.45,412,361.95,393.26,346.78z"/>
	
		<radialGradient id="SVGID_00000014628354957158241450000014665060867751819444_" cx="283.0378" cy="390.1069" r="50.4503" gradientTransform="matrix(0.2225 1.652 -1.4099 0.1899 1390.4475 -79.0685)" gradientUnits="userSpaceOnUse">
		<stop  offset="0" style="stop-color:#00FF00"/>
		<stop  offset="1" style="stop-color:#000000"/>
	</radialGradient>
	<path style="fill-rule:evenodd;clip-rule:evenodd;fill:url(#SVGID_00000014628354957158241450000014665060867751819444_);" d="
		M914.64,545.93c-39.28,5.29-76.16-27.73-82.36-73.76c-6.2-46.03,20.62-87.63,59.9-92.92c39.28-5.29,76.16,27.73,82.36,73.76
		C980.74,499.04,953.92,540.64,914.64,545.93z"/>
	
		<radialGradient id="SVGID_00000093890545296341276730000015525830650953327248_" cx="481.9395" cy="494.2169" r="222.051" gradientTransform="matrix(1.3836 0 0 1.3192 -201.3207 -202.0864)" gradientUnits="userSpaceOnUse">
		<stop  offset="5.586590e-03" style="stop-color:#0092FF"/>
		<stop  offset="0.0814" style="stop-color:#0077D0"/>
		<stop  offset="0.171" style="stop-color:#005BA0"/>
		<stop  offset="0.2657" style="stop-color:#004375"/>
		<stop  offset="0.3639" style="stop-color:#002E51"/>
		<stop  offset="0.4664" style="stop-color:#001D33"/>
		<stop  offset="0.5749" style="stop-color:#00101D"/>
		<stop  offset="0.6917" style="stop-color:#00070C"/>
		<stop  offset="0.8232" style="stop-color:#000203"/>
		<stop  offset="1" style="stop-color:#000000"/>
	</radialGradient>
	
		<ellipse style="fill-rule:evenodd;clip-rule:evenodd;fill:url(#SVGID_00000093890545296341276730000015525830650953327248_);" cx="465.49" cy="449.88" rx="307.22" ry="292.93"/>
</g>
</svg>
