<?xml version="1.0" encoding="utf-8"?>
<!-- Generator: Adobe Illustrator 26.4.1, SVG Export Plug-In . SVG Version: 6.00 Build 0)  -->
<svg version="1.1" id="Слой_1" xmlns="http://www.w3.org/2000/svg" xmlns:xlink="http://www.w3.org/1999/xlink" x="0px" y="0px"
	 viewBox="0 0 1200 1200" style="enable-background:new 0 0 1200 1200;" xml:space="preserve">
<style type="text/css">
	.st0{fill:#020202;}
	.st1{fill-rule:evenodd;clip-rule:evenodd;fill:url(#SVGID_1_);}
	.st2{fill-rule:evenodd;clip-rule:evenodd;fill:url(#SVGID_00000017490204436427122770000001485611394102009217_);}
	.st3{fill-rule:evenodd;clip-rule:evenodd;fill:url(#SVGID_00000179616322950780568430000013824982914560195729_);}
	.st4{fill-rule:evenodd;clip-rule:evenodd;fill:url(#SVGID_00000152222098099165574110000006090792847901715628_);}
	.st5{fill-rule:evenodd;clip-rule:evenodd;fill:url(#SVGID_00000054966751141544696870000002012800158757142461_);}
	.st6{fill-rule:evenodd;clip-rule:evenodd;fill:url(#SVGID_00000039821988461724134980000004245027722489567377_);}
	.st7{fill-rule:evenodd;clip-rule:evenodd;fill:url(#SVGID_00000052810521496095623590000006724895806510836644_);}
	.st8{fill-rule:evenodd;clip-rule:evenodd;fill:url(#SVGID_00000093158598450367095900000017849572390633263491_);}
	.st9{fill-rule:evenodd;clip-rule:evenodd;fill:url(#SVGID_00000134250760939621138800000007296178921389217198_);}
	.st10{fill-rule:evenodd;clip-rule:evenodd;fill:url(#SVGID_00000096771278879227293470000004501533421568791195_);}
	.st11{fill-rule:evenodd;clip-rule:evenodd;fill:url(#SVGID_00000067922422515630031060000004947446210882549432_);}
	.st12{fill-rule:evenodd;clip-rule:evenodd;fill:url(#SVGID_00000073718898199077510640000011262066406964892085_);}
	.st13{opacity:0.5;fill-rule:evenodd;clip-rule:evenodd;fill:#7D72B3;}
	.st14{opacity:0.4;fill-rule:evenodd;clip-rule:evenodd;fill:#7D72B3;}
	.st15{fill-rule:evenodd;clip-rule:evenodd;fill:url(#SVGID_00000069378980074849274030000012369198401938753409_);}
	.st16{fill-rule:evenodd;clip-rule:evenodd;fill:#00C4FF;}
	.st17{fill-rule:evenodd;clip-rule:evenodd;fill:url(#SVGID_00000149346630315161557840000011347025605255798689_);}
	.st18{fill-rule:evenodd;clip-rule:evenodd;fill:url(#SVGID_00000066474108819287569500000017643586427284588707_);}
	.st19{fill-rule:evenodd;clip-rule:evenodd;fill:url(#SVGID_00000145750859503154847070000002284167719728580273_);}
	.st20{fill-rule:evenodd;clip-rule:evenodd;fill:#FF61C7;}
	.st21{opacity:0.5;fill-rule:evenodd;clip-rule:evenodd;fill:#54469B;}
	.st22{fill-rule:evenodd;clip-rule:evenodd;fill:#B04FE2;}
	.st23{fill-rule:evenodd;clip-rule:evenodd;fill:#8B40E0;}
	.st24{fill-rule:evenodd;clip-rule:evenodd;fill:#FF77F4;}
	.st25{fill-rule:evenodd;clip-rule:evenodd;fill:#EA9CF4;}
	.st26{fill-rule:evenodd;clip-rule:evenodd;fill:#D374F4;}
	.st27{fill-rule:evenodd;clip-rule:evenodd;fill:#F2C4F8;}
	.st28{opacity:0.5;fill-rule:evenodd;clip-rule:evenodd;fill:url(#SVGID_00000082335914424737982500000018209932983081600689_);}
	.st29{opacity:0.5;fill-rule:evenodd;clip-rule:evenodd;fill:url(#SVGID_00000103953284188966867960000012077411607264956296_);}
	.st30{fill-rule:evenodd;clip-rule:evenodd;fill:#FFFFF8;}
	.st31{fill-rule:evenodd;clip-rule:evenodd;fill:#F5CEFA;}
</style>
<g>
	<rect x="0.5" y="0.5" class="st0" width="1202" height="1202"/>
	<path d="M1202,1v1201H1V1H1202 M1203,0H0v1203h1203V0L1203,0z"/>
</g>
<g>
	<radialGradient id="SVGID_1_" cx="588.1268" cy="593.7465" r="451.8542" gradientUnits="userSpaceOnUse">
		<stop  offset="0" style="stop-color:#E213FF"/>
		<stop  offset="1" style="stop-color:#000000"/>
	</radialGradient>
	<circle class="st1" cx="588.13" cy="593.75" r="451.85"/>
	
		<radialGradient id="SVGID_00000011715433756616816590000016593891467630505602_" cx="618.0544" cy="619.4793" r="380.8201" gradientUnits="userSpaceOnUse">
		<stop  offset="0" style="stop-color:#E213FF"/>
		<stop  offset="1" style="stop-color:#000000"/>
	</radialGradient>
	
		<circle style="fill-rule:evenodd;clip-rule:evenodd;fill:url(#SVGID_00000011715433756616816590000016593891467630505602_);" cx="618.05" cy="619.48" r="380.82"/>
	
		<radialGradient id="SVGID_00000093135924868161993350000018426368728056476597_" cx="584.09" cy="587.1558" r="363.4076" gradientUnits="userSpaceOnUse">
		<stop  offset="0" style="stop-color:#E213FF"/>
		<stop  offset="1" style="stop-color:#000000"/>
	</radialGradient>
	
		<circle style="fill-rule:evenodd;clip-rule:evenodd;fill:url(#SVGID_00000093135924868161993350000018426368728056476597_);" cx="584.09" cy="587.16" r="363.41"/>
	
		<radialGradient id="SVGID_00000118383969590830404320000017473762560818069438_" cx="354.9497" cy="452.0957" r="557.5141" gradientUnits="userSpaceOnUse">
		<stop  offset="5.586590e-03" style="stop-color:#FF9AFF"/>
		<stop  offset="0.093" style="stop-color:#FB94FF"/>
		<stop  offset="0.2093" style="stop-color:#F183FF"/>
		<stop  offset="0.3418" style="stop-color:#E068FF"/>
		<stop  offset="0.4864" style="stop-color:#C841FF"/>
		<stop  offset="0.639" style="stop-color:#A910FF"/>
		<stop  offset="0.6844" style="stop-color:#9F00FF"/>
		<stop  offset="0.7432" style="stop-color:#9900F8"/>
		<stop  offset="0.8282" style="stop-color:#8700E5"/>
		<stop  offset="0.9287" style="stop-color:#6A00C6"/>
		<stop  offset="1" style="stop-color:#5200AB"/>
	</radialGradient>
	<path style="fill-rule:evenodd;clip-rule:evenodd;fill:url(#SVGID_00000118383969590830404320000017473762560818069438_);" d="
		M933.59,670.73l-2.59,9.29c-0.07,0.43-0.22,0.79-0.36,1.3c-7.06,24.2-16.56,47.38-28.23,69.2c-19.01,35.5-43.71,67.48-73.02,94.77
		c-34.06,31.69-74.17,56.89-118.46,73.74c-40.04,15.19-83.46,23.48-128.9,23.48c-6.41,0-12.96-0.14-19.3-0.5h-0.07
		c-9.51-0.5-18.94-1.37-28.23-2.52c-61-7.99-117.24-31.11-164.84-65.6c-4.47-3.24-8.86-6.55-13.11-9.94c8.35-7.2,26-7.92,26-7.92
		l-24.56-19.52l-61.57-33.13c-11.81-14.91-22.47-30.82-31.83-47.6c-2.23-3.96-4.39-7.99-6.48-12.1c0-0.14-0.14-0.22-0.22-0.36
		c-2.16-4.39-4.25-8.79-6.27-13.18c-0.07,0-0.07,0-0.07,0c-6.27-13.9-11.81-28.23-16.28-42.92c-3.31-10.59-6.19-21.46-8.5-32.55
		c-0.07-0.07-0.07-0.22-0.07-0.29c-1.58-7.71-2.95-15.55-4.03-23.48c-2.45-16.85-3.67-33.99-3.67-51.49c0-4.03,0.07-8.14,0.22-12.1
		c0.14-5.98,0.5-11.95,1.08-17.79c0.43-5.83,1.08-11.67,1.8-17.43c0-0.43,0.07-0.79,0.14-1.3c1.08-8.07,2.38-15.91,4.03-23.76
		c2.23-11.31,5.04-22.47,8.42-33.34c4.54-15.27,10.08-30.03,16.64-44.29c6.27-13.83,13.4-27.22,21.39-40.11
		c24.77-13.11,40.62-19.95,40.62-19.95s422.72-83.9,429.27-91.1c6.48-7.13,38.53-2.66,38.53-2.66c19.8,13.03,38.31,27.94,55.23,44.5
		c3.96,3.82,7.78,7.85,11.67,11.88c2.52,2.74,5.04,5.62,7.49,8.43c4.18,4.75,8.28,9.72,12.24,14.69
		c14.47,18.44,27.22,38.24,37.88,59.19c4.18,8.07,7.99,16.35,11.52,24.77c0,0.07,0.07,0.14,0.07,0.22
		c32.62,127.61-7.63,235.84-7.63,235.84C918.47,672.1,926.6,670.95,933.59,670.73z"/>
	
		<radialGradient id="SVGID_00000098942338320125743170000015049608849373173935_" cx="354.9497" cy="452.0957" r="557.5141" gradientUnits="userSpaceOnUse">
		<stop  offset="5.586590e-03" style="stop-color:#FF9AFF"/>
		<stop  offset="0.093" style="stop-color:#FB94FF"/>
		<stop  offset="0.2093" style="stop-color:#F183FF"/>
		<stop  offset="0.3418" style="stop-color:#E068FF"/>
		<stop  offset="0.4864" style="stop-color:#C841FF"/>
		<stop  offset="0.639" style="stop-color:#A910FF"/>
		<stop  offset="0.6844" style="stop-color:#9F00FF"/>
		<stop  offset="0.7432" style="stop-color:#9900F8"/>
		<stop  offset="0.8282" style="stop-color:#8700E5"/>
		<stop  offset="0.9287" style="stop-color:#6A00C6"/>
		<stop  offset="1" style="stop-color:#5200AB"/>
	</radialGradient>
	<path style="fill-rule:evenodd;clip-rule:evenodd;fill:url(#SVGID_00000098942338320125743170000015049608849373173935_);" d="
		M933.59,670.73l-2.59,9.29c-0.07,0.43-0.22,0.79-0.36,1.3c-7.06,24.2-16.56,47.38-28.23,69.2c-19.01,35.5-43.71,67.48-73.02,94.77
		c-34.06,31.69-74.17,56.89-118.46,73.74c-40.04,15.19-83.46,23.48-128.9,23.48c-6.41,0-12.96-0.14-19.3-0.5h-0.07
		c-9.51-0.5-18.94-1.37-28.23-2.52c-61-7.99-117.24-31.11-164.84-65.6c-4.47-3.24-8.86-6.55-13.11-9.94c8.35-7.2,26-7.92,26-7.92
		l-24.56-19.52l-61.57-33.13c-11.81-14.91-22.47-30.82-31.83-47.6c-2.23-3.96-4.39-7.99-6.48-12.1c0-0.14-0.14-0.22-0.22-0.36
		c-2.16-4.39-4.25-8.79-6.27-13.18c-0.07,0-0.07,0-0.07,0c-6.27-13.9-11.81-28.23-16.28-42.92c-3.31-10.59-6.19-21.46-8.5-32.55
		c-0.07-0.07-0.07-0.22-0.07-0.29c-1.58-7.71-2.95-15.55-4.03-23.48c-2.45-16.85-3.67-33.99-3.67-51.49c0-4.03,0.07-8.14,0.22-12.1
		c0.14-5.98,0.5-11.95,1.08-17.79c0.43-5.83,1.08-11.67,1.8-17.43c0-0.43,0.07-0.79,0.14-1.3c1.08-8.07,2.38-15.91,4.03-23.76
		c2.23-11.31,5.04-22.47,8.42-33.34c4.54-15.27,10.08-30.03,16.64-44.29c6.27-13.83,13.4-27.22,21.39-40.11
		c24.77-13.11,40.62-19.95,40.62-19.95s422.72-83.9,429.27-91.1c6.48-7.13,38.53-2.66,38.53-2.66c19.8,13.03,38.31,27.94,55.23,44.5
		c3.96,3.82,7.78,7.85,11.67,11.88c2.52,2.74,5.04,5.62,7.49,8.43c4.18,4.75,8.28,9.72,12.24,14.69
		c14.47,18.44,27.22,38.24,37.88,59.19c4.18,8.07,7.99,16.35,11.52,24.77c0,0.07,0.07,0.14,0.07,0.22
		c32.62,127.61-7.63,235.84-7.63,235.84C918.47,672.1,926.6,670.95,933.59,670.73z"/>
	
		<radialGradient id="SVGID_00000169552743066125843860000006687740611964515004_" cx="370.759" cy="419.8358" r="548.0306" gradientUnits="userSpaceOnUse">
		<stop  offset="5.586590e-03" style="stop-color:#FF9AFF"/>
		<stop  offset="0.093" style="stop-color:#FB94FF"/>
		<stop  offset="0.2093" style="stop-color:#F183FF"/>
		<stop  offset="0.3418" style="stop-color:#E068FF"/>
		<stop  offset="0.4864" style="stop-color:#C841FF"/>
		<stop  offset="0.639" style="stop-color:#A910FF"/>
		<stop  offset="0.6844" style="stop-color:#9F00FF"/>
		<stop  offset="0.7432" style="stop-color:#9900F8"/>
		<stop  offset="0.8282" style="stop-color:#8700E5"/>
		<stop  offset="0.9287" style="stop-color:#6A00C6"/>
		<stop  offset="1" style="stop-color:#5200AB"/>
	</radialGradient>
	<path style="fill-rule:evenodd;clip-rule:evenodd;fill:url(#SVGID_00000169552743066125843860000006687740611964515004_);" d="
		M923.22,579.42c0,12.89-0.72,25.56-2.16,38.02c-2.09,19.37-5.83,38.24-11.16,56.46c-0.07,0.43-0.22,0.79-0.36,1.22
		c-6.63,22.76-15.56,44.5-26.5,65.03c-17.86,33.34-41.12,63.37-68.63,89.01c-31.97,29.81-69.71,53.51-111.26,69.28
		c-37.66,14.33-78.42,22.11-121.13,22.11c-6.05,0-12.17-0.14-18.15-0.5h-0.07c-8.93-0.43-17.79-1.3-26.5-2.38
		c-57.32-7.49-110.11-29.24-154.83-61.64c-6.7-4.75-13.18-9.87-19.44-15.12c-1.73-1.44-3.46-2.88-5.11-4.39
		c-16.2-14.04-31.04-29.74-44.29-46.66c-11.09-14.04-21.1-28.95-29.89-44.72c-2.09-3.74-4.11-7.56-6.12-11.38
		c0-0.14-0.07-0.22-0.14-0.36c-2.09-4.1-4.03-8.21-5.91-12.39c-0.07,0-0.07,0-0.07,0c-5.9-13.03-11.09-26.5-15.27-40.33
		c-3.17-9.94-5.83-20.16-7.99-30.53c-0.07-0.07-0.07-0.22-0.07-0.29c-1.51-7.27-2.81-14.62-3.82-22.04
		c-2.3-15.84-3.46-31.97-3.46-48.39c0-3.82,0.07-7.63,0.22-11.38c0.14-5.62,0.5-11.23,1.01-16.71c0.43-5.47,1.01-10.95,1.73-16.35
		c0-0.43,0.07-0.79,0.14-1.22c1.01-7.56,2.23-14.98,3.74-22.32c2.09-10.66,4.75-21.1,7.92-31.33c4.25-14.33,9.51-28.23,15.63-41.62
		c6.63-14.62,14.26-28.66,22.83-42.13c5.91-9.36,12.31-18.36,19.16-27.01c9.51-12.24,19.87-23.76,30.97-34.57
		c61.43-59.77,145.32-96.57,237.79-96.57c3.6,0,7.2,0.07,10.73,0.14c3.82,0.14,7.63,0.29,11.45,0.58c10.59,0.72,21.1,1.87,31.4,3.53
		c0.14,0,0.22,0.07,0.36,0.07c8.64,1.3,17.14,3.02,25.49,5.04c10.8,2.59,21.39,5.62,31.76,9.22c7.06,2.38,13.97,5.04,20.81,7.92
		c5.11,2.16,10.08,4.39,15.05,6.77c0.86,0.43,1.73,0.79,2.59,1.22c33.13,16.2,63.16,37.52,89.22,63.08
		c3.74,3.6,7.34,7.35,10.95,11.16c2.38,2.59,4.75,5.26,7.06,7.92c3.96,4.46,7.78,9.15,11.52,13.83
		c13.61,17.28,25.56,35.86,35.57,55.59c11.74,22.9,20.96,47.31,27.22,72.88c4.03,16.13,6.84,32.69,8.43,49.62
		C922.72,557.53,923.22,568.4,923.22,579.42z"/>
	
		<radialGradient id="SVGID_00000083090081088933934980000008576759555182205579_" cx="442.8278" cy="361.8761" r="122.542" gradientUnits="userSpaceOnUse">
		<stop  offset="0" style="stop-color:#FFFFFF"/>
		<stop  offset="1" style="stop-color:#623964"/>
	</radialGradient>
	<path style="fill-rule:evenodd;clip-rule:evenodd;fill:url(#SVGID_00000083090081088933934980000008576759555182205579_);" d="
		M415.45,443.46c0,0-9.05,20.12-1.51,40.54c7.54,20.42,28.69,6.87,53.93,0c25.24-6.87,51.17-33.41,67.54-49.81
		c16.37-16.41,32.06-38.92,30.7-60.75c-1.36-21.83-24.41-36.17-24.41-36.17s8.38-10.69,1.34,32.09
		c-7.04,42.78-16.62,58.04-25.77,64.83c-9.15,6.79-37.01,23.03-52.2,32.1c-15.19,9.07-32.16,18.51-42.23,16.31
		C412.78,480.39,407.48,457.79,415.45,443.46z"/>
	
		<radialGradient id="SVGID_00000086651079153049611720000008660628304980788414_" cx="462.3239" cy="406.1731" r="42.6307" gradientUnits="userSpaceOnUse">
		<stop  offset="0" style="stop-color:#FFFFFF"/>
		<stop  offset="1" style="stop-color:#623964"/>
	</radialGradient>
	<path style="fill-rule:evenodd;clip-rule:evenodd;fill:url(#SVGID_00000086651079153049611720000008660628304980788414_);" d="
		M461.69,428.73c0,0-12.92,11.47-9.51,20.73c3.41,9.26,27.97,3.33,43.66-16.56c15.69-19.89,3.29-35.95,3.29-35.95
		s-5.76,33.19-21.03,39.03c-15.27,5.83-20.24,3.38-20.24,3.38S455.5,436.68,461.69,428.73z"/>
	
		<radialGradient id="SVGID_00000139260992280906080850000004563197058184723130_" cx="436.1064" cy="402.2274" r="44.9217" gradientUnits="userSpaceOnUse">
		<stop  offset="0" style="stop-color:#FFFFFF"/>
		<stop  offset="1" style="stop-color:#623964"/>
	</radialGradient>
	<path style="fill-rule:evenodd;clip-rule:evenodd;fill:url(#SVGID_00000139260992280906080850000004563197058184723130_);" d="
		M422.55,443.06c0,0,12.58-14.26,26.9-27.62c14.33-13.35,39.12-18.5,39.12-18.5s-14.47-7.67-33.01,3.12
		C437.02,410.85,422.55,443.06,422.55,443.06z"/>
	
		<radialGradient id="SVGID_00000022518998097115252430000001870831483297320065_" cx="404.3326" cy="358.963" r="103.7674" gradientUnits="userSpaceOnUse">
		<stop  offset="0" style="stop-color:#FFFFFF"/>
		<stop  offset="1" style="stop-color:#623964"/>
	</radialGradient>
	<path style="fill-rule:evenodd;clip-rule:evenodd;fill:url(#SVGID_00000022518998097115252430000001870831483297320065_);" d="
		M371.17,443.32c0,0,29.17-32.41,64.64-46.37c35.48-13.96,47.76-18.05,63.45-31.01c15.69-12.96,33.41-23.34,33.41-23.34
		s-34.53,1.76-87.3,35.19C392.59,411.22,371.02,432.44,371.17,443.32z"/>
	
		<radialGradient id="SVGID_00000010285889442968449670000001036398408111509409_" cx="359.9794" cy="318.6305" r="175.9329" gradientUnits="userSpaceOnUse">
		<stop  offset="0" style="stop-color:#FFFFFF"/>
		<stop  offset="1" style="stop-color:#623964"/>
	</radialGradient>
	<path style="fill-rule:evenodd;clip-rule:evenodd;fill:url(#SVGID_00000010285889442968449670000001036398408111509409_);" d="
		M300.03,436.87c0,0,50.5-50.47,90.07-70.25c39.57-19.78,66.18-32.75,101.65-41.62c35.48-8.87,90.31-24.34,90.31-24.34l9.9-4.97
		c0,0-112.81,2.28-186.85,46.91C331.06,387.23,300.03,436.87,300.03,436.87z"/>
	
		<radialGradient id="SVGID_00000021080219667871850580000013853000849352815268_" cx="425.1866" cy="346.4967" r="245.1405" gradientUnits="userSpaceOnUse">
		<stop  offset="0" style="stop-color:#FFFFFF"/>
		<stop  offset="1" style="stop-color:#623964"/>
	</radialGradient>
	<path style="fill-rule:evenodd;clip-rule:evenodd;fill:url(#SVGID_00000021080219667871850580000013853000849352815268_);" d="
		M360.57,495.06c0,0,8.41,69.7,20.54,72.84c12.12,3.13,55.59,2.81,120.2-30.23c64.6-33.04,77.73-25.4,113.93-62.21
		c36.21-36.81,50.87-78.58,62.08-106.1c11.21-27.52,14.49-58.93,10.99-68.7c0,0,12.2,7.28,12.2,34.57
		c0,27.29-8.19,73.14-19.78,99.67c-11.6,26.54-41.62,68.15-77.77,88.62C566.8,544,494.48,583.3,423.53,582.75
		c-70.95-0.55-59.74-5.68-67.05-19.83S360.57,495.06,360.57,495.06z"/>
	<path class="st13" d="M249.97,554.58c0,0,12.68,28.1,19.78,53.79c7.1,25.68,5.74,69.35,35.07,76.17
		c29.34,6.82,70.27,25.92,85.96,21.15c15.69-4.78,73.63-15.17,105.75-8.87c32.12,6.3,90.74,2.73,111.2-7.5
		c20.47-10.23,64.53-36.51,85.48-44.52c20.95-8.01,49.88-30.82,74.81-56.15c24.93-25.34,24.59-54.19,30.73-68.52
		c6.14-14.33,18.42-71.63,17.06-97.56c-1.36-25.92-17.06-74.36-17.06-74.36l-14.59-15.42c0,0,18,66.59,9.82,113.66
		c-8.19,47.07-0.68,66.18-33.43,111.2c-32.75,45.03-78.46,80.5-129.62,97.56c-51.17,17.06-83.97,15-137.13,19.93
		c-49.61,4.6-111.32,1.08-135.88-5.31c-22.04-5.74-51.73-20.51-74.24-56.45C261.16,577.42,249.97,554.58,249.97,554.58z"/>
	<path class="st14" d="M362.81,480.89c0,0,4.7,75.69,14.33,82.21c9.63,6.51,30.02,9.21,49.12,2.73c19.1-6.48,84.6-27.97,95.85-34.79
		c11.26-6.82,80.22-41.27,93.81-51.51c13.58-10.23,31.72-46.63,37.86-54.19c6.14-7.55,22.85-52.58,27.63-69.64
		c4.78-17.06,8.19-37.52,8.19-37.52s1.36-9.55-6.82-12.62c-8.19-3.07-9.54,0-9.54,0s-1.72,11.26-8.88,43.66
		c-7.16,32.41-103.7,143.61-152.48,172.6c-48.78,28.99-95.17,30.02-111.89,27.97C383.28,547.75,362.47,493.85,362.81,480.89z"/>
	<path class="st14" d="M360.57,495.06c0,0,2.01-47.13,14.18-62.95c12.17-15.82,53.02-48.44,77.17-60.72
		c24.15-12.28,59.32-29.69,71.56-32.28c12.24-2.59,20.86,0,20.86,0s-14.72-7.97-48.49,0.56c-33.77,8.53-71.97,39.93-90.4,49.64
		c-18.42,9.71-47.07,33.25-53.9,45.19C344.73,446.44,360.57,495.06,360.57,495.06z"/>
	<path class="st14" d="M277.57,445.37l104.68-91.72l64.84-29.34c0,0,64.1-21.78,93.44-28.63c29.34-6.85,95.17-8.9,95.17-8.9
		l34.51,3.75c0,0-60.06-32.75-148.79-8.87c-88.73,23.88-147.7,53.7-173.63,78.19C321.88,384.35,282.74,433.39,277.57,445.37z"/>
	
		<radialGradient id="SVGID_00000076590296579115650850000010721566222004322489_" cx="348.747" cy="348.3005" r="414.1543" gradientUnits="userSpaceOnUse">
		<stop  offset="0" style="stop-color:#FFFFFF"/>
		<stop  offset="1" style="stop-color:#623964"/>
	</radialGradient>
	<path style="fill-rule:evenodd;clip-rule:evenodd;fill:url(#SVGID_00000076590296579115650850000010721566222004322489_);" d="
		M274.64,449.46c0,0-56.24,67.88-28.95,109.65s39.36,102.01,47.27,116.02c7.91,14.01,98.46,35.07,117.26,30.71
		c18.8-4.35,63.9-16.18,93.41-4.76c0,0,52.25-4.5,67.26-4.5c15.01,0,42.3-12.73,48.67-15.92c6.37-3.18,41.84-14.55,60.04-21.83
		c18.19-7.28,47.3-30.02,59.13-39.11c11.83-9.1,42.75-45.94,48.67-57.31c5.91-11.37,23.62-77.78,28.2-109.16
		c4.58-31.38-8.91-91.88-19.1-112.79c-10.19-20.92-42.3-40.48-42.3-40.48l1.87-9.46l25.02-14.92c0,0,43.61,57.18,47.71,106.56
		c2.4,28.96,9.1,90.72,1.48,117.22c-6.12,21.28-26.95,83.84-45.14,106.18c-18.19,22.35-72.77,79.38-101.88,90.43
		c-29.11,11.05-114.97,25.94-165.55,26.97c-37.28,0.76-119.4-5.91-159.76-7.27c-40.36-1.37-69.22-26.66-85.26-39.48
		c-16.04-12.83-10.59-47.74-26.96-75.31c-16.37-27.57-25.39-64.24-21.34-84.2C228.41,496.74,274.64,449.46,274.64,449.46z"/>
	<path class="st16" d="M373.4,707.89c-8.64-2.02-16.42-6.77-24.99-8.93c-4.82-1.15-9.58-1.87-14.33-3.24
		c-4.75-1.37-10.15-2.3-15.05-2.52c-9.94-0.36-20.24-2.66-26.57-11.09c-5.62-7.56-9.07-15.34-11.67-24.41
		c-3.39-12.1-6.63-24.2-10.37-36.29c-3.46-11.16-8.21-21.03-14.4-30.97c-2.45-3.96-4.54-7.92-7.2-11.74
		c-2.45-3.46-5.83-6.77-7.71-10.66l-0.07-0.07c-4.75-10.08-6.41-21.24-6.12-32.19c0.14-5.91,1.8-11.45,3.1-17.21
		c1.73-7.27,3.6-13.68,7.35-20.24c3.46-5.98,6.84-12.1,10.3-18.22c7.71-13.54,15.77-27.08,25.35-39.25
		c12.32-15.48,26.07-30.25,39.97-44.29c8.07-8.21,17.21-15.41,26.43-22.25c7.78-5.76,14.98-12.1,22.68-17.93
		c13.25-10.08,28.37-16.64,43.21-23.84c17.93-8.64,35.86-17,54.51-23.84c22.11-8.07,44.86-14.47,67.91-19.16
		c26.29-5.33,54.01-6.41,80.8-6.27c14.69,0.07,30.39-1.8,44.43,3.67c7.92,3.1,17.14,6.19,24.05,10.95c1.58,1.08,2.3,1.3,3.31,2.74
		c0.65,0.86,1.01,2.02,1.37,3.02c1.08,2.52,2.38,6.7,2.38,9.36c0,2.95-1.3,5.55-1.3,8.64c0.07,4.39-1.08,8.35-1.22,12.67
		c-0.22,4.97-1.44,8.86-2.16,13.68c-1.44,8.93-2.74,17.5-6.19,25.92c-5.04,12.17-8.35,24.99-13.9,37.01
		c-1.66,3.67-4.61,6.48-6.27,10.15c-1.58,3.31-3.02,6.05-4.9,9.22c-3.53,5.91-6.41,12.03-10.44,17.64
		c-8.35,11.52-16.85,23.84-27.87,32.98c-13.32,11.09-27.87,19.95-43.14,28.09c-9.94,5.26-20.31,9.51-30.39,14.55
		c-9,4.46-18,9.07-27.08,13.32c-23.33,10.87-48.11,18.94-72.59,26.57c-7.06,2.23-13.68,4.61-20.96,5.62
		c-6.62,0.94-14.33,3.1-21.03,2.95c-7.2-0.22-14.76-1.87-21.53-4.18c-11.67-3.89-12.82-16.56-13.68-27.08
		c-0.65-7.63-1.51-15.91-3.02-23.4c-1.15-6.27-1.66-12.46-3.1-18.8c-1.44-6.41-2.38-12.96-2.45-19.52
		c-0.14-8.35,3.1-16.2,4.97-24.34c1.22-5.26,1.8-10.66,3.96-15.7c3.1-7.35,9-13.68,14.83-18.94c5.98-5.33,11.88-10.59,17.79-15.99
		c3.53-3.31,7.71-5.76,11.45-8.79c6.55-5.26,13.83-9.36,21.32-13.18c5.91-3.1,10.23-7.99,15.7-11.59c5.62-3.67,12.03-7.56,18-10.59
		c5.26-2.59,10.95-4.39,16.42-6.55c4.46-1.73,8.57-4.32,13.11-5.83c4.18-1.44,8.5-1.87,12.6-3.6c4.03-1.66,7.85-3.17,12.03-4.25
		c4.68-1.15,9.94-3.1,14.69-3.24c9.36-0.14,13.97,4.54,16.35,13.61c3.31,12.39-0.5,22.83-4.97,34.28
		c-3.6,9.22-7.56,18.36-11.09,27.73c-4.68,12.46-15.77,19.01-25.13,27.51c-9.87,8.93-22.04,16.92-34.13,22.32
		c-3.82,1.73-7.92,2.74-11.67,4.32c-3.24,1.44-6.41,3.24-9.65,4.97c-2.09,1.15-3.6,2.81-5.55,4.1c-1.73,1.15-3.75,1.8-5.55,2.95
		c-4.32,2.88-8.86,5.69-13.61,7.78c-4.61,2.09-13.75,3.31-16.78-2.09c-1.58-2.74-1.37-6.55-2.09-9.65
		c-0.86-3.67-1.01-6.99-1.01-10.8c0-3.82,0.72-6.63,1.3-10.3c0.58-3.53,2.16-6.34,3.31-9.79c3.46-9.79,10.23-17.07,16.2-25.13
		c3.74-5.11,6.99-10.15,11.38-14.91c6.48-6.91,15.63-10.37,24.77-12.67c8.21-2.02,20.45-4.46,28.01,0.29
		c6.41,3.96,1.94,12.67-0.14,18c-1.15,2.95-2.38,5.98-3.38,9c-0.72,2.23-1.01,4.75-2.3,6.91c-2.66,4.46-7.92,7.56-11.88,11.02
		c-1.8,1.51-4.68,3.67-6.84,4.39c-2.74,0.86-5.69,0.79-8.43,1.44c-1.37,0.29-2.09,2.02-3.74,1.37c-1.51-0.5-1.51-2.23-1.22-3.82
		c0.29-1.44,0.94-2.88,1.22-4.25c0.07-0.29-0.29-0.79-0.22-1.15c1.15-4.25,6.55-9.58,9-13.18c3.89,1.58,1.22,3.89,0.5,5.62
		c-0.5,1.44-0.43,2.81-0.79,4.32c-0.29,1.22-2.16,3.46-0.79,4.75c0.94,0.94,4.1-0.72,5.11-1.08c8.35-2.95,13.75-12.1,16.35-20.38
		c1.66-5.4,1.37-14.76-4.61-17.14c-4.46-1.73-9.87-0.79-14.55-0.86c-16.92-0.29-26.93,17.79-35.93,29.45
		c-6.12,7.92-10.8,16.92-14.26,26.28c-2.45,6.48-3.46,13.18-5.19,19.73c-1.3,4.82-2.88,12.24,4.54,11.23
		c4.32-0.65,9-2.95,13.11-4.32c3.6-1.22,6.77-2.52,10.15-4.32c5.33-2.88,11.31-3.67,16.85-6.12c4.32-1.94,8.71-4.32,13.03-6.41
		c11.16-5.4,22.04-16.42,29.81-25.92c5.18-6.41,12.6-11.23,18.51-17.07c6.19-6.12,9.51-13.75,13.75-21.24
		c4.25-7.63,6.41-14.98,8.28-23.4c1.73-7.49,6.19-15.99,3.89-23.76c-2.45-8.07-12.82-8.21-19.51-7.06
		c-5.55,0.94-11.67,1.87-16.92,3.96c-9.79,3.89-19.44,8.07-29.17,12.03c-15.34,6.34-28.09,16.78-42.13,25.35
		c-7.13,4.32-14.83,7.63-21.46,12.82c-4.9,3.82-9.58,8.28-14.26,12.46c-3.31,3.02-6.12,6.27-9.79,8.86
		c-4.82,3.38-9.65,7.13-13.25,11.81c-2.95,3.82-6.34,8.35-7.99,12.96c-1.22,3.67-0.07,7.13,0.14,10.87
		c0.29,5.11-1.15,9.87-1.37,14.91c-0.22,5.33,0,10.8,0.07,16.13c0,10.44-1.58,20.6-1.37,31.18c0.14,6.48,1.58,13.32,2.88,19.73
		c1.01,5.11,3.1,9.51,3.46,14.76c0.14,3.31,0.72,7.85,3.67,10.01c1.44,1.08,3.31,1.37,4.97,2.02c1.51,0.58,2.88,1.08,4.32,1.51
		c0.79,0.29,1.66,0.43,2.52,0.72c0.65,0.36,1.15,1.3,1.8,1.58c1.73,0.72,4.32,0.29,6.12-0.07c4.18-0.79,8.28-1.8,12.46-2.52
		c10.44-1.8,21.03-1.58,30.97-5.33c11.45-4.32,22.11-10.51,33.41-15.12c16.92-6.91,35.07-11.95,51.27-20.67
		c7.27-3.96,14.83-7.63,22.32-11.02c17.79-7.99,36.44-14.47,52.07-26.5c5.98-4.61,10.51-9.87,15.63-15.27
		c2.88-3.1,5.98-5.83,8.57-9.22c7.63-9.94,14.98-20.74,20.81-31.83c2.52-4.68,4.03-9.79,6.63-14.47
		c4.03-7.27,8.93-13.68,12.67-21.17c3.67-7.35,5.83-14.69,8.28-22.47c1.51-4.75,2.59-8.64,2.45-13.68
		c-0.14-10.08,0.94-18.8,4.97-28.01c2.23-5.04,5.4-12.53,3.74-18.22c-0.86-2.81-4.9-3.53-7.35-4.32
		c-5.76-1.94-11.74-3.38-17.28-5.83c-5.11-2.3-8.79-4.97-14.4-5.98c-2.16-0.43-4.11-0.72-6.27-0.65c-5.4,0.29-10.08,4.03-15.48,3.82
		c-1.8-0.07-3.02-0.65-4.9-1.01c-2.81-0.5-5.83-0.14-8.57-0.22c-6.19-0.22-12.17-1.37-18.44-1.3c-7.34,0.07-14.55,0.72-21.89,1.15
		c-6.84,0.36-13.75-0.22-20.6,0c-4.39,0.14-7.13,2.16-11.02,3.89c-3.53,1.58-7.49,2.23-11.16,3.6c-3.24,1.3-6.27,2.45-9.72,2.59
		c-4.83,0.07-9.65-0.65-14.33,0.36c-5.62,1.3-11.74,3.67-17,5.9c-15.34,6.55-30.24,14.76-46.16,19.8
		c-7.71,2.38-15.63,3.46-23.12,6.48c-2.81,1.15-5.26,3.17-7.78,4.82c-5.04,3.38-10.3,6.48-15.48,9.72
		c-11.59,7.35-22.61,15.41-33.63,23.62c-12.96,9.65-25.35,19.3-36.08,31.54c-18.72,21.53-38.24,43.28-54.44,66.83
		c-7.71,11.09-16.35,23.04-21.82,35.43c-0.14,0.29-0.22,0.5-0.36,0.79c-3.02,7.13-4.61,14.62-3.6,22.32c0,0.14,0,0.29,0.07,0.43
		c0.86,6.34,3.6,13.83,6.12,19.59c2.52,5.76,4.61,11.88,7.85,17.36c3.53,5.98,8.43,10.95,11.02,17.43
		c3.1,7.99,5.91,16.56,8.28,24.84c3.1,10.44,5.47,21.24,7.42,31.9c1.3,6.63,2.38,13.32,5.47,19.37c4.39,8.5,13.76,11.67,21.39,16.64
		c4.03,2.66,6.84,3.53,11.74,3.74c6.84,0.36,13.32,2.02,19.88,3.96c13.97,4.32,27.94,7.49,42.63,7.27c8.71-0.07,17-2.45,25.56-3.53
		c7.99-1.01,15.99-1.8,23.91-3.1c7.2-1.15,14.26-3.17,21.6-3.17c6.91,0,14.83,1.15,21.53,3.02c12.03,3.31,23.76,5.98,36.29,5.47
		c7.63-0.22,15.12-1.94,22.68-2.45c7.13-0.43,13.9,0.65,20.96,1.15c12.53,0.79,24.56-2.3,36.22-6.12
		c7.99-2.59,14.62-6.41,21.75-10.66c5.76-3.38,11.31-4.39,17.64-6.05c12.39-3.31,24.7-7.85,35.94-14.19
		c14.69-8.35,26.79-20.67,41.05-29.6c8.07-5.04,17.14-8.35,24.99-13.75c6.48-4.39,12.6-9.51,18.08-15.05
		c6.41-6.48,12.46-13.25,18.87-19.73c4.9-4.97,6.84-11.16,9.72-17.36c4.32-9.15,5.83-18.58,7.42-28.52
		c1.66-9.79,5.98-18.44,10.23-27.51c5.4-11.59,10.01-22.47,11.16-35.43c0.94-9.72,2.23-19.52,2.23-29.31
		c0-6.27-1.08-12.39-1.87-18.58c-0.79-5.76-1.94-11.31-3.17-17c-1.58-6.99-1.37-14.19-2.66-21.24c-1.15-6.05-3.02-12.46-4.68-18.44
		c-1.15-4.25-2.74-8.64-4.46-12.67c-3.17-7.13-7.35-14.55-12.46-20.52c-2.16-2.52-4.9-3.31-7.34-5.11c-1.87-1.44-2.3-2.66-4.46-3.74
		c-3.03-1.51-6.05-3.02-9-4.68c-4.75-2.74-10.15-3.53-14.91-6.12c-4.54-2.45-8.64-5.69-12.96-8.43c-4.9-3.1-9.87-5.19-14.11-9.22
		c-4.18-4.03-6.91-9.15-10.95-13.18c-4.11-4.18-10.01-6.91-14.69-10.51c-8.14-6.34-17.72-6.84-26.86-10.73
		c-4.68-2.02-9.15-2.3-14.04-3.31c-5.54-1.15-9.29-4.54-15.19-5.18c-5.26-0.58-10.44-0.65-15.55-2.09c-3.1-0.79-5.98-1.51-9.07-1.8
		c-6.12-0.58-12.03,0.29-18.08,0.94c-5.33,0.58-10.73,0.29-16.06,0.29c-4.46,0-9.15,0.43-13.61-0.29
		c-12.67-1.94-26.57-1.73-39.39-0.86c-12.24,0.86-24.2,1.73-35.79,5.76c-9.87,3.38-19.59,6.27-29.24,10.23
		c-6.62,2.66-12.39,6.34-18.58,9.79c-14.91,8.35-28.59,18.58-42.78,28.09c-15.84,10.51-30.75,22.18-46.02,33.63
		c-9.94,7.49-20.02,14.91-29.81,22.61c-4.25,3.38-8.35,6.91-12.39,10.51c9.51-12.24,19.87-23.76,30.97-34.57
		c61.43-59.77,145.32-96.57,237.79-96.57c3.6,0,7.2,0.07,10.73,0.14c3.82,0.14,7.63,0.29,11.45,0.58c10.59,0.72,21.1,1.87,31.4,3.53
		c0.14,0,0.22,0.07,0.36,0.07c11.74,3.17,23.4,6.55,35.07,10.08c9.72,2.95,19.51,5.62,29.09,8.93c6.34,2.16,12.53,4.97,18.65,7.49
		c5.54,2.38,11.67,4.39,16.85,7.35c8.43,4.75,16.27,11.09,24.05,16.85c5.18,3.89,10.01,8.35,14.69,12.89
		c6.55,6.41,12.46,13.54,17.43,21.17c11.67,18.08,20.96,38.53,25.35,59.55c3.74,17.72,3.24,36.94,2.52,55.02
		c-0.36,9.65-2.09,20.24-4.03,29.74c-2.16,10.44-5.83,20.16-6.91,30.97c-0.5,5.26,0.36,10.66-0.5,15.84
		c-0.72,4.25-2.3,8.35-3.17,12.6c-1.8,9-4.46,17.72-8.64,26c-5.62,11.31-13.25,20.67-21.39,30.39
		c-9.15,10.87-18.94,21.32-28.45,31.97c-9.58,10.73-21.1,19.37-33.41,26.72c-9.58,5.76-19.37,12.67-29.81,16.71
		c-9.79,3.89-20.88,9.43-31.47,10.59c-8.06,0.79-14.47,3.82-21.03,8.71c-3.96,2.88-6.91,6.77-10.59,9.87
		c-3.31,2.81-7.2,3.67-11.16,5.04c-9.43,3.17-18.65,2.45-28.52,2.45c-14.04,0-27.87,1.37-41.84,2.81c-7.06,0.72-14.04,1.3-21.1,0.86
		c-6.34-0.36-12.6-2.02-18.87-2.81c-6.98-0.86-13.97-1.01-20.88-2.09c-5.47-0.94-9.79-1.01-15.34-0.29c-4.46,0.5-8.93,0-13.39,0.36
		c-4.61,0.43-9.15,1.44-13.75,2.09C414.45,703.28,394.79,712.93,373.4,707.89z"/>
	
		<radialGradient id="SVGID_00000024718305884343211760000013540267861085303721_" cx="472.8911" cy="708.994" r="326.4139" gradientUnits="userSpaceOnUse">
		<stop  offset="0" style="stop-color:#FFFF4A"/>
		<stop  offset="1" style="stop-color:#360038"/>
	</radialGradient>
	<path style="fill-rule:evenodd;clip-rule:evenodd;fill:url(#SVGID_00000024718305884343211760000013540267861085303721_);" d="
		M356.48,863.95c0,0,79.87,14.03,116.17,12.98c54.88-1.59,118.13,5.23,167.25,6.6c49.12,1.36,134.97-38.91,150.66-46.29
		c15.69-7.38,53.57-29.01,86.64-65.68c33.07-36.67,46.12-96.43,46.12-96.43h-13.79c0,0-5.23,25.87-25.17,54.91
		c-11.96,17.42-29.54,32.68-53.55,53.42c-34.54,29.85-79.51,52.83-124.85,64.13c-60.35,15.04-114,10.88-151,16.4
		c-53.57,7.98-172.5-10.94-172.5-10.94L356.48,863.95z"/>
	
		<radialGradient id="SVGID_00000164475466404158092610000000787633992064535701_" cx="344.3546" cy="834.9307" r="35.2288" gradientUnits="userSpaceOnUse">
		<stop  offset="0" style="stop-color:#6D00C2"/>
		<stop  offset="0.3995" style="stop-color:#6600BC"/>
		<stop  offset="0.976" style="stop-color:#5300AC"/>
		<stop  offset="1" style="stop-color:#5200AB"/>
	</radialGradient>
	<path style="fill-rule:evenodd;clip-rule:evenodd;fill:url(#SVGID_00000164475466404158092610000000787633992064535701_);" d="
		M335.39,824.39c0,0,12.74,33.13,21.08,39.55c0,0,17.54,1.08,26-7.92l-24.56-19.52L335.39,824.39z"/>
	
		<radialGradient id="SVGID_00000160176048343624260080000009623464398157024680_" cx="914.1143" cy="630.0939" r="36.7959" gradientUnits="userSpaceOnUse">
		<stop  offset="0" style="stop-color:#1F0081"/>
		<stop  offset="0.73" style="stop-color:#260087"/>
		<stop  offset="1" style="stop-color:#2A008B"/>
	</radialGradient>
	<path style="fill-rule:evenodd;clip-rule:evenodd;fill:url(#SVGID_00000160176048343624260080000009623464398157024680_);" d="
		M924.35,613.37c0,0,8.54,37.43,9.24,57.37c0,0-13.33,8.4-24.05,4.39C909.54,675.13,922.12,629.35,924.35,613.37z"/>
	<path class="st20" d="M693.21,256.8c0,0,71.19,7.14,87.86,18.8c0,0-11.78,13.19-25.02,14.92
		C756.05,290.52,698.32,258.5,693.21,256.8z"/>
	<path class="st20" d="M272.65,389.31l29.18-4.6l11.43-15.35C313.27,369.36,292.33,378.57,272.65,389.31z"/>
	<path class="st21" d="M296.35,803.38c0,0,138.1,40.09,245.89,42.15c107.79,2.06,148.29-21.96,194.9-39.97
		c46.61-18.01,123.14-59.35,146.21-89.87c23.08-30.52,41-102.33,41-102.33s-22.16,107.71-41.31,126.79
		c-19.16,19.08-104.75,76.73-119.76,84.24c-15.01,7.5-55.79,38.47-129.55,29.85c0,0-49.58,6.99-67.53,5.62
		c-17.95-1.36-45.79,16.73-96.96,0.18c0,0-71.19-3.59-86.76-7C366.9,849.63,296.35,803.38,296.35,803.38z"/>
	<path class="st22" d="M329.89,658.45c0,0,114.46,19.84,197.38,11.37c82.92-8.47,127.76-29.17,151.41-44.64
		c23.65-15.46,69.99-64.98,87.33-87.51c17.33-22.54,26.08-78.87,26.08-78.87s3.13,55.03-11.02,78.87
		c-14.15,23.84-62.8,69.17-82.65,82.34c-19.85,13.17-76.75,44.41-106.46,49.81c-29.71,5.39-78.75,20.42-114.26,13.91
		C442.18,677.21,356.06,678.31,329.89,658.45z"/>
	<path class="st23" d="M488.57,841.69c0,0,119.16-8.2,160.09-17.29c40.93-9.1,94.76-31.24,132.4-45.05
		c37.64-13.81,66.08-41.13,86.82-56.31c20.75-15.18,47.35-78.24,47.35-78.24s-16.97,62.52-43.03,82.92
		c-26.06,20.4-92.76,57.78-168.12,91.22C620.33,856.1,555.2,845.53,488.57,841.69z"/>
	<path class="st16" d="M903.78,692.05c1.87-5.69,3.89-11.31,5.76-16.92c-6.63,22.76-15.56,44.5-26.5,65.03l-0.22,0.22
		c-3.17,3.1-7.06,5.54-10.01,8.93c-3.02,3.38-5.69,6.77-8.93,9.94c-15.55,15.41-33.34,28.66-51.71,40.62
		c-18.87,12.31-37.73,23.98-58.4,32.98c-15.84,6.91-32.05,12.82-48.83,17.07c-13.47,3.46-27.87,4.97-41.77,5.62
		c-7.06,0.36-13.97,1.51-20.96,2.16c-8.71,0.94-17.64,0.79-26.21,2.3c-14.83,2.74-30.1,4.68-45.15,5.47
		c-12.89,0.72-25.71,2.52-38.6,2.52c-16.56-0.07-32.98-2.66-49.55-2.59c-16.06,0.14-32.26-0.58-48.25-2.02
		c-9.58-0.94-18.94-2.74-28.37-3.82c-7.99-0.94-15.7-2.66-23.62-3.53c-6.7-4.75-13.18-9.87-19.44-15.12
		c-1.73-1.44-3.46-2.88-5.11-4.39c9.07,2.88,18.08,5.98,27.22,8.86c12.82,4.03,27.22,6.41,40.62,8.07
		c10.95,1.37,24.12,2.38,34.93-0.36c11.23-2.81,19.59,0.79,29.81,4.97c4.75,1.94,9.58,2.88,14.55,4.32
		c6.99,2.02,12.17,1.58,19.3,0.65c6.27-0.79,12.82-1.87,19.08-3.24c5.33-1.15,10.44-3.31,15.84-4.03c9.36-1.15,19.3-2.52,28.66-0.86
		c10.8,1.87,21.53,2.95,32.41,1.22c11.31-1.87,21.82-2.95,33.27-3.02c3.89,0,7.06,0.36,10.8,1.01c4.18,0.72,8.07-0.43,12.17-0.86
		c7.49-0.79,14.04-1.87,21.32-4.1c6.62-2.09,12.96-5.04,19.44-7.49c12.67-4.75,24.12-9.43,35.36-17.07
		c9.43-6.34,19.88-10.8,29.45-16.92c9.15-5.91,17.28-13.32,26.64-18.94c9.87-5.98,18.87-13.32,28.3-20.02
		c5.98-4.25,11.31-9.29,17.28-13.61c5.19-3.74,10.87-6.7,15.7-10.95c8.28-7.06,15.99-14.69,21.39-24.27
		C896.5,710.99,900.68,701.7,903.78,692.05z"/>
	<path class="st24" d="M538.18,502.43c0,0,82.32-67.39,116.91-133.07C655.09,369.36,559.15,467.92,538.18,502.43z"/>
	<path class="st25" d="M451.61,582.76c0,0,52.01,0.34,109.53-23.65c57.51-23.98,86.36-73.46,86.36-73.46s-38.91,37.19-81.29,58
		C523.82,564.46,491.75,569.54,451.61,582.76z"/>
	<path class="st25" d="M657.17,473.78c0,0,5.83-14.85,16.74-40.88c10.92-26.03,19.51-39.98,19.51-39.98S689.9,432.64,657.17,473.78z
		"/>
	<path class="st26" d="M433.81,719.83c0,0,72.27,17.56,166.41,0c94.15-17.56,98.24-23.29,124.17-43.62
		c25.92-20.33,44.35-46.37,54.58-56.21c10.23-9.83,23.11-43.98,23.11-43.98s-26.62,47.85-64.78,79.89
		c-38.16,32.04-69.54,47.73-133.67,57.28C539.51,722.74,465.8,721.73,433.81,719.83z"/>
	<path class="st26" d="M497.22,876.73c0,0,65.49,5.65,92.09,11.11c26.61,5.46,77.77,5.26,107.11-5.56
		c29.34-10.82,87.45-41.93,87.45-41.93s-54.23,30.43-118.83,37.25C600.44,884.43,561.13,873.51,497.22,876.73z"/>
	<path class="st26" d="M802.9,830.81c0,0,41.57-27.91,61.97-46.44C864.87,784.37,843.1,814.16,802.9,830.81z"/>
	<path class="st27" d="M487.05,475.46c0,0,47.45-35.71,62.5-61.51c15.06-25.81,16.56-40.51,16.56-40.51s6.7,25.1-21.78,57.01
		C515.86,462.36,487.05,475.46,487.05,475.46z"/>
	
		<linearGradient id="SVGID_00000068666676453408510010000010448283912903506831_" gradientUnits="userSpaceOnUse" x1="371.3711" y1="474.8705" x2="419.0279" y2="474.8705">
		<stop  offset="0" style="stop-color:#BDFFE8"/>
		<stop  offset="0.2005" style="stop-color:#8BBBAA"/>
		<stop  offset="0.4155" style="stop-color:#5A796E"/>
		<stop  offset="0.6108" style="stop-color:#33453F"/>
		<stop  offset="0.7795" style="stop-color:#171F1D"/>
		<stop  offset="0.9148" style="stop-color:#060808"/>
		<stop  offset="1" style="stop-color:#000000"/>
	</linearGradient>
	
		<path style="opacity:0.5;fill-rule:evenodd;clip-rule:evenodd;fill:url(#SVGID_00000068666676453408510010000010448283912903506831_);" d="
		M376.23,450.53c-3.84,17.41-7.73,35.11-1.82,51.89c5.91,16.78,15.01,27.7,23.65,28.61c8.64,0.91,21.38-19.56,20.92-25.47
		c-0.45-5.91-14.1-21.38-15.01-36.84c-0.91-15.46,15.94-38.21,15.02-46.85C418.07,413.23,382.55,421.89,376.23,450.53z"/>
	
		<linearGradient id="SVGID_00000018198205714270558280000016061947949279891116_" gradientUnits="userSpaceOnUse" x1="257.7908" y1="520.7626" x2="468.6358" y2="520.7626">
		<stop  offset="0" style="stop-color:#BDFFE8"/>
		<stop  offset="0.2005" style="stop-color:#8BBBAA"/>
		<stop  offset="0.4155" style="stop-color:#5A796E"/>
		<stop  offset="0.6108" style="stop-color:#33453F"/>
		<stop  offset="0.7795" style="stop-color:#171F1D"/>
		<stop  offset="0.9148" style="stop-color:#060808"/>
		<stop  offset="1" style="stop-color:#000000"/>
	</linearGradient>
	
		<path style="opacity:0.5;fill-rule:evenodd;clip-rule:evenodd;fill:url(#SVGID_00000018198205714270558280000016061947949279891116_);" d="
		M383.96,379.33c-5.7-6.12-44.05,29.78-70.69,57.54c-26.64,27.76-53.02,64.15-55.3,87.34c-2.27,23.2,16.83,58.24,51.4,89.16
		c34.57,30.92,124.55,59.12,146.19,46.38c21.64-12.73,13.67-52.3-3.95-61.86c-17.62-9.55-74.93,9.69-101.76-18.51
		c-26.83-28.2-14.71-66.09-11.37-97.93c4.09-38.98,16.37-71.86,27.74-81.87C377.59,389.58,383.96,379.33,383.96,379.33z"/>
	<path class="st30" d="M266.39,499.38c-7.41,25.15-8.28,52.04,7.19,72.69c15.47,20.65,27.15,5.2,32.61-45.2
		c5.46-50.41,2.33-84.89,2.33-84.89S275.71,467.72,266.39,499.38z"/>
	<path class="st31" d="M291.67,586.78c-10.46,9.71,14.51,28.95,18.59,19.68C314.33,597.19,298.47,580.48,291.67,586.78z"/>
	<path class="st31" d="M263.96,662.88c-0.99,15.97,8.12,34.13,36.06,44.58c27.94,10.46,49.82,7.61,49.82,7.61
		s-32.69-6.48-50.68-19.08C281.17,683.4,263.96,662.88,263.96,662.88z"/>
	<path class="st30" d="M378.53,453.01c-9.22-12.21,2.78-28.91,19.69-39.19c16.91-10.28,18.94-7.16,15.32,1.81
		c-3.62,8.98-9.15,27.91-17.06,37.37C388.57,462.48,383.99,460.24,378.53,453.01z"/>
	<path class="st30" d="M439.32,431.76c-3.51-5.98,3.57-23.45,13.22-21.85c9.65,1.6,7.3,5.45,2.77,11.83
		C451.94,426.51,442.63,437.41,439.32,431.76z"/>
	<path class="st30" d="M509.19,461.69c-3.29-6.79,23.63-27.53,27.27-25.36c3.64,2.17,1.28,13.15-5,17.27
		C525.18,457.71,510.34,464.06,509.19,461.69z"/>
</g>
</svg>
