<?xml version="1.0" encoding="utf-8"?>
<!-- Generator: Adobe Illustrator 26.4.1, SVG Export Plug-In . SVG Version: 6.00 Build 0)  -->
<svg version="1.1" id="Слой_1" xmlns="http://www.w3.org/2000/svg" xmlns:xlink="http://www.w3.org/1999/xlink" x="0px" y="0px"
	 viewBox="0 0 1200 1200" style="enable-background:new 0 0 1200 1200;" xml:space="preserve">
<style type="text/css">
	.st0{fill:#020202;}
	.st1{opacity:0.3;fill-rule:evenodd;clip-rule:evenodd;fill:url(#SVGID_1_);}
	.st2{fill-rule:evenodd;clip-rule:evenodd;fill:url(#SVGID_00000071546075411070442900000006617209986983865993_);}
	.st3{fill-rule:evenodd;clip-rule:evenodd;fill:url(#SVGID_00000091699319714908848880000004270013057198290610_);}
	.st4{opacity:0.3;fill-rule:evenodd;clip-rule:evenodd;fill:url(#SVGID_00000002362400518952551280000017963883737765553067_);}
	.st5{opacity:0.3;fill-rule:evenodd;clip-rule:evenodd;fill:url(#SVGID_00000117645613984035079710000000867704733108515737_);}
	.st6{fill-rule:evenodd;clip-rule:evenodd;fill:url(#SVGID_00000101093422100758604670000017300448299908827803_);}
	.st7{fill-rule:evenodd;clip-rule:evenodd;fill:url(#SVGID_00000096025926017326765330000003520312049114853278_);}
	.st8{fill-rule:evenodd;clip-rule:evenodd;fill:url(#SVGID_00000168812386290108511510000006743905782644181133_);}
	.st9{fill-rule:evenodd;clip-rule:evenodd;fill:url(#SVGID_00000036933274384906833110000002413169640137947289_);}
	.st10{fill-rule:evenodd;clip-rule:evenodd;fill:url(#SVGID_00000175321434583000573220000013682812725118856075_);}
	.st11{opacity:0.5;}
	.st12{opacity:0.4;}
	.st13{fill-rule:evenodd;clip-rule:evenodd;fill:url(#SVGID_00000047024286564843612410000008298595470581364097_);}
	.st14{fill-rule:evenodd;clip-rule:evenodd;fill:url(#SVGID_00000049944346750984087880000001864836721358177418_);}
	.st15{fill-rule:evenodd;clip-rule:evenodd;fill:url(#SVGID_00000072239230784813778800000016091292961575871384_);}
	.st16{fill-rule:evenodd;clip-rule:evenodd;fill:url(#SVGID_00000049904169646656750700000002326886808803454351_);}
	.st17{fill-rule:evenodd;clip-rule:evenodd;fill:url(#SVGID_00000082347969215008323810000004791543503459495604_);}
	.st18{fill-rule:evenodd;clip-rule:evenodd;fill:url(#SVGID_00000153670792256940493720000001719451667391005870_);}
	.st19{opacity:0.4;fill-rule:evenodd;clip-rule:evenodd;fill:url(#SVGID_00000013886661970470957260000010762833031670299281_);}
	.st20{opacity:0.5;fill-rule:evenodd;clip-rule:evenodd;fill:url(#SVGID_00000007408218556234951000000016853285663360293761_);}
	.st21{opacity:0.5;fill-rule:evenodd;clip-rule:evenodd;fill:url(#SVGID_00000131339147934249436820000007200015959229790622_);}
	.st22{fill:url(#SVGID_00000048494307674477931990000017792731703815061675_);}
	.st23{opacity:0.5;fill-rule:evenodd;clip-rule:evenodd;fill:url(#SVGID_00000051364092879312093750000016781011425005774522_);}
	.st24{fill-rule:evenodd;clip-rule:evenodd;fill:#FFFFFF;}
	.st25{fill-rule:evenodd;clip-rule:evenodd;fill:#BFFFFF;}
	.st26{fill-rule:evenodd;clip-rule:evenodd;fill:url(#SVGID_00000083084793859494409180000001472425682038963098_);}
	.st27{fill-rule:evenodd;clip-rule:evenodd;fill:url(#SVGID_00000076595361479881764600000011583503912896429718_);}
	.st28{opacity:0.5;fill-rule:evenodd;clip-rule:evenodd;fill:url(#SVGID_00000031920709457922733150000001745101450385323666_);}
	.st29{opacity:0.5;fill-rule:evenodd;clip-rule:evenodd;fill:url(#SVGID_00000021806138047429234480000007539100140432799885_);}
</style>
<g>
	<rect x="0.5" y="0.5" class="st0" width="1202" height="1202"/>
	<path d="M1202,1v1201H1V1H1202 M1203,0H0v1203h1203V0L1203,0z"/>
</g>
<g>
	<radialGradient id="SVGID_1_" cx="637.1926" cy="697.3517" r="592.8711" gradientUnits="userSpaceOnUse">
		<stop  offset="0" style="stop-color:#31D1F9"/>
		<stop  offset="1" style="stop-color:#000000"/>
	</radialGradient>
	<path class="st1" d="M484.64,889.37c-97.14-81.95-94.39-67.06-140.81-144.66c-46.42-77.6-112.12-98.16-112.12-184.76
		c0-100.88,180.51-168.1,227.43-214.59c46.92-46.49,173.47-165.78,278.8-143.51c105.32,22.27,137.97,177.58,175.31,229.6
		c37.33,52.02,91.8,49.71,119.06,127.96c27.27,78.25-87.35,149.85-127.11,221.73C865.43,853.02,632.9,1014.45,484.64,889.37z"/>
	
		<radialGradient id="SVGID_00000037694782807305118890000010574684035007795363_" cx="619.9852" cy="609.7901" r="472.2568" gradientUnits="userSpaceOnUse">
		<stop  offset="0" style="stop-color:#31D1F9"/>
		<stop  offset="1" style="stop-color:#000000"/>
	</radialGradient>
	
		<circle style="fill-rule:evenodd;clip-rule:evenodd;fill:url(#SVGID_00000037694782807305118890000010574684035007795363_);" cx="619.99" cy="609.79" r="472.26"/>
	
		<radialGradient id="SVGID_00000117661925815554254590000003564022287545243065_" cx="619.9847" cy="609.7898" r="401.5605" gradientUnits="userSpaceOnUse">
		<stop  offset="0" style="stop-color:#31D1F9"/>
		<stop  offset="1" style="stop-color:#000000"/>
	</radialGradient>
	
		<circle style="fill-rule:evenodd;clip-rule:evenodd;fill:url(#SVGID_00000117661925815554254590000003564022287545243065_);" cx="619.98" cy="609.79" r="401.56"/>
	
		<radialGradient id="SVGID_00000032614064989771079780000013415025005225088676_" cx="652.0577" cy="720.682" r="500.5362" gradientUnits="userSpaceOnUse">
		<stop  offset="0" style="stop-color:#31D1F9"/>
		<stop  offset="1" style="stop-color:#000000"/>
	</radialGradient>
	
		<path style="opacity:0.3;fill-rule:evenodd;clip-rule:evenodd;fill:url(#SVGID_00000032614064989771079780000013415025005225088676_);" d="
		M379.45,833.36c-121.09-91.35-1.95-170.47-49.1-327.62C249.03,234.7,477.74,291.57,608.77,295.63s287.28,5.31,340.84,114.16
		s50.14,315.42-28.71,401.1C842.05,896.58,616.41,1012.12,379.45,833.36z"/>
	
		<radialGradient id="SVGID_00000116924251382052903310000016798474601516454065_" cx="769.1162" cy="743.2208" r="500.5306" gradientTransform="matrix(0.6456 0.7637 -0.7637 0.6456 585.8506 -237.6146)" gradientUnits="userSpaceOnUse">
		<stop  offset="0" style="stop-color:#31D1F9"/>
		<stop  offset="1" style="stop-color:#000000"/>
	</radialGradient>
	
		<path style="opacity:0.3;fill-rule:evenodd;clip-rule:evenodd;fill:url(#SVGID_00000116924251382052903310000016798474601516454065_);" d="
		M282.11,585.79c-8.42-151.45,128.92-111.55,218.49-249.01c154.48-237.09,258.72-25.72,340.21,76.96
		c81.49,102.68,181.42,222.81,132.87,333.99c-48.55,111.18-208.5,241.93-324.84,237.04C532.5,979.88,298.59,882.16,282.11,585.79z"
		/>
	
		<radialGradient id="SVGID_00000166676196465264197350000005244199887343165571_" cx="619.9852" cy="619.559" r="376.0172" gradientUnits="userSpaceOnUse">
		<stop  offset="0" style="stop-color:#FFFFF9"/>
		<stop  offset="0.0934" style="stop-color:#F9F9F3"/>
		<stop  offset="0.2184" style="stop-color:#E8E8E3"/>
		<stop  offset="0.3613" style="stop-color:#CCCCC7"/>
		<stop  offset="0.5175" style="stop-color:#A5A5A1"/>
		<stop  offset="0.6846" style="stop-color:#737370"/>
		<stop  offset="0.8579" style="stop-color:#373736"/>
		<stop  offset="1" style="stop-color:#000000"/>
	</radialGradient>
	
		<circle style="fill-rule:evenodd;clip-rule:evenodd;fill:url(#SVGID_00000166676196465264197350000005244199887343165571_);" cx="619.99" cy="619.56" r="376.02"/>
	
		<radialGradient id="SVGID_00000161614012080929849010000015752867816199046303_" cx="453.7984" cy="411.1456" r="571.9275" gradientUnits="userSpaceOnUse">
		<stop  offset="5.586590e-03" style="stop-color:#B1FFFF"/>
		<stop  offset="0.2928" style="stop-color:#B1FDFF"/>
		<stop  offset="0.4362" style="stop-color:#AFF5FF"/>
		<stop  offset="0.5473" style="stop-color:#ACE8FF"/>
		<stop  offset="0.6173" style="stop-color:#A9DBFF"/>
		<stop  offset="0.6508" style="stop-color:#A2D7FE"/>
		<stop  offset="0.6994" style="stop-color:#8FCAFC"/>
		<stop  offset="0.757" style="stop-color:#6FB5F9"/>
		<stop  offset="0.8216" style="stop-color:#4399F4"/>
		<stop  offset="0.8913" style="stop-color:#0C75EE"/>
		<stop  offset="0.905" style="stop-color:#006DED"/>
	</radialGradient>
	<path style="fill-rule:evenodd;clip-rule:evenodd;fill:url(#SVGID_00000161614012080929849010000015752867816199046303_);" d="
		M961.15,620.53c0,98.66-41.84,187.45-108.74,249.74c-32.05,29.81-69.71,53.51-111.33,69.28c-26.86,10.23-55.31,17.14-84.9,20.24
		l-0.07,0.07c-7.49,0.79-14.98,1.3-22.61,1.58c-4.46,0.22-9,0.29-13.54,0.29c-15.12,0-30.1-1.01-44.72-2.95
		c-51.85-6.84-100.03-25.2-141.87-52.79c-4.03-2.52-7.92-5.18-11.81-8.06c-7.06-4.97-13.97-10.3-20.6-15.92
		c-35.29-29.52-64.52-66.04-85.48-107.52c-13.25-26-23.19-53.94-29.31-83.25c-0.07-0.07-0.07-0.14-0.07-0.29
		c-3.1-14.83-5.26-30.03-6.34-45.51c-0.65-8.21-0.94-16.56-0.94-24.92c0-67.33,19.52-130.13,53.22-183.06
		c14.33-22.47,31.11-43.06,50.12-61.5c61.5-59.77,145.32-96.64,237.79-96.64c7.49,0,14.83,0.29,22.18,0.72
		c29.53,1.94,58.04,7.56,85.05,16.56c0.14,0,0.22,0,0.29,0.07c8.35,2.66,16.42,5.76,24.48,9.22c5.98,2.45,11.81,5.11,17.64,7.99
		c33.13,16.13,63.23,37.52,89.22,63.08c13.03,12.75,24.99,26.5,35.79,41.19c33.92,45.8,56.53,100.46,63.95,159.94v0.07
		C960.28,592.01,961.15,606.2,961.15,620.53z"/>
	
		<linearGradient id="SVGID_00000106861821521128590650000006202590112611148423_" gradientUnits="userSpaceOnUse" x1="278.821" y1="526.9365" x2="769.5887" y2="526.9365">
		<stop  offset="0.0112" style="stop-color:#B0E1FF"/>
		<stop  offset="0.2926" style="stop-color:#ADDEFF"/>
		<stop  offset="0.499" style="stop-color:#A5D5FF"/>
		<stop  offset="0.6813" style="stop-color:#98C5FF"/>
		<stop  offset="0.8488" style="stop-color:#85AEFF"/>
		<stop  offset="1" style="stop-color:#6D93FF"/>
	</linearGradient>
	<path style="fill-rule:evenodd;clip-rule:evenodd;fill:url(#SVGID_00000106861821521128590650000006202590112611148423_);" d="
		M769.59,313.86c-1.12,0.12-2.25,0.24-3.37,0.47c-3.85,0.71-6.87,0.35-10.65-0.71c-2.72-0.77-4.68-1.89-7.58-2.37
		c-4.14-0.65-7.99-2.43-12.13-2.96c-4.38-0.59-8.17-2.31-12.31-3.79c-3.25-1.18-4.97-0.77-8.11,0c-3.14,0.83-5.33-0.47-8.11-1.66
		c-3.14-1.36-6.27-1.6-9.59-2.25c-8.64-1.78-17.22-4.56-25.8-6.75c-5.33-1.36-10.24-1.36-15.68-1.42
		c-4.26-0.06-8.11,1.18-12.37,1.18c-2.84,0-5.27-0.47-8.11-0.89c-2.9-0.53-5.86,0.06-8.76-0.36c-4.32-0.65-6.63-1.3-11.01,0.06
		c-3.26,1.07-5.8,0.95-9.05,1.12c-3.61,0.18-7.69,1.12-11.24,1.95c-6.39,1.48-13.37,2.66-19.94,2.54c-4.02,0-9.94-1.12-13.79,0.24
		c-2.49,0.89-3.73,3.55-5.44,5.33c-3.31,3.43-7.4,6.51-10.18,10.36c-2.78,3.85-5.92,7.81-5.68,12.66c0.24,4.2,2.19,9.11,4.02,12.96
		c1.89,4.08,2.54,7.81-1.66,10.53c-5.27,3.49-11.36,6.69-17.4,8.4c-4.02,1.18-7.63,1.89-11.01-1.01c-1.24-1.07-2.01-3.14-3.55-3.96
		c-1.6-0.83-3.26,0-4.97,0.53c-4.26,1.24-8.4,2.66-12.72,3.37c-2.66,0.41-4.97,1.83-7.58,2.31c-3.14,0.59-5.39-1.72-8.64-0.95
		c-4.56,1.07-9.11,2.96-13.85,3.2c-3.37,0.18-7.63-1.3-10.48-3.02c-1.66-0.95-2.07-1.89-3.96-1.36c-1.54,0.35-3.85,2.25-4.68,3.43
		c-1.12,1.6-1.54,3.67-2.66,5.33c-1.18,1.83-2.31,3.61-3.37,5.56c-1.95,3.79-4.26,7.34-6.75,10.71c-1.78,2.37-3.02,5.56-4.97,7.75
		c-1.01,1.18-3.2,2.01-4.5,2.9c-3.55,2.49-7.28,4.73-10.71,7.4c-6.63,5.21-12.9,10.95-19.65,15.98c-5.15,3.85-12.37,6.1-18.23,8.52
		c-3.67,1.48-7.46,2.54-11.13,4.08c-1.18,0.47-3.37,1.01-4.38,1.89c-1.3,1.12-2.01,3.2-3.2,4.73c-3.2,3.91-6.57,7.81-9,12.31
		c-1.48,2.6-2.37,5.27-3.31,8.11c-1.3,3.85-3.37,7.4-4.68,11.24c-2.66,8.05-3.2,16.45-6.15,24.44c-1.72,4.68-4.2,8.94-6.33,13.2
		c-3.67,7.22-4.2,15.8-5.27,23.79c-0.59,4.68-0.35,10.06,0.47,14.62c0.89,4.91,0.65,10,0.59,15.03c-0.06,5.33-3.43,10.53-6.81,14.56
		c-3.08,3.73-7.75,5.15-11.19,8.46c-2.9,2.84-6.39,6.1-7.63,10.12c-0.53,1.78-0.06,3.79-0.35,5.68c-0.77,4.2-1.83,8.17-2.43,12.43
		c-0.65,5.27-0.77,10.24-0.77,15.56c0,2.66-0.18,5.39-0.06,8.05c0.12,2.54,1.07,4.91,1.24,7.46c0.12,1.78-0.24,3.55,0,5.33
		c0.35,2.01,1.12,4.08,1.6,6.04c1.18,4.73,2.07,9.35,2.96,14.08c0.83,4.38,2.54,8.7,3.91,12.96c1.89,5.8,3.14,11.78,4.26,17.81
		c0.89,4.5,0.83,9.17,1.48,13.73c0.53,3.67,1.36,7.4,1.54,11.07c0.18,5.56-1.18,11.13-1.24,16.75c-0.06,9.47,3.73,18.94,5.92,28.05
		c0.65,2.54,1.3,5.15,2.01,7.69c-23.44-46.28-36.63-98.59-36.63-153.98c0-67.35,19.53-130.13,53.2-183.04
		c14.32-22.49,31.13-43.08,50.12-61.55c61.49-59.77,145.34-96.58,237.84-96.58c7.46,0,14.79,0.24,22.13,0.71
		C687.63,282.97,730.71,294.81,769.59,313.86z"/>
	
		<radialGradient id="SVGID_00000056387162139953130400000009609185401698040239_" cx="370.6726" cy="388.3145" r="449.0544" gradientUnits="userSpaceOnUse">
		<stop  offset="0" style="stop-color:#FFFFD9"/>
		<stop  offset="1" style="stop-color:#000000"/>
	</radialGradient>
	<path style="fill-rule:evenodd;clip-rule:evenodd;fill:url(#SVGID_00000056387162139953130400000009609185401698040239_);" d="
		M417.67,886.99c-35.27-29.53-64.5-66.1-85.51-107.53c-13.2-26.04-23.14-53.97-29.29-83.26c-0.06-0.06-0.06-0.18-0.06-0.3
		c-4.73-22.73-7.28-46.28-7.28-70.42c0-67.35,19.53-130.13,53.2-183.04c14.32-22.49,31.13-43.08,50.12-61.55
		c61.49-59.77,145.34-96.58,237.84-96.58c7.46,0,14.79,0.24,22.13,0.71c23.13,1.48,45.62,5.31,67.25,11.18
		c-26.66-8.74-54.8-14.26-83.95-16.13c-7.34-0.47-14.68-0.71-22.13-0.71c-92.5,0-176.35,36.81-237.84,96.58
		c-19,18.46-35.8,39.06-50.12,61.55c-33.67,52.91-53.2,115.69-53.2,183.04c0,24.15,2.54,47.7,7.28,70.42c0,0.12,0,0.24,0.06,0.3
		c6.15,29.29,16.1,57.23,29.29,83.26c21.01,41.43,50.24,78,85.51,107.53c37.38,31.36,81.51,54.78,129.91,67.85
		C489.01,936.23,450.7,914.7,417.67,886.99z"/>
	
		<radialGradient id="SVGID_00000026880593465933272160000004044639621427040670_" cx="447.0723" cy="498.3004" r="116.9941" gradientTransform="matrix(1.4323 -0.8527 0.5467 0.9183 -406.5703 378.4721)" gradientUnits="userSpaceOnUse">
		<stop  offset="0" style="stop-color:#FFFFFF"/>
		<stop  offset="0.1732" style="stop-color:#C5C5C5"/>
		<stop  offset="0.3988" style="stop-color:#808080"/>
		<stop  offset="0.6025" style="stop-color:#494949"/>
		<stop  offset="0.7769" style="stop-color:#212121"/>
		<stop  offset="0.9151" style="stop-color:#090909"/>
		<stop  offset="1" style="stop-color:#000000"/>
	</radialGradient>
	<path style="fill-rule:evenodd;clip-rule:evenodd;fill:url(#SVGID_00000026880593465933272160000004044639621427040670_);" d="
		M673.76,355.08c35.33,59.34-11.06,152.1-103.61,207.2c-92.55,55.1-196.21,51.66-231.53-7.67s11.06-152.1,103.61-207.2
		C534.78,292.31,638.44,295.75,673.76,355.08z"/>
	<g class="st11">
		<g class="st12">
			
				<linearGradient id="SVGID_00000083083074218362358650000016817980999481280440_" gradientUnits="userSpaceOnUse" x1="580.4874" y1="718.1036" x2="585.0242" y2="718.1036">
				<stop  offset="0" style="stop-color:#E8DDFF"/>
				<stop  offset="1" style="stop-color:#AA8AD8"/>
			</linearGradient>
			<path style="fill-rule:evenodd;clip-rule:evenodd;fill:url(#SVGID_00000083083074218362358650000016817980999481280440_);" d="
				M580.63,715.44c-0.07-0.29-0.14-0.5-0.14-0.79c2.02,2.23,4.1,4.46,4.54,6.91C583.15,721.56,581.06,717.31,580.63,715.44z"/>
			
				<linearGradient id="SVGID_00000075880976681179081450000017659167891999653768_" gradientUnits="userSpaceOnUse" x1="468.757" y1="708.8157" x2="961.1486" y2="708.8157">
				<stop  offset="0" style="stop-color:#E8DDFF"/>
				<stop  offset="1" style="stop-color:#AA8AD8"/>
			</linearGradient>
			<path style="fill-rule:evenodd;clip-rule:evenodd;fill:url(#SVGID_00000075880976681179081450000017659167891999653768_);" d="
				M958.56,578.18v-0.07c-1.44-2.66-2.95-5.18-4.82-7.49c-3.89-4.75-8.5-7.06-14.11-8.93c-4.1-1.37-8.86-3.31-12.39-0.07
				c-3.53,3.24-6.34,8.43-8.64,12.46c-1.51,2.81-3.82,8.57-7.56,9.22c-3.74,0.65-8.21-4.61-10.59-6.91c-3.6-3.6-5.4-9.65-9.51-12.53
				c-2.81-2.02-7.35-4.1-10.37-5.33c-6.63-2.74-13.68-3.53-20.67-4.03c-5.18-0.36-8.64-2.95-13.03-5.11
				c-4.46-2.09-9.94-2.59-14.69-3.53c-4.32-0.94-8.43-1.8-12.67-2.74c-4.32-0.94-8.28-1.8-11.31-5.11
				c-3.96-4.32-6.77-9.79-11.02-13.75c-7.78-7.13-16.85-2.52-26.43-2.52c-7.92,0-14.26-4.97-22.4-6.84
				c-9.36-2.09-17.28-3.46-23.26-11.67c-5.26-7.27-3.74-15.92-6.77-23.91c-5.91-15.7-27.36-20.52-42.2-21.39
				c-11.88-0.65-22.76,3.53-34.42,3.82c-10.23,0.22-18.94-2.38-25.49,6.7c-6.91,9.58-14.11,19.66-20.09,29.67
				c-4.61,7.71-11.31,16.06-14.11,24.92c-1.51,4.75-1.22,10.15-2.52,14.98c-1.37,5.4-5.62,14.04-9.07,18.44
				c-3.96,5.04-10.95,8.28-16.49,11.16c-5.18,2.67-8.5,6.77-12.67,10.8c-5.04,4.97-9.79,10.37-13.83,16.13
				c-1.8,2.66-3.1,5.55-5.62,7.63c-2.38,1.94-5.26,3.02-7.56,5.04c-1.87,1.66-3.31,3.89-5.26,5.54c-3.24,2.66-8.14,5.33-12.46,5.55
				c-7.35,0.29-14.19-5.47-20.38,1.87c-3.74,4.46-8.14,12.17-7.27,18.08c0.72,5.18,5.11,9.43,8.28,13.47
				c5.26,6.7,15.77,17.64,13.39,27.36c-0.94,3.82-4.03,5.91-3.17,10.01c0.86,3.96,1.51,7.13,1.51,11.45
				c-0.07,2.59-1.15,8.07,0.22,10.44c1.87,3.17,8.79,5.47,12.03,6.84c7.42,3.1,13.47,7.63,20.6,11.31
				c4.82,2.52,7.85,6.12,13.03,7.78c4.82,1.58,9.22,0.79,14.11,1.73c3.02,0.58,6.55,0.94,9.58,1.73c2.23,0.65,4.25,2.45,6.48,3.02
				c8.5,2.02,19.01,0.29,27.72,0.29c5.47,0,11.67,1.08,16.28-1.8c5.83-3.67,7.2-7.71,7.27-14.55c0.07-5.83-3.24-10.73-4.97-16.42
				c-1.08-3.24-1.73-6.84-3.6-9.58c-1.58-2.16-3.6-2.16-5.55-3.53c-2.81-1.94-3.53-4.46-7.71-5.18c-3.24-0.5-6.12,0.58-8.71,2.38
				c-3.67,2.67-10.3,8.86-9.15,13.68c0.5,2.09,2.23,4.03,3.96,5.98c-0.29-2.52,1.08-4.46,1.44-7.2c7.13,1.73,17.79,3.67,23.12,9.36
				c-1.15,5.18-7.78,8.5-12.39,8.64c-8.79,0.36-16.92,1.3-23.84-4.97c-5.62-5.11-6.12-12.1-9.43-18.65
				c-1.8-3.46-3.17-6.41-5.76-9.14c-2.16-2.38-3.38-4.03-5.18-6.84c-2.74-4.25-5.69-11.16-1.66-15.34c4.1-4.25,12.53-7.49,17.5-10.3
				c8.14-4.68,16.64-8.79,24.77-13.47c11.45-6.48,20.67-14.98,34.42-15.99c10.51-0.72,24.12,1.73,32.62,8.43
				c5.91,4.68,7.13,10.8,10.08,17.28c2.52,5.4,6.91,10.37,11.67,13.97c6.12,4.54,12.6,8.86,18.87,13.32
				c8.28,5.91,14.47,7.63,20.09,16.63c8.86,14.33,12.6,30.61,17.64,46.45c2.59,7.99,4.18,16.06,5.91,24.27
				c1.3,6.27,4.68,11.74,6.91,17.72c2.09,5.4,4.1,10.01,7.2,14.83c1.51,2.38,3.17,4.46,3.74,7.35c2.09,10.23-7.85,17.57-12.96,25.06
				c-5.69,8.35-11.95,16.06-14.98,25.92c-2.38,7.71,0.5,11.59,1.94,18.58c2.52,12.24-3.1,19.73-10.95,28.16
				c-4.18,4.46-8.64,8.21-14.11,10.59c-15.12,6.63-28.52,18.36-40.04,29.96c-1.73,3.89-8.07,8.35-10.95,10.51
				c29.6-3.1,58.04-10.01,84.9-20.24c41.62-15.77,79.29-39.46,111.33-69.28c66.9-62.29,108.74-151.08,108.74-249.74
				C961.15,606.2,960.28,592.01,958.56,578.18z M577.97,582.5c-1.73,4.39-12.31,6.77-16.35,7.99c-1.51,0.43-3.82,1.15-5.18,0.07
				c-3.74-3.02,8.93-12.6,8.86-12.46l-3.67-1.8c3.24,0,4.18-3.96,7.35-3.89c0.72,0,3.67,1.8,4.25,2.23
				C575.66,576.31,579.34,578.9,577.97,582.5z M692.54,503.29c-2.81,15.48-19.88,26.43-33.63,31.33c-6.99,2.52-13.68,3.6-21.03,3.46
				c-6.41-0.07-13.75,1.22-19.95-0.29c-11.38-2.81-14.55-10.8-10.8-16.06c-2.16-5.54-5.26-10.59-2.66-16.27
				c1.87-4.03,4.68-8.35,7.2-12.1c4.75-7.2,12.24-7.35,19.88-9.79c16.2-5.26,32.91-10.87,48.82-1.94
				C688.08,485.93,694.27,494.22,692.54,503.29z M845.64,823.31c-6.34,19.52-23.33,28.45-40.98,35.07
				c-9.51,3.6-18.15,8.5-27.36,12.53c-6.12,2.74-10.51,4.46-16.71,2.02c-8.28-3.24-10.44-11.02-6.27-18.65
				c4.75-8.64,14.55-15.92,12.53-26.86c-1.3-6.99-1.87-12.96-1.08-20.24c1.22-11.02,1.44-21.53,1.44-32.62
				c-6.99,13.83-7.78,2.23-7.42-5.47c0.29-6.27,2.45-9.65,7.63-13.25c17.72-12.17,42.13-0.36,58.19,9.51
				c10.08,6.19,17.36,17,21.46,27.87C850.82,803.37,848.88,813.31,845.64,823.31z M840.02,620.17c-5.26,0.36-12.89-6.27-16.42-9.22
				c-3.67-3.1-6.34-7.06-9.58-10.59c-2.88-3.1-6.48-6.27-8.71-9.94c-2.45-4.18-3.74-9.65-5.4-14.19c-2.59-7.2-5.18-13.18-9.07-19.95
				c-1.44,4.46-1.8,0.07,1.73-1.58c2.59-1.22,7.06-0.29,9.72,0.14c7.63,1.44,12.46,4.68,17.64,10.44
				c5.54,6.12,12.03,11.59,17.43,17.79c4.39,5.11,13.54,14.83,13.75,21.89C851.26,610.01,845.57,619.73,840.02,620.17z"/>
			
				<linearGradient id="SVGID_00000075876936443302780040000002309346053581947316_" gradientUnits="userSpaceOnUse" x1="677.8582" y1="391.9229" x2="894.6085" y2="391.9229">
				<stop  offset="0" style="stop-color:#E8DDFF"/>
				<stop  offset="1" style="stop-color:#AA8AD8"/>
			</linearGradient>
			<path style="fill-rule:evenodd;clip-rule:evenodd;fill:url(#SVGID_00000075876936443302780040000002309346053581947316_);" d="
				M894.61,418.17c-3.02,2.81-6.99,4.61-10.95,7.13c-2.95,1.87-6.05,5.76-9,6.99c-4.1,1.73-9.94,0.07-13.68-1.44
				c-9.36-3.82-15.27-7.35-25.13-3.74c-3.1,1.15-5.62,1.01-8.71,1.73c-2.52,0.58-3.17,1.94-6.27,1.94c-5.83,0-11.23-5.55-14.98-9.65
				c-4.54-4.82-6.55-4.9-13.18-4.9c-6.19-0.07-13.39,1.73-14.76,9.07c-1.66,8.86,9.15,15.63,14.83,20.09
				c8.28,6.55-0.94,8.28-4.32,14.4c-3.24,6.05,3.17,9.36-1.66,14.62c-9.36,10.15-31.4,17.64-43.78,10.51
				c-8.64-5.04-12.75-14.4-19.52-21.46c-3.82-4.03-8.5-7.2-12.31-11.23c-5.69-5.98-9.94-14.04-13.11-21.46
				c2.95,7.99-2.09-3.31-3.74-12.75c-0.72-4.25,1.22-7.06,2.02-10.95c0.79-4.1-1.51-5.76-3.31-9c-3.31-6.27-8.71-11.45-3.67-18.15
				c3.02-4.1,6.77-7.99,10.44-11.45c3.82-3.67,7.78-8.57,12.67-10.95c0.65-2.95-8.64-11.88-10.66-14.47
				c-4.75-6.05-9.29-12.89-15.12-17.93c-2.3-2.02-6.77-4.1-8.21-6.77c-3.17-6.05,6.27-13.61,10.37-16.49
				c7.13-4.97,13.61-5.76,21.96-5.76c5.26,0.07,10.8,0.14,16.35,0.5c0.14,0,0.22,0,0.29,0.07c8.35,2.66,16.42,5.76,24.48,9.22
				c5.98,2.45,11.81,5.11,17.64,7.99c33.13,16.13,63.23,37.52,89.22,63.08C871.85,389.72,883.81,403.48,894.61,418.17z"/>
			
				<linearGradient id="SVGID_00000103265119454822075940000005593410582619571629_" gradientUnits="userSpaceOnUse" x1="790.7296" y1="499.0963" x2="817.8706" y2="499.0963">
				<stop  offset="0" style="stop-color:#E8DDFF"/>
				<stop  offset="1" style="stop-color:#AA8AD8"/>
			</linearGradient>
			<path style="fill-rule:evenodd;clip-rule:evenodd;fill:url(#SVGID_00000103265119454822075940000005593410582619571629_);" d="
				M796.31,490.78c7.08,1.73,14.05,3.79,20.92,6.18c-1.06,1.47-0.27,3.24,0.64,4.28c-2.3,2.5-6.44,5.01-9.73,5.78
				c-4.56,1.06-6.45-0.14-9.91-2.14c-3.42-1.98-7.64-2.12-7.49-6.77c0.16-5.02,5.06-6.71,9.22-7.33H796.31z"/>
			
				<linearGradient id="SVGID_00000148640593847721739640000000063756345197572231_" gradientUnits="userSpaceOnUse" x1="383.3156" y1="892.9153" x2="415.7935" y2="892.9153">
				<stop  offset="0" style="stop-color:#E8DDFF"/>
				<stop  offset="1" style="stop-color:#AA8AD8"/>
			</linearGradient>
			<path style="fill-rule:evenodd;clip-rule:evenodd;fill:url(#SVGID_00000148640593847721739640000000063756345197572231_);" d="
				M408.52,895.9c2.38,1.37,4.82,2.66,7.27,3.96c-4.68,1.3-9.58,1.94-14.4,2.23c-1.08-4.61-3.38-9.65-18.08-18.36
				C392.89,887.77,399.95,891.08,408.52,895.9z"/>
			
				<linearGradient id="SVGID_00000104683571781483249600000013445697818019029653_" gradientUnits="userSpaceOnUse" x1="433.3647" y1="852.3719" x2="722.0292" y2="852.3719">
				<stop  offset="0" style="stop-color:#E8DDFF"/>
				<stop  offset="1" style="stop-color:#AA8AD8"/>
			</linearGradient>
			<path style="fill-rule:evenodd;clip-rule:evenodd;fill:url(#SVGID_00000104683571781483249600000013445697818019029653_);" d="
				M716.23,844.77c-2.74,4.82-3.67,9.87-3.6,15.34c0,5.11,0.14,10.3,0,15.41c-0.14,7.06-4.9,11.67-9.07,16.92
				c-5.04,6.27-11.16,10.59-17.14,15.77c-3.02,2.66-4.68,6.34-7.42,9.22c-2.59,2.81-6.05,5.18-8.28,8.14
				c-2.66,3.53-3.46,5.4-7.13,8.14c-4.18,3.02-7.27,6.63-11.02,10.15c-6.12,5.76-12.31,12.03-19.08,17.57
				c-4.46,0.22-9,0.29-13.54,0.29c-15.12,0-30.1-1.01-44.72-2.95c-51.85-6.84-100.03-25.2-141.87-52.79
				c3.96,1.01,7.92,2.09,11.88,2.81c4.61,0.86,8.43,2.52,12.75,3.67c7.63,2.16,17.86,0.43,25.78,0.36c12.31,0,23.98,2.16,36.08,3.82
				c8.64,1.22,15.19,2.52,23.76-0.14c7.13-2.16,14.04-4.97,20.31-8.64c13.39-7.85,29.31-7.56,43.28-14.98
				c5.98-3.17,10.73-8.28,16.56-11.88c3.02-1.8,7.42-4.97,10.66-6.05c2.81-0.94,5.33-1.01,8.21-2.09c6.99-2.66,14.33-4.1,21.24-6.84
				c6.05-2.3,15.41-6.41,20.16-10.87c6.19-5.76,14.98-15.27,17.64-23.19c1.87-5.47,1.87-10.44,1.87-16.27c0-2.45-0.07-4.97,0-7.42
				c0-3.17-0.72-4.32-1.44-6.77c-1.73-6.12,1.51-8.42,3.02-13.47c1.44-4.61,3.1-8.64,4.25-13.47c1.58-6.41,1.22-9.87-0.86-16.35
				c-0.72-2.45-2.3-5.55-2.74-7.71c-0.58-2.45-0.36-4.9-0.5-7.49c0.07,3.1,3.53,9.87,4.54,12.46c2.16,5.26,6.19,9.72,6.48,15.48
				c0.29,5.47-1.51,10.3-2.74,15.48c-1.44,5.83,1.01,9.58,0.86,15.41c-0.07,2.52-0.22,4.9,0.43,7.27c0.72,2.88,0.94,5.4,1.51,8.21
				c1.08,4.68,4.32,9.15,5.4,13.54C723.15,836.35,718.61,840.6,716.23,844.77z"/>
		</g>
		
			<linearGradient id="SVGID_00000081647520822191365500000007545690392324375454_" gradientUnits="userSpaceOnUse" x1="279.7608" y1="769.8453" x2="453.4504" y2="769.8453">
			<stop  offset="0" style="stop-color:#E8DDFF"/>
			<stop  offset="1" style="stop-color:#AA8AD8"/>
		</linearGradient>
		
			<path style="opacity:0.4;fill-rule:evenodd;clip-rule:evenodd;fill:url(#SVGID_00000081647520822191365500000007545690392324375454_);" d="
			M453.38,850.25c1.01,17.57-9.65,32.48-23.12,42.78c-2.66,2.09-5.62,3.67-8.71,4.9c-7.06-4.97-13.97-10.3-20.6-15.92
			c-35.29-29.52-64.52-66.04-85.48-107.52c-13.25-26-23.19-53.94-29.31-83.25c-0.07-0.07-0.07-0.14-0.07-0.29
			c-3.1-14.83-5.26-30.03-6.34-45.51c1.15-1.15,2.3-2.31,3.53-3.67c-0.14,11.16,4.03,20.38,7.2,31.25
			c2.38,8.07,5.18,15.91,7.2,24.05c1.66,6.63,3.1,12.46,7.35,18c2.74,3.6,5.18,4.97,9.22,6.77c3.1,1.37,5.47,3.96,8.57,5.11
			c6.77,2.52,15.19,4.1,22.4,3.96c3.82-0.07,5.83,0,9.07,1.8c2.23,1.3,4.18,3.1,6.34,4.54c4.9,3.46,9.58,7.2,13.61,11.74
			c6.19,6.99,5.98,16.71,10.95,24.41c4.1,6.48,10.23,8.5,17.79,8.5c14.98,0.07,28.09,17.64,35.86,29.09
			C446.04,821.73,452.66,837.36,453.38,850.25z"/>
	</g>
	
		<linearGradient id="SVGID_00000011018662202668091600000001959889643274056116_" gradientUnits="userSpaceOnUse" x1="162.4736" y1="440.3306" x2="1061.4697" y2="440.3306">
		<stop  offset="0" style="stop-color:#A4FFE8"/>
		<stop  offset="0.2005" style="stop-color:#78BBAA"/>
		<stop  offset="0.4155" style="stop-color:#4E796E"/>
		<stop  offset="0.6108" style="stop-color:#2C453F"/>
		<stop  offset="0.7795" style="stop-color:#141F1D"/>
		<stop  offset="0.9148" style="stop-color:#050808"/>
		<stop  offset="1" style="stop-color:#000000"/>
	</linearGradient>
	
		<path style="opacity:0.5;fill-rule:evenodd;clip-rule:evenodd;fill:url(#SVGID_00000011018662202668091600000001959889643274056116_);" d="
		M180.7,457.85c0,0-39.47,164.13-2.24,205.76c53.62,59.96,274.44-134.77,514.37-217.47s346.58,41.98,366.18,33.93
		c19.59-8.05-74.61-248.64-402.08-271.84C329.46,185.03,232.34,330.5,180.7,457.85z"/>
	
		<radialGradient id="SVGID_00000085208136365013979070000009514777521883297930_" cx="619.9866" cy="641.77" r="462.4618" gradientUnits="userSpaceOnUse">
		<stop  offset="0.8855" style="stop-color:#000000"/>
		<stop  offset="0.8993" style="stop-color:#000506"/>
		<stop  offset="0.9177" style="stop-color:#001217"/>
		<stop  offset="0.9385" style="stop-color:#002932"/>
		<stop  offset="0.9611" style="stop-color:#004858"/>
		<stop  offset="0.985" style="stop-color:#006F89"/>
		<stop  offset="1" style="stop-color:#008BAB"/>
	</radialGradient>
	
		<path style="opacity:0.5;fill-rule:evenodd;clip-rule:evenodd;fill:url(#SVGID_00000085208136365013979070000009514777521883297930_);" d="
		M1092.24,584.04c0,282.06-263.89,533.59-530.96,508.45c-280.82-26.43-413.55-221.21-413.55-503.27
		c0-282.06,155.89-399.9,437.95-399.9C867.74,189.31,1092.24,301.98,1092.24,584.04z"/>
	<g class="st11">
		
			<radialGradient id="SVGID_00000109745265216299539790000000939032499922928277_" cx="619.9873" cy="641.7567" r="466.0559" gradientUnits="userSpaceOnUse">
			<stop  offset="0.8855" style="stop-color:#000000"/>
			<stop  offset="0.8993" style="stop-color:#000506"/>
			<stop  offset="0.9177" style="stop-color:#001217"/>
			<stop  offset="0.9385" style="stop-color:#002932"/>
			<stop  offset="0.9611" style="stop-color:#004858"/>
			<stop  offset="0.985" style="stop-color:#006F89"/>
			<stop  offset="1" style="stop-color:#008BAB"/>
		</radialGradient>
		<path style="fill:url(#SVGID_00000109745265216299539790000000939032499922928277_);" d="M597.98,1097.8
			c-12.39,0-24.74-0.57-37.04-1.73c-268.79-25.3-416.81-205.3-416.81-506.86c0-271.52,144.43-403.51,441.55-403.51
			c324.21,0,510.16,145.18,510.16,398.33c0,140.28-64.32,279.29-176.47,381.39C825.69,1050.7,710.4,1097.8,597.98,1097.8z
			 M585.68,192.91c-292.27,0-434.35,129.63-434.35,396.3c0,297.33,145.71,474.79,410.29,499.69
			c121.77,11.44,250.39-35.49,352.9-128.81c110.66-100.73,174.12-237.8,174.12-376.06C1088.64,335.47,905.32,192.91,585.68,192.91z"
			/>
	</g>
	
		<linearGradient id="SVGID_00000063621177229077902520000012864463750986027966_" gradientUnits="userSpaceOnUse" x1="244.0085" y1="327.2627" x2="621.8716" y2="591.8453">
		<stop  offset="0" style="stop-color:#BDFFE8"/>
		<stop  offset="0.2005" style="stop-color:#8BBBAA"/>
		<stop  offset="0.4155" style="stop-color:#5A796E"/>
		<stop  offset="0.6108" style="stop-color:#33453F"/>
		<stop  offset="0.7795" style="stop-color:#171F1D"/>
		<stop  offset="0.9148" style="stop-color:#060808"/>
		<stop  offset="1" style="stop-color:#000000"/>
	</linearGradient>
	
		<path style="opacity:0.5;fill-rule:evenodd;clip-rule:evenodd;fill:url(#SVGID_00000063621177229077902520000012864463750986027966_);" d="
		M174.48,505.72c0,0,89.48,142.97,266.33,230.59l159.62-113.84c0,0-107.03-264.99-119.71-410.07
		C480.72,212.39,189.59,243.54,174.48,505.72z"/>
	<path class="st24" d="M180.68,527.05C198.2,552,252.19,491.8,297.55,428.8c45.35-63.01,70.48-99.82,64.12-135.75
		c-6.36-35.94-107.68,28.84-143.88,78.38S164.32,503.73,180.68,527.05z"/>
	<path class="st24" d="M183.21,536.91c0,0-23.59,24.95-10.13,44.85c13.46,19.9,30.97,6.35,28.31-7.93
		C198.73,559.54,193.55,539.4,183.21,536.91z"/>
	<path class="st25" d="M846.57,976.86c0,0-28.49,3.68-49.64,28.09c-21.15,24.41,9.83,20.42,27.25,5.97
		C841.59,996.48,846.69,983.72,846.57,976.86z"/>
	
		<radialGradient id="SVGID_00000044889375641608869670000015267092080687646875_" cx="532.2187" cy="1035.6007" r="142.7176" gradientTransform="matrix(0.9766 -0.2149 0.2149 0.9766 -108.6119 127.8732)" gradientUnits="userSpaceOnUse">
		<stop  offset="0" style="stop-color:#2C63D9"/>
		<stop  offset="1" style="stop-color:#000000"/>
	</radialGradient>
	<path style="fill-rule:evenodd;clip-rule:evenodd;fill:url(#SVGID_00000044889375641608869670000015267092080687646875_);" d="
		M829.23,1008.12c0,0-207.86,91.47-397.08,6.16C432.16,1014.27,567.21,1162.17,829.23,1008.12z"/>
	
		<radialGradient id="SVGID_00000161626844620539754760000000141893622574697619_" cx="609.988" cy="276.8389" r="272.7979" gradientUnits="userSpaceOnUse">
		<stop  offset="0" style="stop-color:#2C63D9"/>
		<stop  offset="1" style="stop-color:#000000"/>
	</radialGradient>
	<path style="fill-rule:evenodd;clip-rule:evenodd;fill:url(#SVGID_00000161626844620539754760000000141893622574697619_);" d="
		M231.71,352.63c0,0,56.77-108.12,292.49-144.4c235.72-36.28,403.23,73.8,464.06,130.99c0,0-159.82-128.23-421.26-105.45
		C305.56,256.55,231.71,352.63,231.71,352.63z"/>
	
		<linearGradient id="SVGID_00000027579283295141254020000017629222601221973179_" gradientUnits="userSpaceOnUse" x1="627.2239" y1="938.6419" x2="627.2239" y2="406.0708">
		<stop  offset="0" style="stop-color:#BDFFE8"/>
		<stop  offset="0.2005" style="stop-color:#8BBBAA"/>
		<stop  offset="0.4155" style="stop-color:#5A796E"/>
		<stop  offset="0.6108" style="stop-color:#33453F"/>
		<stop  offset="0.7795" style="stop-color:#171F1D"/>
		<stop  offset="0.9148" style="stop-color:#060808"/>
		<stop  offset="1" style="stop-color:#000000"/>
	</linearGradient>
	
		<path style="opacity:0.5;fill-rule:evenodd;clip-rule:evenodd;fill:url(#SVGID_00000027579283295141254020000017629222601221973179_);" d="
		M988.3,532.81c7.27-49.83,88.14-68.84,88.14-68.84c-5.91-23.4-22.4-57.9-22.4-57.9s-29.38,4.68-127.39,64.96
		c-97.94,60.2-352.82,287.38-551.5,308.98c-198.68,21.53-212.7-35.19-212.7-35.19l6.48,23.91c0,0,218.52,63.47,187.53,109.71
		c-37.54,56-148.5-6.22-148.5-6.22l6.19,11.52c0,0,159.65,71.44,413.07,51.35c253.49-20.02,408.17-125.66,408.17-125.66
		c44.79-71.72,56.6-214.31,56.6-214.31S980.95,582.65,988.3,532.81z M524.2,852.37c-77.43,20.6-163.16-15.74-166.76-34.24
		c-4.75-24.84,211.67-90.09,235.22-88.21C616.21,731.79,634.09,823.14,524.2,852.37z M961.44,558.4
		c25.92,1.8,61.36,46.02,49.54,62.43c-11.88,16.42-55.52,39.39-71.36,22.83C923.71,627.02,932.71,556.45,961.44,558.4z
		 M988.26,823.14c-46.38,41.84-206.86,77.88-236.03,60.6c-36.37-21.53,229.71-257.98,284.22-251.14
		C1091.05,639.43,1034.71,781.37,988.26,823.14z"/>
	
		<linearGradient id="SVGID_00000081646874406914579330000010372274287731604362_" gradientUnits="userSpaceOnUse" x1="294.1346" y1="980.7385" x2="996.0022" y2="980.7385">
		<stop  offset="0" style="stop-color:#BDFFE8"/>
		<stop  offset="0.2005" style="stop-color:#8BBBAA"/>
		<stop  offset="0.4155" style="stop-color:#5A796E"/>
		<stop  offset="0.6108" style="stop-color:#33453F"/>
		<stop  offset="0.7795" style="stop-color:#171F1D"/>
		<stop  offset="0.9148" style="stop-color:#060808"/>
		<stop  offset="1" style="stop-color:#000000"/>
	</linearGradient>
	
		<path style="opacity:0.5;fill-rule:evenodd;clip-rule:evenodd;fill:url(#SVGID_00000081646874406914579330000010372274287731604362_);" d="
		M294.13,984.9c0,0,76.09,52.71,336.56,26.31C891.16,984.81,996,873.59,996,873.59l-28.82,37.06c0,0-62.72,43.86-149.32,76.93
		c-86.59,33.07-257.86,31.1-293.67,100.31C524.2,1087.89,382.31,1066.5,294.13,984.9z"/>
</g>
</svg>
