<?xml version="1.0" encoding="utf-8"?>
<!-- Generator: Adobe Illustrator 26.4.1, SVG Export Plug-In . SVG Version: 6.00 Build 0)  -->
<svg version="1.1" id="Слой_1" xmlns="http://www.w3.org/2000/svg" xmlns:xlink="http://www.w3.org/1999/xlink" x="0px" y="0px"
	 viewBox="0 0 1200 1200" style="enable-background:new 0 0 1200 1200;" xml:space="preserve">
<style type="text/css">
	.st0{fill:#020202;}
	.st1{fill-rule:evenodd;clip-rule:evenodd;fill:url(#SVGID_1_);}
	.st2{fill-rule:evenodd;clip-rule:evenodd;fill:url(#SVGID_00000023983402439755611940000004747137012676716184_);}
	.st3{opacity:0.92;fill-rule:evenodd;clip-rule:evenodd;fill:url(#SVGID_00000113341237362017003540000004667774550949596094_);}
	.st4{fill-rule:evenodd;clip-rule:evenodd;fill:url(#SVGID_00000183229655285148944070000012484347294601024947_);}
	.st5{opacity:0.4;fill-rule:evenodd;clip-rule:evenodd;fill:url(#SVGID_00000055686391925782490470000009580400427456228773_);}
	.st6{opacity:0.3;fill-rule:evenodd;clip-rule:evenodd;fill:url(#SVGID_00000059292481530121812890000013635418888531997340_);}
	.st7{opacity:0.3;fill-rule:evenodd;clip-rule:evenodd;fill:url(#SVGID_00000176725451568231156190000006304781601585059243_);}
	.st8{opacity:0.3;fill-rule:evenodd;clip-rule:evenodd;fill:url(#SVGID_00000183223499861810990970000003251083350533723064_);}
	.st9{fill-rule:evenodd;clip-rule:evenodd;fill:url(#SVGID_00000076587127306342379800000001330284308737905793_);}
	.st10{fill-rule:evenodd;clip-rule:evenodd;fill:url(#SVGID_00000150795276928207654930000015075764830935510971_);}
	.st11{opacity:0.5;fill-rule:evenodd;clip-rule:evenodd;fill:url(#SVGID_00000010301772980486791290000008448736566035750842_);}
	.st12{opacity:0.5;fill-rule:evenodd;clip-rule:evenodd;fill:url(#SVGID_00000052818650622843752850000018223472260132546228_);}
	.st13{opacity:0.5;fill-rule:evenodd;clip-rule:evenodd;fill:url(#SVGID_00000023996196787192683080000009312984972355994288_);}
	.st14{fill-rule:evenodd;clip-rule:evenodd;fill:#FFFFFF;}
	.st15{fill-rule:evenodd;clip-rule:evenodd;fill:#FF9AFF;}
	.st16{opacity:0.92;fill-rule:evenodd;clip-rule:evenodd;fill:url(#SVGID_00000005235566234028937370000011559082760239705237_);}
	.st17{opacity:0.92;fill-rule:evenodd;clip-rule:evenodd;fill:url(#SVGID_00000083072588393900099370000002230942947924819900_);}
	.st18{fill-rule:evenodd;clip-rule:evenodd;fill:url(#SVGID_00000171721967323584328610000005746594709156169624_);}
	.st19{fill-rule:evenodd;clip-rule:evenodd;fill:url(#SVGID_00000073701784402587799580000004842196892736778625_);}
	.st20{opacity:0.92;fill-rule:evenodd;clip-rule:evenodd;fill:url(#SVGID_00000025437661291291143170000011379324114560285116_);}
	.st21{fill-rule:evenodd;clip-rule:evenodd;fill:url(#SVGID_00000033368925349521187480000014966652720714583735_);}
	.st22{opacity:0.92;fill-rule:evenodd;clip-rule:evenodd;fill:url(#SVGID_00000029047511490396868560000011263458141000763042_);}
	.st23{fill-rule:evenodd;clip-rule:evenodd;fill:url(#SVGID_00000013881327041381260160000010705233615264647080_);}
	.st24{opacity:0.92;fill-rule:evenodd;clip-rule:evenodd;fill:url(#SVGID_00000163753044261004330010000006221420940106080655_);}
	.st25{fill-rule:evenodd;clip-rule:evenodd;fill:url(#SVGID_00000074404970364540037810000014235786737000548484_);}
	.st26{opacity:0.92;fill-rule:evenodd;clip-rule:evenodd;fill:url(#SVGID_00000101807216338693918090000006905166201516479619_);}
	.st27{fill-rule:evenodd;clip-rule:evenodd;fill:url(#SVGID_00000178912661446389902210000002565379098321017261_);}
</style>
<g>
	<rect x="0.5" y="0.5" class="st0" width="1202" height="1202"/>
	<path d="M1202,1v1201H1V1H1202 M1203,0H0v1203h1203V0L1203,0z"/>
</g>
<g>
	<g>
		<radialGradient id="SVGID_1_" cx="606.5352" cy="630.9296" r="495.2853" gradientUnits="userSpaceOnUse">
			<stop  offset="5.586590e-03" style="stop-color:#009BFF"/>
			<stop  offset="1" style="stop-color:#000000"/>
		</radialGradient>
		<circle class="st1" cx="606.54" cy="630.93" r="495.29"/>
		
			<radialGradient id="SVGID_00000134970055377594097610000012566758742461320865_" cx="606.5352" cy="630.9292" r="421.9164" gradientUnits="userSpaceOnUse">
			<stop  offset="5.586590e-03" style="stop-color:#0092FF"/>
			<stop  offset="0.1307" style="stop-color:#0090FB"/>
			<stop  offset="0.2556" style="stop-color:#0089EF"/>
			<stop  offset="0.3804" style="stop-color:#007DDB"/>
			<stop  offset="0.5054" style="stop-color:#006DBF"/>
			<stop  offset="0.6304" style="stop-color:#00599B"/>
			<stop  offset="0.7555" style="stop-color:#003F6E"/>
			<stop  offset="0.8783" style="stop-color:#00223B"/>
			<stop  offset="1" style="stop-color:#000000"/>
		</radialGradient>
		
			<circle style="fill-rule:evenodd;clip-rule:evenodd;fill:url(#SVGID_00000134970055377594097610000012566758742461320865_);" cx="606.54" cy="630.93" r="421.92"/>
		
			<radialGradient id="SVGID_00000016782727522825751570000006953162038689028506_" cx="606.5353" cy="630.9292" r="366.1106" gradientUnits="userSpaceOnUse">
			<stop  offset="0.8855" style="stop-color:#000000"/>
			<stop  offset="0.8993" style="stop-color:#000506"/>
			<stop  offset="0.9177" style="stop-color:#001217"/>
			<stop  offset="0.9385" style="stop-color:#002932"/>
			<stop  offset="0.9611" style="stop-color:#004858"/>
			<stop  offset="0.985" style="stop-color:#006F89"/>
			<stop  offset="1" style="stop-color:#008BAB"/>
		</radialGradient>
		
			<path style="opacity:0.92;fill-rule:evenodd;clip-rule:evenodd;fill:url(#SVGID_00000016782727522825751570000006953162038689028506_);" d="
			M972.65,630.97c0,105.87-44.9,201.16-116.77,268c-34.31,31.99-74.81,57.34-119.4,74.34c-40.42,15.38-84.16,23.72-129.98,23.72
			c-16.23,0-32.3-1.08-47.99-3.09c-14.45-1.85-28.67-4.64-42.58-8.19c-33-8.42-64.14-21.33-92.89-38.02
			c-18.24-10.59-35.47-22.64-51.55-36.17c-37.87-31.68-69.24-70.94-91.81-115.38c-14.14-27.98-24.81-57.96-31.38-89.34
			c-0.08-0.08-0.08-0.23-0.08-0.31c-5.1-24.42-7.81-49.69-7.81-75.58c0-72.26,20.94-139.64,57.11-196.44
			c15.3-24.11,33.38-46.21,53.79-66.07c65.92-64.14,155.95-103.63,255.18-103.63c8.04,0,15.92,0.23,23.8,0.77
			c41.58,2.7,81.22,12.29,117.85,27.67c6.41,2.7,12.67,5.56,18.93,8.58c26.58,12.98,51.31,29.06,73.8,47.91
			c7.57,6.26,14.91,12.91,21.95,19.78c2.55,2.47,5.02,5.02,7.5,7.57C933.7,442.87,972.65,532.36,972.65,630.97z"/>
		
			<radialGradient id="SVGID_00000122689591416913380370000015218996968562964647_" cx="509.853" cy="534.1439" r="500.4408" gradientUnits="userSpaceOnUse">
			<stop  offset="5.586590e-03" style="stop-color:#00CEC0"/>
			<stop  offset="0.2576" style="stop-color:#00CCC0"/>
			<stop  offset="0.3833" style="stop-color:#00C4C1"/>
			<stop  offset="0.4811" style="stop-color:#00B7C2"/>
			<stop  offset="0.5645" style="stop-color:#00A4C4"/>
			<stop  offset="0.6387" style="stop-color:#008CC6"/>
			<stop  offset="0.7054" style="stop-color:#006EC8"/>
			<stop  offset="0.7179" style="stop-color:#0068C9"/>
			<stop  offset="0.7438" style="stop-color:#0767CB"/>
			<stop  offset="0.7813" style="stop-color:#1A66CF"/>
			<stop  offset="0.8259" style="stop-color:#3A63D6"/>
			<stop  offset="0.8759" style="stop-color:#6660E0"/>
			<stop  offset="0.9304" style="stop-color:#9E5BEC"/>
			<stop  offset="0.9879" style="stop-color:#E255FC"/>
			<stop  offset="1" style="stop-color:#F154FF"/>
		</radialGradient>
		<path style="fill-rule:evenodd;clip-rule:evenodd;fill:url(#SVGID_00000122689591416913380370000015218996968562964647_);" d="
			M947.7,630.97c0,98.66-41.84,187.45-108.81,249.74c-31.97,29.81-69.71,53.43-111.26,69.28c-37.66,14.33-78.42,22.11-121.13,22.11
			c-15.12,0-30.1-1.01-44.72-2.88c-13.47-1.73-26.72-4.32-39.68-7.63c-30.75-7.85-59.77-19.88-86.56-35.43
			c-17-9.87-33.05-21.1-48.03-33.7c-35.29-29.53-64.52-66.11-85.55-107.52c-13.18-26.07-23.12-54.01-29.24-83.25
			c-0.07-0.07-0.07-0.22-0.07-0.29c-4.75-22.76-7.27-46.3-7.27-70.43c0-67.33,19.51-130.13,53.22-183.06
			c14.26-22.47,31.11-43.06,50.12-61.57c61.43-59.77,145.32-96.57,237.79-96.57c7.49,0,14.83,0.22,22.18,0.72
			c38.74,2.52,75.69,11.45,109.82,25.78c5.98,2.52,11.81,5.18,17.64,7.99c24.77,12.1,47.82,27.08,68.77,44.65
			c7.06,5.83,13.9,12.03,20.45,18.44c2.38,2.3,4.68,4.68,6.99,7.06C911.4,455.69,947.7,539.08,947.7,630.97z"/>
		
			<radialGradient id="SVGID_00000028301045795668367740000007350897239678569103_" cx="644.5029" cy="661.4344" r="306.9485" gradientUnits="userSpaceOnUse">
			<stop  offset="0" style="stop-color:#1372B3"/>
			<stop  offset="1" style="stop-color:#FFFFFF"/>
		</radialGradient>
		
			<path style="opacity:0.4;fill-rule:evenodd;clip-rule:evenodd;fill:url(#SVGID_00000028301045795668367740000007350897239678569103_);" d="
			M947.7,630.97c0,98.66-41.84,187.45-108.81,249.74c-31.97,29.81-69.71,53.43-111.26,69.28c-37.66,14.33-78.42,22.11-121.13,22.11
			c-15.12,0-30.1-1.01-44.72-2.88c-45.58-5.98-88.22-20.96-126.24-43.06c11.31-2.88,22.4-6.77,33.77-9.65
			c27.15-6.98,53.07-14.91,80.94-18c11.16-1.3,28.52-5.69,29.02-19.15c0.14-3.82-0.65-4.83,1.73-6.91c2.59-2.3,5.69-1.22,8.93-1.94
			c7.92-1.73,14.26-9.94,19.3-15.7c8.21-9.51,17.14-18.51,26.57-26.86c18.29-16.06,42.49-23.48,54.23-46.52
			c3.17-6.34,3.46-12.82,5.04-19.59c1.8-7.63,7.49-12.82,14.12-16.64c8.21-4.68,17.07-6.34,24.48-12.75
			c6.91-5.98,10.3-15.19,13.03-23.62c4.46-13.97,3.74-28.09,5.69-42.34c1.01-7.2,3.1-14.19,3.38-21.53
			c0.36-6.99-2.52-12.46-4.82-19.01c-3.89-11.09-9.07-22.54-13.83-33.27c-1.8-4.03-4.54-7.42-7.78-10.37
			c-4.75-4.39-8.93-9.36-13.75-13.68c-3.38-3.02-7.63-4.97-10.95-8.07c-2.59-2.45-4.75-5.76-7.13-8.35
			c-4.39-4.68-8.86-9.51-14.47-12.67c-13.54-7.49-21.53-21.1-37.38-23.84c-19.3-3.31-35-23.91-55.52-16.63
			c-13.18,4.68-26.14,9.72-39.97,13.25c-8.86,2.23-18.94,2.02-27.29,5.33c-5.26,2.09-10.87,6.55-14.62,10.73
			c-5.76,6.34-7.99,14.91-12.82,21.82c-3.6,5.19-5.98,10.23-9.07,15.77c-6.05,11.09-5.4,21.32-5.4,33.7
			c0,6.55-0.65,13.54,0.07,20.09c0.79,7.99,4.68,13.68,9.5,19.88c2.88,3.67,4.9,10.01,8.5,12.96c1.87,1.51,3.6,1.08,5.62,1.94
			c3.46,1.51,4.68,2.88,7.63,5.11c8.93,6.7,17.86,13.03,28.88,15.48c5.83,1.22,10.95,2.16,16.2,4.54c4.18,1.94,9.72,3.24,14.47,3.67
			c11.45,1.15,21.46-2.81,30.1-9.87c5.4-4.32,9.65-7.85,13.83-13.61c2.3-3.17,3.74-5.11,7.06-7.06c2.23-1.3,4.68-2.74,7.35-2.45
			c2.23,0.29,4.54,3.17,6.91,1.73c2.02-1.22,3.24-7.63,3.96-9.58c1.37-3.46,2.3-7.71,3.89-11.02c2.74-5.83,7.35-4.46,12.89-4.61
			c3.89,0,8.71-0.36,11.23-3.74c2.31-3.24,1.73-10.37,0-13.61c-2.59-4.75-9.36-9.36-13.11-13.25c-2.95-3.03-5.33-6.34-7.63-9.87
			c-4.39-6.84-6.27-19.16-15.63-21.24c-3.75-0.86-8.71-0.14-12.53-0.14c-4.46,0.07-7.49-1.08-11.74-2.02
			c-6.55-1.51-12.53-3.53-19.37-3.6c-8.5-0.14-15.7,2.45-23.48,5.69c-3.31,1.37-6.05,0.72-9.07,1.73c-3.82,1.3-9.43,9-10.01,12.6
			c-1.3,7.78,1.58,15.34,9.07,18.44c2.45,1.01,8.14,1.44,9.94,3.46c2.38,2.67,0.36,6.12-0.86,9.15c-3.02,7.71-1.44,16.92,8.14,18.36
			c6.48,0.94,12.82-3.24,18.22-5.76c4.61-2.3,12.03-2.88,12.03-8.86c-0.36,2.81-5.11,1.73-7.42,1.73c-4.75,0-7.63-0.07-11.38-3.1
			c-3.6-2.95-3.96-5.4-5.4-9.65c-0.65-1.73-1.73-3.96-2.81-5.54c-0.79-1.15-3.31-2.74-3.74-3.96c-2.59-6.84,18.36-10.08,22.4-10.51
			c8.79-1.01,14.83,5.26,19.88,11.88c2.23,3.03,6.63,7.2,6.41,10.87c-0.14,3.46-3.03,9.43-4.39,12.75
			c-1.44,3.46-2.52,6.77-3.67,10.01c-1.44,4.18-3.6,4.97-7.27,7.2c-3.6,2.23-6.27,5.33-9.36,8.07c-3.39,3.02-7.63,3.31-11.95,4.32
			c-6.48,1.58-12.24-1.87-18.8-1.44c-5.4,0.29-10.08,3.39-15.41,3.74c-11.23,0.72-21.24-0.65-25.13-12.82
			c-1.73-5.18-0.29-7.56,2.88-10.87c3.38-3.53,2.23-6.7,0.5-10.87c-2.02-4.82-4.25-9.43-5.18-14.62c-0.86-5.18,2.23-11.09,3.1-16.35
			c0.79-4.39-1.37-10.51,0.07-14.69c1.3-3.67,8.86-7.42,11.95-9.94c4.03-3.24,9.65-4.61,14.33-6.98c5.76-3.02,9.79-2.09,15.7-3.1
			c4.82-0.86,7.42-4.61,11.74-6.34c4.75-1.87,11.31-0.94,16.42-0.86c5.69,0.14,8.71,1.94,13.68,4.39c4.75,2.38,8.93,6.05,14.47,6.7
			c6.41,0.72,13.04-0.5,19.37-0.22c6.41,0.36,8.57,3.67,13.4,6.98c5.33,3.67,8.93,5.83,12.82,11.31c1.87,2.59,2.81,5.76,4.68,8.21
			c2.09,2.81,3.6,4.32,4.9,7.71c1.8,4.68,4.18,8.71,5.4,13.54c0.72,2.88,1.73,5.26,1.51,8.28c-0.36,3.82-1.95,7.06-2.02,11.02
			c-0.14,8.78-3.31,15.27-7.2,23.12c-3.89,7.71-7.13,15.84-10.73,23.69c-2.45,5.33-2.95,15.91-10.15,17.28
			c-3.74,0.72-7.42,0-11.02,1.95c-3.74,1.94-4.25,6.27-7.2,9c-2.81,2.59-6.34,1.73-10.08,1.73c-5.69,0-10.66,0.86-15.99,3.17
			c-6.27,2.66-10.51,9-16.78,12.17c-4.97,2.52-11.09,4.82-16.42,6.12c-3.96,1.01-7.85,0-11.88,1.22
			c-9.22,2.74-16.92,8.78-25.85,12.1c-6.91,2.52-15.7,4.18-23.19,3.53c-3.1-0.29-5.54-1.51-8.5-2.45
			c-4.61-1.37-9.43-1.37-14.19-2.59c-3.74-0.94-7.34-2.3-10.95-3.6c-3.67-1.37-6.05-4.1-9.51-5.69c-7.99-3.82-15.7-3.39-23.04-9.29
			c-9.15-7.49-17.14-15.91-27.08-22.32c-4.1-2.74-6.84-6.19-9.51-10.15c-2.38-3.53-5.18-5.62-7.85-8.64
			c-3.96-4.54-6.63-9.87-8.86-15.34c-3.74-9-8.21-17.07-11.38-26.36c-4.46-13.18-10.23-25.28-12.75-39.1
			c-2.02-11.45,0.5-21.53,0.94-32.69c0.07-2.59,0.43-5.76-0.07-8.28c-0.79-4.25-4.46-7.06-7.2-10.15
			c-8.93-10.15-16.71-20.31-21.6-33.05c-4.97-12.96-7.42-28.81-3.24-42.27c3.89-12.24,11.45-19.01,21.46-26.43
			c9.72-7.27,20.81-12.75,31.54-18.22c4.9-2.52,9.51-6.05,14.69-7.92c5.33-1.94,11.59-2.88,17.14-4.39c4.9-1.3,8.93-1.8,13.18-4.82
			c4.39-3.17,9.29-6.63,13.32-10.23c4.97-4.46,8.93-9.07,15.48-10.8c9-2.38,18.44-5.11,27.58-6.98c11.31-2.38,25.2,0.72,36.44,1.94
			c11.31,1.23,22.25,1.37,33.7,1.37c9.51,0,18.51-1.51,27.94-1.87c3.46-0.14,7.06,0.36,10.51,0.14c5.69-0.29,11.09-2.81,16.56-4.18
			c10.51-2.74,20.38-7.85,30.68-11.23c7.99-2.66,15.63-2.38,23.84-3.74c8.64-1.37,17.5-4.32,26.29-4.68
			c7.71-0.29,15.84-3.24,22.76,0.94c12.82,7.92,21.03,21.46,33.77,29.17c13.47,8.14,28.59,13.9,43.06,19.66
			c4.97,1.94,10.59-0.36,15.12,1.37c2.31,0.86,4.68,4.46,6.34,6.41c2.38-1.66,1.66-4.03,1.73-6.55c0.22-3.6,1.87-6.34,1.95-10.08
			c0.07-4.39,0.5-9.22-0.22-13.54c-0.36-2.16-3.31-7.49-3.38-10.51c7.06,5.83,13.9,12.03,20.45,18.44
			C908.52,449.2,947.7,535.48,947.7,630.97z"/>
		
			<linearGradient id="SVGID_00000020400374299262549820000013284192345730986912_" gradientUnits="userSpaceOnUse" x1="373.7393" y1="744.2432" x2="466.5515" y2="744.2432">
			<stop  offset="0" style="stop-color:#B8C2FF"/>
			<stop  offset="1" style="stop-color:#7D72B3"/>
		</linearGradient>
		
			<path style="opacity:0.3;fill-rule:evenodd;clip-rule:evenodd;fill:url(#SVGID_00000020400374299262549820000013284192345730986912_);" d="
			M379.11,734.19c-1.99,7.49-3.17,15.09-3.54,22.79c1.96-0.48,4.92,4.09,7.1,5.04c4.03,1.77,7.97,1.26,11.7,3.92
			c3.28,2.34,7.28,7.01,11.14,8.2c2.47,0.76,5.93,0.08,8.54,0.07c5.61-0.01,10.49,0.26,16.02,1.37c5.59,1.13,12.98,3.03,18.72,2.44
			c3.93-0.4,10.02-2.51,13.03-4.98c3.12-2.56,4.49-10.31,4.71-14.3c0.68-12.45-8.5-24.17-17.83-31.55
			c-4.84-3.83-10.37-3.83-15.76-6.6c-6.44-3.32-12.06-5.23-19.16-7.17c-4.16-1.14-9.92-3.19-14.24-3.07
			c-4.21,0.12-9.08,2.77-13.13,3.82c-4.18,1.08-8.22,1.74-11.05,5.38C372.27,723.52,373.66,729.37,379.11,734.19z"/>
		
			<linearGradient id="SVGID_00000088120740594689113400000016352070641113849218_" gradientUnits="userSpaceOnUse" x1="460.4163" y1="792.3795" x2="479.5373" y2="792.3795">
			<stop  offset="0" style="stop-color:#B8C2FF"/>
			<stop  offset="1" style="stop-color:#7D72B3"/>
		</linearGradient>
		
			<path style="opacity:0.3;fill-rule:evenodd;clip-rule:evenodd;fill:url(#SVGID_00000088120740594689113400000016352070641113849218_);" d="
			M475.53,777.85c-2.16,2.56-22.32,20.09-12.37,27.02c0.68,0.47,4.75,1.49,5.49,1.68c3.07,0.77,3.61,0.31,6.14-1.33
			c4.78-3.08,5.42-8.18,4.22-13.57c-0.24-1.08-1.32-4.41-1.82-5.46c-0.9-1.89-3.01-2.46-3.48-4.7L475.53,777.85z"/>
		
			<linearGradient id="SVGID_00000000201089327423501800000009970794324245271487_" gradientUnits="userSpaceOnUse" x1="540.7987" y1="340.1667" x2="636.9081" y2="340.1667">
			<stop  offset="0" style="stop-color:#B8C2FF"/>
			<stop  offset="1" style="stop-color:#7D72B3"/>
		</linearGradient>
		
			<path style="opacity:0.3;fill-rule:evenodd;clip-rule:evenodd;fill:url(#SVGID_00000000201089327423501800000009970794324245271487_);" d="
			M591.96,335.76c3.69-1.81,15.27-8.88,21.77-9.53c2.09-0.21,5.07,0.46,7.34,0.44c4.92-0.04,9.19-0.9,12.82,3.1
			c2.73,3.01,4.07,6.12,2.05,9.53c-2.83,4.78-10.2,8.31-14.87,11.01c-10.86,6.28-25.3,12.28-38.33,11.05
			c-10.33-0.98-19.72-8.73-28.57-13.37c-6.66-3.5-18.77-10.11-10.68-18.13c6.61-6.55,16.65-10.15,25.75-10.49
			c4.12-0.15,14.11-1.6,17.35,0.84c3.6,2.73-0.34,14.32,7.19,13.73L591.96,335.76z"/>
		
			<linearGradient id="SVGID_00000147180453761536056620000011425199179746784398_" gradientUnits="userSpaceOnUse" x1="349.2918" y1="325.7568" x2="785.0756" y2="630.8959" gradientTransform="matrix(0.9891 0.1471 -0.1471 0.9891 99.0264 -50.7703)">
			<stop  offset="0.0168" style="stop-color:#B3FFE8"/>
			<stop  offset="0.2139" style="stop-color:#83BBAA"/>
			<stop  offset="0.4253" style="stop-color:#55796E"/>
			<stop  offset="0.6174" style="stop-color:#30453F"/>
			<stop  offset="0.7832" style="stop-color:#161F1D"/>
			<stop  offset="0.9163" style="stop-color:#060808"/>
			<stop  offset="1" style="stop-color:#000000"/>
		</linearGradient>
		<path style="fill-rule:evenodd;clip-rule:evenodd;fill:url(#SVGID_00000147180453761536056620000011425199179746784398_);" d="
			M260.19,561.42c5.19,69.54,168.04-43.07,325.58-93.1c184.96-58.74,325.17,69.55,345.65,62.56
			c32.07-10.94-99.62-265.46-310.43-262.19C383.48,272.37,251.81,449.17,260.19,561.42z"/>
		
			<radialGradient id="SVGID_00000018201140057553248800000000958317145253415326_" cx="758.6552" cy="918.4728" r="215.1974" gradientUnits="userSpaceOnUse">
			<stop  offset="0" style="stop-color:#97E5D9"/>
			<stop  offset="0.3566" style="stop-color:#61938C"/>
			<stop  offset="1" style="stop-color:#000000"/>
		</radialGradient>
		<path style="fill-rule:evenodd;clip-rule:evenodd;fill:url(#SVGID_00000018201140057553248800000000958317145253415326_);" d="
			M446.65,944.42c0,0,161.92,56.4,316.55-29.11c154.64-85.51,180.11-278.39,180.11-278.39s-18.98,226.83-168.28,299.22
			C625.72,1008.52,513.96,986.26,446.65,944.42z"/>
		
			<linearGradient id="SVGID_00000136412326167905923070000004042150173462113941_" gradientUnits="userSpaceOnUse" x1="581.5325" y1="761.7727" x2="581.5325" y2="409.5822">
			<stop  offset="0" style="stop-color:#BDFFE8"/>
			<stop  offset="0.2005" style="stop-color:#8BBBAA"/>
			<stop  offset="0.4155" style="stop-color:#5A796E"/>
			<stop  offset="0.6108" style="stop-color:#33453F"/>
			<stop  offset="0.7795" style="stop-color:#171F1D"/>
			<stop  offset="0.9148" style="stop-color:#060808"/>
			<stop  offset="1" style="stop-color:#000000"/>
		</linearGradient>
		
			<path style="opacity:0.5;fill-rule:evenodd;clip-rule:evenodd;fill:url(#SVGID_00000136412326167905923070000004042150173462113941_);" d="
			M244.01,682.16l11.45,53.05c0,0,63.6,37.23,211.05,23.54c147.46-13.7,182.5-85.8,240.06-127.82
			c57.56-42.02,169.19-75.03,198.3-107.78c29.11-32.75,4.37-98.07,4.37-98.07l-11.2-15.5c0,0,20.67,55.81-4.09,97.19
			c-24.75,41.38-134.63,60.43-194.66,112.8c-60.04,52.37-181.75,93.1-285.54,93.85C309.98,714.17,244.01,682.16,244.01,682.16z"/>
		
			<linearGradient id="SVGID_00000126323669994592192710000005801354292977517742_" gradientUnits="userSpaceOnUse" x1="629.4481" y1="867.9453" x2="629.4481" y2="537.8677">
			<stop  offset="0" style="stop-color:#BDFFE8"/>
			<stop  offset="0.2005" style="stop-color:#8BBBAA"/>
			<stop  offset="0.4155" style="stop-color:#5A796E"/>
			<stop  offset="0.6108" style="stop-color:#33453F"/>
			<stop  offset="0.7795" style="stop-color:#171F1D"/>
			<stop  offset="0.9148" style="stop-color:#060808"/>
			<stop  offset="1" style="stop-color:#000000"/>
		</linearGradient>
		
			<path style="opacity:0.5;fill-rule:evenodd;clip-rule:evenodd;fill:url(#SVGID_00000126323669994592192710000005801354292977517742_);" d="
			M292.96,820.07l23.37,34.08c0,0,106,31.05,265.2,0c159.2-31.05,279.21-120.8,335.16-171.99c55.95-51.19,48.96-122.76,48.96-122.76
			l-4.99-21.53c0,0-9.99,74.45-72.16,144.29C826.34,752,722.81,815.34,573.77,841.52C424.73,867.7,292.96,820.07,292.96,820.07z"/>
		
			<linearGradient id="SVGID_00000129179620520463080250000002381150309937638821_" gradientUnits="userSpaceOnUse" x1="553.1292" y1="545.7482" x2="553.1292" y2="327.5406">
			<stop  offset="0" style="stop-color:#BDFFE8"/>
			<stop  offset="0.2005" style="stop-color:#8BBBAA"/>
			<stop  offset="0.4155" style="stop-color:#5A796E"/>
			<stop  offset="0.6108" style="stop-color:#33453F"/>
			<stop  offset="0.7795" style="stop-color:#171F1D"/>
			<stop  offset="0.9148" style="stop-color:#060808"/>
			<stop  offset="1" style="stop-color:#000000"/>
		</linearGradient>
		
			<path style="opacity:0.5;fill-rule:evenodd;clip-rule:evenodd;fill:url(#SVGID_00000129179620520463080250000002381150309937638821_);" d="
			M265.37,498.02c0,0,207.97,70.94,368.7,39.85c160.74-31.09,203.76-135.02,206.81-188.12l-29.48-22.21
			c0,0,0.68,106.65-101.14,171.05c-101.82,64.39-362.42,26.14-432.29-29.23L265.37,498.02z"/>
		<path class="st14" d="M288.2,623.64c2.33,12.81,31.29-5.1,52.95-48.54c21.66-43.43,25.85-132.94,14.55-140.74
			C344.41,426.56,272.07,534.92,288.2,623.64z"/>
		<path class="st14" d="M685.08,960.08c-4.53,5.09,12.18,11.24,37.04,6.17c24.86-5.07,63.07-32.18,62.64-39.35
			C784.35,919.73,716.42,924.85,685.08,960.08z"/>
		<path class="st14" d="M290.14,642.32c-15.04,2.81-14.66,32.11-5.06,44.68c9.6,12.57,21.78,6.6,22.54-19.09
			C308.09,652.08,302.56,639.99,290.14,642.32z"/>
		<path class="st15" d="M884.19,855.4c0,0,62.77-81.19,76.41-182.84C960.6,672.56,967.74,769.4,884.19,855.4z"/>
		
			<radialGradient id="SVGID_00000162332916678356530320000004843426695822025644_" cx="825.1099" cy="348.0637" r="112.5115" gradientUnits="userSpaceOnUse">
			<stop  offset="0.7741" style="stop-color:#000000"/>
			<stop  offset="0.7867" style="stop-color:#060106"/>
			<stop  offset="0.8034" style="stop-color:#170416"/>
			<stop  offset="0.8224" style="stop-color:#320A31"/>
			<stop  offset="0.843" style="stop-color:#581157"/>
			<stop  offset="0.865" style="stop-color:#8A1B88"/>
			<stop  offset="0.8878" style="stop-color:#C527C2"/>
			<stop  offset="0.9078" style="stop-color:#FF32FC"/>
			<stop  offset="0.9188" style="stop-color:#FB33FB"/>
			<stop  offset="0.9303" style="stop-color:#EE38F7"/>
			<stop  offset="0.942" style="stop-color:#D93FF0"/>
			<stop  offset="0.954" style="stop-color:#BC49E7"/>
			<stop  offset="0.966" style="stop-color:#9657DB"/>
			<stop  offset="0.9781" style="stop-color:#6867CC"/>
			<stop  offset="0.9902" style="stop-color:#327ABB"/>
			<stop  offset="1" style="stop-color:#008BAB"/>
		</radialGradient>
		
			<path style="opacity:0.92;fill-rule:evenodd;clip-rule:evenodd;fill:url(#SVGID_00000162332916678356530320000004843426695822025644_);" d="
			M710.26,279.83c0,0,95.05-76.92,173.92-22.29c88.46,61.27,45.19,200.65,45.19,200.65S746.69,362.16,710.26,279.83z"/>
		
			<radialGradient id="SVGID_00000075885444431164491670000007138852593914259622_" cx="485.4309" cy="948.2604" r="106.9802" gradientUnits="userSpaceOnUse">
			<stop  offset="0.7741" style="stop-color:#000000"/>
			<stop  offset="0.7867" style="stop-color:#060106"/>
			<stop  offset="0.8034" style="stop-color:#170416"/>
			<stop  offset="0.8224" style="stop-color:#320A31"/>
			<stop  offset="0.843" style="stop-color:#581157"/>
			<stop  offset="0.865" style="stop-color:#8A1B88"/>
			<stop  offset="0.8878" style="stop-color:#C527C2"/>
			<stop  offset="0.9078" style="stop-color:#FF32FC"/>
			<stop  offset="0.9188" style="stop-color:#FB33FB"/>
			<stop  offset="0.9303" style="stop-color:#EE38F7"/>
			<stop  offset="0.942" style="stop-color:#D93FF0"/>
			<stop  offset="0.954" style="stop-color:#BC49E7"/>
			<stop  offset="0.966" style="stop-color:#9657DB"/>
			<stop  offset="0.9781" style="stop-color:#6867CC"/>
			<stop  offset="0.9902" style="stop-color:#327ABB"/>
			<stop  offset="1" style="stop-color:#008BAB"/>
		</radialGradient>
		
			<path style="opacity:0.92;fill-rule:evenodd;clip-rule:evenodd;fill:url(#SVGID_00000075885444431164491670000007138852593914259622_);" d="
			M361.79,903.15c0,0,11.95,107.57,92.81,146.68c75.44,36.49,143.15-52.9,143.15-52.9S581.53,854.15,361.79,903.15z"/>
		
			<linearGradient id="SVGID_00000029750432173077927960000002695977112823857547_" gradientUnits="userSpaceOnUse" x1="767.4775" y1="235.4063" x2="897.4379" y2="358.5459">
			<stop  offset="0.0168" style="stop-color:#54FFE8"/>
			<stop  offset="0.2139" style="stop-color:#3EBBAA"/>
			<stop  offset="0.4253" style="stop-color:#28796E"/>
			<stop  offset="0.6174" style="stop-color:#17453F"/>
			<stop  offset="0.7832" style="stop-color:#0A1F1D"/>
			<stop  offset="0.9163" style="stop-color:#030808"/>
			<stop  offset="1" style="stop-color:#000000"/>
		</linearGradient>
		<path style="fill-rule:evenodd;clip-rule:evenodd;fill:url(#SVGID_00000029750432173077927960000002695977112823857547_);" d="
			M728.41,276.64c15.2,19.49,64.58,24.56,125.53,30.93c60.95,6.37,69.39,23.65,69.39,23.65s-19.36-71.86-78.49-83.69
			C785.72,235.7,728.41,276.64,728.41,276.64z"/>
		
			<linearGradient id="SVGID_00000167366354486323562880000007021038654216502931_" gradientUnits="userSpaceOnUse" x1="395.4753" y1="882.1754" x2="545.8299" y2="1024.6387">
			<stop  offset="0.0168" style="stop-color:#54FFE8"/>
			<stop  offset="0.2139" style="stop-color:#3EBBAA"/>
			<stop  offset="0.4253" style="stop-color:#28796E"/>
			<stop  offset="0.6174" style="stop-color:#17453F"/>
			<stop  offset="0.7832" style="stop-color:#0A1F1D"/>
			<stop  offset="0.9163" style="stop-color:#030808"/>
			<stop  offset="1" style="stop-color:#000000"/>
		</linearGradient>
		<path style="fill-rule:evenodd;clip-rule:evenodd;fill:url(#SVGID_00000167366354486323562880000007021038654216502931_);" d="
			M368.51,910.63c0,0,9.69,65.52,36.07,77.34c26.38,11.83,42.07-48.67,107.34-50.03c36.42-0.76,76.41,41.84,76.41,41.84
			S549.19,863.33,368.51,910.63z"/>
		<path class="st15" d="M469.98,1046.19c0,0,42.42,6.3,83.15-19.1C553.13,1027.09,526.38,1073.19,469.98,1046.19z"/>
		<path class="st15" d="M919.06,433.97c0,0,14.38-35.95,9.48-83.19C928.53,350.78,953.92,402.09,919.06,433.97z"/>
		<path class="st14" d="M731.47,274.59c-6.67,5.88,43.78,4.73,59.7-5.93c15.92-10.66,22.33-16.77,18.19-23.27
			C805.23,238.89,755.46,253.44,731.47,274.59z"/>
		<path class="st14" d="M815.24,246c-0.62-3.95,14.71-2.87,14.42,0.93C829.37,250.73,816.41,253.39,815.24,246z"/>
		<path class="st14" d="M374.68,924.24c-9.95-2.94,4.65,44.61,25.93,60.56C400.61,984.8,403.71,932.8,374.68,924.24z"/>
		<g>
			
				<radialGradient id="SVGID_00000065041173190016225610000016869955695490464146_" cx="1095.4642" cy="617.8773" r="50.731" gradientTransform="matrix(0.8162 -0.1748 0.2094 0.9778 -56.1488 92.6362)" gradientUnits="userSpaceOnUse">
				<stop  offset="0.7741" style="stop-color:#000000"/>
				<stop  offset="0.7867" style="stop-color:#060106"/>
				<stop  offset="0.8034" style="stop-color:#170416"/>
				<stop  offset="0.8224" style="stop-color:#320A31"/>
				<stop  offset="0.843" style="stop-color:#581157"/>
				<stop  offset="0.865" style="stop-color:#8A1B88"/>
				<stop  offset="0.8878" style="stop-color:#C527C2"/>
				<stop  offset="0.9078" style="stop-color:#FF32FC"/>
				<stop  offset="0.9188" style="stop-color:#FB33FB"/>
				<stop  offset="0.9303" style="stop-color:#EE38F7"/>
				<stop  offset="0.942" style="stop-color:#D93FF0"/>
				<stop  offset="0.954" style="stop-color:#BC49E7"/>
				<stop  offset="0.966" style="stop-color:#9657DB"/>
				<stop  offset="0.9781" style="stop-color:#6867CC"/>
				<stop  offset="0.9902" style="stop-color:#327ABB"/>
				<stop  offset="1" style="stop-color:#008BAB"/>
			</radialGradient>
			
				<path style="opacity:0.92;fill-rule:evenodd;clip-rule:evenodd;fill:url(#SVGID_00000065041173190016225610000016869955695490464146_);" d="
				M923.75,462.82c0,0,46.32-27.21,70.2,4.88c33.94,45.6-25.98,93.31-25.98,93.31S918.3,529.97,923.75,462.82z"/>
			
				<linearGradient id="SVGID_00000010311458590377987970000010275903774760925059_" gradientUnits="userSpaceOnUse" x1="937.591" y1="450.9953" x2="997.6617" y2="507.9132">
				<stop  offset="0.0168" style="stop-color:#54FFE8"/>
				<stop  offset="0.2139" style="stop-color:#3EBBAA"/>
				<stop  offset="0.4253" style="stop-color:#28796E"/>
				<stop  offset="0.6174" style="stop-color:#17453F"/>
				<stop  offset="0.7832" style="stop-color:#0A1F1D"/>
				<stop  offset="0.9163" style="stop-color:#030808"/>
				<stop  offset="1" style="stop-color:#000000"/>
			</linearGradient>
			<path style="fill-rule:evenodd;clip-rule:evenodd;fill:url(#SVGID_00000010311458590377987970000010275903774760925059_);" d="
				M927.88,463.12c-18.32,5.48,34.57,16.37,52.76,25.47c18.19,9.1,16.37,20.01,16.37,20.01S1007.02,439.47,927.88,463.12z"/>
			<path class="st15" d="M963.85,550.85c0,0,16.29-7.6,28.13-33.84C991.98,517.01,996.44,545.13,963.85,550.85z"/>
			<path class="st14" d="M935.18,464.09c-4.88,6.28,22.95,5.31,25.41-1.22C963.05,456.34,941.05,456.54,935.18,464.09z"/>
			<path class="st14" d="M923.33,478.72c0,0,0.46,42.89,26.38,67.03C949.72,545.75,927.31,504.69,923.33,478.72z"/>
			<path class="st14" d="M954.63,550.85c0,0,6.06,9.18,11.03,8.54C965.65,559.4,959.4,549.39,954.63,550.85z"/>
		</g>
		<g>
			
				<radialGradient id="SVGID_00000015345027340017896710000005651548436961017787_" cx="908.2573" cy="726.2167" r="26.4451" gradientTransform="matrix(0.3385 -0.763 0.9141 0.4055 -291.8994 668.1712)" gradientUnits="userSpaceOnUse">
				<stop  offset="0.4247" style="stop-color:#000000"/>
				<stop  offset="0.4943" style="stop-color:#000506"/>
				<stop  offset="0.5864" style="stop-color:#001217"/>
				<stop  offset="0.691" style="stop-color:#002932"/>
				<stop  offset="0.8048" style="stop-color:#004858"/>
				<stop  offset="0.9248" style="stop-color:#006F89"/>
				<stop  offset="1" style="stop-color:#008BAB"/>
			</radialGradient>
			
				<path style="opacity:0.92;fill-rule:evenodd;clip-rule:evenodd;fill:url(#SVGID_00000015345027340017896710000005651548436961017787_);" d="
				M649.34,268.65c0,0,12.82-22.99,31.63-23.2c26.73-0.3,28.32,35.69,28.32,35.69S680.88,292.11,649.34,268.65z"/>
			
				<linearGradient id="SVGID_00000029028993057765929990000010269830567811919016_" gradientUnits="userSpaceOnUse" x1="815.8827" y1="491.6975" x2="844.1368" y2="518.4687" gradientTransform="matrix(0.7941 -0.6078 0.6078 0.7941 -288.6887 360.2495)">
				<stop  offset="0.0168" style="stop-color:#54FFE8"/>
				<stop  offset="0.2139" style="stop-color:#3EBBAA"/>
				<stop  offset="0.4253" style="stop-color:#28796E"/>
				<stop  offset="0.6174" style="stop-color:#17453F"/>
				<stop  offset="0.7832" style="stop-color:#0A1F1D"/>
				<stop  offset="0.9163" style="stop-color:#030808"/>
				<stop  offset="1" style="stop-color:#000000"/>
			</linearGradient>
			<path style="fill-rule:evenodd;clip-rule:evenodd;fill:url(#SVGID_00000029028993057765929990000010269830567811919016_);" d="
				M657.9,262.12c-5.28,7.28,17.59-3.77,26.99-5.57c9.4-1.8,11.84,2.79,11.84,2.79S680.69,230.66,657.9,262.12z"/>
			<path class="st15" d="M704.29,279.9c0,0,1.61-8.3-5.1-20.06C699.19,259.84,711.12,265.92,704.29,279.9z"/>
			<path class="st14" d="M660.9,260.39c-0.03,3.74,10.09-4.58,9.14-7.72C669.1,249.53,660.94,255.89,660.9,260.39z"/>
			<path class="st14" d="M660.64,275.75c0,0,21.44,11.31,37.8,8.12C698.44,283.87,671.62,281.42,660.64,275.75z"/>
			<path class="st14" d="M701.74,283.41c0,0,5.17,0.23,6.3-1.83C708.04,281.58,702.5,281.19,701.74,283.41z"/>
		</g>
		<path class="st14" d="M722.26,300.64c0,0,14.41,3.29,18.66,23.3C740.92,323.94,726.11,319.64,722.26,300.64z"/>
		<path class="st14" d="M361.79,903.15c0,0,18.52-6.16,49.76-10.24c31.23-4.08,48.87,0,48.87,0S391.78,898.37,361.79,903.15z"/>
		<path class="st14" d="M533.17,911.37c0,0,39.08,30.42,52.59,51.09C585.77,962.46,581.72,935.73,533.17,911.37z"/>
		<path class="st14" d="M456.7,306.77c0,0,10.62-13.13,32.31-18.91c17.53-4.68,27.38-3.91,30.82-4.32
			C519.83,283.54,482.76,309.24,456.7,306.77z"/>
		<path class="st14" d="M469.98,894.02c0,0,12.32-5.42,16.7,2.24C486.68,896.25,473.29,900.57,469.98,894.02z"/>
		<path class="st15" d="M559.47,1023.91c0,0,0.11-9.88,16.35-15.01C575.82,1008.9,577.23,1021.86,559.47,1023.91z"/>
	</g>
	<g>
		
			<radialGradient id="SVGID_00000120537143146677977750000018359243963819410872_" cx="279.9245" cy="270.3243" r="92.6309" gradientUnits="userSpaceOnUse">
			<stop  offset="0.7741" style="stop-color:#000000"/>
			<stop  offset="0.7863" style="stop-color:#000506"/>
			<stop  offset="0.8024" style="stop-color:#001217"/>
			<stop  offset="0.8207" style="stop-color:#002932"/>
			<stop  offset="0.8406" style="stop-color:#004858"/>
			<stop  offset="0.8616" style="stop-color:#006F89"/>
			<stop  offset="0.8748" style="stop-color:#008BAB"/>
			<stop  offset="0.9828" style="stop-color:#FF32FC"/>
		</radialGradient>
		
			<circle style="opacity:0.92;fill-rule:evenodd;clip-rule:evenodd;fill:url(#SVGID_00000120537143146677977750000018359243963819410872_);" cx="287.14" cy="276.77" r="86.59"/>
		
			<linearGradient id="SVGID_00000105406570739280114930000004194926351576454803_" gradientUnits="userSpaceOnUse" x1="206.4023" y1="240.857" x2="354.5899" y2="240.857">
			<stop  offset="0.0168" style="stop-color:#54FFE8"/>
			<stop  offset="0.2139" style="stop-color:#3EBBAA"/>
			<stop  offset="0.4253" style="stop-color:#28796E"/>
			<stop  offset="0.6174" style="stop-color:#17453F"/>
			<stop  offset="0.7832" style="stop-color:#0A1F1D"/>
			<stop  offset="0.9163" style="stop-color:#030808"/>
			<stop  offset="1" style="stop-color:#000000"/>
		</linearGradient>
		<path style="fill-rule:evenodd;clip-rule:evenodd;fill:url(#SVGID_00000105406570739280114930000004194926351576454803_);" d="
			M207,278.11c0,0,14.6,24.79,60.51-8.24c45.91-33.03,67.06-50.77,87.08-42.13c0,0-44.12-51.39-101.2-26.04
			C197.59,226.48,207,278.11,207,278.11z"/>
		<path class="st15" d="M317.52,350.78c0,0,39.57-19,47.76-61.01C365.28,289.77,373.46,337.82,317.52,350.78z"/>
		<path class="st14" d="M206.87,259.84c0,0,5.14-40.06,44.93-53.93C251.8,205.91,234.71,260.33,206.87,259.84z"/>
		<path class="st14" d="M253.45,203.99c-4.17-2.13,13.29-8.29,23.04-7.81C276.48,196.18,259.26,206.96,253.45,203.99z"/>
		<path class="st14" d="M276.59,357.59c0,0,20.47-16.37,40.93-6.82C317.52,350.78,304.56,363.36,276.59,357.59z"/>
	</g>
	<g>
		
			<radialGradient id="SVGID_00000127750141593603975210000014515825321958594746_" cx="781.4124" cy="1029.2096" r="43.1365" gradientUnits="userSpaceOnUse">
			<stop  offset="0.7741" style="stop-color:#000000"/>
			<stop  offset="0.7863" style="stop-color:#000506"/>
			<stop  offset="0.8024" style="stop-color:#001217"/>
			<stop  offset="0.8207" style="stop-color:#002932"/>
			<stop  offset="0.8406" style="stop-color:#004858"/>
			<stop  offset="0.8616" style="stop-color:#006F89"/>
			<stop  offset="0.8748" style="stop-color:#008BAB"/>
			<stop  offset="0.9828" style="stop-color:#FF32FC"/>
		</radialGradient>
		
			<path style="opacity:0.92;fill-rule:evenodd;clip-rule:evenodd;fill:url(#SVGID_00000127750141593603975210000014515825321958594746_);" d="
			M825.1,1032.21c0,22.27-18.05,40.33-40.33,40.33c-22.27,0-40.33-18.05-40.33-40.33c0-22.27,18.05-40.33,40.33-40.33
			C807.05,991.89,825.1,1009.94,825.1,1032.21z"/>
		
			<linearGradient id="SVGID_00000048486987060642879010000004781348692790408892_" gradientUnits="userSpaceOnUse" x1="747.1743" y1="1015.4873" x2="816.1823" y2="1015.4873">
			<stop  offset="0.0168" style="stop-color:#54FFE8"/>
			<stop  offset="0.2139" style="stop-color:#3EBBAA"/>
			<stop  offset="0.4253" style="stop-color:#28796E"/>
			<stop  offset="0.6174" style="stop-color:#17453F"/>
			<stop  offset="0.7832" style="stop-color:#0A1F1D"/>
			<stop  offset="0.9163" style="stop-color:#030808"/>
			<stop  offset="1" style="stop-color:#000000"/>
		</linearGradient>
		<path style="fill-rule:evenodd;clip-rule:evenodd;fill:url(#SVGID_00000048486987060642879010000004781348692790408892_);" d="
			M747.45,1032.84c0,0,6.8,11.55,28.18-3.84c21.38-15.38,31.23-23.64,40.55-19.62c0,0-20.54-23.93-47.13-12.13
			C743.07,1008.79,747.45,1032.84,747.45,1032.84z"/>
		<path class="st15" d="M798.92,1066.68c0,0,18.43-8.85,22.24-28.41C821.16,1038.26,824.97,1060.64,798.92,1066.68z"/>
		<path class="st14" d="M747.39,1024.33c0,0,2.39-18.65,20.92-25.11C768.32,999.21,760.35,1024.56,747.39,1024.33z"/>
		<path class="st14" d="M769.08,998.32c-1.94-0.99,6.19-3.86,10.73-3.64C779.81,994.68,771.79,999.7,769.08,998.32z"/>
		<path class="st14" d="M779.86,1069.85c0,0,9.53-7.63,19.06-3.17C798.92,1066.68,792.88,1072.54,779.86,1069.85z"/>
	</g>
</g>
</svg>
