<?xml version="1.0" encoding="utf-8"?>
<!-- Generator: Adobe Illustrator 26.4.1, SVG Export Plug-In . SVG Version: 6.00 Build 0)  -->
<svg version="1.1" id="Слой_1" xmlns="http://www.w3.org/2000/svg" xmlns:xlink="http://www.w3.org/1999/xlink" x="0px" y="0px"
	 viewBox="0 0 1200 1200" style="enable-background:new 0 0 1200 1200;" xml:space="preserve">
<style type="text/css">
	.st0{fill:#020202;}
	.st1{fill-rule:evenodd;clip-rule:evenodd;fill:url(#SVGID_1_);}
	.st2{fill-rule:evenodd;clip-rule:evenodd;fill:url(#SVGID_00000056403985330885641320000014253930702850084510_);}
	.st3{fill-rule:evenodd;clip-rule:evenodd;fill:url(#SVGID_00000049196518757285778590000015067923239325423016_);}
	.st4{fill-rule:evenodd;clip-rule:evenodd;fill:url(#SVGID_00000147205841549570839670000001760694243269068425_);}
	.st5{fill-rule:evenodd;clip-rule:evenodd;fill:url(#SVGID_00000010283925154188124760000014922848990401651629_);}
	.st6{fill-rule:evenodd;clip-rule:evenodd;fill:url(#SVGID_00000020373665129637688610000012312842811317506193_);}
	.st7{opacity:0.71;fill-rule:evenodd;clip-rule:evenodd;fill:url(#SVGID_00000090272481921595341870000013133385564441373617_);}
	.st8{fill-rule:evenodd;clip-rule:evenodd;fill:url(#SVGID_00000060713097287153916290000001079525207323138690_);}
	.st9{fill-rule:evenodd;clip-rule:evenodd;fill:url(#SVGID_00000052095196527903683560000003379108567356257979_);}
	.st10{fill-rule:evenodd;clip-rule:evenodd;fill:url(#SVGID_00000171716861741159662490000003674691129176990593_);}
	.st11{fill-rule:evenodd;clip-rule:evenodd;fill:url(#SVGID_00000155127612232376406460000003614144198849193353_);}
	.st12{opacity:0.71;fill-rule:evenodd;clip-rule:evenodd;fill:url(#SVGID_00000053507275067112656920000008674482031906317954_);}
	.st13{opacity:0.71;fill-rule:evenodd;clip-rule:evenodd;fill:url(#SVGID_00000165923581909549087520000013565827926792101001_);}
	.st14{opacity:0.71;fill-rule:evenodd;clip-rule:evenodd;fill:url(#SVGID_00000098908702709741799300000008877470069747519150_);}
	.st15{opacity:0.71;fill-rule:evenodd;clip-rule:evenodd;fill:url(#SVGID_00000159471935575624746870000015222624504081458582_);}
	.st16{opacity:0.71;fill-rule:evenodd;clip-rule:evenodd;fill:url(#SVGID_00000002362513190977591710000004314615995162175108_);}
	.st17{fill-rule:evenodd;clip-rule:evenodd;fill:url(#SVGID_00000059989796654965592040000010547956732789649828_);}
	.st18{fill-rule:evenodd;clip-rule:evenodd;fill:url(#SVGID_00000027606861454696946340000005788264749476795830_);}
	.st19{fill-rule:evenodd;clip-rule:evenodd;fill:url(#SVGID_00000065032002602353296370000003975333425890134689_);}
	.st20{fill-rule:evenodd;clip-rule:evenodd;fill:url(#SVGID_00000154405367899840798140000003829904204200806542_);}
	.st21{fill-rule:evenodd;clip-rule:evenodd;fill:#D1DEFF;}
	.st22{fill-rule:evenodd;clip-rule:evenodd;fill:url(#SVGID_00000059269859323990628090000012376003863491313045_);}
	.st23{fill-rule:evenodd;clip-rule:evenodd;fill:url(#SVGID_00000041260490586952685010000011127832046663727021_);}
	.st24{fill-rule:evenodd;clip-rule:evenodd;fill:url(#SVGID_00000039828490143571016440000017112797949669583265_);}
	.st25{fill-rule:evenodd;clip-rule:evenodd;fill:url(#SVGID_00000183965121263214986200000018236145288091267254_);}
	.st26{fill-rule:evenodd;clip-rule:evenodd;fill:url(#SVGID_00000137826827843689880420000015515602166189107104_);}
	.st27{opacity:0.5;fill-rule:evenodd;clip-rule:evenodd;fill:url(#SVGID_00000098184727920941286430000005455859238168869310_);}
	.st28{fill-rule:evenodd;clip-rule:evenodd;fill:#FFC445;}
	.st29{fill-rule:evenodd;clip-rule:evenodd;fill:#FF8800;}
	.st30{fill-rule:evenodd;clip-rule:evenodd;fill:url(#SVGID_00000031209318712516959410000005231416546925560192_);}
</style>
<g>
	<rect x="0.5" y="0.5" class="st0" width="1202" height="1202"/>
	<path d="M1202,1v1201H1V1H1202 M1203,0H0v1203h1203V0L1203,0z"/>
</g>
<g>
	<radialGradient id="SVGID_1_" cx="574.6299" cy="584.9688" r="463.2407" gradientUnits="userSpaceOnUse">
		<stop  offset="5.586590e-03" style="stop-color:#009BFF"/>
		<stop  offset="1" style="stop-color:#000000"/>
	</radialGradient>
	<circle class="st1" cx="574.63" cy="584.97" r="463.24"/>
	
		<radialGradient id="SVGID_00000026137875831152673300000003425894529891597713_" cx="535.1221" cy="577.8157" r="387.7458" gradientUnits="userSpaceOnUse">
		<stop  offset="5.586590e-03" style="stop-color:#009BFF"/>
		<stop  offset="1" style="stop-color:#000000"/>
	</radialGradient>
	
		<circle style="fill-rule:evenodd;clip-rule:evenodd;fill:url(#SVGID_00000026137875831152673300000003425894529891597713_);" cx="535.12" cy="577.82" r="387.75"/>
	
		<radialGradient id="SVGID_00000005241164301469826740000018386636987344151689_" cx="574.6302" cy="584.9688" r="394.6189" gradientUnits="userSpaceOnUse">
		<stop  offset="5.586590e-03" style="stop-color:#0092FF"/>
		<stop  offset="0.1307" style="stop-color:#0090FB"/>
		<stop  offset="0.2556" style="stop-color:#0089EF"/>
		<stop  offset="0.3804" style="stop-color:#007DDB"/>
		<stop  offset="0.5054" style="stop-color:#006DBF"/>
		<stop  offset="0.6304" style="stop-color:#00599B"/>
		<stop  offset="0.7555" style="stop-color:#003F6E"/>
		<stop  offset="0.8783" style="stop-color:#00223B"/>
		<stop  offset="1" style="stop-color:#000000"/>
	</radialGradient>
	
		<circle style="fill-rule:evenodd;clip-rule:evenodd;fill:url(#SVGID_00000005241164301469826740000018386636987344151689_);" cx="574.63" cy="584.97" r="394.62"/>
	
		<radialGradient id="SVGID_00000157270743317831519710000015193901403471830193_" cx="391.9009" cy="443.0792" r="624.4548" gradientUnits="userSpaceOnUse">
		<stop  offset="0" style="stop-color:#4F8CFF"/>
		<stop  offset="0.1474" style="stop-color:#4A85F8"/>
		<stop  offset="0.3608" style="stop-color:#3E72E6"/>
		<stop  offset="0.6142" style="stop-color:#2952C8"/>
		<stop  offset="0.8961" style="stop-color:#0C279F"/>
		<stop  offset="1" style="stop-color:#00158E"/>
	</radialGradient>
	<path style="fill-rule:evenodd;clip-rule:evenodd;fill:url(#SVGID_00000157270743317831519710000015193901403471830193_);" d="
		M923.01,424.66c0,0-113.67-124.92-265.06-172.82c0,0-271.47,47.24-335.88,156.36c-64.41,109.11-100.96,302.81,0,421.77
		c100.96,118.96,213.9,157.2,353.26,133.82c139.36-23.39,175.14-73.58,175.14-73.58s7.54-65.63,67.08-77.4
		C917.54,812.81,1000.21,573.77,923.01,424.66z"/>
	
		<radialGradient id="SVGID_00000017481637584984910430000013496857722447958940_" cx="412.3293" cy="464.9396" r="565.03" gradientUnits="userSpaceOnUse">
		<stop  offset="5.586590e-03" style="stop-color:#FF7263"/>
		<stop  offset="0.2092" style="stop-color:#FC6F63"/>
		<stop  offset="0.3674" style="stop-color:#F46562"/>
		<stop  offset="0.5102" style="stop-color:#E55560"/>
		<stop  offset="0.6441" style="stop-color:#D03D5D"/>
		<stop  offset="0.7704" style="stop-color:#B6205A"/>
		<stop  offset="0.8771" style="stop-color:#9A0057"/>
		<stop  offset="0.986" style="stop-color:#9A00AE"/>
	</radialGradient>
	<path style="fill-rule:evenodd;clip-rule:evenodd;fill:url(#SVGID_00000017481637584984910430000013496857722447958940_);" d="
		M929.98,614.51c0,30.68-4.32,60.42-12.46,88.5c-16.2,56.46-47.6,106.51-89.51,145.47c-29.96,27.94-65.32,50.19-104.27,64.96
		c-35.29,13.39-73.45,20.67-113.49,20.67c-5.62,0-11.38-0.07-16.99-0.43h-0.07c-8.35-0.43-16.63-1.22-24.84-2.23
		c-61.71-8.07-117.81-33.77-163.25-71.94c-17.07-14.26-32.62-30.32-46.3-47.82c-10.37-13.18-19.8-27.15-28.01-41.91
		c-1.94-3.53-3.82-7.13-5.76-10.66c0-0.14,0-0.22-0.07-0.36c-2.02-3.82-3.82-7.71-5.54-11.59c-0.07,0-0.07,0-0.07,0
		c-5.54-12.24-10.44-24.84-14.33-37.81c-2.95-9.29-5.47-18.87-7.49-28.59c-0.07-0.07-0.07-0.22-0.07-0.29
		c-1.37-6.84-2.59-13.68-3.53-20.67c-2.16-14.83-3.24-29.96-3.24-45.3c0-8.86,0.29-17.72,1.08-26.36c0.43-5.54,1.08-10.95,1.8-16.42
		c4.1-31.47,12.89-61.43,25.56-89.3c6.19-13.68,13.39-26.86,21.39-39.46c13.39-21.1,29.17-40.4,46.95-57.68
		c57.61-56.03,136.18-90.52,222.81-90.52c3.39,0,6.77,0.07,10.08,0.14c3.6,0.14,7.13,0.29,10.73,0.5c3.6,0.22,7.2,0.5,10.73,0.94
		c14.62,1.44,28.95,3.82,42.92,7.2c10.08,2.45,20.02,5.26,29.74,8.64c6.63,2.23,13.11,4.68,19.51,7.42
		c4.75,2.02,9.43,4.1,14.12,6.34c0.79,0.36,1.58,0.72,2.45,1.15c6.41,3.1,12.67,6.48,18.8,10.01c23.69,13.54,45.37,30.1,64.81,49.11
		c3.46,3.38,6.84,6.84,10.23,10.44c2.23,2.45,4.46,4.9,6.63,7.42c3.67,4.18,7.27,8.57,10.8,12.96
		c12.75,16.2,23.91,33.63,33.34,52.07c10.95,21.46,19.59,44.36,25.49,68.34C926.74,562.16,929.98,587.86,929.98,614.51z"/>
	
		<radialGradient id="SVGID_00000102536924949409797720000003467773562870893972_" cx="758.3702" cy="499.0922" r="212.2205" gradientUnits="userSpaceOnUse">
		<stop  offset="0" style="stop-color:#0088E8"/>
		<stop  offset="0.1931" style="stop-color:#1696EE"/>
		<stop  offset="0.525" style="stop-color:#35AAF7"/>
		<stop  offset="0.8058" style="stop-color:#48B7FD"/>
		<stop  offset="1" style="stop-color:#4FBBFF"/>
	</radialGradient>
	<path style="fill-rule:evenodd;clip-rule:evenodd;fill:url(#SVGID_00000102536924949409797720000003467773562870893972_);" d="
		M897.16,512.91C865.2,460.94,767.97,449,736.7,478.41c-27.9,26.25-2.5,105.54,26.45,155.91c0,0-87.82-129.48-29.86-181.48
		c57.96-51.99,176.49,14.49,200.76,55.4c24.27,40.91,15.79,118.69,0,146.29c-15.79,27.6-48.02,24.51-48.02,24.51
		S962.52,619.17,897.16,512.91z"/>
	
		<linearGradient id="SVGID_00000174569995089776634010000012923372955931236232_" gradientUnits="userSpaceOnUse" x1="306.0895" y1="476.6309" x2="444.05" y2="476.6309">
		<stop  offset="5.524860e-03" style="stop-color:#A131A4"/>
		<stop  offset="1" style="stop-color:#FFC0B3"/>
	</linearGradient>
	
		<path style="opacity:0.71;fill-rule:evenodd;clip-rule:evenodd;fill:url(#SVGID_00000174569995089776634010000012923372955931236232_);" d="
		M306.09,515.93c0,0,48.42-58.74,84.12-50.56c35.7,8.19,17.93,71.75,17.93,71.75l35.91-103.34c0,0-65.71-26.73-87.4-14.4
		C356.65,419.39,322.03,467.3,306.09,515.93z"/>
	
		<linearGradient id="SVGID_00000137115341697612670180000017817081651540993980_" gradientUnits="userSpaceOnUse" x1="589.4933" y1="970.0869" x2="589.4933" y2="865.1533">
		<stop  offset="0" style="stop-color:#4FBBFF"/>
		<stop  offset="0.1942" style="stop-color:#48B7FD"/>
		<stop  offset="0.475" style="stop-color:#35AAF7"/>
		<stop  offset="0.8069" style="stop-color:#1696EE"/>
		<stop  offset="1" style="stop-color:#0088E8"/>
	</linearGradient>
	<path style="fill-rule:evenodd;clip-rule:evenodd;fill:url(#SVGID_00000137115341697612670180000017817081651540993980_);" d="
		M455.36,865.98c0,0-9.01,12.88,0,32.14c9.01,19.26,48.68,49.13,137.72,55.46c96.5,6.85,146.78-52.08,147.46-63.04
		c0.68-10.96-29.82-20.74-29.82-20.74s34.2,1.2,42.24,20.87c8.04,19.68-57.17,88.08-165.85,78.49
		c-108.68-9.59-162.38-74.16-161.74-91.42C426.01,860.49,455.36,865.98,455.36,865.98z"/>
	
		<linearGradient id="SVGID_00000176011131027191353250000017293497611280890025_" gradientUnits="userSpaceOnUse" x1="334.0903" y1="599.382" x2="334.0903" y2="396.4056">
		<stop  offset="0" style="stop-color:#4FBBFF"/>
		<stop  offset="0.1942" style="stop-color:#48B7FD"/>
		<stop  offset="0.475" style="stop-color:#35AAF7"/>
		<stop  offset="0.8069" style="stop-color:#1696EE"/>
		<stop  offset="1" style="stop-color:#0088E8"/>
	</linearGradient>
	<path style="fill-rule:evenodd;clip-rule:evenodd;fill:url(#SVGID_00000176011131027191353250000017293497611280890025_);" d="
		M390.21,425.14c0,0-15.34-10.32-33.56-5.75c-24.47,6.13-54.98,60.09-58.17,101.97c-2.77,36.23,10.34,65.31,18.01,69.58
		c7.67,4.26,30.66,0,30.66,0s-21.19,15.34-51.5,4.69c-30.31-10.65-15.72-100.15,0-138.51c15.72-38.36,64.73-63.08,77.09-60.52
		C385.1,399.14,390.21,425.14,390.21,425.14z"/>
	
		<linearGradient id="SVGID_00000096748150266429811150000013361238046742722488_" gradientUnits="userSpaceOnUse" x1="609.7641" y1="727.0402" x2="706.8756" y2="727.0402">
		<stop  offset="0" style="stop-color:#0088E8"/>
		<stop  offset="0.032" style="stop-color:#0B8EE9"/>
		<stop  offset="0.2381" style="stop-color:#4FB0F0"/>
		<stop  offset="0.4336" style="stop-color:#87CCF5"/>
		<stop  offset="0.6128" style="stop-color:#B3E2F9"/>
		<stop  offset="0.7726" style="stop-color:#D3F2FC"/>
		<stop  offset="0.9071" style="stop-color:#E6FCFE"/>
		<stop  offset="1" style="stop-color:#EDFFFF"/>
	</linearGradient>
	<path style="fill-rule:evenodd;clip-rule:evenodd;fill:url(#SVGID_00000096748150266429811150000013361238046742722488_);" d="
		M703.88,698.33c-7.67-10.23-51.57-20.92-51.57-20.92l-22.39,24.76c-16.4,4.69-27.9,56.26-13.84,67.76
		c14.06,11.51,69.9,8.95,78.42-12.79C703.03,735.41,711.56,708.56,703.88,698.33z M636.55,756.72c-12.36-12.36-6.11-45.3,8.1-46.88
		c19.18-2.13,30.49,2.98,34.52,20.46C683.2,747.77,648.91,769.08,636.55,756.72z"/>
	
		<linearGradient id="SVGID_00000047055006516832258450000009251096066641468569_" gradientUnits="userSpaceOnUse" x1="647.605" y1="697.6998" x2="720.5173" y2="697.6998" gradientTransform="matrix(-0.6927 0.376 -0.4771 -0.8789 1186.8374 1161.9333)">
		<stop  offset="0" style="stop-color:#0088E8"/>
		<stop  offset="0.032" style="stop-color:#0B8EE9"/>
		<stop  offset="0.2381" style="stop-color:#4FB0F0"/>
		<stop  offset="0.4336" style="stop-color:#87CCF5"/>
		<stop  offset="0.6128" style="stop-color:#B3E2F9"/>
		<stop  offset="0.7726" style="stop-color:#D3F2FC"/>
		<stop  offset="0.9071" style="stop-color:#E6FCFE"/>
		<stop  offset="1" style="stop-color:#EDFFFF"/>
	</linearGradient>
	<path style="fill-rule:evenodd;clip-rule:evenodd;fill:url(#SVGID_00000047055006516832258450000009251096066641468569_);" d="
		M366.14,836.7c7.45,4.21,33.9-1.51,33.9-1.51l3.26-21.76c6.94-7.55-4.53-42.96-15.74-46.17c-11.21-3.21-39.38,14.15-36.46,30.11
		C354.03,813.34,358.69,832.49,366.14,836.7z M381.39,781.28c10.61,4.22,18.51,26.53,11.66,31.52c-9.25,6.74-16.86,6.75-24.88-3.01
		C360.16,800.03,370.78,777.06,381.39,781.28z"/>
	
		<linearGradient id="SVGID_00000040575281707013804730000014700213949693378729_" gradientUnits="userSpaceOnUse" x1="679.4933" y1="527.1243" x2="915.4293" y2="527.1243">
		<stop  offset="5.524860e-03" style="stop-color:#A131A4"/>
		<stop  offset="1" style="stop-color:#FFC0B3"/>
	</linearGradient>
	
		<path style="opacity:0.71;fill-rule:evenodd;clip-rule:evenodd;fill:url(#SVGID_00000040575281707013804730000014700213949693378729_);" d="
		M915.39,550.4c0,0-54.67-50.73-117.43-48.77c-62.77,1.96-71.04,71.11-46.89,109.46c24.15,38.34-71.57-29.85-71.57-29.85V433.78
		c0,0,116.07-11.42,177.76,16.46C918.94,478.11,915.39,550.4,915.39,550.4z"/>
	
		<linearGradient id="SVGID_00000055692167092138342170000001528208360682950823_" gradientUnits="userSpaceOnUse" x1="629.9013" y1="342.2277" x2="769.3187" y2="342.2277">
		<stop  offset="5.524860e-03" style="stop-color:#A131A4"/>
		<stop  offset="1" style="stop-color:#FFC0B3"/>
	</linearGradient>
	
		<path style="opacity:0.71;fill-rule:evenodd;clip-rule:evenodd;fill:url(#SVGID_00000055692167092138342170000001528208360682950823_);" d="
		M725.17,331.86c-8.79,12.31,3.67,56.24,3.67,56.24l-98.95-47.02l11.88-44.72c14.62,1.44,28.95,3.82,42.92,7.2
		c10.08,2.45,20.02,5.26,29.74,8.64c6.63,2.23,13.11,4.68,19.51,7.42c4.75,2.02,9.43,4.1,14.12,6.34c0.79,0.36,1.58,0.72,2.45,1.15
		c6.41,3.1,12.67,6.48,18.8,10.01C753.62,331.07,730.79,324.01,725.17,331.86z"/>
	
		<linearGradient id="SVGID_00000144328184037786959520000015202608477650084509_" gradientUnits="userSpaceOnUse" x1="287.4712" y1="645.6808" x2="368.1525" y2="645.6808">
		<stop  offset="5.524860e-03" style="stop-color:#A131A4"/>
		<stop  offset="1" style="stop-color:#FFC0B3"/>
	</linearGradient>
	
		<path style="opacity:0.71;fill-rule:evenodd;clip-rule:evenodd;fill:url(#SVGID_00000144328184037786959520000015202608477650084509_);" d="
		M294.58,664.67c0,0,11.53-14.02,31.96-8.15c20.43,5.87,24.98,26.32,24.98,26.32l16.63-59.45l-68.22-14.87l-12.46,11.81
		L294.58,664.67z"/>
	
		<linearGradient id="SVGID_00000137090644493117408010000007115162108105613456_" gradientUnits="userSpaceOnUse" x1="593.076" y1="710.6859" x2="701.7625" y2="710.6859">
		<stop  offset="5.524860e-03" style="stop-color:#A131A4"/>
		<stop  offset="1" style="stop-color:#FFFFFF"/>
	</linearGradient>
	
		<path style="opacity:0.71;fill-rule:evenodd;clip-rule:evenodd;fill:url(#SVGID_00000137090644493117408010000007115162108105613456_);" d="
		M624.74,742.37c0,0,4.62-15.28,33.2-15.33c28.59-0.05,24.38,18.89,24.38,18.89l19.44-36.55l-56.71-33.93l-51.98,22.12
		L624.74,742.37z"/>
	
		<linearGradient id="SVGID_00000106827744938534557000000000142236314539881092_" gradientUnits="userSpaceOnUse" x1="414.3143" y1="858.0852" x2="756.3412" y2="858.0852">
		<stop  offset="5.524860e-03" style="stop-color:#A131A4"/>
		<stop  offset="1" style="stop-color:#FFC0B3"/>
	</linearGradient>
	
		<path style="opacity:0.71;fill-rule:evenodd;clip-rule:evenodd;fill:url(#SVGID_00000106827744938534557000000000142236314539881092_);" d="
		M450.02,896.77c0,0,18.42-12.28,133.03-19.1c114.61-6.82,160.21,31.78,160.21,31.78l13.07-54.34l-228.55-48.39l-107.19,31.53
		l-6.29,28.73L450.02,896.77z"/>
	
		<linearGradient id="SVGID_00000053523418419836232800000011181138943242120870_" gradientUnits="userSpaceOnUse" x1="289.986" y1="742.3708" x2="289.986" y2="608.5217">
		<stop  offset="0" style="stop-color:#4FBBFF"/>
		<stop  offset="0.1942" style="stop-color:#48B7FD"/>
		<stop  offset="0.475" style="stop-color:#35AAF7"/>
		<stop  offset="0.8069" style="stop-color:#1696EE"/>
		<stop  offset="1" style="stop-color:#0088E8"/>
	</linearGradient>
	<path style="fill-rule:evenodd;clip-rule:evenodd;fill:url(#SVGID_00000053523418419836232800000011181138943242120870_);" d="
		M321.45,628.73c0,0-18.44-14.29-38.22,2.68c-18.83,16.16-18.75,61.8-5.26,86.94c11.61,21.64,45.58,9.73,45.58,9.73
		s-27.1,24.37-48.41,9.45c-21.31-14.92-25.57-97.6-6.82-121.04C287.07,593.06,321.45,628.73,321.45,628.73z"/>
	
		<radialGradient id="SVGID_00000012450187240136948860000012311040094061252742_" cx="164.8458" cy="-79.8862" r="1804.4282" gradientTransform="matrix(0.3718 0 0 0.3436 322.4945 470.8682)" gradientUnits="userSpaceOnUse">
		<stop  offset="5.586590e-03" style="stop-color:#B1FFFF"/>
		<stop  offset="0.2928" style="stop-color:#B1FDFF"/>
		<stop  offset="0.4362" style="stop-color:#AFF5FF"/>
		<stop  offset="0.5473" style="stop-color:#ACE8FF"/>
		<stop  offset="0.6173" style="stop-color:#A9DBFF"/>
		<stop  offset="0.6508" style="stop-color:#A2D7FE"/>
		<stop  offset="0.6994" style="stop-color:#8FCAFC"/>
		<stop  offset="0.757" style="stop-color:#6FB5F9"/>
		<stop  offset="0.8216" style="stop-color:#4399F4"/>
		<stop  offset="0.8913" style="stop-color:#0C75EE"/>
		<stop  offset="0.905" style="stop-color:#006DED"/>
	</radialGradient>
	<path style="fill-rule:evenodd;clip-rule:evenodd;fill:url(#SVGID_00000012450187240136948860000012311040094061252742_);" d="
		M965.32,526.35c-6.75-27.4-16.6-53.58-29.22-78.14c-4.05-8.03-8.44-15.86-13.09-23.55c-27.87,13.56-70.79,20.04-130.03-9.85
		c-79.49-40.08-118.43-117.95-135.03-162.96c-7.9-1.01-15.86-1.82-23.89-2.36c-4.12-0.27-8.23-0.47-12.28-0.61
		c-3.78-0.07-7.63-0.14-11.54-0.14c-99.13,0-189.01,39.41-254.87,103.51c-20.38,19.84-38.46,41.9-53.71,65.99
		c-9.18,14.44-17.41,29.49-24.5,45.14c-14.51,31.92-24.56,66.2-29.29,102.16c-0.81,6.28-1.48,12.48-1.96,18.83
		c-0.94,9.85-1.35,19.97-1.35,30.1c0,17.61,1.28,34.89,3.71,51.89c1.08,7.96,2.5,15.79,4.12,23.62c0,0.07,0,0.2,0.07,0.34
		c2.29,11.07,5.2,22.07,8.57,32.73c4.45,14.78,10.05,29.22,16.33,43.19c0,0,0,0,0.14,0c1.96,4.52,4.05,8.91,6.28,13.29
		c0.13,0.13,0.2,0.2,0.2,0.41c2.16,4.05,4.32,8.16,6.55,12.15c9.45,16.94,20.18,32.93,32.05,47.98
		c15.65,20.04,33.4,38.46,52.9,54.73c52.09,43.66,116.2,73.01,186.85,82.26c9.31,1.21,18.83,2.09,28.41,2.56h0.07
		c6.41,0.4,12.96,0.54,19.43,0.54c45.82,0,89.48-8.3,129.9-23.69c40.76-15.52,78.01-38.06,110.33-66.26
		c-16.53-35.56-2.9-104.32,22.67-105.4c12.55-0.54,31.04,11.4,44.4,28c19.23-29.69,34.21-62.28,44.2-97.04
		c9.31-32.12,14.31-66.13,14.31-101.29C976.04,584.05,972.33,554.56,965.32,526.35z M289.71,739.93
		c-45.14-10.93-31.99-124.03,0.88-125.45c21.73-0.94,60.93,35.43,60.93,68.36C351.52,715.77,307.25,744.18,289.71,739.93z
		 M638.02,764.08c-27.25-6.7-15.62-50.93,3.18-57.43c17.37-6,49.4,8.05,45.64,27.88C681.72,761.56,648.61,766.69,638.02,764.08z
		 M374.55,824.42c-16.78-3.76-23.62-37.91-12.04-41.54c10.7-3.36,32.02,18.25,29.71,29.37
		C389.07,827.39,381.07,825.88,374.55,824.42z M405.98,543.22c-15.05,39.14-91.03,64.44-102.84,51.08
		c-19.03-21.39-22.07-79.76-1.62-126.12c23.48-53.38,55-61.34,66.94-62.82C380.4,403.95,434.86,468.19,405.98,543.22z
		 M569.28,963.02c-98.66-6.55-162.22-85.43-125.78-94.34c132.93-32.46,314.25,0.81,309.46,22
		C745.47,923.61,679.74,970.37,569.28,963.02z M869.7,685.67c-104.39,33.13-189.69-188-136.98-222.28
		c54.52-35.56,149.89,1.23,177.88,38.87C934.05,533.82,974.09,652.47,869.7,685.67z"/>
	
		<radialGradient id="SVGID_00000142856864776969904180000008983685866133779095_" cx="473.3727" cy="518.1946" r="109.8812" gradientTransform="matrix(1.3688 -0.9513 0.8012 1.1529 -570.848 340.9893)" gradientUnits="userSpaceOnUse">
		<stop  offset="0" style="stop-color:#FF7700"/>
		<stop  offset="0.1732" style="stop-color:#C55C00"/>
		<stop  offset="0.3988" style="stop-color:#803C00"/>
		<stop  offset="0.6025" style="stop-color:#492200"/>
		<stop  offset="0.7769" style="stop-color:#210F00"/>
		<stop  offset="0.9151" style="stop-color:#090400"/>
		<stop  offset="1" style="stop-color:#000000"/>
	</radialGradient>
	<path style="fill-rule:evenodd;clip-rule:evenodd;fill:url(#SVGID_00000142856864776969904180000008983685866133779095_);" d="
		M642.69,383.57c48.62,69.97,20.7,173.48-62.36,231.21c-83.07,57.73-189.82,47.81-238.44-22.16
		c-48.62-69.97-20.7-173.48,62.36-231.21C487.31,303.68,594.06,313.61,642.69,383.57z"/>
	
		<radialGradient id="SVGID_00000102535068887535127150000000820951545614706578_" cx="708.3929" cy="303.6924" r="208.5497" gradientUnits="userSpaceOnUse">
		<stop  offset="0" style="stop-color:#0088E8"/>
		<stop  offset="0.1383" style="stop-color:#1C93ED"/>
		<stop  offset="0.4046" style="stop-color:#4BA6F4"/>
		<stop  offset="0.6397" style="stop-color:#6EB4FA"/>
		<stop  offset="0.8324" style="stop-color:#83BCFE"/>
		<stop  offset="0.9586" style="stop-color:#8BBFFF"/>
	</radialGradient>
	<path style="fill-rule:evenodd;clip-rule:evenodd;fill:url(#SVGID_00000102535068887535127150000000820951545614706578_);" d="
		M758.57,296.4c0,0-71.34-33.73-81.97-29.16c-10.62,4.57,25.34,99.55,103.56,138.1c83.73,41.27,130.41,12.77,130.41,12.77
		l-17.37-22.78c0,0,26.21,23.28,29.79,29.34c0,0-45.13,55.46-152.42-9.84c-112.64-68.55-112.64-162.98-112.64-162.98
		S700.61,259.51,758.57,296.4z"/>
	<g>
		<path class="st21" d="M423.55,340.48c-1.46,1.21-4.64,3.48-2.12,5.25c0.68,0.48,1.28,0.23,2,0.43c0.56,0.16,0.7,0.6,1.36,0.35
			c2.05-0.78,1.23-6.6-1.08-5.43L423.55,340.48z"/>
		<path class="st21" d="M347.07,617.28c-1.46,1.21-4.64,3.48-2.12,5.25c0.68,0.48,1.28,0.23,2,0.43c0.56,0.16,0.7,0.6,1.36,0.35
			c2.05-0.78,1.23-6.6-1.08-5.43L347.07,617.28z"/>
		<path class="st21" d="M434.13,361.63c0.93-0.52,1.89-0.79,2.87-0.81c0.22,1.26,1.38,3.73-0.42,4.71c-1.51,0.82-1.05-1.88-1.77-2.5
			L434.13,361.63z"/>
		<path class="st21" d="M454.77,362.22c1.93,0.76,3.84,1.56,5.73,2.39c0.61-0.54,1.54-0.44,2.26-0.92c0.93-0.62,1.76-1.91,2.12-2.99
			c0.54-1.63-0.29-2.97-1.04-4.21c-0.5-0.83-0.98-2.06-1.74-2.62c-0.89-0.66-2.63-0.4-3.56,0.04c-1.15,0.55-1.99,1.73-2.76,2.78
			c-0.72,0.99-1.56,2.63-1.59,3.87c-0.04,1.34,1.03,2.75,2.01,3.43L454.77,362.22z"/>
		<path class="st21" d="M472.13,756.87c1.93,0.76,3.84,1.56,5.73,2.39c0.61-0.54,1.54-0.44,2.26-0.92c0.93-0.62,1.76-1.91,2.12-2.99
			c0.54-1.63-0.29-2.97-1.04-4.21c-0.5-0.83-0.98-2.06-1.74-2.62c-0.89-0.66-2.63-0.4-3.56,0.04c-1.15,0.55-1.99,1.73-2.76,2.78
			c-0.72,0.99-1.56,2.63-1.59,3.87c-0.04,1.34,1.03,2.75,2.01,3.43L472.13,756.87z"/>
		<path class="st21" d="M872.44,743.53c1.93,0.76,3.84,1.56,5.73,2.39c0.61-0.54,1.54-0.44,2.26-0.92c0.93-0.62,1.76-1.91,2.12-2.99
			c0.54-1.63-0.29-2.97-1.04-4.22c-0.5-0.83-0.98-2.06-1.74-2.62c-0.89-0.66-2.63-0.4-3.56,0.04c-1.15,0.55-1.99,1.73-2.76,2.78
			c-0.72,0.99-1.56,2.63-1.6,3.87c-0.04,1.34,1.03,2.75,2.01,3.43L872.44,743.53z"/>
		<path class="st21" d="M399.7,380.73c-0.83,0.58-1.5,1.3-2.01,2.17c0.79,0.99,1.18,1.92,2.52,2.31c0.54,0.16,1.11,0.17,1.55-0.26
			c0.56-0.55,0.26-1.16,0.41-1.7c0.37-1.31,0.73-1.65-0.01-2.85c-0.45-0.72-0.76-1.01-1.54-1.01c-0.55,0-1.74,0.15-2.02,0.77
			L399.7,380.73z"/>
		<path class="st21" d="M404.08,411.29c-0.14,0.33-1.63,4.11,0.3,3.02c0.97-0.55,0.62-2.03-0.03-2.46c0.03-0.12,0.07-0.25,0.1-0.37
			L404.08,411.29z"/>
		<path class="st21" d="M374.46,597.77c-0.14,0.34-1.63,4.11,0.3,3.02c0.97-0.55,0.62-2.03-0.03-2.46c0.03-0.12,0.07-0.25,0.1-0.37
			L374.46,597.77z"/>
		<path class="st21" d="M471.68,436.39c-1.29,1.69-1.45,2.37-2.04,4.12c0.55,0.51,1.63,0.8,2.34,0.77c1.13-0.05,1.18-0.41,1.22-1.49
			c0.03-0.87,0.39-1.56,0.18-2.4c-0.22-0.86-1.07-1.74-2.07-1.19L471.68,436.39z"/>
		<path class="st21" d="M419.22,384.42c0.74,0.68,1.2,1.52,1.39,2.52c-1.03,0.26-1.15-0.75-1.3-1.55c-0.24-1.28,0.35-0.88,0.95-1.9
			c0.11,0.02,0.23,0.05,0.34,0.07L419.22,384.42z"/>
		<path class="st21" d="M409.12,344.12c-0.82,0.58-1.49,1.29-2.01,2.16c0.49,0.6,0.25,1.69,1.39,1.61c0.8-0.06,1.45-0.91,1.84-1.57
			c0.45-0.77,0.49-1.38,0.54-2.22c0.03-0.42,0.02-2.23-0.75-1.04L409.12,344.12z"/>
		<path class="st21" d="M539.76,323.22c0.25-0.93,0.4-2.22,0.88-3.06c0.14-0.24,0.49-0.45,0.66-0.7c0.57-0.82,0.39-0.96,1.33-0.98
			c1.06-0.03,1.75,0.08,2.59,0.75c2.87,2.29-4.42,4.06-4.69,1.84L539.76,323.22z"/>
		<path class="st21" d="M564.23,332.27c-0.37,1.66-1.43,3.9,0.1,5c1.32,0.95,4.09-0.54,5.14-1.5c1.87-1.7,4.13-4.92,2.35-7.29
			c-1.04-1.39-3.98-2.45-5.68-2.29c-3.48,0.33-4.49,4.48-4.97,7.8L564.23,332.27z"/>
		<path class="st21" d="M416.63,427.57c-0.37,1.66-1.43,3.9,0.1,5c1.32,0.95,4.09-0.54,5.14-1.49c1.87-1.7,4.13-4.92,2.35-7.29
			c-1.04-1.39-3.98-2.45-5.68-2.29c-3.48,0.33-4.49,4.48-4.97,7.8L416.63,427.57z"/>
		<path class="st21" d="M824.79,721.73c-0.37,1.66-1.43,3.9,0.1,5c1.32,0.95,4.09-0.54,5.14-1.5c1.87-1.7,4.13-4.92,2.35-7.29
			c-1.04-1.39-3.98-2.45-5.68-2.29c-3.48,0.33-4.49,4.48-4.97,7.8L824.79,721.73z"/>
		<path class="st21" d="M959.01,662.61c-0.37,1.66-1.43,3.9,0.1,5.01c1.32,0.95,4.09-0.54,5.14-1.5c1.86-1.7,4.13-4.92,2.35-7.29
			c-1.04-1.39-3.98-2.45-5.68-2.29c-3.48,0.33-4.49,4.48-4.97,7.8L959.01,662.61z"/>
		<path class="st21" d="M574.94,298.65c-0.37-2.84-0.89-5.65,1.64-7.15c1.38-0.81,3.9-1.1,5.2-0.13c0.94,0.7,1.76,2,2.35,2.97
			c0.87,1.44,0.64,1.44,0.19,2.76c-1.04,3.02-1.75,5.01-4.75,5.01c-3.97,0.01-4.58-3.08-4.63-6.91V298.65z"/>
		<path class="st21" d="M611.65,348.65c2.17-0.59,4.04-1.73,5.6-3.4c-1.56-0.97-4.98-2.98-5.6-0.05V348.65z"/>
		<path class="st21" d="M485.47,802.36c2.17-0.59,4.04-1.73,5.6-3.4c-1.56-0.97-4.98-2.98-5.6-0.05V802.36z"/>
		<path class="st21" d="M719.56,851.46c2.17-0.59,4.04-1.73,5.6-3.4c-1.56-0.97-4.98-2.98-5.6-0.05V851.46z"/>
		<path class="st21" d="M639.95,392.6c2.16-2.66,5.29-7.51,9.21-4.85c2.28,1.54,2.93,5.63,0.75,7.26c-2.02,1.51-3.87,1.94-6.15,2.56
			c-1.74,0.48-4.33-0.67-3.81-3.25V392.6z"/>
		<path class="st21" d="M432.75,684.8c2.16-2.66,5.29-7.51,9.21-4.85c2.28,1.55,2.93,5.64,0.75,7.26c-2.02,1.51-3.87,1.93-6.15,2.56
			c-1.74,0.48-4.33-0.67-3.81-3.25V684.8z"/>
		<path class="st21" d="M779.18,820.59c2.16-2.66,5.29-7.51,9.21-4.85c2.28,1.55,2.93,5.64,0.75,7.26
			c-2.02,1.51-3.87,1.93-6.15,2.56c-1.74,0.48-4.33-0.67-3.81-3.25V820.59z"/>
		<path class="st21" d="M488.34,455.86c2.16-2.66,5.29-7.51,9.21-4.85c2.28,1.55,2.93,5.64,0.75,7.26
			c-2.02,1.51-3.87,1.93-6.15,2.56c-1.74,0.48-4.33-0.67-3.81-3.25V455.86z"/>
		<path class="st21" d="M613.44,340.27c2.16-2.66,5.29-7.51,9.21-4.85c2.28,1.55,2.93,5.64,0.75,7.26
			c-2.02,1.51-3.87,1.94-6.15,2.56c-1.74,0.48-4.33-0.67-3.81-3.25V340.27z"/>
		<path class="st21" d="M924.37,483.01c2.16-2.66,5.29-7.51,9.21-4.85c2.28,1.55,2.93,5.64,0.75,7.26
			c-2.02,1.51-3.87,1.94-6.15,2.56c-1.74,0.48-4.33-0.67-3.81-3.25V483.01z"/>
		<path class="st21" d="M598.91,576.31c2.16-2.66,5.29-7.51,9.21-4.85c2.28,1.55,2.93,5.64,0.75,7.26
			c-2.02,1.51-3.87,1.94-6.15,2.56c-1.74,0.48-4.33-0.67-3.81-3.25V576.31z"/>
		<path class="st21" d="M453.73,310.67c-7.66,4.86-20.56,10.9-21.86,21.41c-0.79,6.35,2.14,10.08,7.87,12.83
			c4.88,2.34,12.2,2.55,17.1,0.07c7.02-3.54,15.13-9.39,18.28-16.85c2.28-5.39,1.9-9.09-0.63-14.43c-1.36-2.87-4.07-6.3-7.15-7.37
			c-9.79-3.4-15.68,6.21-22.92,10.55L453.73,310.67z"/>
		<path class="st21" d="M484.57,350.77c1.51,0.54,2.78,1.38,3.82,2.52c-1.5,0.51-3.12,1.7-4.66,1.15c-2-0.71-2.37-2.61-1.92-4.52
			c0.25-1.04,2.12-2.88,3.19-2.42c0.54,0.23,0.65,0.97,0.82,1.44c0.37,0.99,0.4,0.78-0.14,1.82H484.57z"/>
		<path class="st21" d="M961.16,581.15c1.51,0.53,2.78,1.38,3.82,2.52c-1.5,0.51-3.12,1.7-4.66,1.15c-2-0.71-2.37-2.61-1.92-4.52
			c0.25-1.04,2.12-2.88,3.19-2.42c0.54,0.23,0.65,0.97,0.82,1.44c0.37,0.99,0.4,0.78-0.14,1.82H961.16z"/>
		<path class="st21" d="M396.7,360.22c-4.21,3.69-8.18,8.11-10.42,13.4c-1.14,2.69,0.89,2.83,3.33,2.35
			c4.74-0.93,9.5-2.24,14.18-3.43c2.77-0.71,6.75-2.17,8.67-4.53c1.48-1.81,2.09-4.91,1.76-7.19c-0.46-3.17-2.71-4.41-5.59-5.21
			c-6.59-1.82-15.05,2.51-17.5,8.58L396.7,360.22z"/>
		<path class="st21" d="M413.86,388.06c2.38,0.07,4.59,0.64,6.63,1.72c-0.59,0.7-0.4,1.65-0.71,2.48c-0.46,1.22-1.62,2.45-2.71,3.15
			c-1.82,1.15-4.85,1.58-6.87,0.81c-6.14-2.33,3.28-9.61,5.35-7.03L413.86,388.06z"/>
		<path class="st21" d="M529.98,292.46c2.29-1.1,4.35-2.5,6.83-2.92c2.85-0.48,5.49-1.04,8.39-1.03c1.46,0.01,4.72-0.12,3.77,2.26
			c-1.03,2.58-6.58,5.03-8.78,6.07c-3.78,1.78-7.33,3.57-11.57,4.01c-2.14,0.22-5.73,0.38-6.94-1.76c-1.02-1.8-0.53-3.28,0.46-4.95
			c1.04-1.74,2.14-2.47,4.05-3.22c0.88-0.35,5.79-1.66,6.04-0.13L529.98,292.46z"/>
		<path class="st21" d="M491.86,293.58c-1.01,0.73-8.76,5.03-5.07,6.89c1.98,1,5.88,0.71,7.89-0.14c1.79-0.76,3.61-1.94,2.48-4
			c-2.27-4.16-7.97-1.76-10.91,0.05L491.86,293.58z"/>
		<path class="st21" d="M635.25,259.19c-1.75,1.27-15.19,8.73-8.8,11.96c3.44,1.74,10.2,1.23,13.69-0.25
			c3.11-1.32,6.25-3.36,4.3-6.94c-3.94-7.22-13.83-3.05-18.93,0.09L635.25,259.19z"/>
		<path class="st21" d="M384.78,589.88c0.57,3.19,1.23,6.67,4,8.78c2.87,2.19,6.13,1.3,8.95-0.36c2.09-1.23,4.07-2.55,6.11-3.81
			c1.19-0.73,2.24-0.92,2.29-2.62c0.06-1.83-1.63-4.29-2.68-5.67c-1.26-1.66-3.79-3.64-5.75-4.37c-4.28-1.6-12.45-0.01-12.36,5.82
			L384.78,589.88z"/>
		<path class="st21" d="M637.25,597.99c1.11,6.18,2.38,12.94,7.75,17.02c5.57,4.24,11.87,2.52,17.34-0.71
			c4.05-2.39,7.88-4.94,11.84-7.38c2.31-1.42,4.34-1.78,4.44-5.08c0.11-3.55-3.16-8.31-5.2-11c-2.43-3.21-7.35-7.06-11.15-8.47
			c-8.3-3.1-24.14-0.02-23.95,11.27L637.25,597.99z"/>
	</g>
	
		<linearGradient id="SVGID_00000009552640268690982770000000222403028172556454_" gradientUnits="userSpaceOnUse" x1="754.9494" y1="625.7879" x2="1069.1427" y2="362.1485">
		<stop  offset="0" style="stop-color:#FF3D00"/>
		<stop  offset="1" style="stop-color:#000000"/>
	</linearGradient>
	<path style="fill-rule:evenodd;clip-rule:evenodd;fill:url(#SVGID_00000009552640268690982770000000222403028172556454_);" d="
		M740.57,472.87c0,0,324.83-109.62,376.61-53.42c60.5,65.67-264.66,268.72-264.66,268.72s-67.72,4.62-112.25-92.52
		C727.1,566.93,714.72,507.22,740.57,472.87z"/>
	
		<linearGradient id="SVGID_00000169522137989344483240000009545308653068365486_" gradientUnits="userSpaceOnUse" x1="597.9482" y1="1106.212" x2="597.9482" y2="855.5896">
		<stop  offset="0" style="stop-color:#000000"/>
		<stop  offset="1" style="stop-color:#FF3D00"/>
	</linearGradient>
	<path style="fill-rule:evenodd;clip-rule:evenodd;fill:url(#SVGID_00000169522137989344483240000009545308653068365486_);" d="
		M455.36,865.98c0,0,55.07,234.07,142.44,240.11c87.36,6.04,142.74-215.55,142.74-215.55s-42.38-34.95-142.74-34.95
		S455.36,865.98,455.36,865.98z"/>
	
		<linearGradient id="SVGID_00000063631945403258665010000017514150453042919573_" gradientUnits="userSpaceOnUse" x1="245.3615" y1="513.3709" x2="416.3764" y2="498.4091">
		<stop  offset="0" style="stop-color:#000000"/>
		<stop  offset="1" style="stop-color:#FF3D00"/>
	</linearGradient>
	<path style="fill-rule:evenodd;clip-rule:evenodd;fill:url(#SVGID_00000063631945403258665010000017514150453042919573_);" d="
		M368.15,421.48c0,0-90.62-16.14-118.23,42.52c-32.77,69.63,73.63,128.64,73.63,128.64s55.43,0.23,82.42-49.41
		C432.96,493.58,401.58,421.7,368.15,421.48z"/>
	
		<linearGradient id="SVGID_00000121969898428490312880000002170146464602150072_" gradientUnits="userSpaceOnUse" x1="123.2742" y1="693.2322" x2="351.6375" y2="673.2531">
		<stop  offset="0" style="stop-color:#000000"/>
		<stop  offset="1" style="stop-color:#FF3D00"/>
	</linearGradient>
	<path style="fill-rule:evenodd;clip-rule:evenodd;fill:url(#SVGID_00000121969898428490312880000002170146464602150072_);" d="
		M284.47,628.89c0,0-159.19,55.3-159.19,86.76c0,39.48,198.27,12.44,198.27,12.44s23.61-16.99,27.97-45.25
		c4.35-28.26-29.8-57.86-40.1-58.73C301.11,623.25,289.6,625.73,284.47,628.89z"/>
	
		<linearGradient id="SVGID_00000146498900867490301370000012120484955846823043_" gradientUnits="userSpaceOnUse" x1="750.2003" y1="390.8092" x2="863.3648" y2="277.6447">
		<stop  offset="0" style="stop-color:#FF3D00"/>
		<stop  offset="1" style="stop-color:#000000"/>
	</linearGradient>
	<path style="fill-rule:evenodd;clip-rule:evenodd;fill:url(#SVGID_00000146498900867490301370000012120484955846823043_);" d="
		M684.7,303.56c0,0,66.45-64.38,148.32-44.37c81.87,20.01,31.8,169.74,31.8,169.74s-57.27-2.59-112.56-40.83
		C696.98,349.86,684.7,303.56,684.7,303.56z"/>
	
		<linearGradient id="SVGID_00000083772544506439388330000017760976697316393366_" gradientUnits="userSpaceOnUse" x1="968.9233" y1="953.6151" x2="857.7239" y2="794.8059">
		<stop  offset="0" style="stop-color:#000000"/>
		<stop  offset="1" style="stop-color:#FF3D00"/>
	</linearGradient>
	
		<path style="opacity:0.5;fill-rule:evenodd;clip-rule:evenodd;fill:url(#SVGID_00000083772544506439388330000017760976697316393366_);" d="
		M844.77,831.67c0,0,126.32,131.65,140.12,110.32c13.64-21.09-102.16-155.61-102.16-155.61S861.56,771.35,844.77,831.67z"/>
	<path class="st28" d="M796.14,300.73c-2.26,3.17-2.51,3.37-2.72,6.52c-0.11,1.67-0.5,4.44,0.13,6.03c1.07,2.71,5,5.14,7.87,4.8
		c2.39-0.28,5.25-2.01,7.48-3.03c2.83-1.29,4.25-3.39,5.45-6.14c1.21-2.76,0.48-4.57-0.68-7.28c-1.08-2.53-2.78-5.38-4.76-7.3
		c-2.32-2.25-5.37-3.5-8.23-1.61c-2.55,1.68-5.37,5.79-5.46,8.91L796.14,300.73z"/>
	<path class="st28" d="M247.08,693.88c-1.19,1.67-1.32,1.77-1.43,3.43c-0.06,0.88-0.26,2.34,0.07,3.18
		c0.56,1.43,2.63,2.71,4.15,2.53c1.26-0.15,2.77-1.06,3.94-1.59c1.49-0.68,2.24-1.79,2.87-3.23c0.64-1.45,0.25-2.41-0.36-3.83
		c-0.57-1.33-1.46-2.84-2.5-3.84c-1.22-1.19-2.83-1.84-4.33-0.85c-1.34,0.89-2.83,3.05-2.87,4.69L247.08,693.88z"/>
	<path class="st29" d="M820.7,338.94c2.29,0.66,4.17,1.85,5.66,3.57c-1.53,0.42-1.24,2.32-2.88,2.84c-1.89,0.6-2.97-1.45-4.6-0.95
		L820.7,338.94z"/>
	<path class="st28" d="M665.18,993.42c2.29,0.66,4.17,1.84,5.66,3.57c-1.53,0.42-1.24,2.32-2.88,2.84c-1.89,0.6-2.97-1.45-4.6-0.95
		L665.18,993.42z"/>
	<path class="st28" d="M866.18,264.35c-0.57,1.69-3.63,7.69-2.73,9.64c1.04,2.25,3.8,1.28,5.46,0.19c1.1-0.73,1.71-1.79,2.73-2.59
		c0.85-0.68,2.01-0.95,2.78-1.72c0.79-0.79,1.01-1.93,1.72-2.8c0.79-0.96,2.01-1.47,2.71-2.36c2.04-2.6,1.32-6.46-1.95-7.41
		c-5.88-1.71-8.18,3.16-11.62,7.07H866.18z"/>
	<path class="st28" d="M891.46,844.69c-0.57,1.7-3.63,7.69-2.73,9.64c1.05,2.25,3.8,1.28,5.46,0.19c1.1-0.73,1.71-1.79,2.73-2.59
		c0.85-0.68,2.01-0.95,2.78-1.72c0.79-0.79,1.02-1.93,1.72-2.8c0.79-0.96,2.01-1.47,2.71-2.36c2.04-2.6,1.32-6.46-1.95-7.42
		c-5.88-1.71-8.18,3.16-11.62,7.07H891.46z"/>
	<path class="st28" d="M567.01,886.97c-0.57,1.69-3.63,7.69-2.73,9.64c1.04,2.25,3.8,1.28,5.46,0.19c1.1-0.73,1.71-1.79,2.73-2.59
		c0.85-0.68,2.01-0.95,2.78-1.72c0.79-0.79,1.02-1.93,1.72-2.8c0.79-0.96,2.01-1.47,2.71-2.36c2.04-2.59,1.32-6.46-1.95-7.41
		c-5.88-1.71-8.19,3.16-11.62,7.07H567.01z"/>
	<path class="st28" d="M915.3,248.88c1.52-3.36,2.05-5.07,5.26-6.61c1.61-0.77,3.87-0.98,3.8,1.59c-0.03,1.18-1.94,3.71-2.68,4.58
		c-1.37,1.62-3.29,1.76-5.31,1.2c-0.05-0.25-0.1-0.5-0.15-0.75H915.3z"/>
	<path class="st28" d="M330.82,510.23c1.52-3.36,2.05-5.07,5.26-6.61c1.61-0.77,3.87-0.98,3.8,1.59c-0.03,1.18-1.94,3.71-2.68,4.58
		c-1.37,1.62-3.29,1.76-5.31,1.2c-0.05-0.25-0.1-0.5-0.16-0.75H330.82z"/>
	<path class="st28" d="M573.63,1048.5c1.21-2.66,1.62-4.02,4.17-5.24c1.27-0.61,3.06-0.77,3.01,1.26c-0.02,0.94-1.54,2.94-2.13,3.63
		c-1.09,1.28-2.6,1.4-4.21,0.95c-0.04-0.2-0.08-0.4-0.12-0.6H573.63z"/>
	<path class="st29" d="M883.6,537.01c-0.5-1.9-4.59,1.77-3.17,0.29c1.22-1.27,3.76-2.52,5.28-3.13c2.1-0.84,3.6-1.02,5.69-0.38
		c2.97,0.91,6.08,2.87,7.67,5.58c4.59,7.85-1.63,14.69-9.08,17.59c-6.95,2.71-16.65,1.37-18.26-7.16c-0.45-2.39,0.76-7.32,2.73-8.96
		C876.55,539.08,880.96,537.46,883.6,537.01L883.6,537.01z"/>
	<path class="st28" d="M317.86,687.22c-0.29-1.41-2.68,1.32-1.85,0.22c0.71-0.94,2.2-1.88,3.08-2.33c1.22-0.63,2.1-0.76,3.32-0.29
		c1.73,0.67,3.55,2.13,4.48,4.15c2.68,5.84-0.95,10.93-5.3,13.09c-4.06,2.01-9.72,1.02-10.66-5.33c-0.26-1.78,0.45-5.45,1.59-6.67
		C313.75,688.76,316.32,687.55,317.86,687.22L317.86,687.22z"/>
	<path class="st28" d="M351.84,559.63c0.63-0.79-1.91-0.86-0.94-0.9c0.83-0.03,1.99,0.35,2.64,0.63c0.88,0.38,1.35,0.8,1.64,1.67
		c0.41,1.24,0.43,2.87-0.25,4.27c-1.96,4.05-6.33,4.36-9.44,2.97c-2.9-1.29-4.88-4.8-1.87-8.14c0.84-0.94,3.14-2.19,4.31-2.11
		C349.17,558.09,350.97,558.94,351.84,559.63L351.84,559.63z"/>
	<path class="st29" d="M666.57,890.29c-0.11-1.63-4.03,0.7-2.63-0.27c1.2-0.84,3.48-1.45,4.81-1.7c1.85-0.35,3.1-0.25,4.7,0.6
		c2.27,1.22,4.5,3.32,5.35,5.78c2.48,7.14-3.7,11.72-10.24,12.88c-6.1,1.09-13.8-1.57-13.74-8.78c0.02-2.02,1.8-5.85,3.67-6.87
		C660.49,890.84,664.35,890.23,666.57,890.29L666.57,890.29z"/>
	<path class="st28" d="M295.65,457.11c-0.5-1.9-0.95-2.78,0.47-4.26c1.22-1.27,3.76-2.52,5.28-3.13c2.1-0.84,3.6-1.02,5.69-0.38
		c2.97,0.91,6.08,2.87,7.67,5.58c4.59,7.85-1.63,14.69-9.08,17.59c-6.95,2.71-16.65,1.37-18.26-7.16c-0.45-2.39,0.76-7.32,2.73-8.96
		c2.09-1.75,6.51-3.37,9.14-3.82L295.65,457.11z"/>
	<path class="st28" d="M957.14,500.85c-0.08,5.54,0.55,5.14,5.44,6.18c3.62,0.77,6.61-1.38,9.82-2.77c1.73-0.75,3.53-2.11,4.57-3.63
		c1.41-2.05,1.31-2.81-0.51-4.32c-1.22-1.02-2.78-2.32-4.39-2.65c-0.97-0.2-1.93-0.07-2.9-0.28c-0.62-0.13-1.09-0.61-1.96-0.75
		c-2.25-0.35-7.46,1.35-9.22,2.73c-1.51,1.18-3.06,4.53-2.67,6.41L957.14,500.85z"/>
	<path class="st28" d="M1014.28,526.04c-0.26-0.6-0.37-1.21-0.32-1.85c0.76-0.5,0.85-1.52,1.81-1.97c0.69-0.33,1.56-0.45,2.24-0.09
		c1.33,0.69,1.29,2.38,0.64,3.45c-0.48,0.79-0.93,2.12-1.84,2.61c-1.16,0.63-2.89-0.74-3.26-1.78L1014.28,526.04z"/>
	<path class="st28" d="M947.21,889.03c-0.26-0.6-0.37-1.21-0.32-1.85c0.76-0.5,0.85-1.52,1.81-1.97c0.69-0.33,1.56-0.45,2.24-0.09
		c1.33,0.69,1.29,2.38,0.64,3.45c-0.48,0.79-0.93,2.12-1.85,2.61c-1.16,0.63-2.89-0.74-3.26-1.78L947.21,889.03z"/>
	<path class="st28" d="M645.39,911.27c-0.26-0.6-0.37-1.21-0.32-1.85c0.76-0.5,0.85-1.52,1.81-1.97c0.69-0.33,1.56-0.45,2.24-0.09
		c1.33,0.69,1.29,2.38,0.64,3.45c-0.48,0.79-0.93,2.12-1.85,2.61c-1.16,0.63-2.89-0.74-3.26-1.78L645.39,911.27z"/>
	<path class="st28" d="M235.16,451.15c-0.26-0.6-0.37-1.21-0.32-1.85c0.76-0.5,0.85-1.52,1.81-1.97c0.69-0.33,1.56-0.45,2.24-0.09
		c1.33,0.69,1.29,2.38,0.64,3.45c-0.48,0.79-0.93,2.12-1.85,2.61c-1.16,0.63-2.89-0.74-3.26-1.78L235.16,451.15z"/>
	<path class="st28" d="M855.26,629.11c1.49-2.57,1.82-3.71,4.55-4.34c1.35-0.32,3.41-0.63,4.59,0.21c1.86,1.32,2.45,6.52,1.59,8.48
		c-1.25,2.84-5.15,2.38-7.29,1.36c-3.34-1.59-4.29-3.08-4.35-6.61L855.26,629.11z"/>
	<path class="st28" d="M1044.47,418.08c-0.5,0.62-0.72,1.31-0.66,2.06c1.64,1.09,6.65-0.06,6.32-2.57
		c-0.16-1.24-1.67-1.65-2.71-1.78c-2.14-0.27-3.23,1.62-4.32,3.2L1044.47,418.08z"/>
	<path class="st28" d="M754.18,499.81c-0.5,0.62-0.72,1.31-0.66,2.06c1.64,1.09,6.65-0.06,6.32-2.57c-0.16-1.24-1.67-1.65-2.71-1.78
		c-2.14-0.27-3.23,1.62-4.32,3.2L754.18,499.81z"/>
	<path class="st28" d="M198.25,492.5c-0.51,0.62-0.72,1.31-0.66,2.06c1.64,1.09,6.65-0.06,6.32-2.57c-0.16-1.24-1.67-1.65-2.71-1.78
		c-2.14-0.27-3.23,1.62-4.32,3.2L198.25,492.5z"/>
	<path class="st28" d="M183.24,688.12c-0.51,0.62-0.72,1.31-0.66,2.06c1.64,1.09,6.65-0.06,6.32-2.57
		c-0.16-1.24-1.67-1.65-2.71-1.78c-2.14-0.27-3.23,1.61-4.32,3.2L183.24,688.12z"/>
	<path class="st28" d="M566,1003.88c-1.16,4.59-2.15,7.19,1.42,10.4c2.37,2.13,6.57,3.54,9.8,3.34c5.2-0.32,13.86-4.49,12.04-11.08
		c-0.93-3.38-6.22-7.44-9.54-8.19c-6.81-1.54-13.58,3.92-13.71,10.99V1003.88z"/>
	
		<radialGradient id="SVGID_00000000217609022978239890000007677280414113365669_" cx="342.6747" cy="369.9874" r="472.5471" gradientUnits="userSpaceOnUse">
		<stop  offset="0" style="stop-color:#FFFFD9"/>
		<stop  offset="1" style="stop-color:#000000"/>
	</radialGradient>
	<path style="fill-rule:evenodd;clip-rule:evenodd;fill:url(#SVGID_00000000217609022978239890000007677280414113365669_);" d="
		M392.13,894.75c-37.11-31.07-67.88-69.56-89.99-113.15c-13.89-27.4-24.35-56.79-30.83-87.62c-0.06-0.06-0.06-0.19-0.06-0.31
		c-4.98-23.91-7.66-48.7-7.66-74.11c0-70.87,20.55-136.94,55.99-192.61c15.07-23.66,32.76-45.34,52.75-64.77
		c64.7-62.9,152.95-101.63,250.28-101.63c7.85,0,15.57,0.25,23.29,0.75c24.34,1.56,48,5.59,70.77,11.76
		c-28.06-9.19-57.67-15-88.34-16.97c-7.72-0.5-15.44-0.75-23.29-0.75c-97.34,0-185.58,38.74-250.28,101.63
		c-19.99,19.43-37.68,41.1-52.75,64.77c-35.43,55.67-55.99,121.75-55.99,192.61c0,25.41,2.68,50.19,7.66,74.11
		c0,0.12,0,0.25,0.06,0.31c6.48,30.83,16.94,60.22,30.83,87.62c22.11,43.59,52.87,82.08,89.99,113.15
		c39.33,33,85.78,57.64,136.71,71.4C467.21,946.57,426.89,923.91,392.13,894.75z"/>
</g>
</svg>
