<?xml version="1.0" encoding="utf-8"?>
<!-- Generator: Adobe Illustrator 26.4.1, SVG Export Plug-In . SVG Version: 6.00 Build 0)  -->
<svg version="1.1" id="Слой_1" xmlns="http://www.w3.org/2000/svg" xmlns:xlink="http://www.w3.org/1999/xlink" x="0px" y="0px"
	 viewBox="0 0 1200 1200" style="enable-background:new 0 0 1200 1200;" xml:space="preserve">
<style type="text/css">
	.st0{fill:#020202;}
	.st1{fill:url(#SVGID_1_);}
	.st2{fill:url(#SVGID_00000104674599383422048180000011437543287075001495_);}
	.st3{opacity:0.65;fill:#FFFFFF;}
	.st4{fill:#87000D;}
	.st5{fill:url(#SVGID_00000139291982837584243280000017444293480849837732_);}
	.st6{fill:#FCFE02;}
	.st7{fill:url(#SVGID_00000140723336095226709420000011317382708404034697_);}
	.st8{fill:url(#SVGID_00000157994464510184629500000010264995376331404197_);}
	.st9{fill:url(#SVGID_00000142150206975656576270000018176413002453326519_);}
	.st10{opacity:0.35;fill:url(#SVGID_00000078042303193772070340000007270589057896560565_);}
	.st11{opacity:0.5;fill:#FFF7F5;}
	.st12{opacity:0.5;fill:url(#SVGID_00000171722096919310652580000011006220942290797999_);}
	.st13{opacity:0.25;fill:url(#SVGID_00000156581020557608236020000001521794362175133365_);}
	.st14{opacity:0.5;fill:url(#SVGID_00000098194535684454189090000018441609385390391466_);}
	.st15{opacity:0.5;fill:url(#SVGID_00000017476691055341265250000010360716862671181207_);}
	.st16{opacity:0.5;fill:url(#SVGID_00000096040270390352408340000006978587860454957243_);}
</style>
<g>
	<rect x="0.5" y="0.5" class="st0" width="1202" height="1202"/>
	<path d="M1202,1v1201H1V1H1202 M1203,0H0v1203h1203V0L1203,0z"/>
</g>
<g>
	<g>
		
			<radialGradient id="SVGID_1_" cx="606.7033" cy="615.9105" r="499.0864" gradientTransform="matrix(0.9914 -0.1312 0.1312 0.9914 -67.7579 106.9155)" gradientUnits="userSpaceOnUse">
			<stop  offset="0" style="stop-color:#FF0003"/>
			<stop  offset="0.0849" style="stop-color:#F90003"/>
			<stop  offset="0.2038" style="stop-color:#E60003"/>
			<stop  offset="0.3429" style="stop-color:#C80002"/>
			<stop  offset="0.4971" style="stop-color:#9F0002"/>
			<stop  offset="0.6639" style="stop-color:#690001"/>
			<stop  offset="0.8384" style="stop-color:#290000"/>
			<stop  offset="0.9405" style="stop-color:#000000"/>
		</radialGradient>
		<circle class="st1" cx="614.54" cy="637.93" r="499.11"/>
		<g>
			
				<linearGradient id="SVGID_00000151543837551833246060000008767325082201896623_" gradientUnits="userSpaceOnUse" x1="220.3929" y1="497.0249" x2="943.5205" y2="724.0233" gradientTransform="matrix(0.9914 -0.1312 0.1312 0.9914 -67.7579 106.9155)">
				<stop  offset="0" style="stop-color:#FF5F06"/>
				<stop  offset="0.0217" style="stop-color:#FD5C0A"/>
				<stop  offset="0.3433" style="stop-color:#DE353C"/>
				<stop  offset="0.6242" style="stop-color:#C81861"/>
				<stop  offset="0.8508" style="stop-color:#BB0678"/>
				<stop  offset="0.9946" style="stop-color:#B60080"/>
			</linearGradient>
			<path style="fill:url(#SVGID_00000151543837551833246060000008767325082201896623_);" d="M987.11,590c0.4,3.02,0.74,6,1.08,8.97
				c0.89,7.99,1.5,15.96,1.82,23.87c0.11,1.22,0.16,2.5,0.21,3.72c1.08,30.95-1.62,61.29-7.71,90.51
				c-1.09,5.29-2.3,10.54-3.63,15.69c-36.96,145.83-159.44,261.6-317.63,282.54c-3.3,0.44-6.6,0.82-9.92,1.14
				c-1.82,0.19-3.64,0.37-5.47,0.5c-0.21,0.08-0.38,0.11-0.6,0.08c-61.01,5.56-120.19-3.83-173.76-25.26
				c-3.59-1.37-7.14-2.8-10.64-4.35c-32.93-14.26-63.57-33.2-90.96-55.91c-0.82-0.67-1.63-1.35-2.46-2.08
				c-3.39-2.79-6.62-5.67-9.86-8.54c-2.1-1.9-4.2-3.86-6.25-5.83c-3.48-3.3-6.86-6.69-10.19-10.12
				c-16.07-16.31-30.72-34.01-43.66-53.16c-2.01-2.92-3.91-5.86-5.81-8.85c-0.29-0.47-0.56-0.88-0.85-1.34
				c-2.69-4.29-5.33-8.58-7.87-13c-1.8-3.06-3.5-6.19-5.21-9.38c-0.89-1.62-1.72-3.3-2.55-4.92c-0.75-1.41-1.48-2.77-2.18-4.19
				c-9.48-18.77-17.45-38.46-23.7-59.05c-1.61-5.43-3.17-10.88-4.58-16.45c-1.71-6.54-3.25-13.16-4.59-19.86
				c-1.72-8.33-3.11-16.76-4.24-25.28c-9.2-69.48,1.09-137.06,26.52-197.19c4.01-9.42,8.33-18.61,13.07-27.62
				c0.27-0.48,0.48-1.01,0.75-1.5c9.13-17.2,19.44-33.56,31.03-49.08c2.46-3.4,5.03-6.76,7.67-10.08c0.87-1.07,1.68-2.12,2.55-3.13
				c7.88-9.77,16.22-19.04,25.05-27.92c56.98-57.54,132.75-97.33,219.27-108.78c10.17-1.35,20.28-2.29,30.34-2.79
				c1.11-0.04,2.17-0.12,3.29-0.1c24.34-1.15,48.4,0.14,71.9,3.62c4.28,0.61,8.51,1.33,12.7,2.12c23.61,4.31,46.58,10.89,68.58,19.5
				c1.12,0.41,2.18,0.83,3.25,1.3c0.91,0.35,1.78,0.76,2.68,1.12c3.71,1.55,7.43,3.02,11.12,4.66c2.91,1.29,5.83,2.64,8.76,4.04
				c4.84,2.32,9.63,4.71,14.39,7.27c26.52,14,51.28,31.19,73.76,51.03c2.85,2.53,5.71,5.12,8.47,7.77
				c14.62,13.72,28.17,28.6,40.51,44.53c0.07,0.1,0.2,0.25,0.27,0.36c6.8,8.86,13.11,18.08,19.1,27.54
				c-0.17-0.29-0.33-0.66-0.55-1.02c1.68,2.57,3.38,5.26,4.96,7.9c1.69,2.63,3.28,5.33,4.81,8.03c1.68,2.97,3.35,5.88,4.93,8.91
				c13.92,25.73,24.96,53.35,32.63,82.59C981.8,557.93,984.96,573.79,987.11,590z"/>
			<path class="st3" d="M987.11,590c0.4,3.02,0.74,6,1.08,8.97c0.89,7.99,1.5,15.96,1.82,23.87c0.11,1.22,0.16,2.5,0.21,3.72
				c1.08,30.95-1.62,61.29-7.71,90.51c-1.09,5.29-2.3,10.54-3.63,15.69c-36.96,145.83-159.44,261.6-317.63,282.54
				c-3.3,0.44-6.6,0.82-9.92,1.14c-1.82,0.19-3.64,0.37-5.47,0.5c-0.21,0.08-0.38,0.11-0.6,0.08
				c148.29-26.01,264.58-131.5,310.32-266.36c2.18-6.33,4.14-12.68,5.97-19.13c1.03-3.66,2.05-7.32,2.97-10.96
				c1.41-5.44,2.68-10.98,3.84-16.62c3.07-14.84,5.33-29.9,6.71-45.24c0.14-1.08,0.23-2.1,0.31-3.17c0.48-6.1,0.84-12.25,1.04-18.37
				c0.4-9.62,0.36-19.23,0.03-28.92c-0.34-9.74-1.02-19.5-2.08-29.26c-0.37-3.2-0.73-6.34-1.15-9.52c-1-7.53-2.21-14.98-3.63-22.34
				c-5.68-30.23-14.75-59.07-26.73-86.17c-1.37-3.17-2.8-6.34-4.28-9.5c-2.42-5.16-4.99-10.25-7.61-15.27
				c-0.22-0.36-0.38-0.73-0.59-1.1c1.68,2.57,3.38,5.26,4.96,7.9c1.69,2.63,3.28,5.33,4.81,8.03c1.68,2.97,3.35,5.88,4.93,8.91
				c13.92,25.73,24.96,53.35,32.63,82.59C981.8,557.93,984.96,573.79,987.11,590z"/>
			<path class="st4" d="M680.03,267.01c2.99,41.16-1.12,102.61-54.42,129.3c-77.15,38.68-241.73,103.48-318.35,17.76
				c2.46-3.4,5.03-6.76,7.67-10.08c0.87-1.07,1.68-2.12,2.55-3.13c3.48,3.51,8.28,5.95,14.73,6.94
				c51.53,7.77,198.98,13.81,238.85-29.77c39.87-43.59,67.24-58.18,35.05-92.23c-6.63-6.95-9.82-15.42-10.69-24.54
				c24.34-1.15,48.4,0.14,71.9,3.62C671.61,265.49,675.84,266.22,680.03,267.01z"/>
			<path class="st4" d="M788.79,304.9c0.86,7.38,1.9,17.76,2.21,30.19c1.67,63.71-15.06,180.69-162.69,213.37
				c-163.49,36.24-166.84,38.87-189.75,55.88c-22.92,17.02-82.17,2.49-112.5,16.29c-21.1,9.62-64.72,52.75-81.34,113.96
				c-1.71-6.54-3.25-13.16-4.59-19.86c-1.72-8.33-3.11-16.76-4.24-25.28c-9.2-69.48,1.09-137.06,26.52-197.19
				c1.81-3.65,3.63-7.25,5.51-10.8c-6.69,42.44-5.99,97.55,39.84,106.64c25.1,5.01,45.17,7.44,61.48,7.74
				c6.12,0.2,11.75,0.01,16.89-0.39c22.67-1.99,36.42-9.18,47.21-19.79c19.8-19.4,95.46-18.23,145.4-31.83
				c49.93-13.6,157.58-66.5,169.89-100.29c9.65-26.39,27.9-82.89,18.85-139.86c-0.5-3.35-1.11-6.73-1.84-10.1
				c2.91,1.29,5.83,2.64,8.76,4.04C779.25,299.96,784.04,302.34,788.79,304.9z"/>
			<path class="st4" d="M945.09,460.22c-18.75,5.39-44.18,27.05-72.7,90.5c-59.78,132.69-25.48,115.51-81.53,159.4
				C734.82,754,640.53,816.93,577.81,821.04c-52.95,3.49-213.05,1.14-280.33,30.74c-2.01-2.92-3.91-5.86-5.81-8.85
				c-4.94-7.74-9.62-15.62-13.93-23.71c14.66-7.59,35.74-13.12,66.06-13.44c91.28-0.84,193.32,5.28,248.16-16.02
				c54.79-21.29,200.39-89.62,219.54-146.85c18.87-56.47,79.02-133.56,57.43-278.47c15.21,13.48,29.46,28.2,42.45,43.93
				c0.07,0.1,0.2,0.25,0.27,0.36c10.4,13.5,19.95,27.73,28.51,42.59C941.85,454.27,943.52,457.18,945.09,460.22z"/>
			<path class="st4" d="M990.17,626.62c1.13,30.89-1.57,61.23-7.66,90.44c-1.09,5.29-2.3,10.54-3.63,15.69
				c-21.6,14.66-41.76,32.65-50.72,52.86c-23.68,53.47-80.36,132.28-201.93,153.97c-107.85,19.26-195.38-8.19-254.73,52.18
				c-3.59-1.37-7.14-2.8-10.64-4.35c-32.93-14.26-63.57-33.2-90.96-55.91c35.98,6.48,80.28,12.02,120.28,9.97
				c86.11-4.41,157.02-17.99,214.93-45.23c57.92-27.24,99.97-37,111.46-87.46c11.5-50.46,42.68-89.54,102.88-110.1
				C959.42,685.06,981.01,658.43,990.17,626.62z"/>
			
				<linearGradient id="SVGID_00000166645028232894730210000011292882499204493952_" gradientUnits="userSpaceOnUse" x1="313.853" y1="784.258" x2="990.6317" y2="784.258" gradientTransform="matrix(0.9914 -0.1312 0.1312 0.9914 -67.7579 106.9155)">
				<stop  offset="5.405410e-03" style="stop-color:#FFBB2F"/>
				<stop  offset="0.1013" style="stop-color:#FFC626"/>
				<stop  offset="0.3333" style="stop-color:#FFDD13"/>
				<stop  offset="0.4811" style="stop-color:#FFE50C"/>
				<stop  offset="0.5548" style="stop-color:#FFC00C"/>
				<stop  offset="0.6398" style="stop-color:#FF9C0C"/>
				<stop  offset="0.7256" style="stop-color:#FF800C"/>
				<stop  offset="0.8114" style="stop-color:#FF6C0C"/>
				<stop  offset="0.8974" style="stop-color:#FF600C"/>
				<stop  offset="0.9838" style="stop-color:#FF5C0C"/>
			</linearGradient>
			<path style="fill:url(#SVGID_00000166645028232894730210000011292882499204493952_);" d="M988.19,598.98
				c16.15,31.39,26.1,74.82-5.68,118.09c-25.05,15.68-49.99,35.98-60.24,59.09c-23.68,53.47-80.36,132.28-201.93,153.97
				c-110.75,19.75-200.11-9.69-259.48,57.28c-58.75,5.12-108.89-46.27-103.27-66.53c37.05,6.95,84.31,13.28,126.7,11.14
				c86.11-4.41,157.02-17.99,214.93-45.23c57.92-27.24,99.97-37,111.46-87.46c11.5-50.46,42.68-89.54,102.88-110.1
				C960.97,673.05,982.52,638.6,988.19,598.98z"/>
			<path class="st6" d="M362.8,928.59c37.05,6.95,84.31,13.28,126.7,11.14c86.11-4.41,157.02-17.99,214.93-45.23
				c57.92-27.24,99.97-37,111.46-87.46c11.5-50.46,42.68-89.54,102.88-110.1c46.39-15.83,67.99-49.18,74.2-87.72
				c-1.51-3.52-3.1-6.95-4.79-10.23c-5.66,39.62-27.22,74.07-74.63,90.25c-60.2,20.55-91.38,59.64-102.88,110.1
				c-11.5,50.46-53.55,60.22-111.46,87.46c-57.92,27.24-128.83,40.82-214.93,45.23c-42.39,2.14-89.65-4.18-126.7-11.14
				c-1.73,6.25,1.85,15.46,9.34,25.06C363.1,939.26,361.54,933.13,362.8,928.59z"/>
			
				<linearGradient id="SVGID_00000047050932427903241940000002893597331448798115_" gradientUnits="userSpaceOnUse" x1="245.511" y1="575.6923" x2="953.8792" y2="575.6923" gradientTransform="matrix(0.9914 -0.1312 0.1312 0.9914 -67.7579 106.9155)">
				<stop  offset="5.405410e-03" style="stop-color:#FFBB2F"/>
				<stop  offset="0.1013" style="stop-color:#FFC626"/>
				<stop  offset="0.3333" style="stop-color:#FFDD13"/>
				<stop  offset="0.4811" style="stop-color:#FFE50C"/>
				<stop  offset="0.5548" style="stop-color:#FFC00C"/>
				<stop  offset="0.6398" style="stop-color:#FF9C0C"/>
				<stop  offset="0.7256" style="stop-color:#FF800C"/>
				<stop  offset="0.8114" style="stop-color:#FF6C0C"/>
				<stop  offset="0.8974" style="stop-color:#FF600C"/>
				<stop  offset="0.9838" style="stop-color:#FF5C0C"/>
			</linearGradient>
			<path style="fill:url(#SVGID_00000047050932427903241940000002893597331448798115_);" d="M724.34,706.5
				c-1.91,2.44-4.02,4.73-6.3,6.93C720.33,711.28,722.43,708.94,724.34,706.5z M890.83,372.27c-6.99-5.06-14.18-9.09-22.16-13.23
				c-1.98-1.02-4.02-2.04-6.12-3.11c9.63,64.72,2.97,115.83-9,157.62c-7.28,25.29-16.46,47.2-25.19,66.59
				c-0.56,1.25-1.13,2.44-1.81,3.65c-12.52,23.75-39.13,36.89-65.89,32.05c-25.66-4.6-56.17-9.85-81.5-13.6
				c-18.65-2.73-34.45-4.67-43.43-4.88c-15.99-0.4-31.76,9.35-47.32,20.25c-19.04,13.37-37.78,28.49-56.19,28.86
				c-33.46,0.74-65.02,72.03-76.05,101.46c-6.73,18.01-28.51,33.08-44.37,42.12c-6.97,3.94-14.83,5.88-22.83,5.82
				c-16.29-0.08-32.57-0.16-48.55-0.01c-24.24,0.24-42.56,3.84-56.39,9.2c-4.26,1.63-7.44,5.07-8.85,9.22
				c-0.9,2.52-1.14,5.35-0.55,8.13c1.89,8.75,5.12,13.75,10.98,17.45c0.59,0.37,1.22,0.65,1.86,0.89c1.09,0.44,2.21,0.77,3.35,0.83
				c1.98,0.18,4.01-0.14,5.92-0.9c68.22-28.44,224.35-26.07,276.41-29.49c62.38-4.06,156.15-66.81,211.88-110.55
				c49.55-38.89,28.12-29.67,64.46-120.17c1.47-3.66,3.09-7.51,4.78-11.6c3.43-8.28,7.33-17.3,11.78-27.17
				c28.45-63.5,53.85-84.98,72.51-90.25c0.48-0.18,0.97-0.3,1.45-0.42C923.98,405.46,909.21,385.61,890.83,372.27z M472.83,732.7
				c0.06-0.85,0.18-1.59,0.31-2.33c1.1-6.91,4.32-13.83,8.54-20.43c0.79-1.22,1.58-2.45,2.42-3.68c0.99-1.42,1.98-2.78,3.03-4.15
				c0.71-0.99,1.42-1.92,2.19-2.86c0.33-0.44,0.62-0.81,0.95-1.25c9.02-11.32,18.83-21.28,22.63-28.44
				c7.48-14.02,32.49-8.05,53.27-20.08c18.54-10.79,43.95-25.39,62.34-39.46c2.24-1.69,4.36-3.43,6.37-5.09
				c0.9-0.79,2.22-1.41,3.84-1.8c5.94-1.62,16.07-1.12,28.68,0.73c6.22,0.97,13.05,2.24,20.18,3.76c0.41,0.11,0.81,0.23,1.21,0.29
				c9.63,2.19,17.89,6.3,24.71,11.77c0.8,0.57,1.49,1.14,2.13,1.73c1.78,1.61,3.51,3.28,5.15,5.08c0.52,0.55,1.04,1.09,1.46,1.71
				c0.66,0.75,1.27,1.57,1.87,2.32c0.67,0.81,1.22,1.63,1.72,2.46c0.67,0.81,1.17,1.69,1.62,2.53c0.56,0.82,1.07,1.7,1.51,2.54
				c0.56,0.88,1.02,1.77,1.36,2.67c0.82,1.57,1.53,3.1,2.14,4.75c0.27,0.8,0.6,1.6,0.87,2.34c0.26,0.69,0.52,1.39,0.68,2.15
				c0.54,1.55,0.92,3.12,1.24,4.7c0.3,0.97,0.48,1.95,0.61,2.94c1.41,7.7,1.4,15.64-0.15,23.34c-0.31,1.89-0.78,3.8-1.32,5.66
				c-0.81,2.79-1.84,5.56-3.05,8.23c-1.87,4.05-4.2,7.99-7.01,11.67c-1.91,2.44-4.02,4.73-6.3,6.93c-3.48,3.31-7.5,6.31-11.96,8.91
				c-44.4,25.84-92.34,47.29-118.88,57.63c-17.18,6.69-39.08,10.65-63.77,12.97c-1.11,0.09-2.21,0.18-3.33,0.16
				c-1.44,0.08-2.51,0.05-3.58-0.03c-1.13-0.07-2.26-0.15-3.39-0.28c-3.35-0.4-6.53-1.15-9.59-2.31c-1.99-0.63-3.88-1.44-5.75-2.43
				c-18.07-9.3-29.21-30.14-25.39-52.34c0.21-0.98,0.35-2,0.39-2.96C472.84,732.75,472.83,732.7,472.83,732.7z"/>
			<g>
				<path class="st6" d="M531.59,798.39c24.73-2.32,46.59-6.29,63.79-12.97c26.55-10.32,74.5-31.77,118.9-57.65
					c43.29-25.23,39.01-86.03-0.75-108.09c31.96,25.34,32.68,79.27-7.43,102.65c-44.4,25.88-92.35,47.33-118.9,57.65
					c-17.19,6.69-39.06,10.65-63.78,12.97c-9.45,0.89-18.22-1.07-25.8-5.01C506.67,795.42,518.5,799.62,531.59,798.39z"/>
				<path class="st6" d="M871.02,363.7c0.19,1.04,0.32,2.03,0.46,3.02c10.09,73.67-1.03,129.5-16.63,173.9
					c-5.28,15.07-11.11,28.88-16.75,41.59c-0.52,1.13-0.99,2.26-1.51,3.39c-1,2.2-2.06,4.3-3.3,6.31
					c-13.13,22.04-38.73,33.99-64.45,29.39c-25.15-4.5-55.03-9.66-80.02-13.4c-0.4-0.06-0.81-0.17-1.21-0.29
					c-7.14-1.52-13.96-2.79-20.13-3.77c-12.66-1.85-22.79-2.35-28.73-0.73c-8.82,0.94-17.61,4.68-26.28,9.74
					c-24.52,14.15-48.54,38.53-72.01,39.06c-18.29,0.41-36.03,21.88-50.17,46.07c-0.33,0.44-0.62,0.81-0.95,1.25
					c-0.77,0.94-1.49,1.87-2.19,2.86c-1.05,1.37-2.04,2.73-3.03,4.15c-0.84,1.23-1.63,2.45-2.42,3.68
					c-4.22,6.6-7.44,13.51-8.54,20.43c-0.13,0.74-0.24,1.54-0.31,2.28c-3.47,8.01-6.33,15.1-8.45,20.69
					c-6.78,18.07-28.55,33.14-44.42,42.12c-6.92,3.94-14.82,5.93-22.82,5.87c-16.29-0.08-32.57-0.16-48.55,0
					c-24.25,0.19-42.56,3.84-56.4,9.14c-2.76,1.09-5.04,2.91-6.7,5.19c-2.52,3.35-3.61,7.8-2.7,12.16c0.04,0.28,0.13,0.54,0.16,0.76
					c1.3,5.59,3.16,9.54,5.98,12.63c-1.16-0.29-2.27-0.71-3.31-1.35c-5.86-3.7-9.09-8.7-10.98-17.45c-0.59-2.77-0.35-5.6,0.55-8.13
					c1.41-4.16,4.59-7.6,8.85-9.22c13.83-5.35,32.15-8.95,56.39-9.2c15.97-0.16,32.26-0.08,48.55,0.01
					c8.01,0.06,15.86-1.88,22.83-5.82c15.86-9.03,37.64-24.11,44.37-42.12c11.04-29.43,42.6-100.72,76.05-101.46
					c18.41-0.37,37.16-15.49,56.19-28.86c15.56-10.9,31.33-20.65,47.32-20.25c8.98,0.21,24.78,2.14,43.43,4.88
					c25.33,3.75,55.83,9,81.5,13.6c26.76,4.85,53.38-8.3,65.89-32.05c0.68-1.21,1.25-2.4,1.81-3.65
					c8.73-19.39,17.91-41.3,25.19-66.59c11.97-41.8,18.63-92.9,9-157.62c2.1,1.06,4.13,2.08,6.12,3.11
					c7.99,4.14,15.18,8.17,21.92,13.04c-6.14-3.72-12.74-7.09-19.87-10.68C870.82,362.16,870.97,362.93,871.02,363.7z"/>
			</g>
			
				<linearGradient id="SVGID_00000117634483016624189830000004141371819015509643_" gradientUnits="userSpaceOnUse" x1="342.6874" y1="313.6862" x2="710.9166" y2="313.6862" gradientTransform="matrix(0.9914 -0.1312 0.1312 0.9914 -67.7579 106.9155)">
				<stop  offset="5.405410e-03" style="stop-color:#FFBB2F"/>
				<stop  offset="0.1013" style="stop-color:#FFC626"/>
				<stop  offset="0.3333" style="stop-color:#FFDD13"/>
				<stop  offset="0.4811" style="stop-color:#FFE50C"/>
				<stop  offset="0.5208" style="stop-color:#FFDF11"/>
				<stop  offset="0.6797" style="stop-color:#FFCB22"/>
				<stop  offset="0.8394" style="stop-color:#FFBF2C"/>
				<stop  offset="1" style="stop-color:#FFBB2F"/>
			</linearGradient>
			<path style="fill:url(#SVGID_00000117634483016624189830000004141371819015509643_);" d="M641.71,250.87
				c-9.98-1.47-14.88-2.34-27.61-3.45c-9.12-0.8-12.88,4.83-17.82,10.02c-2.84,2.98-4.99,6.57-6.04,10.55
				c-3.48,13.25-3.06,26.77,7.03,36.31c27.18,25.76,3.54,37.28-31.12,71.23c-34.66,33.95-160.87,31.09-204.93,25.73
				c-14.05-1.7-18.81-10.78-18.81-22.37c0.61-2.83,0.85-5.14,0.41-6.35c-2.07-5.71-23.19,7.66-25.69,17.78
				c-2.07,8.47,0.47,17.18,6.37,23.29c64.8,67.17,221.91,6.28,289.17-24.67c59.52-27.38,57.9-96.67,55.4-120.57
				c1.18-1.34,1.88-2.82,1.92-4.47C670.34,250.58,651.69,252.34,641.71,250.87z"/>
			<path class="st6" d="M319.18,385.99c2.05,8.98,7.99,15.53,20.33,17.03c49.74,6.04,192.24,9.28,231.36-29.05
				c39.13-38.33,65.82-51.34,35.13-80.42c-10.4-9.83-11.66-23.4-8.82-37.07c-0.3,0.32-0.59,0.64-0.89,0.96
				c-2.84,2.98-4.99,6.57-6.04,10.55c-3.48,13.25-3.06,26.77,7.03,36.31c27.18,25.76,3.54,37.28-31.12,71.23
				c-34.66,33.95-160.87,31.09-204.93,25.73c-14.05-1.7-18.81-10.78-18.81-22.37c0.61-2.83,0.85-5.14,0.41-6.35
				C341.05,367.62,325.15,376.86,319.18,385.99z"/>
			
				<linearGradient id="SVGID_00000114040632057952080470000014025672957457969809_" gradientUnits="userSpaceOnUse" x1="215.7697" y1="464.8478" x2="809.8301" y2="464.8478" gradientTransform="matrix(0.9914 -0.1312 0.1312 0.9914 -67.7579 106.9155)">
				<stop  offset="5.405410e-03" style="stop-color:#FFBB2F"/>
				<stop  offset="0.1013" style="stop-color:#FFC626"/>
				<stop  offset="0.3333" style="stop-color:#FFDD13"/>
				<stop  offset="0.4811" style="stop-color:#FFE50C"/>
				<stop  offset="0.5548" style="stop-color:#FFC00C"/>
				<stop  offset="0.6398" style="stop-color:#FF9C0C"/>
				<stop  offset="0.7256" style="stop-color:#FF800C"/>
				<stop  offset="0.8114" style="stop-color:#FF6C0C"/>
				<stop  offset="0.8974" style="stop-color:#FF600C"/>
				<stop  offset="0.9838" style="stop-color:#FF5C0C"/>
			</linearGradient>
			<path style="fill:url(#SVGID_00000114040632057952080470000014025672957457969809_);" d="M774.11,311.82
				c-0.59-6.58-0.36-11.14,0.3-14.19c-9.38-10.45-14.83-8.94-21.45-9.97c-0.4-0.06-0.78-0.01-1.1,0.15
				c-1.3,0.34-2.11,1.79-1.65,3.18c21.63,64.08,3.28,109.3-7.88,139.86c-1.44,3.94-3.96,8.07-7.43,12.28
				c-5.67,7.01-14.41,10.74-23.42,10.26c-25.41-1.39-66.37-4.08-81.83-7.62c-23.08-5.33-96.45,0.19-108.21,38.1
				c-11.76,37.91-85.22,32.25-110.78,39.83c-7,2.05-9.26,6.54-8.88,11.91c1.56,23.23-16.06,43.07-39.25,41.1
				c-13.23-1.1-28.52-3.38-46.44-6.94c-42.04-8.3-46.08-55.31-41.32-95.82c0.38-1.78,0.86-4.48,0.89-6.77
				c0.21-1.37,0.37-2.73,0.58-4.05c-0.27,0.48-0.48,1.01-0.75,1.5c-0.28-1.3-0.95-2.11-2.19-1.72c-4.75,1.3-30.97,40.68-38.57,62.66
				c-7.55,21.97-27.72,142.54,5.41,189.16c12.73-69.47,71.4-102.01,94.23-112.42c9.44-4.33,21.77-5.85,34.88-6.46
				c5.55-0.29,11.19-0.36,16.89-0.39c23.96-0.26,47.99,0.02,60.72-9.44c22.92-17.02,27.4-14.81,189.75-55.88
				c162.35-41.07,145.25-170.24,138.96-207.16C774.85,318.72,774.36,315.03,774.11,311.82z M421.6,538.36
				c1.19-5.36,9.86-7.51,14.15-8.86c17.53-5.29,36.23-6.03,54.14-9.29c27.3-5.01,59.55-14.88,66.81-34.01
				c7.25-19.14,43.63-29.55,60.3-30.35c0.11-0.01,0.27-0.04,0.39,0c31.18-1.05,40.65,42.16,12.02,54.45
				c-15.51,6.64-30.19,11.94-42.34,15.22c-25.48,6.95-52.01,8.45-78.11,11.96c-19.12,2.59-37.94,7.43-56.09,13.97
				c-7.74,2.81-14.65,8.04-22.55,3.32C424.97,551.61,420.17,544.87,421.6,538.36z"/>
			<g>
				<path class="st6" d="M432.22,564.03c8.07,4.86,15.12-0.5,23.06-3.39c18.54-6.75,37.75-11.71,57.3-14.35
					c26.66-3.61,53.78-5.11,79.83-12.24c12.42-3.4,27.43-8.86,43.23-15.67c22.72-9.8,21.88-38.8,5.52-50.87
					c9.34,13.46,7,34.74-11.78,42.78c-15.46,6.62-30.16,11.92-42.31,15.23c-25.5,6.94-52.03,8.43-78.11,11.96
					c-19.13,2.59-37.93,7.41-56.07,13.97c-7.77,2.81-14.68,8.01-22.57,3.31c-2.77-1.65-5.39-4.27-7.08-7.31
					C422.04,554.03,426.86,560.8,432.22,564.03z"/>
				<path class="st6" d="M271.55,468.91c1.29-0.36,1.96,0.46,2.26,1.83c0.27-0.52,0.51-1.05,0.78-1.57
					c-0.21,1.37-0.39,2.78-0.58,4.17c-0.05,2.37-0.52,5.14-0.9,7.01c-4.81,41.8-0.6,90.35,42.37,99.02
					c18.3,3.69,33.97,6.05,47.49,7.24c23.71,2.08,41.68-18.38,40.04-42.38c-0.38-5.58,1.95-10.19,9.08-12.32
					c7.77-2.32,19.89-3.42,33.38-4.86c12.03-2.6,24.43-3.77,36.61-5.58c20.28-4.76,37.9-13.25,43.19-30.55
					c11.97-39.14,86.96-44.74,110.56-39.19c15.79,3.71,57.67,6.55,83.66,8.02c9.18,0.52,18.14-3.36,23.93-10.56
					c3.51-4.37,6.1-8.63,7.56-12.7c11.35-31.54,30.03-78.23,7.89-144.43c-0.53-1.57,0.48-3.11,1.95-3.39
					c-2.65-0.56-5.16-0.6-7.84-1.03c-1.88-0.31-3.34,1.57-2.73,3.38c21.57,64.06,3.24,109.28-7.91,139.84
					c-1.44,3.94-3.98,8.07-7.42,12.3c-5.67,6.98-14.44,10.75-23.43,10.26c-25.43-1.39-66.39-4.08-81.83-7.65
					c-23.08-5.33-96.45,0.19-108.21,38.1c-11.76,37.91-85.22,32.25-110.78,39.83c-6.98,2.07-9.26,6.54-8.9,11.94
					c1.57,23.23-16.03,43.06-39.22,41.08c-13.23-1.13-28.55-3.39-46.45-6.94c-42.02-8.33-46.07-55.34-41.31-95.81
					c0.37-1.81,0.84-4.49,0.89-6.79c0.19-1.35,0.37-2.72,0.58-4.04c-0.26,0.5-0.5,1.02-0.76,1.52c-0.29-1.33-0.94-2.13-2.21-1.77
					c-4.72,1.32-30.97,40.69-38.54,62.66c-0.54,1.55-1.14,3.65-1.78,6.13C241.41,508.71,266.86,470.23,271.55,468.91z"/>
			</g>
			
				<linearGradient id="SVGID_00000115507240708275767800000017990519666388372665_" gradientUnits="userSpaceOnUse" x1="603.7388" y1="999.4942" x2="699.5015" y2="276.1433" gradientTransform="matrix(0.9914 -0.1312 0.1312 0.9914 -67.7579 106.9155)">
				<stop  offset="0" style="stop-color:#1C0067"/>
				<stop  offset="0.1024" style="stop-color:#1C007F"/>
				<stop  offset="0.2872" style="stop-color:#1C00A5"/>
				<stop  offset="0.4717" style="stop-color:#1C00C2"/>
				<stop  offset="0.6534" style="stop-color:#1C00D7"/>
				<stop  offset="0.831" style="stop-color:#1C00E4"/>
				<stop  offset="1" style="stop-color:#1C00E8"/>
			</linearGradient>
			<path style="opacity:0.35;fill:url(#SVGID_00000115507240708275767800000017990519666388372665_);" d="M987.11,590
				c0.4,3.02,0.74,6,1.08,8.97c0.89,7.99,1.5,15.96,1.82,23.87c0.11,1.22,0.16,2.5,0.21,3.72c1.08,30.95-1.62,61.29-7.71,90.51
				c-1.09,5.29-2.3,10.54-3.63,15.69c-36.96,145.83-159.44,261.6-317.63,282.54c-3.3,0.44-6.6,0.82-9.92,1.14
				c-1.82,0.19-3.64,0.37-5.47,0.5c-0.21,0.08-0.38,0.11-0.6,0.08c-61.01,5.56-120.19-3.83-173.76-25.26
				c-3.59-1.37-7.14-2.8-10.64-4.35c-32.93-14.26-63.57-33.2-90.96-55.91c-0.82-0.67-1.63-1.35-2.46-2.08
				c-3.39-2.79-6.62-5.67-9.86-8.54c-2.1-1.9-4.2-3.86-6.25-5.83c-6.2-5.89-12.16-12.04-17.91-18.27c0.88,0.33,1.72,0.72,2.6,1.05
				c58.23,23.28,123.08,32.36,189.75,23.54c158.19-20.94,280.67-136.71,317.63-282.54c1.33-5.15,2.54-10.4,3.63-15.69
				c1.44-6.9,2.7-13.84,3.67-20.84c1.2-7.43,2.05-14.92,2.73-22.45c0.36-3.63,0.6-7.29,0.84-10.96c0.55-9.36,0.76-18.78,0.57-28.26
				c0.02-0.67,0.04-1.4-0.06-2.12c0.03-1.91-0.01-3.86-0.1-5.8c-0.23-6.4-0.63-12.78-1.14-19.14c-0.26-2.82-0.53-5.69-0.85-8.5
				c-0.34-2.98-0.68-5.95-1.08-8.97c-6.21-46.94-20.74-90.77-42.05-130.06c-1.58-3.04-3.25-5.95-4.93-8.91
				c-4.29-7.49-8.84-14.82-13.65-22.02c-4.67-6.99-9.6-13.77-14.67-20.43c-0.07-0.1-0.2-0.25-0.27-0.36
				c-0.67-0.81-1.28-1.68-1.95-2.48c-2.15-2.73-4.36-5.46-6.61-8.13c-4.19-5.04-8.53-9.95-12.97-14.78
				c3.73,1.57,7.45,3.04,11.13,4.68c2.91,1.29,5.83,2.64,8.76,4.04c4.84,2.32,9.63,4.71,14.39,7.27
				c26.52,14,51.28,31.19,73.76,51.03c2.85,2.53,5.71,5.12,8.47,7.77c14.62,13.72,28.17,28.6,40.51,44.53
				c0.07,0.1,0.2,0.25,0.27,0.36c6.8,8.86,13.11,18.08,19.1,27.54c-0.17-0.29-0.33-0.66-0.55-1.02c1.68,2.57,3.38,5.26,4.96,7.9
				c1.69,2.63,3.28,5.33,4.81,8.03c1.68,2.97,3.35,5.88,4.93,8.91c13.92,25.73,24.96,53.35,32.63,82.59
				C981.8,557.93,984.96,573.79,987.11,590z"/>
			<path class="st11" d="M977.69,542.54c-2.58,1.63-5.34,3.17-8.12,4.6c-28.65,15.09-66.28,24.49-109.41,31.6
				c-2.18,0.4-4.43,0.75-6.73,1.11c-1.31,0.23-2.62,0.46-3.94,0.63c-3.72,0.6-7.56,1.17-11.4,1.73l-0.49,0.07
				c-3.62,0.54-7.3,1.02-11.04,1.52c-45.64,6.32-95.93,11.3-147.39,18.45c-3.9,0.52-7.8,1.09-11.7,1.61
				c-13,1.89-25.93,3.94-38.95,6.16c-5.36,0.93-10.72,1.87-16.07,2.85c-8.02,1.51-16.04,3.07-24.04,4.75
				c-28.46,5.95-56.7,13.21-84.07,22.32c-157.56,52.29-151.51,139.41-255.04,111.11c-1.61-5.43-3.17-10.88-4.58-16.45
				c-1.71-6.54-3.25-13.16-4.59-19.86c-33.13-46.62-12.96-167.19-5.41-189.16c7.6-21.98,33.82-61.36,38.57-62.66
				c1.24-0.39,1.9,0.42,2.19,1.72c0.27-0.48,0.48-1.01,0.75-1.5c9.13-17.2,19.44-33.56,31.03-49.08c2.46-3.4,5.03-6.76,7.67-10.08
				c0.87-1.07,1.68-2.12,2.55-3.13c7.88-9.77,16.22-19.04,25.05-27.92c56.98-57.54,132.75-97.33,219.27-108.78
				c10.17-1.35,20.28-2.29,30.34-2.79c1.11-0.04,2.17-0.12,3.29-0.1c24.34-1.15,48.4,0.14,71.9,3.62c4.28,0.61,8.51,1.33,12.7,2.12
				c23.61,4.31,46.58,10.89,68.58,19.5c1.12,0.41,2.18,0.83,3.25,1.3c0.32-0.15,0.7-0.2,1.1-0.15c6.62,1.02,12.07-0.48,21.45,9.97
				c4.84,2.32,9.63,4.71,14.39,7.27c26.52,14,51.28,31.19,73.76,51.03c2.1,1.06,4.13,2.08,6.12,3.11
				c7.99,4.14,15.18,8.17,21.92,13.04c18.63,13.53,33.39,33.39,49.55,78.96c1.68,2.97,3.35,5.88,4.93,8.91
				C958.98,485.67,970.02,513.29,977.69,542.54z"/>
		</g>
	</g>
	
		<radialGradient id="SVGID_00000112598721732844326150000016181794620296820660_" cx="304.73" cy="525.2953" r="112.8907" gradientTransform="matrix(0.9914 -0.1312 0.1312 0.9914 -67.7579 106.9155)" gradientUnits="userSpaceOnUse">
		<stop  offset="0" style="stop-color:#FFFFFF"/>
		<stop  offset="0.1185" style="stop-color:#E8E8E8"/>
		<stop  offset="0.3678" style="stop-color:#ACACAC"/>
		<stop  offset="0.7236" style="stop-color:#4E4E4E"/>
		<stop  offset="1" style="stop-color:#000000"/>
	</radialGradient>
	
		<circle style="opacity:0.5;fill:url(#SVGID_00000112598721732844326150000016181794620296820660_);" cx="303.27" cy="587.71" r="112.9"/>
	
		<radialGradient id="SVGID_00000108304493205167916400000012495820486505977476_" cx="430.3368" cy="522.6169" r="230.4798" gradientTransform="matrix(0.9914 -0.1312 0.1312 0.9914 -67.7579 106.9155)" gradientUnits="userSpaceOnUse">
		<stop  offset="0" style="stop-color:#FFFFFF"/>
		<stop  offset="0.2346" style="stop-color:#FDFDFD"/>
		<stop  offset="0.3712" style="stop-color:#F4F4F4"/>
		<stop  offset="0.4826" style="stop-color:#E6E6E6"/>
		<stop  offset="0.5806" style="stop-color:#D2D2D2"/>
		<stop  offset="0.6697" style="stop-color:#B8B8B8"/>
		<stop  offset="0.7524" style="stop-color:#989898"/>
		<stop  offset="0.8301" style="stop-color:#727272"/>
		<stop  offset="0.9039" style="stop-color:#464646"/>
		<stop  offset="0.9721" style="stop-color:#161616"/>
		<stop  offset="1" style="stop-color:#000000"/>
	</radialGradient>
	
		<circle style="opacity:0.25;fill:url(#SVGID_00000108304493205167916400000012495820486505977476_);" cx="427.45" cy="568.58" r="230.49"/>
	
		<radialGradient id="SVGID_00000156562640562712806140000003848746033305188229_" cx="713.6239" cy="610.7951" r="112.8907" gradientTransform="matrix(0.9914 -0.1312 0.1312 0.9914 -67.7579 106.9155)" gradientUnits="userSpaceOnUse">
		<stop  offset="0" style="stop-color:#FFFFFF"/>
		<stop  offset="0.1185" style="stop-color:#E8E8E8"/>
		<stop  offset="0.3678" style="stop-color:#ACACAC"/>
		<stop  offset="0.7236" style="stop-color:#4E4E4E"/>
		<stop  offset="1" style="stop-color:#000000"/>
	</radialGradient>
	
		<circle style="opacity:0.5;fill:url(#SVGID_00000156562640562712806140000003848746033305188229_);" cx="719.87" cy="618.83" r="112.9"/>
	
		<radialGradient id="SVGID_00000172439091246184921730000012723950767188310702_" cx="392.9397" cy="887.4127" r="57.6931" gradientTransform="matrix(0.9914 -0.1312 0.1312 0.9914 -67.7579 106.9155)" gradientUnits="userSpaceOnUse">
		<stop  offset="0" style="stop-color:#FFFFFF"/>
		<stop  offset="0.1185" style="stop-color:#E8E8E8"/>
		<stop  offset="0.3678" style="stop-color:#ACACAC"/>
		<stop  offset="0.7236" style="stop-color:#4E4E4E"/>
		<stop  offset="1" style="stop-color:#000000"/>
	</radialGradient>
	<path style="opacity:0.5;fill:url(#SVGID_00000172439091246184921730000012723950767188310702_);" d="M495.43,927.57
		c4.18,31.59-18.04,60.59-49.62,64.77c-31.59,4.18-60.59-18.04-64.77-49.62c-4.18-31.59,18.04-60.59,49.62-64.77
		C462.25,873.76,491.25,895.98,495.43,927.57z"/>
	
		<radialGradient id="SVGID_00000053516177975437081370000000777566969215061914_" cx="657.4852" cy="266.0476" r="83.4933" gradientTransform="matrix(0.9914 -0.1312 0.1312 0.9914 -67.7579 106.9155)" gradientUnits="userSpaceOnUse">
		<stop  offset="0" style="stop-color:#FFFFFF"/>
		<stop  offset="0.1185" style="stop-color:#E8E8E8"/>
		<stop  offset="0.3678" style="stop-color:#ACACAC"/>
		<stop  offset="0.7236" style="stop-color:#4E4E4E"/>
		<stop  offset="1" style="stop-color:#000000"/>
	</radialGradient>
	
		<circle style="opacity:0.5;fill:url(#SVGID_00000053516177975437081370000000777566969215061914_);" cx="618.98" cy="284.41" r="83.5"/>
</g>
</svg>
